<?xml version="1.0" encoding="utf-8"?>
<!-- Generator: Adobe Illustrator 24.1.1, SVG Export Plug-In . SVG Version: 6.00 Build 0)  -->
<svg version="1.1" id="Layer_1" xmlns="http://www.w3.org/2000/svg" xmlns:xlink="http://www.w3.org/1999/xlink" x="0px" y="0px"
	 viewBox="0 0 400 410" style="enable-background:new 0 0 400 410;" xml:space="preserve">
<style type="text/css">
	.st0{fill:#FFFFFF;}
	.st1{fill:url(#SVGID_1_);}
	.st2{font-family:'MyriadPro-Bold';}
	.st3{font-size:24.3731px;}
	.st4{font-size:14.3583px;}
	.st5{font-size:20.655px;}
	.st6{font-size:11.6436px;}
	.st7{fill:#D71A20;}
	.st8{font-size:39.229px;}
	.st9{font-size:20.7412px;}
	.st10{font-size:65.3172px;}
	.st11{font-size:16.2327px;}
</style>
<image style="overflow:visible;" width="1200" height="478" xlink:href="../../../Desktop/cc-back-2020-1-d.jpg"  transform="matrix(1 0 0 0.9885 -427 -90)">
</image>
<rect y="373" class="st0" width="400" height="37"/>
<linearGradient id="SVGID_1_" gradientUnits="userSpaceOnUse" x1="9.094947e-13" y1="185.5" x2="400" y2="185.5">
	<stop  offset="0.995" style="stop-color:#436B9C;stop-opacity:0.8"/>
	<stop  offset="0.9959" style="stop-color:#466D9E;stop-opacity:0.8382"/>
	<stop  offset="0.9967" style="stop-color:#5075A3;stop-opacity:0.8679"/>
	<stop  offset="0.9974" style="stop-color:#6082AB;stop-opacity:0.8947"/>
	<stop  offset="0.998" style="stop-color:#7894B8;stop-opacity:0.9198"/>
	<stop  offset="0.9986" style="stop-color:#96ACC8;stop-opacity:0.9437"/>
	<stop  offset="0.9992" style="stop-color:#BBC9DB;stop-opacity:0.9668"/>
	<stop  offset="0.9997" style="stop-color:#E6EBF2;stop-opacity:0.9887"/>
	<stop  offset="1" style="stop-color:#FFFFFF"/>
</linearGradient>
<rect x="0" y="-2" class="st1" width="400" height="375"/>
<text transform="matrix(1 0 0 1 19.0938 45.3608)" class="st0 st2 st3">P.C. RICHARD &amp; SON CREDIT CARD</text>
<text transform="matrix(1 0 0 1 18.0898 277.4912)"><tspan x="0" y="0" class="st0 st2 st4">New cards CANNOT be used TODAY </tspan><tspan x="0" y="17.23" class="st0 st2 st4">for in-store pickup purchases OR purchases </tspan><tspan x="0" y="34.46" class="st0 st2 st4">made in a P.C. Richard &amp; Son store.Your first </tspan><tspan x="0" y="51.69" class="st0 st2 st4">order must be delivered to the address on </tspan><tspan x="0" y="68.92" class="st0 st2 st4">your credit card application.</tspan></text>
<text transform="matrix(1 0 0 1 16.0986 248.5957)" class="st0 st2 st5">no annual fee!</text>
<text transform="matrix(1 0 0 1 150.293 237.7456)" class="st0 st2 st6">1</text>
<path class="st7" d="M-260,389c174.17-15.51,366.02-24.51,573-22c239.99,2.91,459.86,20.78,656,46c0,14.67,0,29.33,0,44
	c-166.58-42.04-393.44-81.21-663-76c-225.05,4.35-417.2,38.42-566,76C-260,434.33-260,411.67-260,389z"/>
<g>
	<text transform="matrix(1 0 0 1 14.4637 150.9133)" class="st0 st2 st8">Special Financing</text>
	<text transform="matrix(1 0 0 1 323.2049 140.4246)" class="st0 st2 st9">*</text>
	<text transform="matrix(1 0 0 1 15.5864 105.6709)" class="st0 st2 st10">24 Months</text>
</g>
<text transform="matrix(1 0 0 1 17.8101 173.9419)"><tspan x="0" y="0" class="st0 st2 st11">on all items priced $499 or more &amp; all Appliances</tspan><tspan x="0" y="23" class="st0 st2 st11">purchased totaling $499 or more!</tspan><tspan x="0" y="45.99" class="st0 st2 st11">Valid Thru 7/6/20</tspan></text>
</svg>
