<?xml version="1.0" encoding="utf-8"?>
<!-- Generator: Adobe Illustrator 24.1.1, SVG Export Plug-In . SVG Version: 6.00 Build 0)  -->
<svg version="1.0" id="Layer_1" xmlns="http://www.w3.org/2000/svg" xmlns:xlink="http://www.w3.org/1999/xlink" x="0px" y="0px"
	 viewBox="0 0 1200 469" style="enable-background:new 0 0 1200 469;" xml:space="preserve">
<style type="text/css">
	.st0{fill:#FFFFFF;}
	.st1{font-family:'MyriadPro-Bold';}
	.st2{font-size:36.5946px;}
	.st3{font-size:10.5843px;}
	.st4{font-size:18.5037px;}
	.st5{font-size:46.6829px;}
	.st6{font-size:77.0496px;}
	.st7{font-size:28.109px;}
	.st8{font-size:16.2327px;}
</style>
<image style="overflow:visible;" width="1200" height="469" xlink:href="152F9593.jpg" >
</image>
<text transform="matrix(1 0 0 1 46.999 44.585)" class="st0 st1 st2">P.C. RICHARD &amp; SON CREDIT CARD</text>
<g>
	<text transform="matrix(1 0 0 1 42.3981 298.2669)"><tspan x="0" y="0" class="st0 st1 st3">New  cards CANNOT be used TODAY for in-store pickup</tspan><tspan x="0" y="14.99" class="st0 st1 st3">purchases OR purchases made in a P.C. Richard &amp; Son store.</tspan><tspan x="0" y="29.99" class="st0 st1 st3">Your first order must be delivered to the address on your</tspan><tspan x="0" y="44.98" class="st0 st1 st3">credit card application.</tspan></text>
	<text transform="matrix(1 0 0 1 43.2799 275.7752)" class="st0 st1 st4">no annual fee!</text>
	<text transform="matrix(1 0 0 1 163.5408 268.834)" class="st0 st1 st3">1</text>
</g>
<g>
	<text transform="matrix(1 0 0 1 40.9463 175.1689)" class="st0 st1 st5">Special Financing</text>
	<text transform="matrix(1 0 0 1 40.2803 125.2207)" class="st0 st1 st6">24 Months</text>
	<text transform="matrix(1 0 0 1 408.5791 163.3701)" class="st0 st1 st7">*</text>
</g>
<text transform="matrix(1 0 0 1 42.7518 202.9856)"><tspan x="0" y="0" class="st0 st1 st8">on all items priced $499 or more &amp; all Appliances</tspan><tspan x="0" y="23" class="st0 st1 st8">purchased totaling $499 or more!</tspan><tspan x="0" y="45.99" class="st0 st1 st8">Valid Thru 7/6/20</tspan></text>
</svg>
