
<svg version="1.1" id="Layer_1" xmlns="http://www.w3.org/2000/svg" xmlns:xlink="http://www.w3.org/1999/xlink" x="0px" y="0px"
	 viewBox="0 0 400 410" style="enable-background:new 0 0 400 410;" xml:space="preserve">
<style type="text/css">
	.st0{fill:#FFFFFF;}
	.st1{fill:url(#SVGID_1_);}
	.st2{fill:#D71A20;}
</style>
<image style="overflow:visible;" width="1200" height="478" xlink:href="/images/promos/cc-back-2020-1-d.jpg"  transform="matrix(1 0 0 0.9885 -427 -90)">
</image>
<rect y="373" class="st0" width="400" height="37"/>
<linearGradient id="SVGID_1_" gradientUnits="userSpaceOnUse" x1="9.094947e-13" y1="185.5" x2="400" y2="185.5">
	<stop  offset="0.995" style="stop-color:#436B9C;stop-opacity:0.8"/>
	<stop  offset="0.9959" style="stop-color:#466D9E;stop-opacity:0.8382"/>
	<stop  offset="0.9967" style="stop-color:#5075A3;stop-opacity:0.8679"/>
	<stop  offset="0.9974" style="stop-color:#6082AB;stop-opacity:0.8947"/>
	<stop  offset="0.998" style="stop-color:#7894B8;stop-opacity:0.9198"/>
	<stop  offset="0.9986" style="stop-color:#96ACC8;stop-opacity:0.9437"/>
	<stop  offset="0.9992" style="stop-color:#BBC9DB;stop-opacity:0.9668"/>
	<stop  offset="0.9997" style="stop-color:#E6EBF2;stop-opacity:0.9887"/>
	<stop  offset="1" style="stop-color:#FFFFFF"/>
</linearGradient>
<rect x="0" y="-2" class="st1" width="400" height="375"/>
<g>
	<path class="st0" d="M20.7,29.16c1.15-0.19,2.75-0.34,5.02-0.34c2.29,0,3.92,0.44,5.02,1.32c1.05,0.83,1.75,2.19,1.75,3.8
		s-0.54,2.97-1.51,3.9c-1.27,1.19-3.14,1.73-5.34,1.73c-0.49,0-0.93-0.02-1.27-0.07v5.87H20.7V29.16z M24.38,36.61
		c0.32,0.07,0.71,0.1,1.24,0.1c1.97,0,3.19-1,3.19-2.68c0-1.51-1.05-2.41-2.9-2.41c-0.76,0-1.27,0.07-1.54,0.15V36.61z"/>
	<path class="st0" d="M30.96,43.39c0-1.32,0.9-2.27,2.19-2.27s2.17,0.93,2.17,2.27c0,1.29-0.88,2.24-2.19,2.24
		C31.86,45.63,30.96,44.68,30.96,43.39z"/>
	<path class="st0" d="M49.75,44.9c-0.68,0.34-2.22,0.71-4.22,0.71c-5.68,0-8.6-3.53-8.6-8.21c0-5.6,4-8.72,8.97-8.72
		c1.93,0,3.39,0.39,4.05,0.73l-0.76,2.95c-0.76-0.32-1.8-0.61-3.12-0.61c-2.95,0-5.24,1.78-5.24,5.43c0,3.29,1.95,5.36,5.26,5.36
		c1.12,0,2.36-0.24,3.1-0.54L49.75,44.9z"/>
	<path class="st0" d="M51.8,43.39c0-1.32,0.9-2.27,2.19-2.27s2.17,0.93,2.17,2.27c0,1.29-0.88,2.24-2.19,2.24
		C52.7,45.63,51.8,44.68,51.8,43.39z"/>
	<path class="st0" d="M63.45,29.16c1.19-0.19,2.97-0.34,4.95-0.34c2.44,0,4.14,0.37,5.31,1.29c0.98,0.78,1.51,1.92,1.51,3.44
		c0,2.1-1.49,3.53-2.9,4.05v0.07c1.15,0.46,1.78,1.56,2.19,3.07c0.51,1.85,1.02,4,1.34,4.63h-3.8c-0.27-0.46-0.66-1.8-1.15-3.83
		c-0.44-2.05-1.15-2.61-2.66-2.63h-1.12v6.46h-3.68V29.16z M67.13,36.22h1.46c1.85,0,2.95-0.93,2.95-2.36
		c0-1.51-1.02-2.27-2.73-2.29c-0.9,0-1.41,0.07-1.68,0.12V36.22z"/>
	<path class="st0" d="M81.63,28.94v16.42H77.9V28.94H81.63z"/>
	<path class="st0" d="M96.91,44.9c-0.68,0.34-2.22,0.71-4.22,0.71c-5.68,0-8.6-3.53-8.6-8.21c0-5.6,4-8.72,8.97-8.72
		c1.93,0,3.39,0.39,4.05,0.73l-0.76,2.95c-0.76-0.32-1.8-0.61-3.12-0.61c-2.95,0-5.24,1.78-5.24,5.43c0,3.29,1.95,5.36,5.26,5.36
		c1.12,0,2.36-0.24,3.1-0.54L96.91,44.9z"/>
	<path class="st0" d="M103.08,28.94v6.31h6.12v-6.31h3.7v16.42h-3.7v-6.87h-6.12v6.87h-3.73V28.94H103.08z"/>
	<path class="st0" d="M119.97,41.15l-1.17,4.22h-3.85l5.02-16.42h4.87l5.09,16.42h-4l-1.27-4.22H119.97z M124.14,38.37l-1.02-3.48
		c-0.29-0.97-0.58-2.19-0.83-3.17h-0.05c-0.24,0.97-0.49,2.22-0.76,3.17l-0.97,3.48H124.14z"/>
	<path class="st0" d="M132.13,29.16c1.19-0.19,2.97-0.34,4.95-0.34c2.44,0,4.14,0.37,5.31,1.29c0.98,0.78,1.51,1.92,1.51,3.44
		c0,2.1-1.49,3.53-2.9,4.05v0.07c1.15,0.46,1.78,1.56,2.19,3.07c0.51,1.85,1.02,4,1.34,4.63h-3.8c-0.27-0.46-0.66-1.8-1.15-3.83
		c-0.44-2.05-1.15-2.61-2.66-2.63h-1.12v6.46h-3.68V29.16z M135.81,36.22h1.46c1.85,0,2.95-0.93,2.95-2.36
		c0-1.51-1.02-2.27-2.73-2.29c-0.9,0-1.41,0.07-1.68,0.12V36.22z"/>
	<path class="st0" d="M146.59,29.16c1.36-0.22,3.14-0.34,5.02-0.34c3.12,0,5.14,0.56,6.73,1.75c1.71,1.27,2.78,3.29,2.78,6.19
		c0,3.14-1.15,5.31-2.73,6.65c-1.73,1.44-4.36,2.12-7.58,2.12c-1.93,0-3.29-0.12-4.22-0.24V29.16z M150.31,42.56
		c0.32,0.07,0.83,0.07,1.29,0.07c3.36,0.02,5.56-1.83,5.56-5.75c0.02-3.41-1.97-5.21-5.17-5.21c-0.83,0-1.36,0.07-1.68,0.15V42.56z"
		/>
	<path class="st0" d="M178.93,45.36c-0.34-0.37-0.68-0.73-1.07-1.17c-1.07,0.83-2.56,1.44-4.51,1.44c-3.97,0-5.73-2.36-5.73-4.65
		c0-2.17,1.24-3.73,3.12-4.7v-0.1c-0.71-0.78-1.24-2-1.24-3.17c0-2.07,1.63-4.34,4.92-4.34c2.53,0,4.46,1.49,4.46,3.85
		c0,1.66-0.97,3.07-3.24,4.22l-0.02,0.1c0.95,1.05,1.95,2.24,2.75,3.07c0.66-1.02,1.17-2.53,1.39-4h3.31
		c-0.44,2.49-1.27,4.61-2.73,6.24c0.93,1.05,1.88,2.12,2.9,3.22H178.93z M176.13,42.12c-1.02-1.02-2.36-2.51-3.7-4.02
		c-0.68,0.49-1.29,1.19-1.29,2.27c0,1.39,1.05,2.58,2.73,2.58C174.83,42.95,175.64,42.58,176.13,42.12z M172.81,32.67
		c0,0.83,0.39,1.56,1.12,2.36c1.19-0.83,1.8-1.46,1.8-2.41c0-0.78-0.46-1.63-1.44-1.63C173.35,30.98,172.81,31.81,172.81,32.67z"/>
	<path class="st0" d="M190.04,41.54c1,0.51,2.53,1.02,4.12,1.02c1.71,0,2.61-0.71,2.61-1.78c0-1.02-0.78-1.61-2.75-2.31
		c-2.73-0.95-4.51-2.46-4.51-4.85c0-2.8,2.34-4.95,6.21-4.95c1.85,0,3.22,0.39,4.19,0.83l-0.83,3c-0.66-0.32-1.83-0.78-3.44-0.78
		s-2.39,0.73-2.39,1.58c0,1.05,0.93,1.51,3.05,2.31c2.9,1.07,4.26,2.58,4.26,4.9c0,2.75-2.12,5.09-6.63,5.09
		c-1.88,0-3.73-0.49-4.65-1L190.04,41.54z"/>
	<path class="st0" d="M218.12,36.98c0,5.39-3.27,8.65-8.07,8.65c-4.87,0-7.73-3.68-7.73-8.36c0-4.92,3.14-8.6,7.99-8.6
		C215.36,28.67,218.12,32.45,218.12,36.98z M206.25,37.2c0,3.22,1.51,5.48,4,5.48c2.51,0,3.95-2.39,3.95-5.58
		c0-2.95-1.41-5.48-3.97-5.48C207.71,31.62,206.25,34.01,206.25,37.2z"/>
	<path class="st0" d="M220.56,45.36V28.94h4.34l3.41,6.02c0.97,1.73,1.95,3.78,2.68,5.63h0.07c-0.24-2.17-0.32-4.39-0.32-6.85v-4.8
		h3.41v16.42h-3.9l-3.51-6.34c-0.97-1.75-2.05-3.87-2.85-5.8l-0.07,0.02c0.1,2.17,0.15,4.48,0.15,7.16v4.95H220.56z"/>
	<path class="st0" d="M254.36,44.9c-0.68,0.34-2.22,0.71-4.22,0.71c-5.68,0-8.6-3.53-8.6-8.21c0-5.6,4-8.72,8.97-8.72
		c1.92,0,3.39,0.39,4.04,0.73l-0.75,2.95c-0.76-0.32-1.8-0.61-3.12-0.61c-2.95,0-5.24,1.78-5.24,5.43c0,3.29,1.95,5.36,5.26,5.36
		c1.12,0,2.36-0.24,3.09-0.54L254.36,44.9z"/>
	<path class="st0" d="M256.8,29.16c1.19-0.19,2.97-0.34,4.95-0.34c2.44,0,4.14,0.37,5.31,1.29c0.97,0.78,1.51,1.92,1.51,3.44
		c0,2.1-1.49,3.53-2.9,4.05v0.07c1.15,0.46,1.78,1.56,2.19,3.07c0.51,1.85,1.02,4,1.34,4.63h-3.8c-0.27-0.46-0.66-1.8-1.14-3.83
		c-0.44-2.05-1.15-2.61-2.66-2.63h-1.12v6.46h-3.68V29.16z M260.48,36.22h1.46c1.85,0,2.95-0.93,2.95-2.36
		c0-1.51-1.02-2.27-2.73-2.29c-0.9,0-1.41,0.07-1.68,0.12V36.22z"/>
	<path class="st0" d="M281.03,38.42h-6.04v3.9h6.75v3.05h-10.48V28.94h10.14v3.05h-6.41v3.41h6.04V38.42z"/>
	<path class="st0" d="M284.27,29.16c1.36-0.22,3.14-0.34,5.02-0.34c3.12,0,5.14,0.56,6.73,1.75c1.71,1.27,2.78,3.29,2.78,6.19
		c0,3.14-1.15,5.31-2.73,6.65c-1.73,1.44-4.36,2.12-7.58,2.12c-1.93,0-3.29-0.12-4.22-0.24V29.16z M288,42.56
		c0.32,0.07,0.83,0.07,1.29,0.07c3.36,0.02,5.56-1.83,5.56-5.75c0.02-3.41-1.97-5.21-5.17-5.21c-0.83,0-1.36,0.07-1.68,0.15V42.56z"
		/>
	<path class="st0" d="M304.96,28.94v16.42h-3.73V28.94H304.96z"/>
	<path class="st0" d="M311.35,32.06h-4.41v-3.12h12.62v3.12h-4.48v13.31h-3.73V32.06z"/>
	<path class="st0" d="M338.52,44.9c-0.68,0.34-2.22,0.71-4.22,0.71c-5.68,0-8.6-3.53-8.6-8.21c0-5.6,4-8.72,8.97-8.72
		c1.92,0,3.39,0.39,4.04,0.73l-0.75,2.95c-0.76-0.32-1.8-0.61-3.12-0.61c-2.95,0-5.24,1.78-5.24,5.43c0,3.29,1.95,5.36,5.26,5.36
		c1.12,0,2.36-0.24,3.09-0.54L338.52,44.9z"/>
	<path class="st0" d="M345.03,41.15l-1.17,4.22h-3.85l5.02-16.42h4.87L355,45.36h-4l-1.27-4.22H345.03z M349.2,38.37l-1.02-3.48
		c-0.29-0.97-0.58-2.19-0.83-3.17h-0.05c-0.24,0.97-0.49,2.22-0.75,3.17l-0.97,3.48H349.2z"/>
	<path class="st0" d="M357.19,29.16c1.19-0.19,2.97-0.34,4.95-0.34c2.44,0,4.14,0.37,5.31,1.29c0.97,0.78,1.51,1.92,1.51,3.44
		c0,2.1-1.49,3.53-2.9,4.05v0.07c1.15,0.46,1.78,1.56,2.19,3.07c0.51,1.85,1.02,4,1.34,4.63h-3.8c-0.27-0.46-0.66-1.8-1.14-3.83
		c-0.44-2.05-1.15-2.61-2.66-2.63h-1.12v6.46h-3.68V29.16z M360.87,36.22h1.46c1.85,0,2.95-0.93,2.95-2.36
		c0-1.51-1.02-2.27-2.73-2.29c-0.9,0-1.41,0.07-1.68,0.12V36.22z"/>
	<path class="st0" d="M371.64,29.16c1.36-0.22,3.14-0.34,5.02-0.34c3.12,0,5.14,0.56,6.73,1.75c1.71,1.27,2.78,3.29,2.78,6.19
		c0,3.14-1.15,5.31-2.73,6.65c-1.73,1.44-4.36,2.12-7.58,2.12c-1.92,0-3.29-0.12-4.22-0.24V29.16z M375.37,42.56
		c0.32,0.07,0.83,0.07,1.29,0.07c3.36,0.02,5.56-1.83,5.56-5.75c0.02-3.41-1.97-5.21-5.17-5.21c-0.83,0-1.37,0.07-1.68,0.15V42.56z"
		/>
</g>
<g>
	<path class="st0" d="M19.04,277.49v-9.68h2.56l2.01,3.55c0.57,1.02,1.15,2.23,1.58,3.32h0.04c-0.14-1.28-0.19-2.58-0.19-4.03v-2.83
		h2.01v9.68h-2.3l-2.07-3.73c-0.57-1.03-1.21-2.28-1.68-3.42l-0.04,0.01c0.06,1.28,0.09,2.64,0.09,4.22v2.92H19.04z"/>
	<path class="st0" d="M30.51,274.68c0.07,0.9,0.96,1.34,1.98,1.34c0.75,0,1.35-0.1,1.94-0.29l0.29,1.48
		c-0.72,0.29-1.59,0.43-2.54,0.43c-2.38,0-3.75-1.38-3.75-3.58c0-1.78,1.11-3.75,3.55-3.75c2.27,0,3.13,1.77,3.13,3.5
		c0,0.37-0.04,0.7-0.07,0.86H30.51z M33.08,273.18c0-0.53-0.23-1.42-1.23-1.42c-0.92,0-1.29,0.83-1.35,1.42H33.08z"/>
	<path class="st0" d="M37.83,270.47l0.56,2.87c0.14,0.73,0.29,1.51,0.4,2.31h0.03c0.14-0.8,0.34-1.61,0.52-2.3l0.75-2.89h1.72
		l0.7,2.8c0.19,0.79,0.37,1.58,0.52,2.38h0.03c0.1-0.8,0.24-1.59,0.4-2.4l0.6-2.79h2.14l-2.15,7.02H42l-0.66-2.47
		c-0.17-0.69-0.3-1.32-0.45-2.18h-0.03c-0.13,0.88-0.27,1.52-0.46,2.18l-0.7,2.47h-2.05l-2.04-7.02H37.83z"/>
	<path class="st0" d="M55.39,277.32c-0.39,0.17-1.12,0.32-1.95,0.32c-2.27,0-3.72-1.38-3.72-3.59c0-2.05,1.41-3.73,4.02-3.73
		c0.57,0,1.21,0.1,1.67,0.27l-0.34,1.62c-0.26-0.11-0.65-0.21-1.22-0.21c-1.15,0-1.9,0.82-1.88,1.97c0,1.29,0.86,1.97,1.92,1.97
		c0.52,0,0.92-0.09,1.25-0.21L55.39,277.32z"/>
	<path class="st0" d="M60.65,277.49l-0.13-0.7h-0.04c-0.46,0.56-1.18,0.86-2.01,0.86c-1.42,0-2.27-1.03-2.27-2.15
		c0-1.82,1.64-2.7,4.12-2.68v-0.1c0-0.37-0.2-0.9-1.28-0.9c-0.72,0-1.48,0.24-1.94,0.53l-0.4-1.41c0.49-0.27,1.45-0.62,2.73-0.62
		c2.34,0,3.09,1.38,3.09,3.03v2.44c0,0.67,0.03,1.32,0.1,1.71H60.65z M60.39,274.17c-1.15-0.01-2.04,0.26-2.04,1.11
		c0,0.56,0.37,0.83,0.86,0.83c0.55,0,0.99-0.36,1.13-0.8c0.03-0.12,0.04-0.24,0.04-0.37V274.17z"/>
	<path class="st0" d="M64.24,272.78c0-1.03-0.03-1.71-0.06-2.31h1.88l0.07,1.29h0.06c0.36-1.02,1.22-1.45,1.9-1.45
		c0.2,0,0.3,0,0.46,0.03v2.05c-0.16-0.03-0.34-0.06-0.59-0.06c-0.8,0-1.35,0.43-1.49,1.11c-0.03,0.14-0.04,0.32-0.04,0.49v3.56
		h-2.18V272.78z"/>
	<path class="st0" d="M76.38,267.3v8.1c0,0.79,0.03,1.62,0.06,2.1H74.5l-0.1-1.03h-0.03c-0.44,0.79-1.29,1.19-2.2,1.19
		c-1.67,0-3-1.42-3-3.6c-0.01-2.37,1.46-3.73,3.14-3.73c0.86,0,1.54,0.3,1.85,0.79h0.03v-3.8H76.38z M74.2,273.44
		c0-0.12-0.01-0.27-0.03-0.39c-0.13-0.59-0.6-1.08-1.28-1.08c-0.99,0-1.51,0.89-1.51,2c0,1.19,0.59,1.94,1.49,1.94
		c0.63,0,1.13-0.43,1.26-1.05c0.04-0.16,0.06-0.32,0.06-0.5V273.44z"/>
	<path class="st0" d="M78.12,275.58c0.4,0.24,1.23,0.53,1.88,0.53c0.66,0,0.93-0.23,0.93-0.59c0-0.36-0.22-0.53-1.03-0.8
		c-1.45-0.49-2.01-1.28-2-2.11c0-1.31,1.12-2.3,2.86-2.3c0.82,0,1.55,0.19,1.98,0.4l-0.39,1.51c-0.32-0.17-0.92-0.4-1.52-0.4
		c-0.53,0-0.83,0.22-0.83,0.57c0,0.33,0.27,0.5,1.13,0.8c1.33,0.46,1.9,1.13,1.91,2.17c0,1.31-1.03,2.27-3.04,2.27
		c-0.92,0-1.74-0.2-2.27-0.49L78.12,275.58z"/>
	<path class="st0" d="M94.45,277.22c-0.4,0.2-1.31,0.42-2.48,0.42c-3.35,0-5.07-2.08-5.07-4.84c0-3.3,2.35-5.14,5.28-5.14
		c1.13,0,2,0.23,2.38,0.43l-0.44,1.74c-0.45-0.19-1.06-0.36-1.84-0.36c-1.74,0-3.09,1.05-3.09,3.2c0,1.94,1.15,3.16,3.1,3.16
		c0.66,0,1.39-0.14,1.82-0.32L94.45,277.22z"/>
	<path class="st0" d="M98.28,275.01l-0.69,2.48h-2.27l2.96-9.68h2.87l3,9.68h-2.35l-0.75-2.48H98.28z M100.74,273.37l-0.6-2.05
		c-0.17-0.57-0.34-1.29-0.49-1.87h-0.03c-0.14,0.57-0.29,1.31-0.44,1.87l-0.57,2.05H100.74z"/>
	<path class="st0" d="M105.44,277.49v-9.68H108l2.01,3.55c0.57,1.02,1.15,2.23,1.58,3.32h0.04c-0.14-1.28-0.19-2.58-0.19-4.03v-2.83
		h2.01v9.68h-2.3l-2.07-3.73c-0.57-1.03-1.21-2.28-1.68-3.42l-0.04,0.01c0.06,1.28,0.09,2.64,0.09,4.22v2.92H105.44z"/>
	<path class="st0" d="M115.35,277.49v-9.68h2.56l2.01,3.55c0.57,1.02,1.15,2.23,1.58,3.32h0.04c-0.14-1.28-0.19-2.58-0.19-4.03
		v-2.83h2.01v9.68h-2.3l-2.07-3.73c-0.57-1.03-1.21-2.28-1.68-3.42l-0.04,0.01c0.06,1.28,0.09,2.64,0.09,4.22v2.92H115.35z"/>
	<path class="st0" d="M134.12,272.55c0,3.17-1.92,5.1-4.75,5.1c-2.87,0-4.55-2.17-4.55-4.92c0-2.9,1.85-5.07,4.71-5.07
		C132.5,267.66,134.12,269.88,134.12,272.55z M127.13,272.68c0,1.9,0.89,3.23,2.35,3.23c1.48,0,2.33-1.41,2.33-3.29
		c0-1.74-0.83-3.23-2.34-3.23C127.99,269.39,127.13,270.8,127.13,272.68z"/>
	<path class="st0" d="M137.02,269.65h-2.6v-1.84h7.44v1.84h-2.64v7.84h-2.2V269.65z"/>
	<path class="st0" d="M145.79,277.49c0.03-0.46,0.06-1.31,0.06-2.1v-8.1h2.18v4.01h0.03c0.42-0.6,1.15-0.99,2.13-0.99
		c1.68,0,2.92,1.39,2.9,3.55c0,2.53-1.61,3.79-3.22,3.79c-0.82,0-1.61-0.3-2.11-1.13h-0.03l-0.09,0.98H145.79z M148.03,274.5
		c0,0.14,0.01,0.27,0.04,0.39c0.14,0.59,0.65,1.03,1.28,1.03c0.93,0,1.51-0.72,1.51-1.98c0-1.09-0.49-1.95-1.51-1.95
		c-0.59,0-1.13,0.45-1.28,1.08c-0.03,0.13-0.04,0.26-0.04,0.4V274.5z"/>
	<path class="st0" d="M156.16,274.68c0.07,0.9,0.96,1.34,1.98,1.34c0.75,0,1.35-0.1,1.94-0.29l0.29,1.48
		c-0.72,0.29-1.59,0.43-2.54,0.43c-2.38,0-3.75-1.38-3.75-3.58c0-1.78,1.11-3.75,3.55-3.75c2.27,0,3.13,1.77,3.13,3.5
		c0,0.37-0.04,0.7-0.07,0.86H156.16z M158.73,273.18c0-0.53-0.23-1.42-1.23-1.42c-0.92,0-1.29,0.83-1.35,1.42H158.73z"/>
	<path class="st0" d="M171.58,275.24c0,0.92,0.03,1.67,0.06,2.25h-1.9l-0.1-0.99h-0.04c-0.27,0.43-0.93,1.15-2.2,1.15
		c-1.42,0-2.47-0.89-2.47-3.06v-4.12h2.2v3.78c0,1.02,0.33,1.64,1.09,1.64c0.6,0,0.95-0.42,1.09-0.76c0.06-0.13,0.07-0.3,0.07-0.47
		v-4.18h2.2V275.24z"/>
	<path class="st0" d="M173.31,275.58c0.4,0.24,1.23,0.53,1.88,0.53c0.66,0,0.93-0.23,0.93-0.59c0-0.36-0.22-0.53-1.03-0.8
		c-1.45-0.49-2.01-1.28-2-2.11c0-1.31,1.12-2.3,2.86-2.3c0.82,0,1.55,0.19,1.98,0.4l-0.39,1.51c-0.32-0.17-0.92-0.4-1.52-0.4
		c-0.53,0-0.83,0.22-0.83,0.57c0,0.33,0.27,0.5,1.13,0.8c1.33,0.46,1.9,1.13,1.91,2.17c0,1.31-1.03,2.27-3.04,2.27
		c-0.92,0-1.74-0.2-2.27-0.49L173.31,275.58z"/>
	<path class="st0" d="M181.24,274.68c0.07,0.9,0.96,1.34,1.98,1.34c0.75,0,1.35-0.1,1.94-0.29l0.29,1.48
		c-0.72,0.29-1.59,0.43-2.54,0.43c-2.38,0-3.75-1.38-3.75-3.58c0-1.78,1.11-3.75,3.55-3.75c2.27,0,3.13,1.77,3.13,3.5
		c0,0.37-0.04,0.7-0.07,0.86H181.24z M183.81,273.18c0-0.53-0.23-1.42-1.23-1.42c-0.92,0-1.29,0.83-1.35,1.42H183.81z"/>
	<path class="st0" d="M193.95,267.3v8.1c0,0.79,0.03,1.62,0.06,2.1h-1.94l-0.1-1.03h-0.03c-0.44,0.79-1.29,1.19-2.2,1.19
		c-1.67,0-3-1.42-3-3.6c-0.01-2.37,1.46-3.73,3.14-3.73c0.86,0,1.54,0.3,1.85,0.79h0.03v-3.8H193.95z M191.77,273.44
		c0-0.12-0.01-0.27-0.03-0.39c-0.13-0.59-0.6-1.08-1.28-1.08c-0.99,0-1.51,0.89-1.51,2c0,1.19,0.59,1.94,1.49,1.94
		c0.63,0,1.13-0.43,1.26-1.05c0.04-0.16,0.06-0.32,0.06-0.5V273.44z"/>
	<path class="st0" d="M199.98,269.65h-2.6v-1.84h7.44v1.84h-2.64v7.84h-2.2V269.65z"/>
	<path class="st0" d="M214.42,272.55c0,3.17-1.92,5.1-4.75,5.1c-2.87,0-4.55-2.17-4.55-4.92c0-2.9,1.85-5.07,4.71-5.07
		C212.8,267.66,214.42,269.88,214.42,272.55z M207.43,272.68c0,1.9,0.89,3.23,2.35,3.23c1.48,0,2.33-1.41,2.33-3.29
		c0-1.74-0.83-3.23-2.34-3.23C208.29,269.39,207.43,270.8,207.43,272.68z"/>
	<path class="st0" d="M215.86,267.94c0.8-0.13,1.85-0.2,2.96-0.2c1.84,0,3.03,0.33,3.96,1.03c1.01,0.75,1.64,1.94,1.64,3.65
		c0,1.85-0.67,3.13-1.61,3.92c-1.02,0.85-2.57,1.25-4.47,1.25c-1.13,0-1.94-0.07-2.48-0.14V267.94z M218.06,275.84
		c0.19,0.04,0.49,0.04,0.76,0.04c1.98,0.01,3.27-1.08,3.27-3.39c0.01-2.01-1.16-3.07-3.04-3.07c-0.49,0-0.8,0.04-0.99,0.09V275.84z"
		/>
	<path class="st0" d="M227.88,275.01l-0.69,2.48h-2.27l2.96-9.68h2.87l3,9.68h-2.35l-0.75-2.48H227.88z M230.33,273.37l-0.6-2.05
		c-0.17-0.57-0.34-1.29-0.49-1.87h-0.03c-0.14,0.57-0.29,1.31-0.45,1.87l-0.57,2.05H230.33z"/>
	<path class="st0" d="M235.92,277.49v-3.96l-3.06-5.71h2.5l0.99,2.33c0.3,0.7,0.5,1.22,0.75,1.85h0.03c0.22-0.6,0.45-1.16,0.73-1.85
		l0.98-2.33h2.46l-3.19,5.64v4.04H235.92z"/>
	<path class="st0" d="M19.21,294.72v-5.41h-0.92v-1.61h0.92v-0.27c0-0.85,0.26-1.78,0.89-2.35c0.55-0.52,1.31-0.7,1.94-0.7
		c0.49,0,0.86,0.06,1.16,0.14l-0.09,1.68c-0.19-0.06-0.42-0.1-0.7-0.1c-0.72,0-1.02,0.56-1.02,1.25v0.36h1.41v1.61h-1.39v5.41H19.21
		z"/>
	<path class="st0" d="M30.65,291.13c0,2.57-1.82,3.75-3.7,3.75c-2.05,0-3.63-1.35-3.63-3.62c0-2.27,1.49-3.72,3.75-3.72
		C29.22,287.54,30.65,289.02,30.65,291.13z M25.57,291.2c0,1.21,0.5,2.11,1.44,2.11c0.85,0,1.39-0.85,1.39-2.11
		c0-1.05-0.4-2.11-1.39-2.11C25.96,289.09,25.57,290.17,25.57,291.2z"/>
	<path class="st0" d="M32,290.01c0-1.03-0.03-1.71-0.06-2.31h1.88l0.07,1.29h0.06c0.36-1.02,1.22-1.45,1.9-1.45
		c0.2,0,0.3,0,0.46,0.03v2.05c-0.16-0.03-0.34-0.06-0.59-0.06c-0.8,0-1.35,0.43-1.49,1.11c-0.03,0.14-0.04,0.32-0.04,0.49v3.56H32
		V290.01z"/>
	<path class="st0" d="M42.61,285.75c0,0.6-0.46,1.09-1.18,1.09c-0.69,0-1.15-0.49-1.13-1.09c-0.01-0.63,0.45-1.11,1.15-1.11
		S42.6,285.12,42.61,285.75z M40.36,294.72v-7.02h2.18v7.02H40.36z"/>
	<path class="st0" d="M44.29,289.94c0-0.88-0.03-1.62-0.06-2.24h1.9l0.1,0.96h0.04c0.29-0.45,1-1.12,2.17-1.12
		c1.44,0,2.51,0.95,2.51,3.02v4.16h-2.18v-3.89c0-0.9-0.32-1.52-1.11-1.52c-0.6,0-0.96,0.42-1.11,0.82
		c-0.06,0.13-0.09,0.34-0.09,0.55v4.05h-2.18V289.94z"/>
	<path class="st0" d="M56.02,290.23v1.45h-3.76v-1.45H56.02z"/>
	<path class="st0" d="M57.32,292.81c0.4,0.24,1.23,0.53,1.88,0.53c0.66,0,0.93-0.23,0.93-0.59c0-0.36-0.22-0.53-1.03-0.8
		c-1.45-0.49-2.01-1.28-2-2.11c0-1.31,1.12-2.3,2.86-2.3c0.82,0,1.55,0.19,1.98,0.4l-0.39,1.51c-0.32-0.17-0.92-0.4-1.52-0.4
		c-0.53,0-0.83,0.22-0.83,0.57c0,0.33,0.27,0.5,1.13,0.8c1.33,0.46,1.9,1.13,1.91,2.17c0,1.31-1.03,2.27-3.04,2.27
		c-0.92,0-1.74-0.2-2.27-0.49L57.32,292.81z"/>
	<path class="st0" d="M66,285.69v2.01h1.56v1.61H66v2.54c0,0.85,0.2,1.24,0.86,1.24c0.27,0,0.49-0.03,0.65-0.06l0.01,1.65
		c-0.29,0.12-0.8,0.19-1.42,0.19c-0.7,0-1.29-0.24-1.64-0.6c-0.4-0.42-0.6-1.09-0.6-2.08v-2.87h-0.93v-1.61h0.93v-1.52L66,285.69z"
		/>
	<path class="st0" d="M75.69,291.13c0,2.57-1.82,3.75-3.7,3.75c-2.05,0-3.63-1.35-3.63-3.62c0-2.27,1.49-3.72,3.75-3.72
		C74.26,287.54,75.69,289.02,75.69,291.13z M70.61,291.2c0,1.21,0.5,2.11,1.44,2.11c0.85,0,1.39-0.85,1.39-2.11
		c0-1.05-0.4-2.11-1.39-2.11C71,289.09,70.61,290.17,70.61,291.2z"/>
	<path class="st0" d="M77.04,290.01c0-1.03-0.03-1.71-0.06-2.31h1.88l0.07,1.29H79c0.36-1.02,1.22-1.45,1.9-1.45
		c0.2,0,0.3,0,0.46,0.03v2.05c-0.16-0.03-0.34-0.06-0.59-0.06c-0.8,0-1.35,0.43-1.49,1.11c-0.03,0.14-0.04,0.32-0.04,0.49v3.56
		h-2.18V290.01z"/>
	<path class="st0" d="M84.06,291.91c0.07,0.9,0.96,1.34,1.98,1.34c0.75,0,1.35-0.1,1.94-0.29l0.29,1.48
		c-0.72,0.29-1.59,0.43-2.54,0.43c-2.38,0-3.75-1.38-3.75-3.58c0-1.78,1.11-3.75,3.55-3.75c2.27,0,3.13,1.77,3.13,3.5
		c0,0.37-0.04,0.7-0.07,0.86H84.06z M86.64,290.41c0-0.53-0.23-1.42-1.23-1.42c-0.92,0-1.29,0.83-1.35,1.42H86.64z"/>
	<path class="st0" d="M92.87,290.05c0-0.92-0.03-1.71-0.06-2.35h1.9l0.1,0.98h0.03c0.52-0.75,1.32-1.13,2.34-1.13
		c1.54,0,2.91,1.34,2.91,3.58c0,2.56-1.62,3.76-3.19,3.76c-0.85,0-1.51-0.34-1.82-0.8h-0.03v3.49h-2.18V290.05z M95.05,291.71
		c0,0.17,0.01,0.33,0.04,0.46c0.14,0.59,0.65,1.03,1.28,1.03c0.95,0,1.51-0.79,1.51-1.98c0-1.12-0.5-1.97-1.48-1.97
		c-0.62,0-1.16,0.46-1.31,1.11c-0.03,0.12-0.04,0.26-0.04,0.39V291.71z"/>
	<path class="st0" d="M103.71,285.75c0,0.6-0.46,1.09-1.18,1.09c-0.69,0-1.15-0.49-1.13-1.09c-0.01-0.63,0.45-1.11,1.15-1.11
		S103.69,285.12,103.71,285.75z M101.45,294.72v-7.02h2.18v7.02H101.45z"/>
	<path class="st0" d="M110.66,294.55c-0.39,0.17-1.12,0.32-1.95,0.32c-2.27,0-3.72-1.38-3.72-3.59c0-2.05,1.41-3.73,4.02-3.73
		c0.57,0,1.21,0.1,1.67,0.27l-0.34,1.62c-0.26-0.11-0.65-0.21-1.22-0.21c-1.15,0-1.9,0.82-1.88,1.97c0,1.29,0.86,1.97,1.92,1.97
		c0.52,0,0.92-0.09,1.25-0.21L110.66,294.55z"/>
	<path class="st0" d="M114.04,290.66h0.03c0.16-0.29,0.33-0.57,0.5-0.85l1.42-2.11h2.63l-2.51,2.84l2.87,4.18h-2.69l-1.69-2.89
		l-0.56,0.69v2.2h-2.18v-10.19h2.18V290.66z"/>
	<path class="st0" d="M126.26,292.47c0,0.92,0.03,1.67,0.06,2.25h-1.9l-0.1-0.99h-0.04c-0.27,0.43-0.93,1.15-2.2,1.15
		c-1.42,0-2.47-0.89-2.47-3.06v-4.12h2.2v3.78c0,1.02,0.33,1.64,1.09,1.64c0.6,0,0.95-0.42,1.09-0.76c0.06-0.13,0.07-0.3,0.07-0.47
		v-4.18h2.2V292.47z"/>
	<path class="st0" d="M128.02,290.05c0-0.92-0.03-1.71-0.06-2.35h1.9l0.1,0.98h0.03c0.52-0.75,1.32-1.13,2.34-1.13
		c1.54,0,2.91,1.34,2.91,3.58c0,2.56-1.62,3.76-3.19,3.76c-0.85,0-1.51-0.34-1.82-0.8h-0.03v3.49h-2.18V290.05z M130.2,291.71
		c0,0.17,0.01,0.33,0.04,0.46c0.14,0.59,0.65,1.03,1.28,1.03c0.95,0,1.51-0.79,1.51-1.98c0-1.12-0.5-1.97-1.48-1.97
		c-0.62,0-1.16,0.46-1.31,1.11c-0.03,0.12-0.04,0.26-0.04,0.39V291.71z"/>
	<path class="st0" d="M139.5,290.05c0-0.92-0.03-1.71-0.06-2.35h1.9l0.1,0.98h0.03c0.52-0.75,1.32-1.13,2.34-1.13
		c1.54,0,2.91,1.34,2.91,3.58c0,2.56-1.62,3.76-3.19,3.76c-0.85,0-1.51-0.34-1.82-0.8h-0.03v3.49h-2.18V290.05z M141.68,291.71
		c0,0.17,0.01,0.33,0.04,0.46c0.14,0.59,0.65,1.03,1.28,1.03c0.95,0,1.51-0.79,1.51-1.98c0-1.12-0.5-1.97-1.48-1.97
		c-0.62,0-1.16,0.46-1.31,1.11c-0.03,0.12-0.04,0.26-0.04,0.39V291.71z"/>
	<path class="st0" d="M154.71,292.47c0,0.92,0.03,1.67,0.06,2.25h-1.9l-0.1-0.99h-0.04c-0.27,0.43-0.93,1.15-2.2,1.15
		c-1.42,0-2.47-0.89-2.47-3.06v-4.12h2.2v3.78c0,1.02,0.33,1.64,1.09,1.64c0.6,0,0.95-0.42,1.09-0.76c0.06-0.13,0.07-0.3,0.07-0.47
		v-4.18h2.2V292.47z"/>
	<path class="st0" d="M156.46,290.01c0-1.03-0.03-1.71-0.06-2.31h1.88l0.07,1.29h0.06c0.36-1.02,1.22-1.45,1.9-1.45
		c0.2,0,0.3,0,0.46,0.03v2.05c-0.16-0.03-0.34-0.06-0.59-0.06c-0.8,0-1.35,0.43-1.49,1.11c-0.03,0.14-0.04,0.32-0.04,0.49v3.56
		h-2.18V290.01z"/>
	<path class="st0" d="M167.07,294.55c-0.39,0.17-1.12,0.32-1.95,0.32c-2.27,0-3.72-1.38-3.72-3.59c0-2.05,1.41-3.73,4.02-3.73
		c0.57,0,1.21,0.1,1.67,0.27l-0.34,1.62c-0.26-0.11-0.65-0.21-1.22-0.21c-1.15,0-1.9,0.82-1.88,1.97c0,1.29,0.86,1.97,1.92,1.97
		c0.52,0,0.92-0.09,1.25-0.21L167.07,294.55z"/>
	<path class="st0" d="M168.28,284.53h2.18v4.01h0.03c0.23-0.3,0.52-0.53,0.86-0.72c0.32-0.17,0.73-0.27,1.13-0.27
		c1.39,0,2.46,0.96,2.46,3.07v4.11h-2.18v-3.86c0-0.92-0.32-1.55-1.13-1.55c-0.57,0-0.93,0.37-1.09,0.76
		c-0.06,0.14-0.07,0.33-0.07,0.49v4.16h-2.18V284.53z"/>
	<path class="st0" d="M180.68,294.72l-0.13-0.7h-0.04c-0.46,0.56-1.18,0.86-2.01,0.86c-1.42,0-2.27-1.03-2.27-2.15
		c0-1.82,1.64-2.7,4.12-2.68v-0.1c0-0.37-0.2-0.9-1.28-0.9c-0.72,0-1.48,0.24-1.94,0.53l-0.4-1.41c0.49-0.27,1.45-0.62,2.73-0.62
		c2.34,0,3.09,1.38,3.09,3.03v2.44c0,0.67,0.03,1.32,0.1,1.71H180.68z M180.42,291.4c-1.15-0.01-2.04,0.26-2.04,1.11
		c0,0.56,0.37,0.83,0.86,0.83c0.55,0,0.99-0.36,1.13-0.8c0.03-0.11,0.04-0.24,0.04-0.37V291.4z"/>
	<path class="st0" d="M184.26,292.81c0.4,0.24,1.23,0.53,1.88,0.53c0.66,0,0.93-0.23,0.93-0.59c0-0.36-0.22-0.53-1.03-0.8
		c-1.45-0.49-2.01-1.28-2-2.11c0-1.31,1.12-2.3,2.86-2.3c0.82,0,1.55,0.19,1.98,0.4l-0.39,1.51c-0.32-0.17-0.92-0.4-1.52-0.4
		c-0.53,0-0.83,0.22-0.83,0.57c0,0.33,0.27,0.5,1.13,0.8c1.33,0.46,1.9,1.13,1.91,2.17c0,1.31-1.03,2.27-3.04,2.27
		c-0.92,0-1.74-0.2-2.27-0.49L184.26,292.81z"/>
	<path class="st0" d="M192.18,291.91c0.07,0.9,0.96,1.34,1.98,1.34c0.75,0,1.35-0.1,1.94-0.29l0.29,1.48
		c-0.72,0.29-1.59,0.43-2.54,0.43c-2.38,0-3.75-1.38-3.75-3.58c0-1.78,1.11-3.75,3.55-3.75c2.27,0,3.13,1.77,3.13,3.5
		c0,0.37-0.04,0.7-0.07,0.86H192.18z M194.75,290.41c0-0.53-0.23-1.42-1.23-1.42c-0.92,0-1.29,0.83-1.35,1.42H194.75z"/>
	<path class="st0" d="M198.07,292.81c0.4,0.24,1.23,0.53,1.88,0.53c0.66,0,0.93-0.23,0.93-0.59c0-0.36-0.22-0.53-1.03-0.8
		c-1.45-0.49-2.01-1.28-2-2.11c0-1.31,1.12-2.3,2.86-2.3c0.82,0,1.55,0.19,1.98,0.4l-0.39,1.51c-0.32-0.17-0.92-0.4-1.52-0.4
		c-0.53,0-0.83,0.22-0.83,0.57c0,0.33,0.27,0.5,1.13,0.8c1.33,0.46,1.89,1.13,1.91,2.17c0,1.31-1.04,2.27-3.04,2.27
		c-0.92,0-1.74-0.2-2.27-0.49L198.07,292.81z"/>
	<path class="st0" d="M216.15,289.78c0,3.17-1.92,5.1-4.75,5.1c-2.87,0-4.55-2.17-4.55-4.92c0-2.9,1.85-5.07,4.71-5.07
		C214.52,284.88,216.15,287.11,216.15,289.78z M209.15,289.91c0,1.9,0.89,3.23,2.35,3.23c1.48,0,2.33-1.41,2.33-3.29
		c0-1.74-0.83-3.23-2.34-3.23C210.01,286.62,209.15,288.03,209.15,289.91z"/>
	<path class="st0" d="M217.58,285.17c0.7-0.11,1.75-0.2,2.92-0.2c1.44,0,2.44,0.21,3.13,0.76c0.58,0.46,0.89,1.13,0.89,2.02
		c0,1.23-0.88,2.08-1.71,2.38v0.04c0.67,0.27,1.05,0.92,1.29,1.81c0.3,1.09,0.6,2.36,0.79,2.73h-2.24
		c-0.16-0.27-0.39-1.06-0.67-2.25c-0.26-1.21-0.67-1.54-1.57-1.55h-0.66v3.8h-2.17V285.17z M219.75,289.34h0.86
		c1.09,0,1.74-0.54,1.74-1.39c0-0.89-0.6-1.33-1.61-1.35c-0.53,0-0.83,0.04-0.99,0.07V289.34z"/>
	<path class="st0" d="M228.92,290.05c0-0.92-0.03-1.71-0.06-2.35h1.9l0.1,0.98h0.03c0.52-0.75,1.32-1.13,2.34-1.13
		c1.54,0,2.92,1.34,2.92,3.58c0,2.56-1.62,3.76-3.19,3.76c-0.85,0-1.51-0.34-1.82-0.8h-0.03v3.49h-2.18V290.05z M231.11,291.71
		c0,0.17,0.01,0.33,0.04,0.46c0.14,0.59,0.65,1.03,1.28,1.03c0.95,0,1.51-0.79,1.51-1.98c0-1.12-0.5-1.97-1.48-1.97
		c-0.62,0-1.16,0.46-1.31,1.11c-0.03,0.12-0.04,0.26-0.04,0.39V291.71z"/>
	<path class="st0" d="M244.13,292.47c0,0.92,0.03,1.67,0.06,2.25h-1.9l-0.1-0.99h-0.04c-0.27,0.43-0.93,1.15-2.2,1.15
		c-1.42,0-2.47-0.89-2.47-3.06v-4.12h2.2v3.78c0,1.02,0.33,1.64,1.09,1.64c0.6,0,0.95-0.42,1.09-0.76c0.06-0.13,0.07-0.3,0.07-0.47
		v-4.18h2.2V292.47z"/>
	<path class="st0" d="M245.88,290.01c0-1.03-0.03-1.71-0.06-2.31h1.88l0.07,1.29h0.06c0.36-1.02,1.22-1.45,1.89-1.45
		c0.2,0,0.3,0,0.46,0.03v2.05c-0.16-0.03-0.34-0.06-0.59-0.06c-0.8,0-1.35,0.43-1.49,1.11c-0.03,0.14-0.04,0.32-0.04,0.49v3.56
		h-2.18V290.01z"/>
	<path class="st0" d="M256.49,294.55c-0.39,0.17-1.12,0.32-1.95,0.32c-2.27,0-3.72-1.38-3.72-3.59c0-2.05,1.41-3.73,4.02-3.73
		c0.57,0,1.21,0.1,1.67,0.27l-0.34,1.62c-0.26-0.11-0.65-0.21-1.22-0.21c-1.15,0-1.9,0.82-1.88,1.97c0,1.29,0.86,1.97,1.92,1.97
		c0.52,0,0.92-0.09,1.25-0.21L256.49,294.55z"/>
	<path class="st0" d="M257.7,284.53h2.18v4.01h0.03c0.23-0.3,0.52-0.53,0.86-0.72c0.32-0.17,0.73-0.27,1.13-0.27
		c1.39,0,2.46,0.96,2.46,3.07v4.11h-2.18v-3.86c0-0.92-0.32-1.55-1.13-1.55c-0.57,0-0.93,0.37-1.09,0.76
		c-0.06,0.14-0.07,0.33-0.07,0.49v4.16h-2.18V284.53z"/>
	<path class="st0" d="M270.1,294.72l-0.13-0.7h-0.04c-0.46,0.56-1.18,0.86-2.01,0.86c-1.42,0-2.27-1.03-2.27-2.15
		c0-1.82,1.64-2.7,4.12-2.68v-0.1c0-0.37-0.2-0.9-1.28-0.9c-0.72,0-1.48,0.24-1.94,0.53l-0.4-1.41c0.49-0.27,1.45-0.62,2.73-0.62
		c2.34,0,3.09,1.38,3.09,3.03v2.44c0,0.67,0.03,1.32,0.1,1.71H270.1z M269.84,291.4c-1.15-0.01-2.04,0.26-2.04,1.11
		c0,0.56,0.37,0.83,0.86,0.83c0.55,0,0.99-0.36,1.13-0.8c0.03-0.11,0.04-0.24,0.04-0.37V291.4z"/>
	<path class="st0" d="M273.68,292.81c0.4,0.24,1.24,0.53,1.88,0.53c0.66,0,0.93-0.23,0.93-0.59c0-0.36-0.22-0.53-1.03-0.8
		c-1.45-0.49-2.01-1.28-2-2.11c0-1.31,1.12-2.3,2.86-2.3c0.82,0,1.55,0.19,1.98,0.4l-0.39,1.51c-0.32-0.17-0.92-0.4-1.52-0.4
		c-0.53,0-0.83,0.22-0.83,0.57c0,0.33,0.27,0.5,1.13,0.8c1.33,0.46,1.9,1.13,1.91,2.17c0,1.31-1.03,2.27-3.04,2.27
		c-0.92,0-1.74-0.2-2.27-0.49L273.68,292.81z"/>
	<path class="st0" d="M281.6,291.91c0.07,0.9,0.96,1.34,1.98,1.34c0.75,0,1.35-0.1,1.94-0.29l0.29,1.48
		c-0.72,0.29-1.59,0.43-2.54,0.43c-2.38,0-3.75-1.38-3.75-3.58c0-1.78,1.11-3.75,3.55-3.75c2.27,0,3.13,1.77,3.13,3.5
		c0,0.37-0.04,0.7-0.07,0.86H281.6z M284.17,290.41c0-0.53-0.23-1.42-1.23-1.42c-0.92,0-1.29,0.83-1.35,1.42H284.17z"/>
	<path class="st0" d="M287.49,292.81c0.4,0.24,1.24,0.53,1.88,0.53c0.66,0,0.93-0.23,0.93-0.59c0-0.36-0.22-0.53-1.03-0.8
		c-1.45-0.49-2.01-1.28-2-2.11c0-1.31,1.12-2.3,2.86-2.3c0.82,0,1.55,0.19,1.98,0.4l-0.39,1.51c-0.32-0.17-0.92-0.4-1.52-0.4
		c-0.53,0-0.83,0.22-0.83,0.57c0,0.33,0.27,0.5,1.13,0.8c1.33,0.46,1.9,1.13,1.91,2.17c0,1.31-1.03,2.27-3.04,2.27
		c-0.92,0-1.74-0.2-2.27-0.49L287.49,292.81z"/>
	<path class="st0" d="M18.97,307.17c0-0.88-0.03-1.62-0.06-2.24h1.84l0.1,0.95h0.04c0.3-0.45,0.92-1.11,2.13-1.11
		c0.9,0,1.62,0.46,1.92,1.19h0.03c0.26-0.36,0.57-0.65,0.9-0.85c0.39-0.23,0.82-0.34,1.34-0.34c1.35,0,2.37,0.95,2.37,3.04v4.13
		h-2.13v-3.82c0-1.02-0.33-1.61-1.03-1.61c-0.5,0-0.86,0.34-1.01,0.76c-0.06,0.16-0.09,0.39-0.09,0.56v4.11H23.2v-3.93
		c0-0.89-0.32-1.49-1.01-1.49c-0.56,0-0.89,0.43-1.02,0.79c-0.07,0.17-0.09,0.37-0.09,0.55v4.09h-2.13V307.17z"/>
	<path class="st0" d="M35.31,311.95l-0.13-0.7h-0.04c-0.46,0.56-1.18,0.86-2.01,0.86c-1.42,0-2.27-1.03-2.27-2.15
		c0-1.82,1.64-2.7,4.12-2.68v-0.1c0-0.37-0.2-0.9-1.28-0.9c-0.72,0-1.48,0.24-1.94,0.53l-0.4-1.41c0.49-0.27,1.45-0.62,2.73-0.62
		c2.34,0,3.09,1.38,3.09,3.03v2.44c0,0.67,0.03,1.32,0.1,1.71H35.31z M35.05,308.63c-1.15-0.01-2.04,0.26-2.04,1.11
		c0,0.56,0.37,0.83,0.86,0.83c0.55,0,0.99-0.36,1.13-0.8c0.03-0.11,0.04-0.24,0.04-0.37V308.63z"/>
	<path class="st0" d="M45.7,301.76v8.1c0,0.79,0.03,1.62,0.06,2.1h-1.94l-0.1-1.03h-0.03c-0.44,0.79-1.29,1.19-2.2,1.19
		c-1.67,0-3-1.42-3-3.6c-0.01-2.37,1.46-3.73,3.14-3.73c0.86,0,1.54,0.3,1.85,0.79h0.03v-3.8H45.7z M43.52,307.9
		c0-0.12-0.01-0.27-0.03-0.39c-0.13-0.59-0.6-1.08-1.28-1.08c-0.99,0-1.51,0.89-1.51,2c0,1.19,0.59,1.94,1.49,1.94
		c0.63,0,1.13-0.43,1.26-1.05c0.04-0.16,0.06-0.32,0.06-0.5V307.9z"/>
	<path class="st0" d="M49.13,309.14c0.07,0.9,0.96,1.34,1.98,1.34c0.75,0,1.35-0.1,1.94-0.29l0.29,1.48
		c-0.72,0.29-1.59,0.43-2.54,0.43c-2.38,0-3.75-1.38-3.75-3.58c0-1.78,1.11-3.75,3.55-3.75c2.27,0,3.13,1.77,3.13,3.5
		c0,0.37-0.04,0.7-0.07,0.86H49.13z M51.7,307.64c0-0.53-0.23-1.42-1.23-1.42c-0.92,0-1.29,0.83-1.35,1.42H51.7z"/>
	<path class="st0" d="M60.19,302.98c0,0.6-0.46,1.09-1.18,1.09c-0.69,0-1.15-0.49-1.13-1.09c-0.01-0.63,0.45-1.11,1.15-1.11
		S60.17,302.35,60.19,302.98z M57.93,311.95v-7.02h2.18v7.02H57.93z"/>
	<path class="st0" d="M61.87,307.17c0-0.88-0.03-1.62-0.06-2.24h1.9l0.1,0.96h0.04c0.29-0.45,1-1.12,2.17-1.12
		c1.44,0,2.51,0.95,2.51,3.02v4.16h-2.18v-3.89c0-0.9-0.32-1.52-1.11-1.52c-0.6,0-0.96,0.42-1.11,0.82
		c-0.06,0.13-0.09,0.34-0.09,0.55v4.05h-2.18V307.17z"/>
	<path class="st0" d="M77.17,311.95l-0.13-0.7H77c-0.46,0.56-1.18,0.86-2.01,0.86c-1.42,0-2.27-1.03-2.27-2.15
		c0-1.82,1.64-2.7,4.12-2.68v-0.1c0-0.37-0.2-0.9-1.28-0.9c-0.72,0-1.48,0.24-1.94,0.53l-0.4-1.41c0.49-0.27,1.45-0.62,2.73-0.62
		c2.34,0,3.09,1.38,3.09,3.03v2.44c0,0.67,0.03,1.32,0.1,1.71H77.17z M76.92,308.63c-1.15-0.01-2.04,0.26-2.04,1.11
		c0,0.56,0.37,0.83,0.86,0.83c0.55,0,0.99-0.36,1.13-0.8c0.03-0.11,0.04-0.24,0.04-0.37V308.63z"/>
	<path class="st0" d="M83.74,302.4c0.67-0.11,1.62-0.2,2.96-0.2c1.35,0,2.31,0.26,2.96,0.78c0.62,0.49,1.03,1.29,1.03,2.24
		c0,0.95-0.32,1.75-0.89,2.3c-0.75,0.7-1.85,1.02-3.14,1.02c-0.29,0-0.55-0.01-0.75-0.04v3.46h-2.17V302.4z M85.9,306.8
		c0.19,0.04,0.42,0.06,0.73,0.06c1.16,0,1.88-0.59,1.88-1.58c0-0.89-0.62-1.42-1.71-1.42c-0.45,0-0.75,0.04-0.9,0.09V306.8z"/>
	<path class="st0" d="M89.78,310.79c0-0.78,0.53-1.33,1.29-1.33c0.76,0,1.28,0.54,1.28,1.33c0,0.76-0.52,1.32-1.29,1.32
		C90.31,312.11,89.78,311.55,89.78,310.79z"/>
	<path class="st0" d="M100.85,311.68c-0.4,0.2-1.31,0.42-2.48,0.42c-3.35,0-5.07-2.08-5.07-4.84c0-3.3,2.35-5.14,5.28-5.14
		c1.13,0,2,0.23,2.38,0.43l-0.44,1.74c-0.45-0.19-1.06-0.36-1.84-0.36c-1.74,0-3.09,1.05-3.09,3.2c0,1.94,1.15,3.16,3.1,3.16
		c0.66,0,1.39-0.14,1.82-0.32L100.85,311.68z"/>
	<path class="st0" d="M102.06,310.79c0-0.78,0.53-1.33,1.29-1.33c0.76,0,1.28,0.54,1.28,1.33c0,0.76-0.52,1.32-1.29,1.32
		C102.59,312.11,102.06,311.55,102.06,310.79z"/>
	<path class="st0" d="M108.92,302.4c0.7-0.11,1.75-0.2,2.91-0.2c1.44,0,2.44,0.21,3.13,0.76c0.57,0.46,0.89,1.13,0.89,2.02
		c0,1.23-0.88,2.08-1.71,2.38v0.04c0.67,0.27,1.05,0.92,1.29,1.81c0.3,1.09,0.6,2.36,0.79,2.73h-2.24
		c-0.16-0.27-0.39-1.06-0.67-2.25c-0.26-1.21-0.67-1.54-1.56-1.55h-0.66v3.8h-2.17V302.4z M111.09,306.57h0.86
		c1.09,0,1.74-0.54,1.74-1.39c0-0.89-0.6-1.33-1.61-1.35c-0.53,0-0.83,0.04-0.99,0.07V306.57z"/>
	<path class="st0" d="M119.76,302.98c0,0.6-0.46,1.09-1.18,1.09c-0.69,0-1.15-0.49-1.13-1.09c-0.01-0.63,0.45-1.11,1.15-1.11
		S119.75,302.35,119.76,302.98z M117.51,311.95v-7.02h2.18v7.02H117.51z"/>
	<path class="st0" d="M126.71,311.78c-0.39,0.17-1.12,0.32-1.95,0.32c-2.27,0-3.72-1.38-3.72-3.59c0-2.05,1.41-3.73,4.02-3.73
		c0.57,0,1.21,0.1,1.67,0.27l-0.34,1.62c-0.26-0.11-0.65-0.21-1.22-0.21c-1.15,0-1.9,0.82-1.88,1.97c0,1.29,0.86,1.97,1.92,1.97
		c0.52,0,0.92-0.09,1.25-0.21L126.71,311.78z"/>
	<path class="st0" d="M127.91,301.76h2.18v4.01h0.03c0.23-0.3,0.52-0.53,0.86-0.72c0.32-0.17,0.73-0.27,1.13-0.27
		c1.39,0,2.46,0.96,2.46,3.07v4.11h-2.18v-3.86c0-0.92-0.32-1.55-1.13-1.55c-0.57,0-0.93,0.37-1.09,0.76
		c-0.06,0.14-0.07,0.33-0.07,0.49v4.16h-2.18V301.76z"/>
	<path class="st0" d="M140.32,311.95l-0.13-0.7h-0.04c-0.46,0.56-1.18,0.86-2.01,0.86c-1.42,0-2.27-1.03-2.27-2.15
		c0-1.82,1.64-2.7,4.12-2.68v-0.1c0-0.37-0.2-0.9-1.28-0.9c-0.72,0-1.48,0.24-1.94,0.53l-0.4-1.41c0.49-0.27,1.45-0.62,2.73-0.62
		c2.34,0,3.09,1.38,3.09,3.03v2.44c0,0.67,0.03,1.32,0.1,1.71H140.32z M140.06,308.63c-1.15-0.01-2.04,0.26-2.04,1.11
		c0,0.56,0.37,0.83,0.86,0.83c0.55,0,0.99-0.36,1.13-0.8c0.03-0.11,0.04-0.24,0.04-0.37V308.63z"/>
	<path class="st0" d="M143.91,307.24c0-1.03-0.03-1.71-0.06-2.31h1.88l0.07,1.29h0.06c0.36-1.02,1.22-1.45,1.9-1.45
		c0.2,0,0.3,0,0.46,0.03v2.05c-0.16-0.03-0.34-0.06-0.59-0.06c-0.8,0-1.35,0.43-1.49,1.11c-0.03,0.14-0.04,0.32-0.04,0.49v3.56
		h-2.18V307.24z"/>
	<path class="st0" d="M156.06,301.76v8.1c0,0.79,0.03,1.62,0.06,2.1h-1.94l-0.1-1.03h-0.03c-0.44,0.79-1.29,1.19-2.2,1.19
		c-1.67,0-3-1.42-3-3.6c-0.01-2.37,1.46-3.73,3.14-3.73c0.86,0,1.54,0.3,1.85,0.79h0.03v-3.8H156.06z M153.87,307.9
		c0-0.12-0.01-0.27-0.03-0.39c-0.13-0.59-0.6-1.08-1.28-1.08c-0.99,0-1.51,0.89-1.51,2c0,1.19,0.59,1.94,1.49,1.94
		c0.63,0,1.13-0.43,1.26-1.05c0.04-0.16,0.06-0.32,0.06-0.5V307.9z"/>
	<path class="st0" d="M166.94,311.95c-0.2-0.22-0.4-0.43-0.63-0.69c-0.63,0.49-1.51,0.85-2.66,0.85c-2.34,0-3.37-1.39-3.37-2.74
		c0-1.28,0.73-2.2,1.84-2.77v-0.06c-0.42-0.46-0.73-1.18-0.73-1.87c0-1.22,0.96-2.56,2.9-2.56c1.49,0,2.63,0.88,2.63,2.27
		c0,0.98-0.57,1.81-1.91,2.48l-0.01,0.06c0.56,0.62,1.15,1.32,1.62,1.81c0.39-0.6,0.69-1.49,0.82-2.35h1.95
		c-0.26,1.46-0.75,2.71-1.61,3.68c0.55,0.62,1.11,1.25,1.71,1.9H166.94z M165.29,310.04c-0.6-0.6-1.39-1.48-2.18-2.37
		c-0.4,0.29-0.76,0.7-0.76,1.34c0,0.82,0.62,1.52,1.61,1.52C164.53,310.53,165,310.31,165.29,310.04z M163.34,304.47
		c0,0.49,0.23,0.92,0.66,1.39c0.7-0.49,1.06-0.86,1.06-1.42c0-0.46-0.27-0.96-0.85-0.96C163.65,303.48,163.34,303.97,163.34,304.47z
		"/>
	<path class="st0" d="M173.49,309.7c0.59,0.3,1.49,0.6,2.43,0.6c1,0,1.54-0.42,1.54-1.05c0-0.6-0.46-0.95-1.62-1.36
		c-1.61-0.56-2.66-1.45-2.66-2.86c0-1.65,1.38-2.92,3.66-2.92c1.09,0,1.9,0.23,2.47,0.49l-0.49,1.77c-0.39-0.19-1.08-0.46-2.02-0.46
		s-1.41,0.43-1.41,0.93c0,0.62,0.55,0.89,1.79,1.36c1.71,0.63,2.51,1.52,2.51,2.89c0,1.62-1.25,3-3.91,3c-1.11,0-2.2-0.29-2.74-0.59
		L173.49,309.7z"/>
	<path class="st0" d="M188.13,308.36c0,2.57-1.82,3.75-3.7,3.75c-2.05,0-3.63-1.35-3.63-3.62c0-2.27,1.49-3.72,3.75-3.72
		C186.7,304.77,188.13,306.25,188.13,308.36z M183.05,308.43c0,1.21,0.5,2.11,1.44,2.11c0.85,0,1.39-0.85,1.39-2.11
		c0-1.05-0.4-2.11-1.39-2.11C183.44,306.32,183.05,307.4,183.05,308.43z"/>
	<path class="st0" d="M189.48,307.17c0-0.88-0.03-1.62-0.06-2.24h1.9l0.1,0.96h0.04c0.29-0.45,1-1.12,2.17-1.12
		c1.44,0,2.51,0.95,2.51,3.02v4.16h-2.18v-3.89c0-0.9-0.32-1.52-1.11-1.52c-0.6,0-0.96,0.42-1.11,0.82
		c-0.06,0.13-0.09,0.34-0.09,0.55v4.05h-2.18V307.17z"/>
	<path class="st0" d="M200.78,310.04c0.4,0.24,1.24,0.53,1.88,0.53c0.66,0,0.93-0.23,0.93-0.59c0-0.36-0.22-0.53-1.03-0.8
		c-1.45-0.49-2.01-1.28-2-2.11c0-1.31,1.12-2.3,2.86-2.3c0.82,0,1.55,0.19,1.98,0.4l-0.39,1.51c-0.32-0.17-0.92-0.4-1.52-0.4
		c-0.53,0-0.83,0.22-0.83,0.57c0,0.33,0.27,0.5,1.13,0.8c1.33,0.46,1.9,1.13,1.91,2.17c0,1.31-1.03,2.27-3.04,2.27
		c-0.92,0-1.74-0.2-2.27-0.49L200.78,310.04z"/>
	<path class="st0" d="M209.47,302.92v2.01h1.57v1.61h-1.57v2.54c0,0.85,0.2,1.24,0.86,1.24c0.27,0,0.49-0.03,0.65-0.06l0.01,1.65
		c-0.29,0.12-0.8,0.19-1.42,0.19c-0.7,0-1.29-0.24-1.64-0.6c-0.4-0.42-0.6-1.09-0.6-2.08v-2.87h-0.93v-1.61h0.93v-1.52
		L209.47,302.92z"/>
	<path class="st0" d="M219.16,308.36c0,2.57-1.82,3.75-3.7,3.75c-2.05,0-3.63-1.35-3.63-3.62c0-2.27,1.49-3.72,3.75-3.72
		C217.72,304.77,219.16,306.25,219.16,308.36z M214.08,308.43c0,1.21,0.5,2.11,1.44,2.11c0.85,0,1.39-0.85,1.39-2.11
		c0-1.05-0.4-2.11-1.39-2.11C214.47,306.32,214.08,307.4,214.08,308.43z"/>
	<path class="st0" d="M220.51,307.24c0-1.03-0.03-1.71-0.06-2.31h1.88l0.07,1.29h0.06c0.36-1.02,1.22-1.45,1.89-1.45
		c0.2,0,0.3,0,0.46,0.03v2.05c-0.16-0.03-0.34-0.06-0.59-0.06c-0.8,0-1.35,0.43-1.49,1.11c-0.03,0.14-0.04,0.32-0.04,0.49v3.56
		h-2.18V307.24z"/>
	<path class="st0" d="M227.53,309.14c0.07,0.9,0.96,1.34,1.98,1.34c0.75,0,1.35-0.1,1.94-0.29l0.29,1.48
		c-0.72,0.29-1.59,0.43-2.54,0.43c-2.38,0-3.75-1.38-3.75-3.58c0-1.78,1.11-3.75,3.55-3.75c2.27,0,3.13,1.77,3.13,3.5
		c0,0.37-0.04,0.7-0.07,0.86H227.53z M230.1,307.64c0-0.53-0.23-1.42-1.23-1.42c-0.92,0-1.29,0.83-1.35,1.42H230.1z"/>
	<path class="st0" d="M233.04,310.79c0-0.78,0.53-1.33,1.29-1.33c0.76,0,1.28,0.54,1.28,1.33c0,0.76-0.52,1.32-1.29,1.32
		C233.58,312.11,233.04,311.55,233.04,310.79z"/>
	<path class="st0" d="M239.25,311.95v-3.96l-3.06-5.71h2.5l0.99,2.33c0.3,0.7,0.5,1.22,0.75,1.85h0.03c0.22-0.6,0.45-1.16,0.73-1.85
		l0.98-2.33h2.46l-3.19,5.64v4.04H239.25z"/>
	<path class="st0" d="M250.96,308.36c0,2.57-1.82,3.75-3.71,3.75c-2.05,0-3.63-1.35-3.63-3.62c0-2.27,1.49-3.72,3.75-3.72
		C249.53,304.77,250.96,306.25,250.96,308.36z M245.88,308.43c0,1.21,0.5,2.11,1.44,2.11c0.85,0,1.39-0.85,1.39-2.11
		c0-1.05-0.4-2.11-1.39-2.11C246.27,306.32,245.88,307.4,245.88,308.43z"/>
	<path class="st0" d="M258.93,309.7c0,0.92,0.03,1.67,0.06,2.25h-1.9l-0.1-0.99h-0.04c-0.27,0.43-0.93,1.15-2.2,1.15
		c-1.42,0-2.47-0.89-2.47-3.06v-4.12h2.2v3.78c0,1.02,0.33,1.64,1.09,1.64c0.6,0,0.95-0.42,1.09-0.76c0.06-0.13,0.07-0.3,0.07-0.47
		v-4.18h2.2V309.7z"/>
	<path class="st0" d="M260.68,307.24c0-1.03-0.03-1.71-0.06-2.31h1.88l0.07,1.29h0.06c0.36-1.02,1.22-1.45,1.89-1.45
		c0.2,0,0.3,0,0.46,0.03v2.05c-0.16-0.03-0.34-0.06-0.59-0.06c-0.8,0-1.35,0.43-1.49,1.11c-0.03,0.14-0.04,0.32-0.04,0.49v3.56
		h-2.18V307.24z"/>
	<path class="st0" d="M269.29,311.95v-5.41h-0.92v-1.61h0.92v-0.3c0-1.94,1.51-3.03,3.68-3.03c0.75,0,1.64,0.17,2.07,0.43
		l-0.42,1.65c-0.34-0.19-0.91-0.36-1.59-0.36c-1.15,0-1.55,0.59-1.55,1.36v0.24h4.26v7.02h-2.18v-5.41h-2.07v5.41H269.29z"/>
	<path class="st0" d="M277.48,307.24c0-1.03-0.03-1.71-0.06-2.31h1.88l0.07,1.29h0.06c0.36-1.02,1.22-1.45,1.89-1.45
		c0.2,0,0.3,0,0.46,0.03v2.05c-0.16-0.03-0.34-0.06-0.59-0.06c-0.8,0-1.35,0.43-1.49,1.11c-0.03,0.14-0.04,0.32-0.04,0.49v3.56
		h-2.18V307.24z"/>
	<path class="st0" d="M282.92,310.04c0.4,0.24,1.24,0.53,1.88,0.53c0.66,0,0.93-0.23,0.93-0.59c0-0.36-0.22-0.53-1.03-0.8
		c-1.45-0.49-2.01-1.28-2-2.11c0-1.31,1.12-2.3,2.86-2.3c0.82,0,1.55,0.19,1.98,0.4l-0.39,1.51c-0.32-0.17-0.92-0.4-1.52-0.4
		c-0.53,0-0.83,0.22-0.83,0.57c0,0.33,0.27,0.5,1.13,0.8c1.33,0.46,1.9,1.13,1.91,2.17c0,1.31-1.03,2.27-3.04,2.27
		c-0.92,0-1.74-0.2-2.27-0.49L282.92,310.04z"/>
	<path class="st0" d="M291.61,302.92v2.01h1.57v1.61h-1.57v2.54c0,0.85,0.2,1.24,0.86,1.24c0.27,0,0.49-0.03,0.65-0.06l0.01,1.65
		c-0.29,0.12-0.8,0.19-1.42,0.19c-0.7,0-1.29-0.24-1.64-0.6c-0.4-0.42-0.6-1.09-0.6-2.08v-2.87h-0.93v-1.61h0.93v-1.52
		L291.61,302.92z"/>
	<path class="st0" d="M25.9,325.59c0,2.57-1.82,3.75-3.7,3.75c-2.05,0-3.63-1.35-3.63-3.62c0-2.27,1.49-3.72,3.75-3.72
		C24.46,322,25.9,323.48,25.9,325.59z M20.82,325.66c0,1.21,0.5,2.11,1.44,2.11c0.85,0,1.39-0.85,1.39-2.11
		c0-1.05-0.4-2.11-1.39-2.11C21.21,323.55,20.82,324.63,20.82,325.66z"/>
	<path class="st0" d="M27.25,324.47c0-1.03-0.03-1.71-0.06-2.31h1.88l0.07,1.29h0.06c0.36-1.02,1.22-1.45,1.9-1.45
		c0.2,0,0.3,0,0.46,0.03v2.05c-0.16-0.03-0.34-0.06-0.59-0.06c-0.8,0-1.35,0.43-1.49,1.11c-0.03,0.14-0.04,0.32-0.04,0.49v3.56
		h-2.18V324.47z"/>
	<path class="st0" d="M39.4,318.99v8.1c0,0.79,0.03,1.62,0.06,2.1h-1.94l-0.1-1.03h-0.03c-0.44,0.79-1.29,1.19-2.2,1.19
		c-1.67,0-3-1.42-3-3.6c-0.01-2.37,1.46-3.73,3.14-3.73c0.86,0,1.54,0.3,1.85,0.79h0.03v-3.8H39.4z M37.22,325.13
		c0-0.12-0.01-0.27-0.03-0.39c-0.13-0.59-0.6-1.08-1.28-1.08c-0.99,0-1.51,0.89-1.51,2c0,1.19,0.59,1.94,1.49,1.94
		c0.63,0,1.13-0.43,1.26-1.05c0.04-0.16,0.06-0.32,0.06-0.5V325.13z"/>
	<path class="st0" d="M42.83,326.37c0.07,0.9,0.96,1.34,1.98,1.34c0.75,0,1.35-0.1,1.94-0.29l0.29,1.48
		c-0.72,0.29-1.59,0.43-2.54,0.43c-2.38,0-3.75-1.38-3.75-3.58c0-1.78,1.11-3.75,3.55-3.75c2.27,0,3.13,1.77,3.13,3.5
		c0,0.37-0.04,0.7-0.07,0.86H42.83z M45.4,324.87c0-0.53-0.23-1.42-1.23-1.42c-0.92,0-1.29,0.83-1.35,1.42H45.4z"/>
	<path class="st0" d="M48.73,324.47c0-1.03-0.03-1.71-0.06-2.31h1.88l0.07,1.29h0.06c0.36-1.02,1.22-1.45,1.9-1.45
		c0.2,0,0.3,0,0.46,0.03v2.05c-0.16-0.03-0.34-0.06-0.59-0.06c-0.8,0-1.35,0.43-1.49,1.11c-0.03,0.14-0.04,0.32-0.04,0.49v3.56
		h-2.18V324.47z"/>
	<path class="st0" d="M57.09,324.4c0-0.88-0.03-1.62-0.06-2.24h1.84l0.1,0.95h0.04c0.3-0.45,0.92-1.11,2.13-1.11
		c0.9,0,1.62,0.46,1.92,1.19h0.03c0.26-0.36,0.57-0.65,0.9-0.85c0.39-0.23,0.82-0.34,1.34-0.34c1.35,0,2.37,0.95,2.37,3.04v4.14
		h-2.13v-3.82c0-1.02-0.33-1.61-1.03-1.61c-0.5,0-0.86,0.34-1.01,0.76c-0.06,0.16-0.09,0.39-0.09,0.56v4.11h-2.13v-3.93
		c0-0.89-0.32-1.49-1.01-1.49c-0.56,0-0.89,0.43-1.02,0.79c-0.07,0.17-0.09,0.37-0.09,0.55v4.09h-2.13V324.4z"/>
	<path class="st0" d="M76.05,326.93c0,0.92,0.03,1.67,0.06,2.25h-1.9l-0.1-0.99h-0.04c-0.27,0.43-0.93,1.15-2.2,1.15
		c-1.42,0-2.47-0.89-2.47-3.06v-4.12h2.2v3.78c0,1.02,0.33,1.64,1.09,1.64c0.6,0,0.95-0.42,1.09-0.76c0.06-0.13,0.07-0.3,0.07-0.47
		v-4.18h2.2V326.93z"/>
	<path class="st0" d="M77.79,327.27c0.4,0.24,1.23,0.53,1.88,0.53c0.66,0,0.93-0.23,0.93-0.59c0-0.36-0.22-0.53-1.03-0.8
		c-1.45-0.49-2.01-1.28-2-2.11c0-1.31,1.12-2.3,2.86-2.3c0.82,0,1.55,0.19,1.98,0.4l-0.39,1.51c-0.32-0.17-0.92-0.4-1.52-0.4
		c-0.53,0-0.83,0.22-0.83,0.57c0,0.33,0.27,0.5,1.13,0.8c1.33,0.46,1.9,1.13,1.91,2.17c0,1.31-1.03,2.27-3.04,2.27
		c-0.92,0-1.74-0.2-2.27-0.49L77.79,327.27z"/>
	<path class="st0" d="M86.48,320.15v2.01h1.56v1.61h-1.56v2.54c0,0.85,0.2,1.24,0.86,1.24c0.27,0,0.49-0.03,0.65-0.06l0.01,1.65
		c-0.29,0.12-0.8,0.19-1.42,0.19c-0.7,0-1.29-0.24-1.64-0.6c-0.4-0.42-0.6-1.09-0.6-2.08v-2.87H83.4v-1.61h0.93v-1.52L86.48,320.15z
		"/>
	<path class="st0" d="M92.15,329.18c0.03-0.46,0.06-1.31,0.06-2.1v-8.1h2.18v4.01h0.03c0.42-0.6,1.15-0.99,2.13-0.99
		c1.68,0,2.92,1.39,2.9,3.55c0,2.53-1.61,3.79-3.22,3.79c-0.82,0-1.61-0.3-2.11-1.13h-0.03L94,329.18H92.15z M94.39,326.19
		c0,0.14,0.01,0.27,0.04,0.39c0.14,0.59,0.65,1.03,1.28,1.03c0.93,0,1.51-0.72,1.51-1.98c0-1.09-0.49-1.95-1.51-1.95
		c-0.59,0-1.13,0.45-1.28,1.08c-0.03,0.13-0.04,0.26-0.04,0.4V326.19z"/>
	<path class="st0" d="M102.52,326.37c0.07,0.9,0.96,1.34,1.98,1.34c0.75,0,1.35-0.1,1.94-0.29l0.29,1.48
		c-0.72,0.29-1.59,0.43-2.54,0.43c-2.38,0-3.75-1.38-3.75-3.58c0-1.78,1.11-3.75,3.55-3.75c2.27,0,3.13,1.77,3.13,3.5
		c0,0.37-0.04,0.7-0.07,0.86H102.52z M105.09,324.87c0-0.53-0.23-1.42-1.23-1.42c-0.92,0-1.29,0.83-1.35,1.42H105.09z"/>
	<path class="st0" d="M118.12,318.99v8.1c0,0.79,0.03,1.62,0.06,2.1h-1.94l-0.1-1.03h-0.03c-0.44,0.79-1.29,1.19-2.2,1.19
		c-1.67,0-3-1.42-3-3.6c-0.01-2.37,1.46-3.73,3.14-3.73c0.86,0,1.54,0.3,1.85,0.79h0.03v-3.8H118.12z M115.94,325.13
		c0-0.12-0.01-0.27-0.03-0.39c-0.13-0.59-0.6-1.08-1.28-1.08c-0.99,0-1.51,0.89-1.51,2c0,1.19,0.59,1.94,1.49,1.94
		c0.63,0,1.13-0.43,1.26-1.05c0.04-0.16,0.06-0.32,0.06-0.5V325.13z"/>
	<path class="st0" d="M121.55,326.37c0.07,0.9,0.96,1.34,1.98,1.34c0.75,0,1.35-0.1,1.94-0.29l0.29,1.48
		c-0.72,0.29-1.59,0.43-2.54,0.43c-2.38,0-3.75-1.38-3.75-3.58c0-1.78,1.11-3.75,3.55-3.75c2.27,0,3.13,1.77,3.13,3.5
		c0,0.37-0.04,0.7-0.07,0.86H121.55z M124.12,324.87c0-0.53-0.23-1.42-1.23-1.42c-0.92,0-1.29,0.83-1.35,1.42H124.12z"/>
	<path class="st0" d="M127.46,318.99h2.18v10.19h-2.18V318.99z"/>
	<path class="st0" d="M133.66,320.21c0,0.6-0.46,1.09-1.18,1.09c-0.69,0-1.15-0.49-1.13-1.09c-0.01-0.63,0.45-1.11,1.15-1.11
		S133.64,319.58,133.66,320.21z M131.4,329.18v-7.02h2.18v7.02H131.4z"/>
	<path class="st0" d="M136.96,322.16l0.95,3.26c0.17,0.59,0.3,1.15,0.4,1.71h0.04c0.11-0.57,0.23-1.11,0.39-1.71l0.9-3.26h2.3
		l-2.61,7.02h-2.18l-2.56-7.02H136.96z"/>
	<path class="st0" d="M144.41,326.37c0.07,0.9,0.96,1.34,1.98,1.34c0.75,0,1.35-0.1,1.94-0.29l0.29,1.48
		c-0.72,0.29-1.59,0.43-2.54,0.43c-2.38,0-3.75-1.38-3.75-3.58c0-1.78,1.11-3.75,3.55-3.75c2.27,0,3.13,1.77,3.13,3.5
		c0,0.37-0.04,0.7-0.07,0.86H144.41z M146.98,324.87c0-0.53-0.23-1.42-1.23-1.42c-0.92,0-1.29,0.83-1.35,1.42H146.98z"/>
	<path class="st0" d="M150.31,324.47c0-1.03-0.03-1.71-0.06-2.31h1.88l0.07,1.29h0.06c0.36-1.02,1.22-1.45,1.9-1.45
		c0.2,0,0.3,0,0.46,0.03v2.05c-0.16-0.03-0.34-0.06-0.59-0.06c-0.8,0-1.35,0.43-1.49,1.11c-0.03,0.14-0.04,0.32-0.04,0.49v3.56
		h-2.18V324.47z"/>
	<path class="st0" d="M157.33,326.37c0.07,0.9,0.96,1.34,1.98,1.34c0.75,0,1.35-0.1,1.94-0.29l0.29,1.48
		c-0.72,0.29-1.59,0.43-2.54,0.43c-2.38,0-3.75-1.38-3.75-3.58c0-1.78,1.11-3.75,3.55-3.75c2.27,0,3.13,1.77,3.13,3.5
		c0,0.37-0.04,0.7-0.07,0.86H157.33z M159.9,324.87c0-0.53-0.23-1.42-1.23-1.42c-0.92,0-1.29,0.83-1.35,1.42H159.9z"/>
	<path class="st0" d="M170.04,318.99v8.1c0,0.79,0.03,1.62,0.06,2.1h-1.94l-0.1-1.03h-0.03c-0.44,0.79-1.29,1.19-2.2,1.19
		c-1.67,0-3-1.42-3-3.6c-0.01-2.37,1.46-3.73,3.14-3.73c0.86,0,1.54,0.3,1.85,0.79h0.03v-3.8H170.04z M167.86,325.13
		c0-0.12-0.01-0.27-0.03-0.39c-0.13-0.59-0.6-1.08-1.28-1.08c-0.99,0-1.51,0.89-1.51,2c0,1.19,0.59,1.94,1.49,1.94
		c0.63,0,1.13-0.43,1.26-1.05c0.04-0.16,0.06-0.32,0.06-0.5V325.13z"/>
	<path class="st0" d="M177.13,320.15v2.01h1.56v1.61h-1.56v2.54c0,0.85,0.2,1.24,0.86,1.24c0.27,0,0.49-0.03,0.65-0.06l0.01,1.65
		c-0.29,0.12-0.8,0.19-1.42,0.19c-0.7,0-1.29-0.24-1.64-0.6c-0.4-0.42-0.6-1.09-0.6-2.08v-2.87h-0.93v-1.61H175v-1.52L177.13,320.15
		z"/>
	<path class="st0" d="M186.83,325.59c0,2.57-1.82,3.75-3.7,3.75c-2.05,0-3.63-1.35-3.63-3.62c0-2.27,1.49-3.72,3.75-3.72
		C185.39,322,186.83,323.48,186.83,325.59z M181.74,325.66c0,1.21,0.5,2.11,1.44,2.11c0.85,0,1.39-0.85,1.39-2.11
		c0-1.05-0.4-2.11-1.39-2.11C182.13,323.55,181.74,324.63,181.74,325.66z"/>
	<path class="st0" d="M193.52,320.15v2.01h1.56v1.61h-1.56v2.54c0,0.85,0.2,1.24,0.86,1.24c0.27,0,0.49-0.03,0.65-0.06l0.01,1.65
		c-0.29,0.12-0.8,0.19-1.42,0.19c-0.7,0-1.29-0.24-1.64-0.6c-0.4-0.42-0.6-1.09-0.6-2.08v-2.87h-0.93v-1.61h0.93v-1.52
		L193.52,320.15z"/>
	<path class="st0" d="M196.35,318.99h2.18v4.01h0.03c0.23-0.3,0.52-0.53,0.86-0.72c0.32-0.17,0.73-0.27,1.13-0.27
		c1.39,0,2.46,0.96,2.46,3.07v4.11h-2.18v-3.86c0-0.92-0.32-1.55-1.13-1.55c-0.57,0-0.93,0.37-1.09,0.76
		c-0.06,0.14-0.07,0.33-0.07,0.49v4.16h-2.18V318.99z"/>
	<path class="st0" d="M206.44,326.37c0.07,0.9,0.96,1.34,1.98,1.34c0.75,0,1.35-0.1,1.94-0.29l0.29,1.48
		c-0.72,0.29-1.59,0.43-2.54,0.43c-2.38,0-3.75-1.38-3.75-3.58c0-1.78,1.11-3.75,3.55-3.75c2.27,0,3.13,1.77,3.13,3.5
		c0,0.37-0.04,0.7-0.07,0.86H206.44z M209.01,324.87c0-0.53-0.23-1.42-1.23-1.42c-0.92,0-1.29,0.83-1.35,1.42H209.01z"/>
	<path class="st0" d="M219.23,329.18l-0.13-0.7h-0.04c-0.46,0.56-1.18,0.86-2.01,0.86c-1.42,0-2.27-1.03-2.27-2.15
		c0-1.82,1.64-2.7,4.12-2.68v-0.1c0-0.37-0.2-0.9-1.28-0.9c-0.72,0-1.48,0.24-1.94,0.53l-0.4-1.41c0.49-0.27,1.45-0.62,2.73-0.62
		c2.34,0,3.09,1.38,3.09,3.03v2.44c0,0.67,0.03,1.32,0.1,1.71H219.23z M218.97,325.86c-1.15-0.01-2.04,0.26-2.04,1.11
		c0,0.56,0.37,0.83,0.86,0.83c0.55,0,0.99-0.36,1.13-0.8c0.03-0.12,0.04-0.24,0.04-0.37V325.86z"/>
	<path class="st0" d="M229.63,318.99v8.1c0,0.79,0.03,1.62,0.06,2.1h-1.94l-0.1-1.03h-0.03c-0.45,0.79-1.29,1.19-2.2,1.19
		c-1.67,0-3-1.42-3-3.6c-0.01-2.37,1.46-3.73,3.14-3.73c0.86,0,1.54,0.3,1.85,0.79h0.03v-3.8H229.63z M227.45,325.13
		c0-0.12-0.01-0.27-0.03-0.39c-0.13-0.59-0.6-1.08-1.28-1.08c-0.99,0-1.51,0.89-1.51,2c0,1.19,0.59,1.94,1.49,1.94
		c0.63,0,1.13-0.43,1.26-1.05c0.04-0.16,0.06-0.32,0.06-0.5V325.13z"/>
	<path class="st0" d="M238.19,318.99v8.1c0,0.79,0.03,1.62,0.06,2.1h-1.94l-0.1-1.03h-0.03c-0.45,0.79-1.29,1.19-2.2,1.19
		c-1.67,0-3-1.42-3-3.6c-0.01-2.37,1.46-3.73,3.14-3.73c0.86,0,1.54,0.3,1.85,0.79H236v-3.8H238.19z M236,325.13
		c0-0.12-0.01-0.27-0.03-0.39c-0.13-0.59-0.6-1.08-1.28-1.08c-0.99,0-1.51,0.89-1.51,2c0,1.19,0.59,1.94,1.49,1.94
		c0.63,0,1.13-0.43,1.26-1.05c0.04-0.16,0.06-0.32,0.06-0.5V325.13z"/>
	<path class="st0" d="M239.94,324.47c0-1.03-0.03-1.71-0.06-2.31h1.88l0.07,1.29h0.06c0.36-1.02,1.22-1.45,1.89-1.45
		c0.2,0,0.3,0,0.46,0.03v2.05c-0.16-0.03-0.34-0.06-0.59-0.06c-0.8,0-1.35,0.43-1.49,1.11c-0.03,0.14-0.04,0.32-0.04,0.49v3.56
		h-2.18V324.47z"/>
	<path class="st0" d="M246.96,326.37c0.07,0.9,0.96,1.34,1.98,1.34c0.75,0,1.35-0.1,1.94-0.29l0.29,1.48
		c-0.72,0.29-1.59,0.43-2.54,0.43c-2.38,0-3.75-1.38-3.75-3.58c0-1.78,1.11-3.75,3.55-3.75c2.27,0,3.13,1.77,3.13,3.5
		c0,0.37-0.04,0.7-0.07,0.86H246.96z M249.53,324.87c0-0.53-0.23-1.42-1.23-1.42c-0.92,0-1.29,0.83-1.35,1.42H249.53z"/>
	<path class="st0" d="M252.84,327.27c0.4,0.24,1.24,0.53,1.88,0.53c0.66,0,0.93-0.23,0.93-0.59c0-0.36-0.22-0.53-1.03-0.8
		c-1.45-0.49-2.01-1.28-2-2.11c0-1.31,1.12-2.3,2.86-2.3c0.82,0,1.55,0.19,1.98,0.4l-0.39,1.51c-0.32-0.17-0.92-0.4-1.52-0.4
		c-0.53,0-0.83,0.22-0.83,0.57c0,0.33,0.27,0.5,1.13,0.8c1.33,0.46,1.9,1.13,1.91,2.17c0,1.31-1.03,2.27-3.04,2.27
		c-0.92,0-1.74-0.2-2.27-0.49L252.84,327.27z"/>
	<path class="st0" d="M259.08,327.27c0.4,0.24,1.24,0.53,1.88,0.53c0.66,0,0.93-0.23,0.93-0.59c0-0.36-0.22-0.53-1.03-0.8
		c-1.45-0.49-2.01-1.28-2-2.11c0-1.31,1.12-2.3,2.86-2.3c0.82,0,1.55,0.19,1.98,0.4l-0.39,1.51c-0.32-0.17-0.92-0.4-1.52-0.4
		c-0.53,0-0.83,0.22-0.83,0.57c0,0.33,0.27,0.5,1.13,0.8c1.33,0.46,1.9,1.13,1.91,2.17c0,1.31-1.03,2.27-3.04,2.27
		c-0.92,0-1.74-0.2-2.27-0.49L259.08,327.27z"/>
	<path class="st0" d="M275.16,325.59c0,2.57-1.82,3.75-3.71,3.75c-2.05,0-3.63-1.35-3.63-3.62c0-2.27,1.49-3.72,3.75-3.72
		C273.72,322,275.16,323.48,275.16,325.59z M270.08,325.66c0,1.21,0.5,2.11,1.44,2.11c0.85,0,1.39-0.85,1.39-2.11
		c0-1.05-0.4-2.11-1.39-2.11C270.46,323.55,270.08,324.63,270.08,325.66z"/>
	<path class="st0" d="M276.51,324.4c0-0.88-0.03-1.62-0.06-2.24h1.9l0.1,0.96h0.04c0.29-0.45,1-1.12,2.17-1.12
		c1.44,0,2.51,0.95,2.51,3.02v4.16h-2.18v-3.89c0-0.9-0.32-1.52-1.11-1.52c-0.6,0-0.96,0.42-1.11,0.82
		c-0.06,0.13-0.09,0.34-0.09,0.55v4.05h-2.18V324.4z"/>
	<path class="st0" d="M20.6,339.39l1.05,3.45c0.11,0.42,0.26,0.93,0.34,1.31h0.04c0.1-0.37,0.22-0.9,0.32-1.31l0.86-3.45h2.34
		l-1.64,4.62c-1.01,2.79-1.68,3.91-2.47,4.61c-0.76,0.66-1.56,0.89-2.11,0.96l-0.46-1.85c0.27-0.04,0.62-0.17,0.95-0.37
		c0.33-0.17,0.69-0.52,0.9-0.88c0.07-0.1,0.11-0.22,0.11-0.32c0-0.07-0.01-0.19-0.1-0.36l-2.57-6.42H20.6z"/>
	<path class="st0" d="M33.19,342.82c0,2.57-1.82,3.75-3.7,3.75c-2.05,0-3.63-1.35-3.63-3.62c0-2.27,1.49-3.72,3.75-3.72
		C31.76,339.23,33.19,340.71,33.19,342.82z M28.11,342.89c0,1.21,0.5,2.11,1.44,2.11c0.85,0,1.39-0.85,1.39-2.11
		c0-1.05-0.4-2.11-1.39-2.11C28.5,340.78,28.11,341.86,28.11,342.89z"/>
	<path class="st0" d="M41.16,344.16c0,0.92,0.03,1.67,0.06,2.25h-1.9l-0.1-0.99h-0.04c-0.27,0.43-0.93,1.15-2.2,1.15
		c-1.42,0-2.47-0.89-2.47-3.06v-4.12h2.2v3.78c0,1.02,0.33,1.64,1.09,1.64c0.6,0,0.95-0.42,1.09-0.76c0.06-0.13,0.07-0.3,0.07-0.47
		v-4.18h2.2V344.16z"/>
	<path class="st0" d="M42.92,341.7c0-1.03-0.03-1.71-0.06-2.31h1.88l0.07,1.29h0.06c0.36-1.02,1.22-1.45,1.9-1.45
		c0.2,0,0.3,0,0.46,0.03v2.05c-0.16-0.03-0.34-0.06-0.59-0.06c-0.8,0-1.35,0.43-1.49,1.11c-0.03,0.14-0.04,0.32-0.04,0.49v3.56
		h-2.18V341.7z"/>
	<path class="st0" d="M56.54,346.24c-0.39,0.17-1.12,0.32-1.95,0.32c-2.27,0-3.72-1.38-3.72-3.59c0-2.05,1.41-3.73,4.02-3.73
		c0.57,0,1.21,0.1,1.67,0.27l-0.34,1.62c-0.26-0.11-0.65-0.21-1.22-0.21c-1.15,0-1.9,0.82-1.88,1.97c0,1.29,0.86,1.97,1.92,1.97
		c0.52,0,0.92-0.09,1.25-0.21L56.54,346.24z"/>
	<path class="st0" d="M57.75,341.7c0-1.03-0.03-1.71-0.06-2.31h1.88l0.07,1.29h0.06c0.36-1.02,1.22-1.45,1.9-1.45
		c0.2,0,0.3,0,0.46,0.03v2.05c-0.16-0.03-0.34-0.06-0.59-0.06c-0.8,0-1.35,0.43-1.49,1.11c-0.03,0.14-0.04,0.32-0.04,0.49v3.56
		h-2.18V341.7z"/>
	<path class="st0" d="M64.77,343.6c0.07,0.9,0.96,1.34,1.98,1.34c0.75,0,1.35-0.1,1.94-0.29l0.29,1.48
		c-0.72,0.29-1.59,0.43-2.54,0.43c-2.38,0-3.75-1.38-3.75-3.58c0-1.78,1.11-3.75,3.55-3.75c2.27,0,3.13,1.77,3.13,3.5
		c0,0.37-0.04,0.7-0.07,0.86H64.77z M67.34,342.1c0-0.53-0.23-1.42-1.23-1.42c-0.92,0-1.29,0.83-1.35,1.42H67.34z"/>
	<path class="st0" d="M77.48,336.22v8.1c0,0.79,0.03,1.62,0.06,2.1h-1.94l-0.1-1.03h-0.03c-0.44,0.79-1.29,1.19-2.2,1.19
		c-1.67,0-3-1.42-3-3.6c-0.01-2.37,1.46-3.73,3.14-3.73c0.86,0,1.54,0.3,1.85,0.79h0.03v-3.8H77.48z M75.29,342.36
		c0-0.12-0.01-0.27-0.03-0.39c-0.13-0.59-0.6-1.08-1.28-1.08c-0.99,0-1.51,0.89-1.51,2c0,1.19,0.59,1.94,1.49,1.94
		c0.63,0,1.13-0.43,1.26-1.05c0.04-0.16,0.06-0.32,0.06-0.5V342.36z"/>
	<path class="st0" d="M81.48,337.44c0,0.6-0.46,1.09-1.18,1.09c-0.69,0-1.15-0.49-1.13-1.09c-0.01-0.63,0.45-1.11,1.15-1.11
		S81.47,336.81,81.48,337.44z M79.23,346.41v-7.02h2.18v7.02H79.23z"/>
	<path class="st0" d="M85.6,337.38v2.01h1.56V341H85.6v2.54c0,0.85,0.2,1.24,0.86,1.24c0.27,0,0.49-0.03,0.65-0.06l0.01,1.65
		c-0.29,0.12-0.8,0.19-1.42,0.19c-0.7,0-1.29-0.24-1.64-0.6c-0.4-0.42-0.6-1.09-0.6-2.08V341h-0.93v-1.61h0.93v-1.52L85.6,337.38z"
		/>
	<path class="st0" d="M96.6,346.24c-0.39,0.17-1.12,0.32-1.95,0.32c-2.27,0-3.72-1.38-3.72-3.59c0-2.05,1.41-3.73,4.02-3.73
		c0.57,0,1.21,0.1,1.67,0.27l-0.34,1.62c-0.26-0.11-0.65-0.21-1.22-0.21c-1.15,0-1.9,0.82-1.88,1.97c0,1.29,0.86,1.97,1.92,1.97
		c0.52,0,0.92-0.09,1.25-0.21L96.6,346.24z"/>
	<path class="st0" d="M101.85,346.41l-0.13-0.7h-0.04c-0.46,0.56-1.18,0.86-2.01,0.86c-1.42,0-2.27-1.03-2.27-2.15
		c0-1.82,1.64-2.7,4.12-2.68v-0.1c0-0.37-0.2-0.9-1.28-0.9c-0.72,0-1.48,0.24-1.94,0.53l-0.4-1.41c0.49-0.27,1.45-0.62,2.73-0.62
		c2.34,0,3.09,1.38,3.09,3.03v2.44c0,0.67,0.03,1.32,0.1,1.71H101.85z M101.6,343.09c-1.15-0.01-2.04,0.26-2.04,1.11
		c0,0.56,0.37,0.83,0.86,0.83c0.55,0,0.99-0.36,1.13-0.8c0.03-0.12,0.04-0.24,0.04-0.37V343.09z"/>
	<path class="st0" d="M105.44,341.7c0-1.03-0.03-1.71-0.06-2.31h1.88l0.07,1.29h0.06c0.36-1.02,1.22-1.45,1.9-1.45
		c0.2,0,0.3,0,0.46,0.03v2.05c-0.16-0.03-0.34-0.06-0.59-0.06c-0.8,0-1.35,0.43-1.49,1.11c-0.03,0.14-0.04,0.32-0.04,0.49v3.56
		h-2.18V341.7z"/>
	<path class="st0" d="M117.59,336.22v8.1c0,0.79,0.03,1.62,0.06,2.1h-1.94l-0.1-1.03h-0.03c-0.44,0.79-1.29,1.19-2.2,1.19
		c-1.67,0-3-1.42-3-3.6c-0.01-2.37,1.46-3.73,3.14-3.73c0.86,0,1.54,0.3,1.85,0.79h0.03v-3.8H117.59z M115.41,342.36
		c0-0.12-0.01-0.27-0.03-0.39c-0.13-0.59-0.6-1.08-1.28-1.08c-0.99,0-1.51,0.89-1.51,2c0,1.19,0.59,1.94,1.49,1.94
		c0.63,0,1.13-0.43,1.26-1.05c0.04-0.16,0.06-0.32,0.06-0.5V342.36z"/>
	<path class="st0" d="M126.23,346.41l-0.13-0.7h-0.04c-0.46,0.56-1.18,0.86-2.01,0.86c-1.42,0-2.27-1.03-2.27-2.15
		c0-1.82,1.64-2.7,4.12-2.68v-0.1c0-0.37-0.2-0.9-1.28-0.9c-0.72,0-1.48,0.24-1.94,0.53l-0.4-1.41c0.49-0.27,1.45-0.62,2.73-0.62
		c2.34,0,3.09,1.38,3.09,3.03v2.44c0,0.67,0.03,1.32,0.1,1.71H126.23z M125.98,343.09c-1.15-0.01-2.04,0.26-2.04,1.11
		c0,0.56,0.37,0.83,0.86,0.83c0.55,0,0.99-0.36,1.13-0.8c0.03-0.12,0.04-0.24,0.04-0.37V343.09z"/>
	<path class="st0" d="M129.82,341.74c0-0.92-0.03-1.71-0.06-2.35h1.9l0.1,0.98h0.03c0.52-0.75,1.32-1.13,2.34-1.13
		c1.54,0,2.91,1.34,2.91,3.58c0,2.56-1.62,3.76-3.19,3.76c-0.85,0-1.51-0.34-1.82-0.8h-0.03v3.49h-2.18V341.74z M132.01,343.4
		c0,0.17,0.01,0.33,0.04,0.46c0.14,0.59,0.65,1.03,1.28,1.03c0.95,0,1.51-0.79,1.51-1.98c0-1.12-0.5-1.97-1.48-1.97
		c-0.62,0-1.16,0.46-1.31,1.11c-0.03,0.12-0.04,0.26-0.04,0.39V343.4z"/>
	<path class="st0" d="M138.41,341.74c0-0.92-0.03-1.71-0.06-2.35h1.9l0.1,0.98h0.03c0.52-0.75,1.32-1.13,2.34-1.13
		c1.54,0,2.91,1.34,2.91,3.58c0,2.56-1.62,3.76-3.19,3.76c-0.85,0-1.51-0.34-1.82-0.8h-0.03v3.49h-2.18V341.74z M140.59,343.4
		c0,0.17,0.01,0.33,0.04,0.46c0.14,0.59,0.65,1.03,1.28,1.03c0.95,0,1.51-0.79,1.51-1.98c0-1.12-0.5-1.97-1.48-1.97
		c-0.62,0-1.16,0.46-1.31,1.11c-0.03,0.12-0.04,0.26-0.04,0.39V343.4z"/>
	<path class="st0" d="M147,336.22h2.18v10.19H147V336.22z"/>
	<path class="st0" d="M153.2,337.44c0,0.6-0.46,1.09-1.18,1.09c-0.69,0-1.15-0.49-1.13-1.09c-0.01-0.63,0.45-1.11,1.15-1.11
		S153.19,336.81,153.2,337.44z M150.95,346.41v-7.02h2.18v7.02H150.95z"/>
	<path class="st0" d="M160.15,346.24c-0.39,0.17-1.12,0.32-1.95,0.32c-2.27,0-3.72-1.38-3.72-3.59c0-2.05,1.41-3.73,4.02-3.73
		c0.57,0,1.21,0.1,1.67,0.27l-0.34,1.62c-0.26-0.11-0.65-0.21-1.22-0.21c-1.15,0-1.9,0.82-1.88,1.97c0,1.29,0.86,1.97,1.92,1.97
		c0.52,0,0.92-0.09,1.25-0.21L160.15,346.24z"/>
	<path class="st0" d="M165.4,346.41l-0.13-0.7h-0.04c-0.46,0.56-1.18,0.86-2.01,0.86c-1.42,0-2.27-1.03-2.27-2.15
		c0-1.82,1.64-2.7,4.12-2.68v-0.1c0-0.37-0.2-0.9-1.28-0.9c-0.72,0-1.48,0.24-1.94,0.53l-0.4-1.41c0.49-0.27,1.45-0.62,2.73-0.62
		c2.34,0,3.09,1.38,3.09,3.03v2.44c0,0.67,0.03,1.32,0.1,1.71H165.4z M165.15,343.09c-1.15-0.01-2.04,0.26-2.04,1.11
		c0,0.56,0.37,0.83,0.86,0.83c0.55,0,0.99-0.36,1.13-0.8c0.03-0.12,0.04-0.24,0.04-0.37V343.09z"/>
	<path class="st0" d="M171.32,337.38v2.01h1.56V341h-1.56v2.54c0,0.85,0.2,1.24,0.86,1.24c0.27,0,0.49-0.03,0.65-0.06l0.01,1.65
		c-0.29,0.12-0.8,0.19-1.42,0.19c-0.7,0-1.29-0.24-1.64-0.6c-0.4-0.42-0.6-1.09-0.6-2.08V341h-0.93v-1.61h0.93v-1.52L171.32,337.38z
		"/>
	<path class="st0" d="M176.4,337.44c0,0.6-0.46,1.09-1.18,1.09c-0.69,0-1.15-0.49-1.13-1.09c-0.01-0.63,0.45-1.11,1.15-1.11
		S176.39,336.81,176.4,337.44z M174.15,346.41v-7.02h2.18v7.02H174.15z"/>
	<path class="st0" d="M185.02,342.82c0,2.57-1.82,3.75-3.7,3.75c-2.05,0-3.63-1.35-3.63-3.62c0-2.27,1.49-3.72,3.75-3.72
		C183.58,339.23,185.02,340.71,185.02,342.82z M179.93,342.89c0,1.21,0.5,2.11,1.44,2.11c0.85,0,1.39-0.85,1.39-2.11
		c0-1.05-0.4-2.11-1.39-2.11C180.32,340.78,179.93,341.86,179.93,342.89z"/>
	<path class="st0" d="M186.37,341.63c0-0.88-0.03-1.62-0.06-2.24h1.9l0.1,0.96h0.04c0.29-0.45,1-1.12,2.17-1.12
		c1.44,0,2.51,0.95,2.51,3.02v4.16h-2.18v-3.89c0-0.9-0.32-1.52-1.11-1.52c-0.6,0-0.96,0.42-1.11,0.82
		c-0.06,0.13-0.09,0.34-0.09,0.55v4.05h-2.18V341.63z"/>
	<path class="st0" d="M194.62,345.25c0-0.78,0.53-1.33,1.29-1.33c0.76,0,1.28,0.54,1.28,1.33c0,0.76-0.52,1.32-1.29,1.32
		C195.15,346.57,194.62,346.01,194.62,345.25z"/>
</g>
<g>
	<path class="st0" d="M17.36,241.72c0-1.26-0.04-2.33-0.08-3.22H20l0.14,1.38h0.06c0.41-0.64,1.45-1.61,3.12-1.61
		c2.07,0,3.62,1.36,3.62,4.34v5.99h-3.14V243c0-1.3-0.45-2.19-1.59-2.19c-0.87,0-1.38,0.6-1.59,1.18c-0.08,0.19-0.12,0.5-0.12,0.79
		v5.83h-3.14V241.72z"/>
	<path class="st0" d="M39.44,243.43c0,3.7-2.62,5.39-5.33,5.39c-2.95,0-5.23-1.94-5.23-5.21c0-3.26,2.15-5.35,5.39-5.35
		C37.38,238.27,39.44,240.39,39.44,243.43z M32.13,243.53c0,1.74,0.72,3.04,2.07,3.04c1.22,0,2-1.22,2-3.04c0-1.51-0.58-3.04-2-3.04
		C32.69,240.5,32.13,242.05,32.13,243.53z"/>
	<path class="st0" d="M51.3,248.6l-0.19-1.01h-0.06c-0.66,0.81-1.69,1.24-2.89,1.24c-2.05,0-3.26-1.49-3.26-3.1
		c0-2.62,2.36-3.88,5.93-3.86v-0.14c0-0.54-0.29-1.3-1.84-1.3c-1.03,0-2.13,0.35-2.79,0.76l-0.58-2.02c0.7-0.39,2.09-0.89,3.93-0.89
		c3.37,0,4.44,1.98,4.44,4.36v3.51c0,0.97,0.04,1.9,0.14,2.46H51.3z M50.92,243.82c-1.65-0.02-2.93,0.37-2.93,1.59
		c0,0.81,0.54,1.2,1.24,1.2c0.79,0,1.43-0.52,1.63-1.16c0.04-0.17,0.06-0.35,0.06-0.54V243.82z"/>
	<path class="st0" d="M56.46,241.72c0-1.26-0.04-2.33-0.08-3.22h2.73l0.14,1.38h0.06c0.41-0.64,1.45-1.61,3.12-1.61
		c2.07,0,3.62,1.36,3.62,4.34v5.99H62.9V243c0-1.3-0.45-2.19-1.59-2.19c-0.87,0-1.38,0.6-1.59,1.18c-0.08,0.19-0.12,0.5-0.12,0.79
		v5.83h-3.14V241.72z"/>
	<path class="st0" d="M68.56,241.72c0-1.26-0.04-2.33-0.08-3.22h2.73l0.14,1.38h0.06c0.41-0.64,1.45-1.61,3.12-1.61
		c2.07,0,3.62,1.36,3.62,4.34v5.99h-3.14V243c0-1.3-0.45-2.19-1.59-2.19c-0.87,0-1.38,0.6-1.59,1.18c-0.08,0.19-0.12,0.5-0.12,0.79
		v5.83h-3.14V241.72z"/>
	<path class="st0" d="M90.19,245.35c0,1.32,0.04,2.4,0.08,3.24h-2.73l-0.14-1.43h-0.06c-0.39,0.62-1.34,1.65-3.16,1.65
		c-2.05,0-3.55-1.28-3.55-4.4v-5.93h3.16v5.43c0,1.47,0.48,2.36,1.57,2.36c0.87,0,1.36-0.6,1.57-1.1c0.08-0.19,0.1-0.43,0.1-0.68
		v-6.01h3.16V245.35z"/>
	<path class="st0" d="M98.45,248.6l-0.19-1.01H98.2c-0.66,0.81-1.69,1.24-2.89,1.24c-2.05,0-3.26-1.49-3.26-3.1
		c0-2.62,2.36-3.88,5.93-3.86v-0.14c0-0.54-0.29-1.3-1.84-1.3c-1.03,0-2.13,0.35-2.79,0.76l-0.58-2.02c0.7-0.39,2.09-0.89,3.93-0.89
		c3.37,0,4.44,1.98,4.44,4.36v3.51c0,0.97,0.04,1.9,0.14,2.46H98.45z M98.08,243.82c-1.65-0.02-2.93,0.37-2.93,1.59
		c0,0.81,0.54,1.2,1.24,1.2c0.79,0,1.43-0.52,1.63-1.16c0.04-0.17,0.06-0.35,0.06-0.54V243.82z"/>
	<path class="st0" d="M103.61,233.93h3.14v14.67h-3.14V233.93z"/>
	<path class="st0" d="M113.82,248.6v-7.79h-1.32v-2.31h1.32v-0.39c0-1.22,0.37-2.56,1.28-3.39c0.79-0.74,1.88-1.01,2.79-1.01
		c0.7,0,1.24,0.08,1.67,0.21l-0.12,2.42c-0.27-0.08-0.6-0.14-1.01-0.14c-1.03,0-1.47,0.81-1.47,1.8v0.52h2.02v2.31h-2v7.79H113.82z"
		/>
	<path class="st0" d="M122.72,244.55c0.1,1.3,1.38,1.92,2.85,1.92c1.07,0,1.94-0.14,2.79-0.41l0.41,2.13
		c-1.03,0.41-2.29,0.62-3.66,0.62c-3.43,0-5.39-1.98-5.39-5.14c0-2.56,1.59-5.39,5.1-5.39c3.26,0,4.5,2.54,4.5,5.04
		c0,0.54-0.06,1.01-0.1,1.24H122.72z M126.42,242.4c0-0.76-0.33-2.05-1.78-2.05c-1.32,0-1.86,1.2-1.94,2.05H126.42z"/>
	<path class="st0" d="M133.63,244.55c0.1,1.3,1.38,1.92,2.85,1.92c1.07,0,1.94-0.14,2.79-0.41l0.41,2.13
		c-1.03,0.41-2.29,0.62-3.66,0.62c-3.43,0-5.39-1.98-5.39-5.14c0-2.56,1.59-5.39,5.1-5.39c3.26,0,4.5,2.54,4.5,5.04
		c0,0.54-0.06,1.01-0.1,1.24H133.63z M137.32,242.4c0-0.76-0.33-2.05-1.78-2.05c-1.32,0-1.86,1.2-1.94,2.05H137.32z"/>
	<path class="st0" d="M141.76,246.94c0-1.1,0.76-1.88,1.86-1.88c1.09,0,1.82,0.78,1.84,1.88c0,1.07-0.72,1.88-1.84,1.88
		S141.76,248.02,141.76,246.94z M142.44,244.03l-0.48-9.36h3.29l-0.45,9.36H142.44z"/>
</g>
<g>
	<path class="st0" d="M153.04,231.75h-0.02l-1.44,0.69l-0.29-1.33l2-0.93h1.47v7.57h-1.71V231.75z"/>
</g>
<path class="st2" d="M-260,389c174.17-15.51,366.02-24.51,573-22c239.99,2.91,459.86,20.78,656,46c0,14.67,0,29.33,0,44
	c-166.58-42.04-393.44-81.21-663-76c-225.05,4.35-417.2,38.42-566,76C-260,434.33-260,411.67-260,389z"/>
<g>
	<g>
		<path class="st0" d="M17.25,144.75c1.61,0.82,4.08,1.65,6.63,1.65c2.75,0,4.2-1.14,4.2-2.86c0-1.65-1.26-2.59-4.43-3.73
			c-4.39-1.53-7.26-3.96-7.26-7.81c0-4.51,3.77-7.96,10-7.96c2.98,0,5.18,0.63,6.75,1.33l-1.33,4.83c-1.06-0.51-2.94-1.26-5.53-1.26
			c-2.59,0-3.84,1.18-3.84,2.55c0,1.69,1.49,2.43,4.9,3.73c4.67,1.73,6.87,4.16,6.87,7.88c0,4.43-3.41,8.2-10.67,8.2
			c-3.02,0-6-0.78-7.49-1.61L17.25,144.75z"/>
		<path class="st0" d="M38.04,138.16c0-2.51-0.08-4.67-0.16-6.43h5.18l0.27,2.67h0.08c1.41-2.04,3.61-3.1,6.39-3.1
			c4.2,0,7.96,3.65,7.96,9.77c0,6.98-4.43,10.28-8.71,10.28c-2.31,0-4.12-0.94-4.98-2.2H44v9.53h-5.96V138.16z M44,142.67
			c0,0.47,0.04,0.9,0.12,1.26c0.39,1.61,1.77,2.82,3.49,2.82c2.59,0,4.12-2.16,4.12-5.41c0-3.06-1.37-5.37-4.04-5.37
			c-1.69,0-3.18,1.25-3.57,3.02c-0.08,0.31-0.12,0.71-0.12,1.06V142.67z"/>
		<path class="st0" d="M66.21,143.22c0.2,2.47,2.63,3.65,5.41,3.65c2.04,0,3.69-0.28,5.3-0.79l0.78,4.04
			c-1.96,0.78-4.35,1.18-6.94,1.18c-6.51,0-10.24-3.77-10.24-9.77c0-4.86,3.02-10.24,9.69-10.24c6.2,0,8.55,4.83,8.55,9.57
			c0,1.02-0.12,1.92-0.2,2.35H66.21z M73.23,139.14c0-1.45-0.63-3.88-3.37-3.88c-2.51,0-3.53,2.28-3.69,3.88H73.23z"/>
		<path class="st0" d="M96.73,150.44c-1.06,0.47-3.06,0.86-5.34,0.86c-6.2,0-10.16-3.77-10.16-9.81c0-5.61,3.84-10.2,10.98-10.2
			c1.57,0,3.29,0.28,4.55,0.75l-0.94,4.43c-0.71-0.31-1.77-0.59-3.33-0.59c-3.14,0-5.18,2.24-5.14,5.38c0,3.53,2.35,5.38,5.26,5.38
			c1.41,0,2.51-0.24,3.41-0.59L96.73,150.44z"/>
		<path class="st0" d="M106.18,126.39c0,1.65-1.26,2.98-3.22,2.98c-1.88,0-3.14-1.33-3.1-2.98c-0.04-1.73,1.22-3.02,3.14-3.02
			S106.14,124.67,106.18,126.39z M100.02,150.91v-19.18h5.96v19.18H100.02z"/>
		<path class="st0" d="M121.68,150.91l-0.35-1.92h-0.12c-1.26,1.53-3.22,2.35-5.49,2.35c-3.88,0-6.2-2.82-6.2-5.88
			c0-4.98,4.47-7.38,11.26-7.34v-0.27c0-1.02-0.55-2.47-3.49-2.47c-1.96,0-4.04,0.67-5.3,1.45l-1.1-3.84
			c1.33-0.75,3.96-1.69,7.45-1.69c6.39,0,8.43,3.77,8.43,8.28v6.67c0,1.84,0.08,3.61,0.27,4.67H121.68z M120.97,141.85
			c-3.14-0.04-5.57,0.71-5.57,3.02c0,1.53,1.02,2.28,2.35,2.28c1.49,0,2.71-0.98,3.1-2.2c0.08-0.31,0.12-0.67,0.12-1.02V141.85z"/>
		<path class="st0" d="M131.48,123.06h5.96v27.85h-5.96V123.06z"/>
		<path class="st0" d="M150.39,124.47h16.16v4.9h-10.16v6.04h9.49v4.87h-9.49v10.63h-6V124.47z"/>
		<path class="st0" d="M176.24,126.39c0,1.65-1.26,2.98-3.22,2.98c-1.88,0-3.14-1.33-3.1-2.98c-0.04-1.73,1.22-3.02,3.14-3.02
			S176.2,124.67,176.24,126.39z M170.08,150.91v-19.18h5.96v19.18H170.08z"/>
		<path class="st0" d="M180.83,137.85c0-2.39-0.08-4.43-0.16-6.12h5.18l0.27,2.63h0.12c0.78-1.22,2.75-3.06,5.92-3.06
			c3.92,0,6.87,2.59,6.87,8.24v11.38h-5.96v-10.63c0-2.47-0.86-4.16-3.02-4.16c-1.65,0-2.63,1.14-3.02,2.24
			c-0.16,0.35-0.24,0.94-0.24,1.49v11.06h-5.96V137.85z"/>
		<path class="st0" d="M214.73,150.91l-0.35-1.92h-0.12c-1.25,1.53-3.22,2.35-5.49,2.35c-3.88,0-6.2-2.82-6.2-5.88
			c0-4.98,4.47-7.38,11.26-7.34v-0.27c0-1.02-0.55-2.47-3.49-2.47c-1.96,0-4.04,0.67-5.3,1.45l-1.1-3.84
			c1.33-0.75,3.96-1.69,7.45-1.69c6.39,0,8.43,3.77,8.43,8.28v6.67c0,1.84,0.08,3.61,0.27,4.67H214.73z M214.02,141.85
			c-3.14-0.04-5.57,0.71-5.57,3.02c0,1.53,1.02,2.28,2.35,2.28c1.49,0,2.71-0.98,3.1-2.2c0.08-0.31,0.12-0.67,0.12-1.02V141.85z"/>
		<path class="st0" d="M224.53,137.85c0-2.39-0.08-4.43-0.16-6.12h5.18l0.28,2.63h0.12c0.79-1.22,2.75-3.06,5.92-3.06
			c3.92,0,6.87,2.59,6.87,8.24v11.38h-5.96v-10.63c0-2.47-0.86-4.16-3.02-4.16c-1.65,0-2.63,1.14-3.02,2.24
			c-0.16,0.35-0.24,0.94-0.24,1.49v11.06h-5.96V137.85z"/>
		<path class="st0" d="M261.92,150.44c-1.06,0.47-3.06,0.86-5.34,0.86c-6.2,0-10.16-3.77-10.16-9.81c0-5.61,3.84-10.2,10.98-10.2
			c1.57,0,3.29,0.28,4.55,0.75l-0.94,4.43c-0.71-0.31-1.77-0.59-3.33-0.59c-3.14,0-5.18,2.24-5.14,5.38c0,3.53,2.35,5.38,5.26,5.38
			c1.41,0,2.51-0.24,3.41-0.59L261.92,150.44z"/>
		<path class="st0" d="M271.37,126.39c0,1.65-1.25,2.98-3.22,2.98c-1.88,0-3.14-1.33-3.1-2.98c-0.04-1.73,1.22-3.02,3.14-3.02
			C270.12,123.37,271.33,124.67,271.37,126.39z M265.21,150.91v-19.18h5.96v19.18H265.21z"/>
		<path class="st0" d="M275.96,137.85c0-2.39-0.08-4.43-0.16-6.12h5.18l0.28,2.63h0.12c0.79-1.22,2.75-3.06,5.92-3.06
			c3.92,0,6.87,2.59,6.87,8.24v11.38h-5.96v-10.63c0-2.47-0.86-4.16-3.02-4.16c-1.65,0-2.63,1.14-3.02,2.24
			c-0.16,0.35-0.24,0.94-0.24,1.49v11.06h-5.96V137.85z"/>
		<path class="st0" d="M317.27,131.73c-0.08,1.22-0.16,2.83-0.16,5.69v10.71c0,3.69-0.75,6.71-2.9,8.63
			c-2.12,1.8-4.98,2.35-7.81,2.35c-2.51,0-5.18-0.51-6.9-1.49l1.18-4.51c1.22,0.71,3.33,1.45,5.57,1.45c2.83,0,4.98-1.53,4.98-5.06
			v-1.25h-0.08c-1.14,1.61-2.98,2.51-5.18,2.51c-4.75,0-8.12-3.84-8.12-9.38c0-6.16,4-10.08,8.71-10.08c2.63,0,4.28,1.14,5.26,2.71
			h0.08l0.2-2.28H317.27z M311.15,139.54c0-0.39-0.04-0.78-0.12-1.1c-0.43-1.57-1.57-2.63-3.22-2.63c-2.16,0-3.92,1.96-3.92,5.45
			c0,2.86,1.41,5.1,3.92,5.1c1.53,0,2.75-1.02,3.14-2.43c0.16-0.43,0.2-1.06,0.2-1.57V139.54z"/>
	</g>
	<g>
		<path class="st0" d="M330.92,127.26l-2.24,2.63l0.02,0.06l3.3-0.66v2.09l-3.32-0.58l-0.02,0.06l2.26,2.55l-1.85,1.08l-1.18-3.21
			l-0.04,0.02l-1.2,3.19l-1.78-1.08l2.22-2.59v-0.04l-3.26,0.6v-2.09l3.21,0.64l0.02-0.04l-2.2-2.61l1.85-1.06l1.16,3.17h0.04
			l1.18-3.17L330.92,127.26z"/>
	</g>
	<g>
		<path class="st0" d="M18.33,105.67v-6.01l5.49-4.96c9.28-8.3,13.78-13.06,13.91-18.03c0-3.46-2.09-6.21-6.99-6.21
			c-3.66,0-6.86,1.83-9.08,3.53l-2.81-7.12c3.2-2.42,8.17-4.38,13.91-4.38c9.6,0,14.89,5.62,14.89,13.33
			c0,7.12-5.16,12.8-11.3,18.29l-3.92,3.27v0.13h16v8.17H18.33z"/>
		<path class="st0" d="M72.15,105.67V95.55H53.34v-6.47l16.07-25.87h12.15V88.1h5.1v7.45h-5.1v10.13H72.15z M72.15,88.1v-9.41
			c0-2.55,0.13-5.16,0.33-7.9h-0.26c-1.37,2.74-2.48,5.23-3.92,7.9l-5.68,9.28v0.13H72.15z"/>
		<path class="st0" d="M142.83,88.82c-0.2-5.29-0.39-11.69-0.39-18.09h-0.2c-1.37,5.62-3.2,11.89-4.9,17.05l-5.36,17.18h-7.77
			l-4.7-17.05c-1.44-5.16-2.94-11.43-3.98-17.18h-0.13c-0.26,5.94-0.46,12.74-0.78,18.23l-0.78,16.72h-9.21l2.81-44.03h13.26
			l4.31,14.7c1.37,5.1,2.74,10.58,3.72,15.74h0.2c1.24-5.1,2.74-10.91,4.18-15.81l4.7-14.63h13l2.42,44.03h-9.73L142.83,88.82z"/>
		<path class="st0" d="M192.27,89.34c0,11.69-8.3,17.05-16.85,17.05c-9.34,0-16.53-6.14-16.53-16.46c0-10.32,6.79-16.92,17.05-16.92
			C185.74,73.01,192.27,79.74,192.27,89.34z M169.15,89.67c0,5.49,2.29,9.6,6.53,9.6c3.85,0,6.34-3.85,6.34-9.6
			c0-4.77-1.83-9.6-6.34-9.6C170.91,80.06,169.15,84.96,169.15,89.67z"/>
		<path class="st0" d="M198.41,83.92c0-3.98-0.13-7.38-0.26-10.19h8.62l0.46,4.38h0.2c1.31-2.02,4.57-5.1,9.86-5.1
			c6.53,0,11.43,4.31,11.43,13.72v18.94h-9.93v-17.7c0-4.12-1.44-6.92-5.03-6.92c-2.74,0-4.38,1.89-5.03,3.72
			c-0.26,0.59-0.39,1.57-0.39,2.48v18.42h-9.93V83.92z"/>
		<path class="st0" d="M247.4,64.58v9.15h7.12v7.32h-7.12v11.56c0,3.85,0.91,5.62,3.92,5.62c1.24,0,2.22-0.13,2.94-0.26l0.07,7.51
			c-1.31,0.52-3.66,0.85-6.47,0.85c-3.2,0-5.88-1.11-7.45-2.74c-1.83-1.89-2.74-4.96-2.74-9.47V81.04h-4.25v-7.32h4.25V66.8
			L247.4,64.58z"/>
		<path class="st0" d="M260.26,59.29h9.93v18.23h0.13c1.05-1.37,2.35-2.42,3.92-3.27c1.44-0.78,3.33-1.24,5.16-1.24
			c6.34,0,11.17,4.38,11.17,13.98v18.68h-9.93V88.1c0-4.18-1.44-7.06-5.16-7.06c-2.61,0-4.25,1.7-4.96,3.46
			c-0.26,0.65-0.33,1.5-0.33,2.22v18.94h-9.93V59.29z"/>
		<path class="st0" d="M298.47,96.98c1.83,1.11,5.62,2.42,8.56,2.42c3,0,4.25-1.05,4.25-2.68c0-1.63-0.98-2.42-4.7-3.66
			c-6.6-2.22-9.15-5.81-9.08-9.6c0-5.94,5.1-10.45,13-10.45c3.72,0,7.06,0.85,9.01,1.83l-1.76,6.86c-1.44-0.78-4.18-1.83-6.92-1.83
			c-2.42,0-3.79,0.98-3.79,2.61c0,1.5,1.24,2.29,5.16,3.66c6.08,2.09,8.62,5.16,8.69,9.86c0,5.94-4.7,10.32-13.85,10.32
			c-4.18,0-7.9-0.91-10.32-2.22L298.47,96.98z"/>
	</g>
</g>
<g>
	<path class="st0" d="M26.64,169.88c0,2.91-2.06,4.24-4.19,4.24c-2.32,0-4.11-1.53-4.11-4.09c0-2.57,1.69-4.21,4.24-4.21
		C25.02,165.82,26.64,167.5,26.64,169.88z M20.89,169.96c0,1.36,0.57,2.39,1.62,2.39c0.96,0,1.57-0.96,1.57-2.39
		c0-1.19-0.45-2.39-1.57-2.39C21.33,167.58,20.89,168.8,20.89,169.96z"/>
	<path class="st0" d="M28.17,168.54c0-0.99-0.03-1.83-0.06-2.53h2.14l0.11,1.09h0.05c0.32-0.5,1.14-1.27,2.45-1.27
		c1.62,0,2.84,1.07,2.84,3.41v4.71h-2.47v-4.4c0-1.02-0.36-1.72-1.25-1.72c-0.68,0-1.09,0.47-1.25,0.93
		c-0.06,0.15-0.1,0.39-0.1,0.62v4.58h-2.47V168.54z"/>
	<path class="st0" d="M45.47,173.94l-0.15-0.8h-0.05c-0.52,0.63-1.33,0.97-2.27,0.97c-1.61,0-2.57-1.17-2.57-2.44
		c0-2.06,1.85-3.05,4.66-3.04v-0.11c0-0.42-0.23-1.02-1.44-1.02c-0.81,0-1.67,0.28-2.19,0.6l-0.45-1.59c0.55-0.31,1.64-0.7,3.08-0.7
		c2.65,0,3.49,1.56,3.49,3.43v2.76c0,0.76,0.03,1.49,0.11,1.93H45.47z M45.18,170.19c-1.3-0.02-2.31,0.29-2.31,1.25
		c0,0.63,0.42,0.94,0.97,0.94c0.62,0,1.12-0.41,1.28-0.91c0.03-0.13,0.05-0.28,0.05-0.42V170.19z"/>
	<path class="st0" d="M49.53,162.42H52v11.53h-2.47V162.42z"/>
	<path class="st0" d="M53.99,162.42h2.47v11.53h-2.47V162.42z"/>
	<path class="st0" d="M64.28,163.79c0,0.68-0.52,1.23-1.33,1.23c-0.78,0-1.3-0.55-1.28-1.23c-0.02-0.71,0.5-1.25,1.3-1.25
		S64.27,163.08,64.28,163.79z M61.74,173.94V166h2.47v7.94H61.74z"/>
	<path class="st0" d="M68.94,163.73V166h1.77v1.82h-1.77v2.87c0,0.96,0.23,1.4,0.97,1.4c0.31,0,0.55-0.03,0.73-0.06l0.02,1.87
		c-0.32,0.13-0.91,0.21-1.61,0.21c-0.8,0-1.46-0.28-1.85-0.68c-0.45-0.47-0.68-1.23-0.68-2.35v-3.25h-1.06V166h1.06v-1.72
		L68.94,163.73z"/>
	<path class="st0" d="M73.96,170.76c0.08,1.02,1.09,1.51,2.24,1.51c0.84,0,1.53-0.11,2.19-0.32l0.32,1.67
		c-0.81,0.32-1.8,0.49-2.87,0.49c-2.69,0-4.24-1.56-4.24-4.04c0-2.01,1.25-4.24,4.01-4.24c2.56,0,3.54,2,3.54,3.96
		c0,0.42-0.05,0.8-0.08,0.97H73.96z M76.86,169.07c0-0.6-0.26-1.61-1.4-1.61c-1.04,0-1.46,0.94-1.53,1.61H76.86z"/>
	<path class="st0" d="M80.63,168.54c0-0.99-0.03-1.83-0.06-2.53h2.08l0.11,1.07h0.05c0.34-0.5,1.04-1.25,2.4-1.25
		c1.02,0,1.83,0.52,2.18,1.35h0.03c0.29-0.41,0.65-0.73,1.02-0.96c0.44-0.26,0.93-0.39,1.51-0.39c1.53,0,2.68,1.07,2.68,3.44v4.68
		h-2.4v-4.32c0-1.15-0.37-1.82-1.17-1.82c-0.57,0-0.97,0.39-1.14,0.86c-0.07,0.18-0.1,0.44-0.1,0.63v4.64h-2.4v-4.45
		c0-1.01-0.36-1.69-1.14-1.69c-0.63,0-1.01,0.49-1.15,0.89c-0.08,0.19-0.1,0.42-0.1,0.62v4.63h-2.4V168.54z"/>
	<path class="st0" d="M94.57,171.78c0.45,0.28,1.4,0.6,2.13,0.6c0.75,0,1.06-0.26,1.06-0.67c0-0.41-0.24-0.6-1.17-0.91
		c-1.64-0.55-2.27-1.45-2.26-2.39c0-1.48,1.27-2.6,3.23-2.6c0.93,0,1.75,0.21,2.24,0.45l-0.44,1.7c-0.36-0.19-1.04-0.45-1.72-0.45
		c-0.6,0-0.94,0.24-0.94,0.65c0,0.37,0.31,0.57,1.28,0.91c1.51,0.52,2.14,1.28,2.16,2.45c0,1.48-1.17,2.57-3.44,2.57
		c-1.04,0-1.96-0.23-2.57-0.55L94.57,171.78z"/>
	<path class="st0" d="M104.91,168.67c0-1.04-0.03-1.93-0.06-2.66h2.14l0.11,1.1h0.03c0.58-0.84,1.49-1.28,2.65-1.28
		c1.74,0,3.3,1.51,3.3,4.04c0,2.89-1.83,4.25-3.6,4.25c-0.96,0-1.7-0.39-2.06-0.91h-0.03v3.94h-2.47V168.67z M107.38,170.53
		c0,0.2,0.02,0.37,0.05,0.52c0.16,0.67,0.73,1.17,1.44,1.17c1.07,0,1.71-0.89,1.71-2.24c0-1.27-0.57-2.22-1.67-2.22
		c-0.7,0-1.31,0.52-1.48,1.25c-0.03,0.13-0.05,0.29-0.05,0.44V170.53z"/>
	<path class="st0" d="M114.62,168.62c0-1.17-0.03-1.93-0.06-2.61h2.13l0.08,1.46h0.06c0.41-1.15,1.38-1.64,2.14-1.64
		c0.23,0,0.34,0,0.52,0.03v2.32c-0.18-0.03-0.39-0.06-0.67-0.06c-0.91,0-1.53,0.49-1.69,1.25c-0.03,0.16-0.05,0.36-0.05,0.55v4.03
		h-2.47V168.62z"/>
	<path class="st0" d="M123.34,163.79c0,0.68-0.52,1.23-1.33,1.23c-0.78,0-1.3-0.55-1.28-1.23c-0.02-0.71,0.5-1.25,1.3-1.25
		S123.32,163.08,123.34,163.79z M120.79,173.94V166h2.47v7.94H120.79z"/>
	<path class="st0" d="M131.19,173.75c-0.44,0.19-1.27,0.36-2.21,0.36c-2.56,0-4.21-1.56-4.21-4.06c0-2.32,1.59-4.22,4.55-4.22
		c0.65,0,1.36,0.11,1.88,0.31l-0.39,1.83c-0.29-0.13-0.73-0.24-1.38-0.24c-1.3,0-2.14,0.93-2.13,2.22c0,1.46,0.97,2.22,2.18,2.22
		c0.58,0,1.04-0.1,1.41-0.24L131.19,173.75z"/>
	<path class="st0" d="M134.28,170.76c0.08,1.02,1.09,1.51,2.24,1.51c0.84,0,1.53-0.11,2.19-0.32l0.32,1.67
		c-0.81,0.32-1.8,0.49-2.87,0.49c-2.7,0-4.24-1.56-4.24-4.04c0-2.01,1.25-4.24,4.01-4.24c2.57,0,3.54,2,3.54,3.96
		c0,0.42-0.05,0.8-0.08,0.97H134.28z M137.18,169.07c0-0.6-0.26-1.61-1.4-1.61c-1.04,0-1.46,0.94-1.53,1.61H137.18z"/>
	<path class="st0" d="M148.65,162.42v9.16c0,0.89,0.03,1.83,0.06,2.37h-2.19l-0.11-1.17h-0.03c-0.5,0.89-1.46,1.35-2.48,1.35
		c-1.88,0-3.39-1.61-3.39-4.08c-0.02-2.68,1.66-4.22,3.56-4.22c0.97,0,1.74,0.34,2.09,0.89h0.03v-4.3H148.65z M146.18,169.36
		c0-0.13-0.02-0.31-0.03-0.44c-0.15-0.67-0.68-1.22-1.44-1.22c-1.12,0-1.7,1.01-1.7,2.26c0,1.35,0.67,2.19,1.69,2.19
		c0.71,0,1.28-0.49,1.43-1.19c0.05-0.18,0.06-0.36,0.06-0.57V169.36z"/>
	<path class="st0" d="M156.57,175.35v-1.54c-1.09-0.05-2.14-0.34-2.76-0.7l0.49-1.9c0.68,0.37,1.64,0.71,2.7,0.71
		c0.93,0,1.56-0.36,1.56-1.01c0-0.62-0.52-1.01-1.72-1.41c-1.74-0.58-2.92-1.4-2.92-2.97c0-1.43,1.01-2.55,2.74-2.89v-1.54h1.59
		v1.43c1.09,0.05,1.82,0.28,2.35,0.54l-0.47,1.83c-0.42-0.18-1.17-0.55-2.34-0.55c-1.06,0-1.4,0.45-1.4,0.91
		c0,0.54,0.57,0.88,1.95,1.4c1.93,0.68,2.71,1.57,2.71,3.04c0,1.44-1.02,2.68-2.89,3v1.66H156.57z"/>
	<path class="st0" d="M166.97,173.94v-2.52h-4.68v-1.61l3.99-6.43h3.02v6.19h1.27v1.85h-1.27v2.52H166.97z M166.97,169.57v-2.34
		c0-0.63,0.03-1.28,0.08-1.96h-0.06c-0.34,0.68-0.62,1.3-0.97,1.96l-1.41,2.31v0.03H166.97z"/>
	<path class="st0" d="M172.39,172.16c0.31,0.03,0.58,0.03,1.07,0c0.75-0.05,1.51-0.26,2.08-0.65c0.68-0.47,1.14-1.15,1.33-1.95
		l-0.05-0.02c-0.47,0.49-1.15,0.76-2.11,0.76c-1.79,0-3.3-1.25-3.3-3.3c0-2.06,1.66-3.8,3.98-3.8c2.71,0,3.99,2.08,3.99,4.55
		c0,2.19-0.7,3.8-1.85,4.85c-1.01,0.91-2.39,1.41-4.03,1.48c-0.42,0.03-0.84,0.02-1.12,0V172.16z M173.89,166.86
		c0,0.91,0.49,1.69,1.49,1.69c0.67,0,1.14-0.32,1.36-0.7c0.08-0.15,0.13-0.31,0.13-0.62c0-1.12-0.42-2.22-1.54-2.22
		C174.49,165.01,173.87,165.76,173.89,166.86z"/>
	<path class="st0" d="M181.4,172.16c0.31,0.03,0.58,0.03,1.07,0c0.75-0.05,1.51-0.26,2.08-0.65c0.68-0.47,1.14-1.15,1.33-1.95
		l-0.05-0.02c-0.47,0.49-1.15,0.76-2.11,0.76c-1.79,0-3.3-1.25-3.3-3.3c0-2.06,1.66-3.8,3.98-3.8c2.71,0,3.99,2.08,3.99,4.55
		c0,2.19-0.7,3.8-1.85,4.85c-1.01,0.91-2.39,1.41-4.03,1.48c-0.42,0.03-0.84,0.02-1.12,0V172.16z M182.9,166.86
		c0,0.91,0.49,1.69,1.49,1.69c0.67,0,1.14-0.32,1.36-0.7c0.08-0.15,0.13-0.31,0.13-0.62c0-1.12-0.42-2.22-1.54-2.22
		C183.5,165.01,182.88,165.76,182.9,166.86z"/>
	<path class="st0" d="M201.06,169.88c0,2.91-2.06,4.24-4.19,4.24c-2.32,0-4.11-1.53-4.11-4.09c0-2.57,1.69-4.21,4.24-4.21
		C199.44,165.82,201.06,167.5,201.06,169.88z M195.31,169.96c0,1.36,0.57,2.39,1.62,2.39c0.96,0,1.57-0.96,1.57-2.39
		c0-1.19-0.45-2.39-1.57-2.39C195.75,167.58,195.31,168.8,195.31,169.96z"/>
	<path class="st0" d="M202.58,168.62c0-1.17-0.03-1.93-0.06-2.61h2.13l0.08,1.46h0.07c0.41-1.15,1.38-1.64,2.14-1.64
		c0.23,0,0.34,0,0.52,0.03v2.32c-0.18-0.03-0.39-0.06-0.67-0.06c-0.91,0-1.53,0.49-1.69,1.25c-0.03,0.16-0.05,0.36-0.05,0.55v4.03
		h-2.47V168.62z"/>
	<path class="st0" d="M212.03,168.54c0-0.99-0.03-1.83-0.06-2.53h2.08l0.11,1.07h0.05c0.34-0.5,1.04-1.25,2.4-1.25
		c1.02,0,1.83,0.52,2.18,1.35h0.03c0.29-0.41,0.65-0.73,1.02-0.96c0.44-0.26,0.92-0.39,1.51-0.39c1.53,0,2.68,1.07,2.68,3.44v4.68
		h-2.4v-4.32c0-1.15-0.37-1.82-1.17-1.82c-0.57,0-0.97,0.39-1.14,0.86c-0.07,0.18-0.1,0.44-0.1,0.63v4.64h-2.4v-4.45
		c0-1.01-0.36-1.69-1.14-1.69c-0.63,0-1.01,0.49-1.15,0.89c-0.08,0.19-0.1,0.42-0.1,0.62v4.63h-2.4V168.54z"/>
	<path class="st0" d="M233.83,169.88c0,2.91-2.06,4.24-4.19,4.24c-2.32,0-4.11-1.53-4.11-4.09c0-2.57,1.69-4.21,4.24-4.21
		C232.21,165.82,233.83,167.5,233.83,169.88z M228.09,169.96c0,1.36,0.57,2.39,1.62,2.39c0.96,0,1.58-0.96,1.58-2.39
		c0-1.19-0.46-2.39-1.58-2.39C228.53,167.58,228.09,168.8,228.09,169.96z"/>
	<path class="st0" d="M235.36,168.62c0-1.17-0.03-1.93-0.06-2.61h2.13l0.08,1.46h0.06c0.41-1.15,1.38-1.64,2.14-1.64
		c0.23,0,0.34,0,0.52,0.03v2.32c-0.18-0.03-0.39-0.06-0.67-0.06c-0.91,0-1.53,0.49-1.69,1.25c-0.03,0.16-0.05,0.36-0.05,0.55v4.03
		h-2.47V168.62z"/>
	<path class="st0" d="M243.3,170.76c0.08,1.02,1.09,1.51,2.24,1.51c0.84,0,1.53-0.11,2.19-0.32l0.32,1.67
		c-0.81,0.32-1.8,0.49-2.87,0.49c-2.7,0-4.24-1.56-4.24-4.04c0-2.01,1.25-4.24,4.01-4.24c2.57,0,3.54,2,3.54,3.96
		c0,0.42-0.05,0.8-0.08,0.97H243.3z M246.2,169.07c0-0.6-0.26-1.61-1.4-1.61c-1.04,0-1.46,0.94-1.53,1.61H246.2z"/>
	<path class="st0" d="M260.29,173.94c-0.23-0.24-0.45-0.49-0.71-0.78c-0.71,0.55-1.71,0.96-3,0.96c-2.65,0-3.82-1.57-3.82-3.1
		c0-1.44,0.83-2.48,2.08-3.13v-0.06c-0.47-0.52-0.83-1.33-0.83-2.11c0-1.38,1.09-2.89,3.28-2.89c1.69,0,2.97,0.99,2.97,2.56
		c0,1.1-0.65,2.05-2.16,2.81l-0.02,0.07c0.63,0.7,1.3,1.49,1.83,2.05c0.44-0.68,0.78-1.69,0.93-2.66h2.21
		c-0.29,1.66-0.84,3.07-1.82,4.16c0.62,0.7,1.25,1.41,1.93,2.14H260.29z M258.43,171.78c-0.68-0.68-1.58-1.67-2.47-2.68
		c-0.45,0.33-0.86,0.8-0.86,1.51c0,0.93,0.7,1.72,1.82,1.72C257.56,172.33,258.1,172.09,258.43,171.78z M256.22,165.48
		c0,0.55,0.26,1.04,0.75,1.57c0.8-0.55,1.2-0.97,1.2-1.61c0-0.52-0.31-1.09-0.96-1.09C256.57,164.36,256.22,164.92,256.22,165.48z"
		/>
	<path class="st0" d="M272.04,173.94l-0.15-0.8h-0.05c-0.52,0.63-1.33,0.97-2.27,0.97c-1.61,0-2.57-1.17-2.57-2.44
		c0-2.06,1.85-3.05,4.66-3.04v-0.11c0-0.42-0.23-1.02-1.45-1.02c-0.81,0-1.67,0.28-2.19,0.6l-0.46-1.59c0.55-0.31,1.64-0.7,3.08-0.7
		c2.65,0,3.49,1.56,3.49,3.43v2.76c0,0.76,0.03,1.49,0.11,1.93H272.04z M271.75,170.19c-1.3-0.02-2.31,0.29-2.31,1.25
		c0,0.63,0.42,0.94,0.97,0.94c0.62,0,1.12-0.41,1.28-0.91c0.03-0.13,0.05-0.28,0.05-0.42V170.19z"/>
	<path class="st0" d="M276.1,162.42h2.47v11.53h-2.47V162.42z"/>
	<path class="st0" d="M280.57,162.42h2.47v11.53h-2.47V162.42z"/>
	<path class="st0" d="M290.94,171.13l-0.78,2.81h-2.56l3.34-10.94h3.25l3.39,10.94h-2.66l-0.84-2.81H290.94z M293.71,169.28
		l-0.68-2.32c-0.2-0.65-0.39-1.46-0.55-2.11h-0.03c-0.16,0.65-0.33,1.48-0.5,2.11l-0.65,2.32H293.71z"/>
	<path class="st0" d="M298.86,168.67c0-1.04-0.03-1.93-0.06-2.66h2.14l0.11,1.1h0.03c0.58-0.84,1.49-1.28,2.65-1.28
		c1.74,0,3.29,1.51,3.29,4.04c0,2.89-1.83,4.25-3.6,4.25c-0.96,0-1.71-0.39-2.06-0.91h-0.03v3.94h-2.47V168.67z M301.33,170.53
		c0,0.2,0.02,0.37,0.05,0.52c0.16,0.67,0.73,1.17,1.45,1.17c1.07,0,1.7-0.89,1.7-2.24c0-1.27-0.57-2.22-1.67-2.22
		c-0.7,0-1.32,0.52-1.48,1.25c-0.03,0.13-0.05,0.29-0.05,0.44V170.53z"/>
	<path class="st0" d="M308.57,168.67c0-1.04-0.03-1.93-0.06-2.66h2.14l0.11,1.1h0.03c0.58-0.84,1.49-1.28,2.65-1.28
		c1.74,0,3.29,1.51,3.29,4.04c0,2.89-1.83,4.25-3.6,4.25c-0.96,0-1.71-0.39-2.06-0.91h-0.03v3.94h-2.47V168.67z M311.03,170.53
		c0,0.2,0.02,0.37,0.05,0.52c0.16,0.67,0.73,1.17,1.45,1.17c1.07,0,1.7-0.89,1.7-2.24c0-1.27-0.57-2.22-1.67-2.22
		c-0.7,0-1.32,0.52-1.48,1.25c-0.03,0.13-0.05,0.29-0.05,0.44V170.53z"/>
	<path class="st0" d="M318.27,162.42h2.47v11.53h-2.47V162.42z"/>
	<path class="st0" d="M325.29,163.79c0,0.68-0.52,1.23-1.33,1.23c-0.78,0-1.3-0.55-1.28-1.23c-0.02-0.71,0.5-1.25,1.3-1.25
		C324.77,162.54,325.27,163.08,325.29,163.79z M322.74,173.94V166h2.47v7.94H322.74z"/>
	<path class="st0" d="M331.7,173.94l-0.15-0.8h-0.05c-0.52,0.63-1.33,0.97-2.27,0.97c-1.61,0-2.57-1.17-2.57-2.44
		c0-2.06,1.85-3.05,4.66-3.04v-0.11c0-0.42-0.23-1.02-1.45-1.02c-0.81,0-1.67,0.28-2.19,0.6l-0.46-1.59c0.55-0.31,1.64-0.7,3.08-0.7
		c2.65,0,3.49,1.56,3.49,3.43v2.76c0,0.76,0.03,1.49,0.11,1.93H331.7z M331.41,170.19c-1.3-0.02-2.31,0.29-2.31,1.25
		c0,0.63,0.42,0.94,0.97,0.94c0.62,0,1.12-0.41,1.28-0.91c0.03-0.13,0.05-0.28,0.05-0.42V170.19z"/>
	<path class="st0" d="M335.76,168.54c0-0.99-0.03-1.83-0.06-2.53h2.14l0.11,1.09H338c0.33-0.5,1.14-1.27,2.45-1.27
		c1.62,0,2.84,1.07,2.84,3.41v4.71h-2.47v-4.4c0-1.02-0.36-1.72-1.25-1.72c-0.68,0-1.09,0.47-1.25,0.93
		c-0.07,0.15-0.1,0.39-0.1,0.62v4.58h-2.47V168.54z"/>
	<path class="st0" d="M351.23,173.75c-0.44,0.19-1.27,0.36-2.21,0.36c-2.57,0-4.21-1.56-4.21-4.06c0-2.32,1.59-4.22,4.55-4.22
		c0.65,0,1.36,0.11,1.88,0.31l-0.39,1.83c-0.29-0.13-0.73-0.24-1.38-0.24c-1.3,0-2.14,0.93-2.13,2.22c0,1.46,0.97,2.22,2.18,2.22
		c0.58,0,1.04-0.1,1.41-0.24L351.23,173.75z"/>
	<path class="st0" d="M354.31,170.76c0.08,1.02,1.09,1.51,2.24,1.51c0.84,0,1.53-0.11,2.19-0.32l0.32,1.67
		c-0.81,0.32-1.8,0.49-2.87,0.49c-2.7,0-4.24-1.56-4.24-4.04c0-2.01,1.25-4.24,4.01-4.24c2.57,0,3.54,2,3.54,3.96
		c0,0.42-0.05,0.8-0.08,0.97H354.31z M357.22,169.07c0-0.6-0.26-1.61-1.4-1.61c-1.04,0-1.46,0.94-1.53,1.61H357.22z"/>
	<path class="st0" d="M360.96,171.78c0.46,0.28,1.4,0.6,2.13,0.6c0.75,0,1.06-0.26,1.06-0.67c0-0.41-0.24-0.6-1.17-0.91
		c-1.64-0.55-2.27-1.45-2.26-2.39c0-1.48,1.27-2.6,3.23-2.6c0.92,0,1.75,0.21,2.24,0.45l-0.44,1.7c-0.36-0.19-1.04-0.45-1.72-0.45
		c-0.6,0-0.94,0.24-0.94,0.65c0,0.37,0.31,0.57,1.28,0.91c1.51,0.52,2.14,1.28,2.16,2.45c0,1.48-1.17,2.57-3.44,2.57
		c-1.04,0-1.96-0.23-2.56-0.55L360.96,171.78z"/>
	<path class="st0" d="M18.8,191.66c0-1.04-0.03-1.93-0.06-2.66h2.14l0.11,1.1h0.03c0.58-0.84,1.49-1.28,2.65-1.28
		c1.74,0,3.3,1.51,3.3,4.04c0,2.89-1.83,4.25-3.6,4.25c-0.96,0-1.7-0.39-2.06-0.91h-0.03v3.95H18.8V191.66z M21.27,193.53
		c0,0.19,0.02,0.37,0.05,0.52c0.16,0.67,0.73,1.17,1.44,1.17c1.07,0,1.71-0.89,1.71-2.24c0-1.27-0.57-2.22-1.67-2.22
		c-0.7,0-1.31,0.52-1.48,1.25c-0.03,0.13-0.05,0.29-0.05,0.44V193.53z"/>
	<path class="st0" d="M35.99,194.39c0,1.04,0.03,1.88,0.06,2.55h-2.14l-0.11-1.12h-0.05c-0.31,0.49-1.06,1.3-2.48,1.3
		c-1.61,0-2.79-1.01-2.79-3.46V189h2.48v4.27c0,1.15,0.37,1.85,1.23,1.85c0.68,0,1.07-0.47,1.23-0.86c0.06-0.15,0.08-0.34,0.08-0.54
		V189h2.48V194.39z"/>
	<path class="st0" d="M37.97,191.61c0-1.17-0.03-1.93-0.06-2.61h2.13l0.08,1.46h0.06c0.41-1.15,1.38-1.64,2.14-1.64
		c0.23,0,0.34,0,0.52,0.03v2.32c-0.18-0.03-0.39-0.06-0.67-0.06c-0.91,0-1.53,0.49-1.69,1.25c-0.03,0.16-0.05,0.36-0.05,0.55v4.03
		h-2.47V191.61z"/>
	<path class="st0" d="M49.97,196.74c-0.44,0.19-1.27,0.36-2.21,0.36c-2.57,0-4.21-1.56-4.21-4.06c0-2.32,1.59-4.22,4.55-4.22
		c0.65,0,1.36,0.11,1.88,0.31l-0.39,1.83c-0.29-0.13-0.73-0.24-1.38-0.24c-1.3,0-2.14,0.93-2.13,2.22c0,1.46,0.97,2.22,2.18,2.22
		c0.58,0,1.04-0.1,1.41-0.24L49.97,196.74z"/>
	<path class="st0" d="M51.33,185.41h2.47v4.53h0.03c0.26-0.34,0.58-0.6,0.97-0.81c0.36-0.19,0.83-0.31,1.28-0.31
		c1.58,0,2.78,1.09,2.78,3.47v4.64H56.4v-4.37c0-1.04-0.36-1.75-1.28-1.75c-0.65,0-1.06,0.42-1.23,0.86
		c-0.06,0.16-0.08,0.37-0.08,0.55v4.71h-2.47V185.41z"/>
	<path class="st0" d="M65.36,196.94l-0.15-0.8h-0.05c-0.52,0.63-1.33,0.97-2.27,0.97c-1.61,0-2.57-1.17-2.57-2.44
		c0-2.06,1.85-3.05,4.66-3.04v-0.11c0-0.42-0.23-1.02-1.44-1.02c-0.81,0-1.67,0.28-2.19,0.6l-0.45-1.59c0.55-0.31,1.64-0.7,3.08-0.7
		c2.65,0,3.49,1.56,3.49,3.43v2.76c0,0.76,0.03,1.49,0.11,1.93H65.36z M65.06,193.19c-1.3-0.02-2.31,0.29-2.31,1.25
		c0,0.63,0.42,0.94,0.97,0.94c0.62,0,1.12-0.41,1.28-0.91c0.03-0.13,0.05-0.28,0.05-0.42V193.19z"/>
	<path class="st0" d="M69.4,194.78c0.45,0.28,1.4,0.6,2.13,0.6c0.75,0,1.06-0.26,1.06-0.67s-0.24-0.6-1.17-0.91
		c-1.64-0.55-2.27-1.44-2.26-2.39c0-1.48,1.27-2.6,3.23-2.6c0.93,0,1.75,0.21,2.24,0.45l-0.44,1.7c-0.36-0.19-1.04-0.45-1.72-0.45
		c-0.6,0-0.94,0.24-0.94,0.65c0,0.37,0.31,0.57,1.28,0.91c1.51,0.52,2.14,1.28,2.16,2.45c0,1.48-1.17,2.56-3.44,2.56
		c-1.04,0-1.96-0.23-2.57-0.55L69.4,194.78z"/>
	<path class="st0" d="M78.36,193.76c0.08,1.02,1.09,1.51,2.24,1.51c0.84,0,1.53-0.11,2.19-0.32l0.32,1.67
		c-0.81,0.32-1.8,0.49-2.87,0.49c-2.7,0-4.24-1.56-4.24-4.04c0-2.01,1.25-4.24,4.01-4.24c2.57,0,3.54,2,3.54,3.96
		c0,0.42-0.05,0.8-0.08,0.97H78.36z M81.26,192.07c0-0.6-0.26-1.61-1.4-1.61c-1.04,0-1.46,0.94-1.53,1.61H81.26z"/>
	<path class="st0" d="M92.73,185.41v9.16c0,0.89,0.03,1.83,0.06,2.37H90.6l-0.11-1.17h-0.03c-0.5,0.89-1.46,1.35-2.48,1.35
		c-1.88,0-3.39-1.61-3.39-4.08c-0.02-2.68,1.66-4.22,3.56-4.22c0.97,0,1.74,0.34,2.09,0.89h0.03v-4.3H92.73z M90.26,192.36
		c0-0.13-0.02-0.31-0.03-0.44c-0.15-0.67-0.68-1.22-1.44-1.22c-1.12,0-1.7,1.01-1.7,2.26c0,1.35,0.67,2.19,1.69,2.19
		c0.71,0,1.28-0.49,1.43-1.19c0.05-0.18,0.06-0.36,0.06-0.57V192.36z"/>
	<path class="st0" d="M100.74,186.73V189h1.77v1.82h-1.77v2.87c0,0.96,0.23,1.4,0.97,1.4c0.31,0,0.55-0.03,0.73-0.07l0.02,1.87
		c-0.32,0.13-0.91,0.21-1.61,0.21c-0.8,0-1.46-0.28-1.85-0.68c-0.45-0.47-0.68-1.23-0.68-2.35v-3.25h-1.06V189h1.06v-1.72
		L100.74,186.73z"/>
	<path class="st0" d="M111.7,192.88c0,2.91-2.06,4.24-4.19,4.24c-2.32,0-4.11-1.53-4.11-4.09c0-2.57,1.69-4.21,4.24-4.21
		C110.08,188.82,111.7,190.49,111.7,192.88z M105.95,192.96c0,1.36,0.57,2.39,1.62,2.39c0.96,0,1.57-0.96,1.57-2.39
		c0-1.19-0.45-2.39-1.57-2.39C106.39,190.57,105.95,191.79,105.95,192.96z"/>
	<path class="st0" d="M115.99,186.73V189h1.77v1.82h-1.77v2.87c0,0.96,0.23,1.4,0.97,1.4c0.31,0,0.55-0.03,0.73-0.07l0.02,1.87
		c-0.32,0.13-0.91,0.21-1.61,0.21c-0.8,0-1.46-0.28-1.85-0.68c-0.45-0.47-0.68-1.23-0.68-2.35v-3.25h-1.06V189h1.06v-1.72
		L115.99,186.73z"/>
	<path class="st0" d="M123.7,196.94l-0.15-0.8h-0.05c-0.52,0.63-1.33,0.97-2.27,0.97c-1.61,0-2.57-1.17-2.57-2.44
		c0-2.06,1.85-3.05,4.66-3.04v-0.11c0-0.42-0.23-1.02-1.44-1.02c-0.81,0-1.67,0.28-2.19,0.6l-0.45-1.59c0.55-0.31,1.64-0.7,3.08-0.7
		c2.65,0,3.49,1.56,3.49,3.43v2.76c0,0.76,0.03,1.49,0.11,1.93H123.7z M123.4,193.19c-1.3-0.02-2.31,0.29-2.31,1.25
		c0,0.63,0.42,0.94,0.97,0.94c0.62,0,1.12-0.41,1.28-0.91c0.03-0.13,0.05-0.28,0.05-0.42V193.19z"/>
	<path class="st0" d="M127.75,185.41h2.47v11.53h-2.47V185.41z"/>
	<path class="st0" d="M134.77,186.79c0,0.68-0.52,1.23-1.33,1.23c-0.78,0-1.3-0.55-1.28-1.23c-0.02-0.71,0.5-1.25,1.3-1.25
		S134.75,186.08,134.77,186.79z M132.22,196.94V189h2.47v7.94H132.22z"/>
	<path class="st0" d="M136.66,191.53c0-0.99-0.03-1.83-0.06-2.53h2.14l0.11,1.09h0.05c0.32-0.5,1.14-1.27,2.45-1.27
		c1.62,0,2.84,1.07,2.84,3.41v4.71h-2.47v-4.4c0-1.02-0.36-1.72-1.25-1.72c-0.68,0-1.09,0.47-1.25,0.93
		c-0.06,0.15-0.1,0.39-0.1,0.62v4.58h-2.47V191.53z"/>
	<path class="st0" d="M153.76,189c-0.03,0.5-0.06,1.17-0.06,2.35v4.43c0,1.53-0.31,2.78-1.2,3.57c-0.88,0.75-2.06,0.97-3.23,0.97
		c-1.04,0-2.14-0.21-2.86-0.62l0.49-1.87c0.5,0.29,1.38,0.6,2.31,0.6c1.17,0,2.06-0.63,2.06-2.09v-0.52h-0.03
		c-0.47,0.67-1.23,1.04-2.14,1.04c-1.96,0-3.36-1.59-3.36-3.88c0-2.55,1.66-4.17,3.6-4.17c1.09,0,1.77,0.47,2.18,1.12h0.03
		l0.08-0.94H153.76z M151.23,192.23c0-0.16-0.02-0.33-0.05-0.46c-0.18-0.65-0.65-1.09-1.33-1.09c-0.89,0-1.62,0.81-1.62,2.26
		c0,1.19,0.58,2.11,1.62,2.11c0.63,0,1.14-0.42,1.3-1.01c0.06-0.18,0.08-0.44,0.08-0.65V192.23z"/>
	<path class="st0" d="M161.61,198.35v-1.54c-1.09-0.05-2.14-0.34-2.76-0.7l0.49-1.9c0.68,0.37,1.64,0.71,2.7,0.71
		c0.93,0,1.56-0.36,1.56-1.01c0-0.62-0.52-1.01-1.72-1.41c-1.74-0.58-2.92-1.4-2.92-2.97c0-1.43,1.01-2.55,2.74-2.89v-1.54h1.59
		v1.43c1.09,0.05,1.82,0.28,2.35,0.54l-0.47,1.83c-0.42-0.18-1.17-0.55-2.34-0.55c-1.06,0-1.4,0.45-1.4,0.91
		c0,0.54,0.57,0.88,1.95,1.4c1.93,0.68,2.71,1.58,2.71,3.04c0,1.44-1.02,2.68-2.89,3v1.66H161.61z"/>
	<path class="st0" d="M172.02,196.94v-2.52h-4.68v-1.61l3.99-6.43h3.02v6.19h1.27v1.85h-1.27v2.52H172.02z M172.02,192.57v-2.34
		c0-0.63,0.03-1.28,0.08-1.96h-0.06c-0.34,0.68-0.62,1.3-0.97,1.96l-1.41,2.31v0.03H172.02z"/>
	<path class="st0" d="M177.44,195.15c0.31,0.03,0.58,0.03,1.07,0c0.75-0.05,1.51-0.26,2.08-0.65c0.68-0.47,1.14-1.15,1.33-1.95
		l-0.05-0.02c-0.47,0.49-1.15,0.76-2.11,0.76c-1.79,0-3.3-1.25-3.3-3.3c0-2.06,1.66-3.8,3.98-3.8c2.71,0,3.99,2.08,3.99,4.55
		c0,2.19-0.7,3.8-1.85,4.85c-1.01,0.91-2.39,1.41-4.03,1.48c-0.42,0.03-0.84,0.02-1.12,0V195.15z M178.93,189.86
		c0,0.91,0.49,1.69,1.49,1.69c0.67,0,1.14-0.32,1.36-0.7c0.08-0.15,0.13-0.31,0.13-0.62c0-1.12-0.42-2.22-1.54-2.22
		C179.54,188.01,178.92,188.76,178.93,189.86z"/>
	<path class="st0" d="M186.45,195.15c0.31,0.03,0.58,0.03,1.07,0c0.75-0.05,1.51-0.26,2.08-0.65c0.68-0.47,1.14-1.15,1.33-1.95
		l-0.05-0.02c-0.47,0.49-1.15,0.76-2.11,0.76c-1.79,0-3.3-1.25-3.3-3.3c0-2.06,1.66-3.8,3.98-3.8c2.71,0,3.99,2.08,3.99,4.55
		c0,2.19-0.7,3.8-1.85,4.85c-1.01,0.91-2.39,1.41-4.03,1.48c-0.42,0.03-0.84,0.02-1.12,0V195.15z M187.94,189.86
		c0,0.91,0.49,1.69,1.49,1.69c0.67,0,1.14-0.32,1.36-0.7c0.08-0.15,0.13-0.31,0.13-0.62c0-1.12-0.42-2.22-1.54-2.22
		C188.54,188.01,187.93,188.76,187.94,189.86z"/>
	<path class="st0" d="M206.11,192.88c0,2.91-2.06,4.24-4.19,4.24c-2.32,0-4.11-1.53-4.11-4.09c0-2.57,1.69-4.21,4.24-4.21
		C204.49,188.82,206.11,190.49,206.11,192.88z M200.36,192.96c0,1.36,0.57,2.39,1.62,2.39c0.96,0,1.58-0.96,1.58-2.39
		c0-1.19-0.46-2.39-1.58-2.39C200.8,190.57,200.36,191.79,200.36,192.96z"/>
	<path class="st0" d="M207.63,191.61c0-1.17-0.03-1.93-0.06-2.61h2.13l0.08,1.46h0.07c0.41-1.15,1.38-1.64,2.14-1.64
		c0.23,0,0.34,0,0.52,0.03v2.32c-0.18-0.03-0.39-0.06-0.67-0.06c-0.91,0-1.53,0.49-1.69,1.25c-0.03,0.16-0.05,0.36-0.05,0.55v4.03
		h-2.47V191.61z"/>
	<path class="st0" d="M217.08,191.53c0-0.99-0.03-1.83-0.06-2.53h2.08l0.11,1.07h0.05c0.34-0.5,1.04-1.25,2.4-1.25
		c1.02,0,1.83,0.52,2.18,1.35h0.03c0.29-0.41,0.65-0.73,1.02-0.96c0.44-0.26,0.92-0.39,1.51-0.39c1.53,0,2.68,1.07,2.68,3.44v4.68
		h-2.4v-4.32c0-1.15-0.37-1.82-1.17-1.82c-0.57,0-0.97,0.39-1.14,0.86c-0.07,0.18-0.1,0.44-0.1,0.63v4.64h-2.4v-4.45
		c0-1.01-0.36-1.69-1.14-1.69c-0.63,0-1.01,0.49-1.15,0.89c-0.08,0.19-0.1,0.42-0.1,0.62v4.63h-2.4V191.53z"/>
	<path class="st0" d="M238.88,192.88c0,2.91-2.06,4.24-4.19,4.24c-2.32,0-4.11-1.53-4.11-4.09c0-2.57,1.69-4.21,4.24-4.21
		C237.26,188.82,238.88,190.49,238.88,192.88z M233.13,192.96c0,1.36,0.57,2.39,1.62,2.39c0.96,0,1.58-0.96,1.58-2.39
		c0-1.19-0.46-2.39-1.58-2.39C233.57,190.57,233.13,191.79,233.13,192.96z"/>
	<path class="st0" d="M240.41,191.61c0-1.17-0.03-1.93-0.06-2.61h2.13l0.08,1.46h0.06c0.41-1.15,1.38-1.64,2.14-1.64
		c0.23,0,0.34,0,0.52,0.03v2.32c-0.18-0.03-0.39-0.06-0.67-0.06c-0.91,0-1.53,0.49-1.69,1.25c-0.03,0.16-0.05,0.36-0.05,0.55v4.03
		h-2.47V191.61z"/>
	<path class="st0" d="M248.34,193.76c0.08,1.02,1.09,1.51,2.24,1.51c0.84,0,1.53-0.11,2.19-0.32l0.32,1.67
		c-0.81,0.32-1.8,0.49-2.87,0.49c-2.7,0-4.24-1.56-4.24-4.04c0-2.01,1.25-4.24,4.01-4.24c2.57,0,3.54,2,3.54,3.96
		c0,0.42-0.05,0.8-0.08,0.97H248.34z M251.25,192.07c0-0.6-0.26-1.61-1.4-1.61c-1.04,0-1.46,0.94-1.53,1.61H251.25z"/>
	<path class="st0" d="M254.74,195.64c0-0.86,0.6-1.48,1.46-1.48s1.43,0.62,1.44,1.48c0,0.84-0.57,1.48-1.44,1.48
		S254.74,196.48,254.74,195.64z M255.28,193.35L254.9,186h2.58l-0.36,7.35H255.28z"/>
	<path class="st0" d="M21.46,219.93l-3.51-10.94h2.71l1.33,4.63c0.37,1.3,0.71,2.55,0.97,3.91h0.05c0.28-1.31,0.62-2.61,0.99-3.86
		l1.4-4.68h2.63l-3.69,10.94H21.46z"/>
	<path class="st0" d="M32.96,219.93l-0.15-0.8h-0.05c-0.52,0.63-1.33,0.97-2.27,0.97c-1.61,0-2.57-1.17-2.57-2.44
		c0-2.06,1.85-3.05,4.66-3.04v-0.11c0-0.42-0.23-1.02-1.44-1.02c-0.81,0-1.67,0.28-2.19,0.6l-0.45-1.59c0.55-0.31,1.64-0.7,3.08-0.7
		c2.65,0,3.49,1.56,3.49,3.43V218c0,0.76,0.03,1.49,0.11,1.93H32.96z M32.66,216.18c-1.3-0.02-2.31,0.29-2.31,1.25
		c0,0.63,0.42,0.94,0.97,0.94c0.62,0,1.12-0.41,1.28-0.91c0.03-0.13,0.05-0.28,0.05-0.42V216.18z"/>
	<path class="st0" d="M37.01,208.41h2.47v11.53h-2.47V208.41z"/>
	<path class="st0" d="M44.03,209.79c0,0.68-0.52,1.23-1.33,1.23c-0.78,0-1.3-0.55-1.28-1.23c-0.02-0.71,0.5-1.25,1.3-1.25
		C43.51,208.54,44.01,209.07,44.03,209.79z M41.48,219.93V212h2.47v7.94H41.48z"/>
	<path class="st0" d="M53.62,208.41v9.16c0,0.89,0.03,1.83,0.06,2.37h-2.19l-0.11-1.17h-0.03c-0.5,0.89-1.46,1.35-2.48,1.35
		c-1.88,0-3.39-1.61-3.39-4.08c-0.02-2.68,1.66-4.22,3.56-4.22c0.97,0,1.74,0.34,2.09,0.89h0.03v-4.3H53.62z M51.15,215.36
		c0-0.13-0.02-0.31-0.03-0.44c-0.15-0.67-0.68-1.22-1.44-1.22c-1.12,0-1.7,1.01-1.7,2.26c0,1.35,0.67,2.19,1.69,2.19
		c0.71,0,1.28-0.49,1.43-1.19c0.05-0.18,0.06-0.36,0.06-0.57V215.36z"/>
	<path class="st0" d="M60.44,211.07H57.5v-2.08h8.41v2.08h-2.99v8.86h-2.48V211.07z"/>
	<path class="st0" d="M66.95,208.41h2.47v4.53h0.03c0.26-0.34,0.58-0.6,0.97-0.81c0.36-0.19,0.83-0.31,1.28-0.31
		c1.58,0,2.78,1.09,2.78,3.47v4.64h-2.47v-4.37c0-1.04-0.36-1.75-1.28-1.75c-0.65,0-1.06,0.42-1.23,0.86
		c-0.06,0.16-0.08,0.37-0.08,0.55v4.71h-2.47V208.41z"/>
	<path class="st0" d="M76.46,214.61c0-1.17-0.03-1.93-0.06-2.61h2.13l0.08,1.46h0.06c0.41-1.15,1.38-1.64,2.14-1.64
		c0.23,0,0.34,0,0.52,0.03v2.32c-0.18-0.03-0.39-0.06-0.67-0.06c-0.91,0-1.53,0.49-1.69,1.25c-0.03,0.16-0.05,0.36-0.05,0.55v4.03
		h-2.47V214.61z"/>
	<path class="st0" d="M90.06,217.39c0,1.04,0.03,1.88,0.07,2.55h-2.14l-0.11-1.12h-0.05c-0.31,0.49-1.06,1.3-2.48,1.3
		c-1.61,0-2.79-1.01-2.79-3.46V212h2.48v4.27c0,1.15,0.37,1.85,1.23,1.85c0.68,0,1.07-0.47,1.23-0.86c0.06-0.15,0.08-0.34,0.08-0.54
		V212h2.48V217.39z"/>
	<path class="st0" d="M102.58,209.38v1.56l-4.35,8.99h-2.61l4.35-8.49v-0.03h-4.84v-2.03H102.58z"/>
	<path class="st0" d="M103.6,220.58l3.47-11.77h1.64l-3.47,11.77H103.6z"/>
	<path class="st0" d="M116.13,211.13c-0.28-0.02-0.57,0-0.96,0.03c-2.19,0.18-3.17,1.3-3.44,2.53h0.05
		c0.52-0.54,1.25-0.84,2.24-0.84c1.77,0,3.26,1.25,3.26,3.44c0,2.09-1.61,3.82-3.9,3.82c-2.81,0-4.19-2.09-4.19-4.61
		c0-1.98,0.73-3.64,1.87-4.69c1.06-0.96,2.42-1.48,4.08-1.56c0.45-0.03,0.75-0.03,0.99-0.02V211.13z M114.78,216.43
		c0-0.97-0.52-1.82-1.57-1.82c-0.67,0-1.22,0.41-1.46,0.94c-0.06,0.13-0.1,0.33-0.1,0.62c0.05,1.12,0.58,2.13,1.7,2.13
		C114.23,218.29,114.78,217.5,114.78,216.43z"/>
	<path class="st0" d="M117.98,220.58l3.47-11.77h1.64l-3.47,11.77H117.98z"/>
	<path class="st0" d="M123.78,219.93v-1.49l1.36-1.23c2.31-2.06,3.43-3.25,3.46-4.48c0-0.86-0.52-1.54-1.74-1.54
		c-0.91,0-1.7,0.45-2.26,0.88l-0.7-1.77c0.8-0.6,2.03-1.09,3.46-1.09c2.39,0,3.7,1.4,3.7,3.31c0,1.77-1.28,3.18-2.81,4.55
		l-0.97,0.81v0.03h3.98v2.03H123.78z"/>
	<path class="st0" d="M140.58,214.61c0,3.26-1.31,5.5-4.01,5.5c-2.73,0-3.93-2.45-3.95-5.44c0-3.05,1.3-5.47,4.03-5.47
		C139.47,209.2,140.58,211.72,140.58,214.61z M135.11,214.67c-0.02,2.42,0.57,3.57,1.53,3.57c0.96,0,1.48-1.2,1.48-3.6
		c0-2.34-0.5-3.57-1.49-3.57C135.71,211.07,135.09,212.22,135.11,214.67z"/>
</g>
<g>
</g>
<g>
</g>
<g>
</g>
<g>
</g>
<g>
</g>
<g>
</g>
<g>
</g>
<g>
</g>
<g>
</g>
<g>
</g>
<g>
</g>
<g>
</g>
<g>
</g>
<g>
</g>
<g>
</g>
</svg>
