
<svg version="1.1" id="Layer_1" xmlns="http://www.w3.org/2000/svg" xmlns:xlink="http://www.w3.org/1999/xlink" x="0px" y="0px"
	 viewBox="0 0 1200 469" style="enable-background:new 0 0 1200 469;" xml:space="preserve">
<style type="text/css">
	.st0{fill:#FFFFFF;}
</style>
<image style="overflow:visible;" width="1200" height="469" xlink:href="/images/promos/cc-back-2020-1-d.jpg" >
</image>
<g>
	<path class="st0" d="M49.41,20.25c1.72-0.29,4.13-0.51,7.54-0.51c3.44,0,5.89,0.66,7.54,1.98c1.57,1.24,2.63,3.29,2.63,5.71
		s-0.81,4.46-2.27,5.85c-1.9,1.79-4.72,2.6-8.01,2.6c-0.73,0-1.39-0.04-1.9-0.11v8.82h-5.52V20.25z M54.94,31.45
		c0.48,0.11,1.06,0.15,1.87,0.15c2.96,0,4.79-1.5,4.79-4.02c0-2.27-1.57-3.62-4.35-3.62c-1.13,0-1.9,0.11-2.31,0.22V31.45z"/>
	<path class="st0" d="M64.82,41.62c0-1.98,1.35-3.4,3.29-3.4c1.94,0,3.26,1.39,3.26,3.4c0,1.94-1.32,3.37-3.29,3.37
		C66.17,44.99,64.82,43.56,64.82,41.62z"/>
	<path class="st0" d="M93.03,43.89c-1.02,0.51-3.33,1.06-6.33,1.06c-8.53,0-12.92-5.31-12.92-12.33c0-8.42,6-13.1,13.47-13.1
		c2.89,0,5.09,0.59,6.07,1.1l-1.13,4.43c-1.13-0.48-2.71-0.91-4.68-0.91c-4.43,0-7.87,2.67-7.87,8.16c0,4.94,2.93,8.05,7.9,8.05
		c1.68,0,3.55-0.37,4.65-0.8L93.03,43.89z"/>
	<path class="st0" d="M96.11,41.62c0-1.98,1.35-3.4,3.29-3.4c1.94,0,3.26,1.39,3.26,3.4c0,1.94-1.32,3.37-3.29,3.37
		C97.46,44.99,96.11,43.56,96.11,41.62z"/>
	<path class="st0" d="M113.6,20.25c1.79-0.29,4.46-0.51,7.43-0.51c3.66,0,6.22,0.55,7.98,1.94c1.46,1.17,2.27,2.89,2.27,5.16
		c0,3.15-2.23,5.31-4.35,6.07v0.11c1.72,0.7,2.67,2.34,3.29,4.61c0.77,2.78,1.54,6,2.01,6.95h-5.71c-0.4-0.7-0.99-2.71-1.72-5.74
		c-0.66-3.07-1.72-3.92-3.99-3.95h-1.68v9.7h-5.52V20.25z M119.12,30.86h2.2c2.78,0,4.43-1.39,4.43-3.55c0-2.27-1.54-3.4-4.1-3.44
		c-1.35,0-2.12,0.11-2.52,0.18V30.86z"/>
	<path class="st0" d="M140.9,19.92v24.66h-5.6V19.92H140.9z"/>
	<path class="st0" d="M163.84,43.89c-1.02,0.51-3.33,1.06-6.33,1.06c-8.53,0-12.92-5.31-12.92-12.33c0-8.42,6-13.1,13.47-13.1
		c2.89,0,5.09,0.59,6.07,1.1L163,25.05c-1.13-0.48-2.71-0.91-4.68-0.91c-4.43,0-7.87,2.67-7.87,8.16c0,4.94,2.93,8.05,7.9,8.05
		c1.68,0,3.55-0.37,4.65-0.8L163.84,43.89z"/>
	<path class="st0" d="M173.1,19.92v9.48h9.18v-9.48h5.56v24.66h-5.56V34.27h-9.18v10.32h-5.6V19.92H173.1z"/>
	<path class="st0" d="M198.46,38.25l-1.76,6.33h-5.78l7.54-24.66h7.32l7.65,24.66h-6l-1.9-6.33H198.46z M204.72,34.08l-1.54-5.23
		c-0.44-1.46-0.88-3.29-1.24-4.76h-0.07c-0.37,1.46-0.73,3.33-1.13,4.76l-1.46,5.23H204.72z"/>
	<path class="st0" d="M216.72,20.25c1.79-0.29,4.46-0.51,7.43-0.51c3.66,0,6.22,0.55,7.98,1.94c1.46,1.17,2.27,2.89,2.27,5.16
		c0,3.15-2.23,5.31-4.35,6.07v0.11c1.72,0.7,2.67,2.34,3.29,4.61c0.77,2.78,1.54,6,2.01,6.95h-5.71c-0.4-0.7-0.99-2.71-1.72-5.74
		c-0.66-3.07-1.72-3.92-3.99-3.95h-1.68v9.7h-5.52V20.25z M222.25,30.86h2.2c2.78,0,4.43-1.39,4.43-3.55c0-2.27-1.54-3.4-4.1-3.44
		c-1.35,0-2.12,0.11-2.52,0.18V30.86z"/>
	<path class="st0" d="M238.42,20.25c2.05-0.33,4.72-0.51,7.54-0.51c4.68,0,7.72,0.84,10.1,2.63c2.56,1.9,4.17,4.94,4.17,9.29
		c0,4.72-1.72,7.98-4.1,9.99c-2.6,2.16-6.55,3.18-11.38,3.18c-2.89,0-4.94-0.18-6.33-0.37V20.25z M244.02,40.38
		c0.48,0.11,1.24,0.11,1.94,0.11c5.05,0.04,8.34-2.74,8.34-8.64c0.04-5.12-2.96-7.83-7.76-7.83c-1.24,0-2.05,0.11-2.52,0.22V40.38z"
		/>
	<path class="st0" d="M286.98,44.58c-0.51-0.55-1.02-1.1-1.61-1.76c-1.61,1.24-3.84,2.16-6.77,2.16c-5.96,0-8.6-3.55-8.6-6.99
		c0-3.26,1.87-5.6,4.68-7.06v-0.15c-1.06-1.17-1.87-3-1.87-4.76c0-3.11,2.45-6.51,7.39-6.51c3.81,0,6.7,2.23,6.7,5.78
		c0,2.49-1.46,4.61-4.87,6.33L282,31.78c1.43,1.57,2.93,3.37,4.13,4.61c0.99-1.54,1.76-3.81,2.09-6h4.98
		c-0.66,3.73-1.9,6.92-4.1,9.37c1.39,1.57,2.82,3.18,4.35,4.83H286.98z M282.77,39.72c-1.54-1.54-3.55-3.77-5.56-6.04
		c-1.02,0.73-1.94,1.79-1.94,3.4c0,2.09,1.57,3.88,4.1,3.88C280.83,40.96,282.04,40.41,282.77,39.72z M277.8,25.52
		c0,1.24,0.59,2.34,1.68,3.55c1.79-1.24,2.71-2.2,2.71-3.62c0-1.17-0.7-2.45-2.16-2.45C278.6,23,277.8,24.24,277.8,25.52z"/>
	<path class="st0" d="M303.67,38.84c1.5,0.77,3.81,1.54,6.18,1.54c2.56,0,3.92-1.06,3.92-2.67c0-1.54-1.17-2.42-4.13-3.48
		c-4.1-1.43-6.77-3.7-6.77-7.28c0-4.21,3.51-7.43,9.33-7.43c2.78,0,4.83,0.59,6.29,1.24l-1.24,4.5c-0.99-0.48-2.74-1.17-5.16-1.17
		s-3.59,1.1-3.59,2.38c0,1.57,1.39,2.27,4.57,3.48c4.35,1.61,6.4,3.88,6.4,7.35c0,4.13-3.18,7.65-9.95,7.65
		c-2.82,0-5.6-0.73-6.99-1.5L303.67,38.84z"/>
	<path class="st0" d="M345.82,32c0,8.09-4.9,12.99-12.11,12.99c-7.32,0-11.6-5.52-11.6-12.55c0-7.39,4.72-12.92,12-12.92
		C341.69,19.52,345.82,25.19,345.82,32z M328,32.33c0,4.83,2.27,8.23,6,8.23c3.77,0,5.93-3.59,5.93-8.38c0-4.43-2.12-8.23-5.96-8.23
		C330.2,23.95,328,27.53,328,32.33z"/>
	<path class="st0" d="M349.49,44.58V19.92H356l5.12,9.04c1.46,2.6,2.93,5.67,4.02,8.45h0.11c-0.37-3.26-0.48-6.59-0.48-10.28v-7.21
		h5.12v24.66h-5.85l-5.27-9.51c-1.46-2.63-3.07-5.82-4.28-8.71l-0.11,0.04c0.15,3.26,0.22,6.73,0.22,10.76v7.43H349.49z"/>
	<path class="st0" d="M400.24,43.89c-1.02,0.51-3.33,1.06-6.33,1.06c-8.53,0-12.92-5.31-12.92-12.33c0-8.42,6-13.1,13.47-13.1
		c2.89,0,5.09,0.59,6.07,1.1l-1.13,4.43c-1.13-0.48-2.71-0.91-4.68-0.91c-4.43,0-7.87,2.67-7.87,8.16c0,4.94,2.93,8.05,7.9,8.05
		c1.68,0,3.55-0.37,4.65-0.8L400.24,43.89z"/>
	<path class="st0" d="M403.9,20.25c1.79-0.29,4.46-0.51,7.43-0.51c3.66,0,6.22,0.55,7.98,1.94c1.46,1.17,2.27,2.89,2.27,5.16
		c0,3.15-2.23,5.31-4.35,6.07v0.11c1.72,0.7,2.67,2.34,3.29,4.61c0.77,2.78,1.54,6,2.01,6.95h-5.71c-0.4-0.7-0.99-2.71-1.72-5.74
		c-0.66-3.07-1.72-3.92-3.99-3.95h-1.68v9.7h-5.52V20.25z M409.43,30.86h2.2c2.78,0,4.43-1.39,4.43-3.55c0-2.27-1.54-3.4-4.1-3.44
		c-1.35,0-2.12,0.11-2.52,0.18V30.86z"/>
	<path class="st0" d="M440.27,34.16h-9.07v5.85h10.14v4.57H425.6V19.92h15.22v4.57h-9.62v5.12h9.07V34.16z"/>
	<path class="st0" d="M445.14,20.25c2.05-0.33,4.72-0.51,7.54-0.51c4.68,0,7.72,0.84,10.1,2.63c2.56,1.9,4.17,4.94,4.17,9.29
		c0,4.72-1.72,7.98-4.1,9.99c-2.6,2.16-6.55,3.18-11.38,3.18c-2.89,0-4.94-0.18-6.33-0.37V20.25z M450.74,40.38
		c0.48,0.11,1.24,0.11,1.94,0.11c5.05,0.04,8.34-2.74,8.34-8.64c0.04-5.12-2.96-7.83-7.76-7.83c-1.24,0-2.05,0.11-2.52,0.22V40.38z"
		/>
	<path class="st0" d="M476.21,19.92v24.66h-5.6V19.92H476.21z"/>
	<path class="st0" d="M485.8,24.61h-6.62v-4.68h18.95v4.68h-6.73v19.98h-5.6V24.61z"/>
	<path class="st0" d="M526.6,43.89c-1.02,0.51-3.33,1.06-6.33,1.06c-8.53,0-12.92-5.31-12.92-12.33c0-8.42,6-13.1,13.47-13.1
		c2.89,0,5.09,0.59,6.07,1.1l-1.13,4.43c-1.13-0.48-2.71-0.91-4.68-0.91c-4.43,0-7.87,2.67-7.87,8.16c0,4.94,2.93,8.05,7.9,8.05
		c1.68,0,3.55-0.37,4.65-0.8L526.6,43.89z"/>
	<path class="st0" d="M536.37,38.25l-1.76,6.33h-5.78l7.54-24.66h7.32l7.65,24.66h-6l-1.9-6.33H536.37z M542.63,34.08l-1.54-5.23
		c-0.44-1.46-0.88-3.29-1.24-4.76h-0.07c-0.37,1.46-0.73,3.33-1.13,4.76l-1.46,5.23H542.63z"/>
	<path class="st0" d="M554.63,20.25c1.79-0.29,4.46-0.51,7.43-0.51c3.66,0,6.22,0.55,7.98,1.94c1.46,1.17,2.27,2.89,2.27,5.16
		c0,3.15-2.23,5.31-4.35,6.07v0.11c1.72,0.7,2.67,2.34,3.29,4.61c0.77,2.78,1.54,6,2.01,6.95h-5.71c-0.4-0.7-0.99-2.71-1.72-5.74
		c-0.66-3.07-1.72-3.92-3.99-3.95h-1.68v9.7h-5.53V20.25z M560.16,30.86h2.2c2.78,0,4.43-1.39,4.43-3.55c0-2.27-1.54-3.4-4.1-3.44
		c-1.35,0-2.12,0.11-2.52,0.18V30.86z"/>
	<path class="st0" d="M576.33,20.25c2.05-0.33,4.72-0.51,7.54-0.51c4.68,0,7.72,0.84,10.1,2.63c2.56,1.9,4.17,4.94,4.17,9.29
		c0,4.72-1.72,7.98-4.1,9.99c-2.6,2.16-6.55,3.18-11.38,3.18c-2.89,0-4.94-0.18-6.33-0.37V20.25z M581.93,40.38
		c0.48,0.11,1.24,0.11,1.94,0.11c5.05,0.04,8.34-2.74,8.34-8.64c0.04-5.12-2.96-7.83-7.76-7.83c-1.24,0-2.05,0.11-2.52,0.22V40.38z"
		/>
</g>
<g>
	<g>
		<path class="st0" d="M43.1,298.27v-7.14h1.89l1.48,2.62c0.42,0.75,0.85,1.64,1.17,2.45h0.03c-0.11-0.94-0.14-1.91-0.14-2.98v-2.09
			h1.48v7.14h-1.69l-1.52-2.75c-0.42-0.76-0.89-1.68-1.24-2.52L44.52,293c0.04,0.94,0.06,1.95,0.06,3.11v2.15H43.1z"/>
		<path class="st0" d="M51.55,296.19c0.05,0.67,0.71,0.98,1.46,0.98c0.55,0,1-0.07,1.43-0.21l0.21,1.09
			c-0.53,0.21-1.18,0.32-1.87,0.32c-1.76,0-2.76-1.02-2.76-2.64c0-1.31,0.82-2.76,2.62-2.76c1.67,0,2.31,1.3,2.31,2.58
			c0,0.28-0.03,0.52-0.05,0.64H51.55z M53.45,295.09c0-0.39-0.17-1.05-0.91-1.05c-0.68,0-0.95,0.61-1,1.05H53.45z"/>
		<path class="st0" d="M56.95,293.09l0.41,2.12c0.11,0.54,0.21,1.11,0.3,1.71h0.02c0.11-0.59,0.25-1.19,0.38-1.69l0.55-2.13h1.27
			l0.52,2.06c0.14,0.58,0.28,1.16,0.38,1.76h0.02c0.07-0.59,0.18-1.18,0.3-1.77l0.44-2.05h1.58l-1.59,5.18h-1.51l-0.49-1.82
			c-0.13-0.51-0.22-0.97-0.33-1.61h-0.02c-0.1,0.65-0.2,1.12-0.34,1.61l-0.52,1.82h-1.51l-1.5-5.18H56.95z"/>
		<path class="st0" d="M72.04,298.14c-0.29,0.13-0.83,0.23-1.44,0.23c-1.67,0-2.74-1.02-2.74-2.65c0-1.51,1.04-2.75,2.96-2.75
			c0.42,0,0.89,0.07,1.23,0.2l-0.25,1.2c-0.19-0.08-0.48-0.16-0.9-0.16c-0.85,0-1.4,0.6-1.39,1.45c0,0.95,0.64,1.45,1.42,1.45
			c0.38,0,0.68-0.06,0.92-0.16L72.04,298.14z"/>
		<path class="st0" d="M75.91,298.27l-0.1-0.52h-0.03c-0.34,0.41-0.87,0.64-1.48,0.64c-1.05,0-1.67-0.76-1.67-1.59
			c0-1.34,1.21-1.99,3.04-1.98v-0.07c0-0.28-0.15-0.67-0.94-0.67c-0.53,0-1.09,0.18-1.43,0.39l-0.3-1.04
			c0.36-0.2,1.07-0.46,2.01-0.46c1.73,0,2.28,1.02,2.28,2.23v1.8c0,0.5,0.02,0.97,0.07,1.26H75.91z M75.72,295.82
			c-0.85-0.01-1.5,0.19-1.5,0.82c0,0.41,0.28,0.61,0.64,0.61c0.4,0,0.73-0.26,0.84-0.59c0.02-0.08,0.03-0.18,0.03-0.27V295.82z"/>
		<path class="st0" d="M78.55,294.79c0-0.76-0.02-1.26-0.04-1.71h1.39l0.05,0.95h0.04c0.27-0.75,0.9-1.07,1.4-1.07
			c0.15,0,0.22,0,0.34,0.02v1.51c-0.12-0.02-0.25-0.04-0.43-0.04c-0.59,0-1,0.32-1.1,0.82c-0.02,0.11-0.03,0.23-0.03,0.36v2.63
			h-1.61V294.79z"/>
		<path class="st0" d="M87.51,290.75v5.97c0,0.58,0.02,1.2,0.04,1.55h-1.43l-0.07-0.76h-0.02c-0.33,0.58-0.95,0.88-1.62,0.88
			c-1.23,0-2.21-1.05-2.21-2.66c-0.01-1.75,1.08-2.75,2.32-2.75c0.64,0,1.13,0.22,1.37,0.58h0.02v-2.81H87.51z M85.9,295.28
			c0-0.08-0.01-0.2-0.02-0.29c-0.1-0.43-0.44-0.79-0.94-0.79c-0.73,0-1.11,0.66-1.11,1.47c0,0.88,0.43,1.43,1.1,1.43
			c0.47,0,0.84-0.32,0.93-0.77c0.03-0.12,0.04-0.23,0.04-0.37V295.28z"/>
		<path class="st0" d="M88.79,296.86c0.3,0.18,0.91,0.39,1.39,0.39c0.49,0,0.69-0.17,0.69-0.43s-0.16-0.39-0.76-0.59
			c-1.07-0.36-1.48-0.94-1.47-1.56c0-0.96,0.83-1.69,2.11-1.69c0.6,0,1.14,0.14,1.46,0.3l-0.29,1.11c-0.23-0.13-0.68-0.3-1.12-0.3
			c-0.39,0-0.61,0.16-0.61,0.42c0,0.24,0.2,0.37,0.84,0.59c0.98,0.34,1.4,0.84,1.41,1.6c0,0.96-0.76,1.67-2.25,1.67
			c-0.68,0-1.28-0.15-1.67-0.36L88.79,296.86z"/>
		<path class="st0" d="M100.83,298.07c-0.3,0.15-0.96,0.31-1.83,0.31c-2.47,0-3.74-1.54-3.74-3.57c0-2.44,1.74-3.79,3.9-3.79
			c0.84,0,1.47,0.17,1.76,0.32l-0.33,1.28c-0.33-0.14-0.78-0.26-1.36-0.26c-1.28,0-2.28,0.77-2.28,2.36c0,1.43,0.85,2.33,2.29,2.33
			c0.49,0,1.03-0.11,1.34-0.23L100.83,298.07z"/>
		<path class="st0" d="M103.65,296.44l-0.51,1.83h-1.67l2.18-7.14h2.12l2.21,7.14h-1.74l-0.55-1.83H103.65z M105.46,295.23
			l-0.44-1.51c-0.13-0.42-0.25-0.95-0.36-1.38h-0.02c-0.11,0.42-0.21,0.96-0.33,1.38l-0.42,1.51H105.46z"/>
		<path class="st0" d="M108.93,298.27v-7.14h1.89l1.48,2.62c0.42,0.75,0.85,1.64,1.17,2.45h0.03c-0.11-0.94-0.14-1.91-0.14-2.98
			v-2.09h1.48v7.14h-1.69l-1.52-2.75c-0.42-0.76-0.89-1.68-1.24-2.52l-0.03,0.01c0.04,0.94,0.06,1.95,0.06,3.11v2.15H108.93z"/>
		<path class="st0" d="M116.23,298.27v-7.14h1.89l1.48,2.62c0.42,0.75,0.85,1.64,1.17,2.45h0.03c-0.11-0.94-0.14-1.91-0.14-2.98
			v-2.09h1.48v7.14h-1.69l-1.52-2.75c-0.42-0.76-0.89-1.68-1.24-2.52l-0.03,0.01c0.04,0.94,0.06,1.95,0.06,3.11v2.15H116.23z"/>
		<path class="st0" d="M130.07,294.62c0,2.34-1.42,3.76-3.51,3.76c-2.12,0-3.36-1.6-3.36-3.63c0-2.14,1.37-3.74,3.47-3.74
			C128.87,291.01,130.07,292.65,130.07,294.62z M124.91,294.72c0,1.4,0.66,2.38,1.74,2.38c1.09,0,1.72-1.04,1.72-2.42
			c0-1.28-0.61-2.38-1.73-2.38C125.55,292.29,124.91,293.33,124.91,294.72z"/>
		<path class="st0" d="M132.21,292.49h-1.92v-1.36h5.49v1.36h-1.95v5.78h-1.62V292.49z"/>
		<path class="st0" d="M138.67,298.27c0.02-0.34,0.04-0.96,0.04-1.55v-5.97h1.61v2.95h0.02c0.31-0.44,0.85-0.73,1.57-0.73
			c1.24,0,2.15,1.03,2.14,2.62c0,1.86-1.19,2.8-2.37,2.8c-0.6,0-1.19-0.22-1.56-0.84h-0.02l-0.06,0.72H138.67z M140.32,296.06
			c0,0.11,0.01,0.2,0.03,0.29c0.11,0.43,0.48,0.76,0.94,0.76c0.69,0,1.11-0.53,1.11-1.46c0-0.8-0.36-1.44-1.11-1.44
			c-0.43,0-0.84,0.33-0.94,0.79c-0.02,0.1-0.03,0.19-0.03,0.3V296.06z"/>
		<path class="st0" d="M146.31,296.19c0.05,0.67,0.71,0.98,1.46,0.98c0.55,0,1-0.07,1.43-0.21l0.21,1.09
			c-0.53,0.21-1.18,0.32-1.87,0.32c-1.76,0-2.76-1.02-2.76-2.64c0-1.31,0.82-2.76,2.62-2.76c1.67,0,2.31,1.3,2.31,2.58
			c0,0.28-0.03,0.52-0.05,0.64H146.31z M148.21,295.09c0-0.39-0.17-1.05-0.91-1.05c-0.68,0-0.95,0.61-1,1.05H148.21z"/>
		<path class="st0" d="M157.68,296.6c0,0.68,0.02,1.23,0.04,1.66h-1.4l-0.07-0.73h-0.03c-0.2,0.32-0.69,0.85-1.62,0.85
			c-1.05,0-1.82-0.66-1.82-2.26v-3.04h1.62v2.79c0,0.75,0.24,1.21,0.8,1.21c0.44,0,0.7-0.31,0.8-0.56c0.04-0.1,0.05-0.22,0.05-0.35
			v-3.08h1.62V296.6z"/>
		<path class="st0" d="M158.96,296.86c0.3,0.18,0.91,0.39,1.39,0.39c0.49,0,0.69-0.17,0.69-0.43s-0.16-0.39-0.76-0.59
			c-1.07-0.36-1.48-0.94-1.47-1.56c0-0.96,0.83-1.69,2.11-1.69c0.6,0,1.14,0.14,1.46,0.3l-0.29,1.11c-0.23-0.13-0.68-0.3-1.12-0.3
			c-0.39,0-0.61,0.16-0.61,0.42c0,0.24,0.2,0.37,0.84,0.59c0.98,0.34,1.4,0.84,1.41,1.6c0,0.96-0.76,1.67-2.25,1.67
			c-0.68,0-1.28-0.15-1.67-0.36L158.96,296.86z"/>
		<path class="st0" d="M164.8,296.19c0.05,0.67,0.71,0.98,1.46,0.98c0.55,0,1-0.07,1.43-0.21l0.21,1.09
			c-0.53,0.21-1.18,0.32-1.87,0.32c-1.76,0-2.76-1.02-2.76-2.64c0-1.31,0.82-2.76,2.62-2.76c1.67,0,2.31,1.3,2.31,2.58
			c0,0.28-0.03,0.52-0.05,0.64H164.8z M166.7,295.09c0-0.39-0.17-1.05-0.91-1.05c-0.68,0-0.95,0.61-1,1.05H166.7z"/>
		<path class="st0" d="M174.17,290.75v5.97c0,0.58,0.02,1.2,0.04,1.55h-1.43l-0.07-0.76h-0.02c-0.33,0.58-0.95,0.88-1.62,0.88
			c-1.23,0-2.21-1.05-2.21-2.66c-0.01-1.75,1.08-2.75,2.32-2.75c0.64,0,1.13,0.22,1.37,0.58h0.02v-2.81H174.17z M172.56,295.28
			c0-0.08-0.01-0.2-0.02-0.29c-0.1-0.43-0.44-0.79-0.94-0.79c-0.73,0-1.11,0.66-1.11,1.47c0,0.88,0.43,1.43,1.1,1.43
			c0.47,0,0.84-0.32,0.93-0.77c0.03-0.12,0.04-0.23,0.04-0.37V295.28z"/>
		<path class="st0" d="M178.62,292.49h-1.92v-1.36h5.49v1.36h-1.95v5.78h-1.62V292.49z"/>
		<path class="st0" d="M189.27,294.62c0,2.34-1.42,3.76-3.51,3.76c-2.12,0-3.36-1.6-3.36-3.63c0-2.14,1.37-3.74,3.47-3.74
			C188.07,291.01,189.27,292.65,189.27,294.62z M184.11,294.72c0,1.4,0.66,2.38,1.74,2.38c1.09,0,1.72-1.04,1.72-2.42
			c0-1.28-0.61-2.38-1.73-2.38C184.75,292.29,184.11,293.33,184.11,294.72z"/>
		<path class="st0" d="M190.32,291.23c0.59-0.1,1.37-0.15,2.18-0.15c1.36,0,2.23,0.24,2.92,0.76c0.74,0.55,1.21,1.43,1.21,2.69
			c0,1.37-0.5,2.31-1.19,2.89c-0.75,0.63-1.9,0.92-3.29,0.92c-0.84,0-1.43-0.05-1.83-0.11V291.23z M191.94,297.05
			c0.14,0.03,0.36,0.03,0.56,0.03c1.46,0.01,2.41-0.79,2.41-2.5c0.01-1.48-0.86-2.27-2.25-2.27c-0.36,0-0.59,0.03-0.73,0.06V297.05z
			"/>
		<path class="st0" d="M199.18,296.44l-0.51,1.83H197l2.18-7.14h2.12l2.21,7.14h-1.74l-0.55-1.83H199.18z M200.99,295.23l-0.44-1.51
			c-0.13-0.42-0.25-0.95-0.36-1.38h-0.02c-0.11,0.42-0.21,0.96-0.33,1.38l-0.42,1.51H200.99z"/>
		<path class="st0" d="M205.11,298.27v-2.92l-2.26-4.21h1.84l0.73,1.72c0.22,0.52,0.37,0.9,0.55,1.37H206
			c0.16-0.44,0.33-0.86,0.54-1.37l0.72-1.72h1.81l-2.35,4.16v2.98H205.11z"/>
		<path class="st0" d="M212.11,298.27v-3.99h-0.68v-1.19h0.68v-0.2c0-0.63,0.19-1.31,0.66-1.74c0.4-0.38,0.96-0.52,1.43-0.52
			c0.36,0,0.64,0.04,0.86,0.11l-0.06,1.24c-0.14-0.04-0.31-0.07-0.52-0.07c-0.53,0-0.75,0.41-0.75,0.92v0.26h1.04v1.19h-1.03v3.99
			H212.11z"/>
		<path class="st0" d="M220.54,295.62c0,1.9-1.34,2.76-2.73,2.76c-1.51,0-2.68-1-2.68-2.67c0-1.67,1.1-2.74,2.76-2.74
			C219.48,292.97,220.54,294.06,220.54,295.62z M216.79,295.67c0,0.89,0.37,1.56,1.06,1.56c0.63,0,1.03-0.63,1.03-1.56
			c0-0.77-0.3-1.56-1.03-1.56C217.08,294.12,216.79,294.91,216.79,295.67z"/>
		<path class="st0" d="M221.54,294.79c0-0.76-0.02-1.26-0.04-1.71h1.39l0.05,0.95h0.04c0.27-0.75,0.9-1.07,1.4-1.07
			c0.15,0,0.22,0,0.34,0.02v1.51c-0.12-0.02-0.25-0.04-0.43-0.04c-0.59,0-1,0.32-1.1,0.82c-0.02,0.11-0.03,0.23-0.03,0.36v2.63
			h-1.61V294.79z"/>
		<path class="st0" d="M229.36,291.65c0,0.44-0.34,0.81-0.87,0.81c-0.51,0-0.85-0.36-0.84-0.81c-0.01-0.47,0.33-0.82,0.85-0.82
			S229.35,291.18,229.36,291.65z M227.7,298.27v-5.18h1.61v5.18H227.7z"/>
		<path class="st0" d="M230.6,294.74c0-0.65-0.02-1.2-0.04-1.65h1.4l0.07,0.71h0.03c0.21-0.33,0.74-0.83,1.6-0.83
			c1.06,0,1.85,0.7,1.85,2.22v3.07h-1.61v-2.87c0-0.67-0.23-1.12-0.82-1.12c-0.44,0-0.71,0.31-0.81,0.6
			c-0.04,0.1-0.06,0.25-0.06,0.4v2.99h-1.61V294.74z"/>
		<path class="st0" d="M239.24,294.95v1.07h-2.77v-1.07H239.24z"/>
		<path class="st0" d="M240.2,296.86c0.3,0.18,0.91,0.39,1.39,0.39c0.49,0,0.69-0.17,0.69-0.43s-0.16-0.39-0.76-0.59
			c-1.07-0.36-1.48-0.94-1.47-1.56c0-0.96,0.83-1.69,2.11-1.69c0.6,0,1.14,0.14,1.46,0.3l-0.29,1.11c-0.23-0.13-0.68-0.3-1.12-0.3
			c-0.39,0-0.61,0.16-0.61,0.42c0,0.24,0.2,0.37,0.84,0.59c0.98,0.34,1.4,0.84,1.41,1.6c0,0.96-0.76,1.67-2.25,1.67
			c-0.68,0-1.28-0.15-1.67-0.36L240.2,296.86z"/>
		<path class="st0" d="M246.6,291.61v1.48h1.15v1.19h-1.15v1.87c0,0.62,0.15,0.91,0.64,0.91c0.2,0,0.36-0.02,0.48-0.04l0.01,1.22
			c-0.21,0.08-0.59,0.14-1.05,0.14c-0.52,0-0.95-0.18-1.21-0.44c-0.3-0.31-0.44-0.8-0.44-1.54v-2.12h-0.69v-1.19h0.69v-1.12
			L246.6,291.61z"/>
		<path class="st0" d="M253.75,295.62c0,1.9-1.34,2.76-2.73,2.76c-1.51,0-2.68-1-2.68-2.67c0-1.67,1.1-2.74,2.76-2.74
			C252.69,292.97,253.75,294.06,253.75,295.62z M250,295.67c0,0.89,0.37,1.56,1.06,1.56c0.63,0,1.03-0.63,1.03-1.56
			c0-0.77-0.3-1.56-1.03-1.56C250.28,294.12,250,294.91,250,295.67z"/>
		<path class="st0" d="M254.74,294.79c0-0.76-0.02-1.26-0.04-1.71h1.39l0.05,0.95h0.04c0.27-0.75,0.9-1.07,1.4-1.07
			c0.15,0,0.22,0,0.34,0.02v1.51c-0.12-0.02-0.25-0.04-0.43-0.04c-0.59,0-1,0.32-1.1,0.82c-0.02,0.11-0.03,0.23-0.03,0.36v2.63
			h-1.61V294.79z"/>
		<path class="st0" d="M259.91,296.19c0.05,0.67,0.71,0.98,1.46,0.98c0.55,0,1-0.07,1.43-0.21l0.21,1.09
			c-0.53,0.21-1.18,0.32-1.87,0.32c-1.76,0-2.76-1.02-2.76-2.64c0-1.31,0.82-2.76,2.62-2.76c1.67,0,2.31,1.3,2.31,2.58
			c0,0.28-0.03,0.52-0.05,0.64H259.91z M261.81,295.09c0-0.39-0.17-1.05-0.91-1.05c-0.68,0-0.95,0.61-1,1.05H261.81z"/>
		<path class="st0" d="M266.4,294.83c0-0.68-0.02-1.26-0.04-1.74h1.4l0.07,0.72h0.02c0.38-0.55,0.97-0.84,1.73-0.84
			c1.13,0,2.15,0.98,2.15,2.64c0,1.89-1.2,2.77-2.35,2.77c-0.62,0-1.11-0.25-1.34-0.59h-0.02v2.57h-1.61V294.83z M268.01,296.04
			c0,0.13,0.01,0.24,0.03,0.34c0.11,0.43,0.48,0.76,0.94,0.76c0.7,0,1.11-0.58,1.11-1.46c0-0.83-0.37-1.45-1.09-1.45
			c-0.46,0-0.86,0.34-0.96,0.82c-0.02,0.08-0.03,0.19-0.03,0.29V296.04z"/>
		<path class="st0" d="M274.39,291.65c0,0.44-0.34,0.81-0.87,0.81c-0.51,0-0.85-0.36-0.84-0.81c-0.01-0.47,0.33-0.82,0.85-0.82
			C274.06,290.83,274.38,291.18,274.39,291.65z M272.73,298.27v-5.18h1.61v5.18H272.73z"/>
		<path class="st0" d="M279.52,298.14c-0.29,0.13-0.83,0.23-1.44,0.23c-1.67,0-2.74-1.02-2.74-2.65c0-1.51,1.04-2.75,2.96-2.75
			c0.42,0,0.89,0.07,1.23,0.2l-0.25,1.2c-0.19-0.08-0.48-0.16-0.9-0.16c-0.85,0-1.4,0.6-1.39,1.45c0,0.95,0.64,1.45,1.42,1.45
			c0.38,0,0.68-0.06,0.92-0.16L279.52,298.14z"/>
		<path class="st0" d="M282.01,295.27h0.02c0.12-0.21,0.24-0.42,0.37-0.62l1.05-1.56h1.94l-1.85,2.1l2.12,3.08h-1.98l-1.25-2.13
			l-0.41,0.51v1.62h-1.61v-7.52h1.61V295.27z"/>
		<path class="st0" d="M291.02,296.6c0,0.68,0.02,1.23,0.04,1.66h-1.4l-0.07-0.73h-0.03c-0.2,0.32-0.69,0.85-1.62,0.85
			c-1.05,0-1.82-0.66-1.82-2.26v-3.04h1.62v2.79c0,0.75,0.24,1.21,0.8,1.21c0.44,0,0.7-0.31,0.8-0.56c0.04-0.1,0.05-0.22,0.05-0.35
			v-3.08h1.62V296.6z"/>
		<path class="st0" d="M292.31,294.83c0-0.68-0.02-1.26-0.04-1.74h1.4l0.07,0.72h0.02c0.38-0.55,0.97-0.84,1.73-0.84
			c1.13,0,2.15,0.98,2.15,2.64c0,1.89-1.2,2.77-2.35,2.77c-0.62,0-1.11-0.25-1.34-0.59h-0.02v2.57h-1.61V294.83z M293.92,296.04
			c0,0.13,0.01,0.24,0.03,0.34c0.11,0.43,0.48,0.76,0.94,0.76c0.7,0,1.11-0.58,1.11-1.46c0-0.83-0.37-1.45-1.09-1.45
			c-0.46,0-0.86,0.34-0.96,0.82c-0.02,0.08-0.03,0.19-0.03,0.29V296.04z"/>
		<path class="st0" d="M43.04,309.82c0-0.68-0.02-1.26-0.04-1.74h1.4l0.07,0.72h0.02c0.38-0.55,0.97-0.84,1.73-0.84
			c1.13,0,2.15,0.98,2.15,2.64c0,1.89-1.2,2.77-2.35,2.77c-0.62,0-1.11-0.25-1.34-0.59h-0.02v2.57h-1.61V309.82z M44.65,311.04
			c0,0.13,0.01,0.24,0.03,0.34c0.11,0.43,0.48,0.76,0.94,0.76c0.7,0,1.11-0.58,1.11-1.46c0-0.83-0.37-1.45-1.09-1.45
			c-0.46,0-0.86,0.34-0.96,0.82c-0.02,0.08-0.03,0.19-0.03,0.29V311.04z"/>
		<path class="st0" d="M54.25,311.6c0,0.68,0.02,1.23,0.04,1.66h-1.4l-0.07-0.73h-0.03c-0.2,0.32-0.69,0.85-1.62,0.85
			c-1.05,0-1.82-0.66-1.82-2.26v-3.04h1.62v2.79c0,0.75,0.24,1.21,0.8,1.21c0.44,0,0.7-0.31,0.8-0.56c0.04-0.1,0.05-0.22,0.05-0.35
			v-3.08h1.62V311.6z"/>
		<path class="st0" d="M55.54,309.79c0-0.76-0.02-1.26-0.04-1.7h1.39l0.05,0.95h0.04c0.27-0.75,0.9-1.07,1.4-1.07
			c0.15,0,0.22,0,0.34,0.02v1.51c-0.12-0.02-0.25-0.04-0.43-0.04c-0.59,0-1,0.32-1.1,0.82c-0.02,0.11-0.03,0.23-0.03,0.36v2.63
			h-1.61V309.79z"/>
		<path class="st0" d="M63.37,313.13c-0.29,0.13-0.83,0.23-1.44,0.23c-1.67,0-2.74-1.02-2.74-2.65c0-1.51,1.04-2.75,2.96-2.75
			c0.42,0,0.89,0.07,1.23,0.2l-0.25,1.2c-0.19-0.08-0.48-0.16-0.9-0.16c-0.85,0-1.4,0.6-1.39,1.45c0,0.95,0.64,1.45,1.42,1.45
			c0.38,0,0.68-0.06,0.92-0.16L63.37,313.13z"/>
		<path class="st0" d="M64.25,305.74h1.61v2.95h0.02c0.17-0.22,0.38-0.39,0.64-0.53c0.23-0.13,0.54-0.2,0.84-0.2
			c1.03,0,1.81,0.71,1.81,2.27v3.03h-1.61v-2.85c0-0.68-0.23-1.14-0.84-1.14c-0.42,0-0.69,0.28-0.8,0.56
			c-0.04,0.11-0.05,0.24-0.05,0.36v3.07h-1.61V305.74z"/>
		<path class="st0" d="M73.4,313.26l-0.1-0.52h-0.03c-0.34,0.41-0.87,0.64-1.48,0.64c-1.05,0-1.67-0.76-1.67-1.59
			c0-1.34,1.21-1.99,3.04-1.98v-0.07c0-0.28-0.15-0.67-0.94-0.67c-0.53,0-1.09,0.18-1.43,0.39l-0.3-1.04
			c0.36-0.2,1.07-0.46,2.01-0.46c1.73,0,2.28,1.02,2.28,2.23v1.8c0,0.5,0.02,0.97,0.07,1.26H73.4z M73.21,310.82
			c-0.85-0.01-1.5,0.19-1.5,0.82c0,0.41,0.28,0.61,0.64,0.61c0.4,0,0.73-0.26,0.84-0.59c0.02-0.08,0.03-0.18,0.03-0.28V310.82z"/>
		<path class="st0" d="M76.03,311.85c0.3,0.18,0.91,0.39,1.39,0.39c0.49,0,0.69-0.17,0.69-0.43s-0.16-0.39-0.76-0.59
			c-1.07-0.36-1.48-0.94-1.47-1.56c0-0.96,0.83-1.69,2.11-1.69c0.6,0,1.14,0.14,1.46,0.3l-0.29,1.11c-0.23-0.13-0.68-0.3-1.12-0.3
			c-0.39,0-0.61,0.16-0.61,0.42c0,0.24,0.2,0.37,0.84,0.59c0.98,0.34,1.4,0.84,1.41,1.6c0,0.96-0.76,1.67-2.25,1.67
			c-0.68,0-1.28-0.15-1.67-0.36L76.03,311.85z"/>
		<path class="st0" d="M81.88,311.19c0.05,0.67,0.71,0.98,1.46,0.98c0.55,0,1-0.07,1.43-0.21l0.21,1.09
			c-0.53,0.21-1.18,0.32-1.87,0.32c-1.76,0-2.76-1.02-2.76-2.64c0-1.31,0.82-2.76,2.62-2.76c1.67,0,2.31,1.3,2.31,2.58
			c0,0.28-0.03,0.52-0.05,0.64H81.88z M83.77,310.08c0-0.39-0.17-1.05-0.91-1.05c-0.68,0-0.95,0.61-1,1.05H83.77z"/>
		<path class="st0" d="M86.22,311.85c0.3,0.18,0.91,0.39,1.39,0.39c0.49,0,0.69-0.17,0.69-0.43s-0.16-0.39-0.76-0.59
			c-1.07-0.36-1.48-0.94-1.47-1.56c0-0.96,0.83-1.69,2.11-1.69c0.6,0,1.14,0.14,1.46,0.3l-0.29,1.11c-0.23-0.13-0.68-0.3-1.12-0.3
			c-0.39,0-0.61,0.16-0.61,0.42c0,0.24,0.2,0.37,0.84,0.59c0.98,0.34,1.4,0.84,1.41,1.6c0,0.96-0.76,1.67-2.25,1.67
			c-0.68,0-1.28-0.15-1.67-0.36L86.22,311.85z"/>
		<path class="st0" d="M99.55,309.62c0,2.34-1.42,3.76-3.51,3.76c-2.12,0-3.36-1.6-3.36-3.63c0-2.14,1.37-3.74,3.47-3.74
			C98.35,306.01,99.55,307.65,99.55,309.62z M94.39,309.71c0,1.4,0.66,2.38,1.74,2.38c1.09,0,1.72-1.04,1.72-2.42
			c0-1.28-0.61-2.38-1.73-2.38C95.02,307.29,94.39,308.33,94.39,309.71z"/>
		<path class="st0" d="M100.6,306.22c0.52-0.08,1.29-0.15,2.15-0.15c1.06,0,1.8,0.16,2.31,0.56c0.42,0.34,0.66,0.84,0.66,1.49
			c0,0.91-0.65,1.54-1.26,1.76v0.03c0.5,0.2,0.77,0.68,0.95,1.33c0.22,0.81,0.44,1.74,0.58,2.01h-1.65c-0.12-0.2-0.29-0.78-0.5-1.66
			c-0.19-0.89-0.5-1.13-1.15-1.14h-0.49v2.81h-1.6V306.22z M102.2,309.29h0.64c0.81,0,1.28-0.4,1.28-1.03c0-0.66-0.44-0.98-1.19-1
			c-0.39,0-0.61,0.03-0.73,0.05V309.29z"/>
		<path class="st0" d="M108.96,309.82c0-0.68-0.02-1.26-0.04-1.74h1.4l0.07,0.72h0.02c0.38-0.55,0.97-0.84,1.73-0.84
			c1.13,0,2.15,0.98,2.15,2.64c0,1.89-1.2,2.77-2.35,2.77c-0.62,0-1.11-0.25-1.34-0.59h-0.02v2.57h-1.61V309.82z M110.57,311.04
			c0,0.13,0.01,0.24,0.03,0.34c0.11,0.43,0.48,0.76,0.94,0.76c0.7,0,1.11-0.58,1.11-1.46c0-0.83-0.37-1.45-1.09-1.45
			c-0.46,0-0.86,0.34-0.96,0.82c-0.02,0.08-0.03,0.19-0.03,0.29V311.04z"/>
		<path class="st0" d="M120.17,311.6c0,0.68,0.02,1.23,0.04,1.66h-1.4l-0.07-0.73h-0.03c-0.2,0.32-0.69,0.85-1.62,0.85
			c-1.05,0-1.82-0.66-1.82-2.26v-3.04h1.62v2.79c0,0.75,0.24,1.21,0.8,1.21c0.44,0,0.7-0.31,0.8-0.56c0.04-0.1,0.05-0.22,0.05-0.35
			v-3.08h1.62V311.6z"/>
		<path class="st0" d="M121.46,309.79c0-0.76-0.02-1.26-0.04-1.7h1.39l0.05,0.95h0.04c0.27-0.75,0.9-1.07,1.4-1.07
			c0.15,0,0.22,0,0.34,0.02v1.51c-0.12-0.02-0.25-0.04-0.43-0.04c-0.59,0-1,0.32-1.1,0.82c-0.02,0.11-0.03,0.23-0.03,0.36v2.63
			h-1.61V309.79z"/>
		<path class="st0" d="M129.29,313.13c-0.29,0.13-0.83,0.23-1.44,0.23c-1.67,0-2.74-1.02-2.74-2.65c0-1.51,1.04-2.75,2.96-2.75
			c0.42,0,0.89,0.07,1.23,0.2l-0.25,1.2c-0.19-0.08-0.48-0.16-0.9-0.16c-0.85,0-1.4,0.6-1.39,1.45c0,0.95,0.64,1.45,1.42,1.45
			c0.38,0,0.68-0.06,0.92-0.16L129.29,313.13z"/>
		<path class="st0" d="M130.17,305.74h1.61v2.95h0.02c0.17-0.22,0.38-0.39,0.64-0.53c0.23-0.13,0.54-0.2,0.84-0.2
			c1.03,0,1.81,0.71,1.81,2.27v3.03h-1.61v-2.85c0-0.68-0.23-1.14-0.84-1.14c-0.42,0-0.69,0.28-0.8,0.56
			c-0.04,0.11-0.05,0.24-0.05,0.36v3.07h-1.61V305.74z"/>
		<path class="st0" d="M139.32,313.26l-0.1-0.52h-0.03c-0.34,0.41-0.87,0.64-1.48,0.64c-1.05,0-1.67-0.76-1.67-1.59
			c0-1.34,1.21-1.99,3.04-1.98v-0.07c0-0.28-0.15-0.67-0.94-0.67c-0.53,0-1.09,0.18-1.43,0.39l-0.3-1.04
			c0.36-0.2,1.07-0.46,2.01-0.46c1.73,0,2.28,1.02,2.28,2.23v1.8c0,0.5,0.02,0.97,0.07,1.26H139.32z M139.13,310.82
			c-0.85-0.01-1.5,0.19-1.5,0.82c0,0.41,0.28,0.61,0.64,0.61c0.4,0,0.73-0.26,0.84-0.59c0.02-0.08,0.03-0.18,0.03-0.28V310.82z"/>
		<path class="st0" d="M141.95,311.85c0.3,0.18,0.91,0.39,1.39,0.39c0.49,0,0.69-0.17,0.69-0.43s-0.16-0.39-0.76-0.59
			c-1.07-0.36-1.48-0.94-1.47-1.56c0-0.96,0.83-1.69,2.11-1.69c0.6,0,1.14,0.14,1.46,0.3l-0.29,1.11c-0.23-0.13-0.68-0.3-1.12-0.3
			c-0.39,0-0.61,0.16-0.61,0.42c0,0.24,0.2,0.37,0.84,0.59c0.98,0.34,1.4,0.84,1.41,1.6c0,0.96-0.76,1.67-2.25,1.67
			c-0.68,0-1.28-0.15-1.67-0.36L141.95,311.85z"/>
		<path class="st0" d="M147.8,311.19c0.05,0.67,0.71,0.98,1.46,0.98c0.55,0,1-0.07,1.43-0.21l0.21,1.09
			c-0.53,0.21-1.18,0.32-1.87,0.32c-1.76,0-2.76-1.02-2.76-2.64c0-1.31,0.82-2.76,2.62-2.76c1.67,0,2.31,1.3,2.31,2.58
			c0,0.28-0.03,0.52-0.05,0.64H147.8z M149.69,310.08c0-0.39-0.17-1.05-0.91-1.05c-0.68,0-0.95,0.61-1,1.05H149.69z"/>
		<path class="st0" d="M152.13,311.85c0.3,0.18,0.91,0.39,1.39,0.39c0.49,0,0.69-0.17,0.69-0.43s-0.16-0.39-0.76-0.59
			c-1.07-0.36-1.48-0.94-1.47-1.56c0-0.96,0.83-1.69,2.11-1.69c0.6,0,1.14,0.14,1.46,0.3l-0.29,1.11c-0.23-0.13-0.68-0.3-1.12-0.3
			c-0.39,0-0.61,0.16-0.61,0.42c0,0.24,0.2,0.37,0.84,0.59c0.98,0.34,1.4,0.84,1.41,1.6c0,0.96-0.76,1.67-2.25,1.67
			c-0.68,0-1.28-0.15-1.67-0.36L152.13,311.85z"/>
		<path class="st0" d="M158.88,309.74c0-0.65-0.02-1.2-0.04-1.65h1.36l0.07,0.7h0.03c0.22-0.33,0.68-0.82,1.57-0.82
			c0.67,0,1.2,0.34,1.42,0.88h0.02c0.19-0.26,0.42-0.48,0.67-0.62c0.29-0.17,0.6-0.25,0.98-0.25c1,0,1.75,0.7,1.75,2.25v3.05h-1.57
			v-2.82c0-0.75-0.24-1.19-0.76-1.19c-0.37,0-0.64,0.25-0.74,0.56c-0.04,0.12-0.06,0.29-0.06,0.41v3.03H162v-2.9
			c0-0.66-0.23-1.1-0.74-1.1c-0.41,0-0.66,0.32-0.75,0.58c-0.05,0.13-0.06,0.28-0.06,0.4v3.02h-1.57V309.74z"/>
		<path class="st0" d="M170.92,313.26l-0.1-0.52h-0.03c-0.34,0.41-0.87,0.64-1.48,0.64c-1.05,0-1.67-0.76-1.67-1.59
			c0-1.34,1.21-1.99,3.04-1.98v-0.07c0-0.28-0.15-0.67-0.94-0.67c-0.53,0-1.09,0.18-1.43,0.39l-0.3-1.04
			c0.36-0.2,1.07-0.46,2.01-0.46c1.73,0,2.28,1.02,2.28,2.23v1.8c0,0.5,0.02,0.97,0.07,1.26H170.92z M170.73,310.82
			c-0.85-0.01-1.5,0.19-1.5,0.82c0,0.41,0.28,0.61,0.64,0.61c0.4,0,0.73-0.26,0.84-0.59c0.02-0.08,0.03-0.18,0.03-0.28V310.82z"/>
		<path class="st0" d="M178.59,305.74v5.97c0,0.58,0.02,1.2,0.04,1.55h-1.43l-0.07-0.76h-0.02c-0.33,0.58-0.95,0.88-1.62,0.88
			c-1.23,0-2.21-1.05-2.21-2.66c-0.01-1.75,1.08-2.75,2.32-2.75c0.64,0,1.13,0.22,1.37,0.58h0.02v-2.81H178.59z M176.98,310.28
			c0-0.08-0.01-0.2-0.02-0.29c-0.1-0.43-0.44-0.79-0.94-0.79c-0.73,0-1.11,0.66-1.11,1.47c0,0.88,0.43,1.43,1.1,1.43
			c0.47,0,0.84-0.32,0.93-0.77c0.03-0.12,0.04-0.23,0.04-0.37V310.28z"/>
		<path class="st0" d="M181.12,311.19c0.05,0.67,0.71,0.98,1.46,0.98c0.55,0,1-0.07,1.43-0.21l0.21,1.09
			c-0.53,0.21-1.18,0.32-1.87,0.32c-1.76,0-2.76-1.02-2.76-2.64c0-1.31,0.82-2.76,2.62-2.76c1.67,0,2.31,1.3,2.31,2.58
			c0,0.28-0.03,0.52-0.05,0.64H181.12z M183.01,310.08c0-0.39-0.17-1.05-0.91-1.05c-0.68,0-0.95,0.61-1,1.05H183.01z"/>
		<path class="st0" d="M189.27,306.64c0,0.44-0.34,0.81-0.87,0.81c-0.51,0-0.85-0.36-0.84-0.81c-0.01-0.47,0.33-0.82,0.85-0.82
			C188.93,305.83,189.25,306.18,189.27,306.64z M187.6,313.26v-5.18h1.61v5.18H187.6z"/>
		<path class="st0" d="M190.5,309.74c0-0.65-0.02-1.2-0.04-1.65h1.4l0.07,0.71h0.03c0.21-0.33,0.74-0.83,1.6-0.83
			c1.06,0,1.85,0.7,1.85,2.22v3.07h-1.61v-2.87c0-0.67-0.23-1.12-0.82-1.12c-0.44,0-0.71,0.31-0.81,0.6
			c-0.04,0.1-0.06,0.25-0.06,0.4v2.99h-1.61V309.74z"/>
		<path class="st0" d="M201.79,313.26l-0.1-0.52h-0.03c-0.34,0.41-0.87,0.64-1.48,0.64c-1.05,0-1.67-0.76-1.67-1.59
			c0-1.34,1.21-1.99,3.04-1.98v-0.07c0-0.28-0.15-0.67-0.94-0.67c-0.53,0-1.09,0.18-1.43,0.39l-0.3-1.04
			c0.36-0.2,1.07-0.46,2.01-0.46c1.73,0,2.28,1.02,2.28,2.23v1.8c0,0.5,0.02,0.97,0.07,1.26H201.79z M201.6,310.82
			c-0.85-0.01-1.5,0.19-1.5,0.82c0,0.41,0.28,0.61,0.64,0.61c0.4,0,0.73-0.26,0.84-0.59c0.02-0.08,0.03-0.18,0.03-0.28V310.82z"/>
		<path class="st0" d="M206.62,306.22c0.5-0.08,1.2-0.15,2.18-0.15c1,0,1.71,0.19,2.18,0.57c0.46,0.36,0.76,0.95,0.76,1.65
			c0,0.7-0.23,1.29-0.66,1.69c-0.55,0.52-1.37,0.75-2.32,0.75c-0.21,0-0.4-0.01-0.55-0.03v2.55h-1.6V306.22z M208.22,309.46
			c0.14,0.03,0.31,0.04,0.54,0.04c0.86,0,1.39-0.43,1.39-1.17c0-0.66-0.46-1.05-1.26-1.05c-0.33,0-0.55,0.03-0.67,0.06V309.46z"/>
		<path class="st0" d="M211.08,312.4c0-0.57,0.39-0.98,0.95-0.98c0.56,0,0.94,0.4,0.94,0.98c0,0.56-0.38,0.97-0.95,0.97
			C211.47,313.38,211.08,312.97,211.08,312.4z"/>
		<path class="st0" d="M219.24,313.06c-0.3,0.15-0.96,0.31-1.83,0.31c-2.47,0-3.74-1.54-3.74-3.57c0-2.44,1.74-3.79,3.9-3.79
			c0.84,0,1.47,0.17,1.76,0.32l-0.33,1.28c-0.33-0.14-0.78-0.26-1.36-0.26c-1.28,0-2.28,0.77-2.28,2.36c0,1.43,0.85,2.33,2.29,2.33
			c0.49,0,1.03-0.11,1.34-0.23L219.24,313.06z"/>
		<path class="st0" d="M220.13,312.4c0-0.57,0.39-0.98,0.95-0.98c0.56,0,0.94,0.4,0.94,0.98c0,0.56-0.38,0.97-0.95,0.97
			C220.52,313.38,220.13,312.97,220.13,312.4z"/>
		<path class="st0" d="M225.19,306.22c0.52-0.08,1.29-0.15,2.15-0.15c1.06,0,1.8,0.16,2.31,0.56c0.42,0.34,0.66,0.84,0.66,1.49
			c0,0.91-0.65,1.54-1.26,1.76v0.03c0.5,0.2,0.77,0.68,0.95,1.33c0.22,0.81,0.44,1.74,0.58,2.01h-1.65c-0.12-0.2-0.29-0.78-0.5-1.66
			c-0.19-0.89-0.5-1.13-1.15-1.14h-0.49v2.81h-1.6V306.22z M226.79,309.29h0.64c0.81,0,1.28-0.4,1.28-1.03c0-0.66-0.44-0.98-1.19-1
			c-0.39,0-0.61,0.03-0.73,0.05V309.29z"/>
		<path class="st0" d="M233.18,306.64c0,0.44-0.34,0.81-0.87,0.81c-0.51,0-0.85-0.36-0.84-0.81c-0.01-0.47,0.33-0.82,0.85-0.82
			S233.17,306.18,233.18,306.64z M231.52,313.26v-5.18h1.61v5.18H231.52z"/>
		<path class="st0" d="M238.3,313.13c-0.29,0.13-0.83,0.23-1.44,0.23c-1.67,0-2.74-1.02-2.74-2.65c0-1.51,1.04-2.75,2.96-2.75
			c0.42,0,0.89,0.07,1.23,0.2l-0.25,1.2c-0.19-0.08-0.48-0.16-0.9-0.16c-0.85,0-1.4,0.6-1.39,1.45c0,0.95,0.64,1.45,1.42,1.45
			c0.38,0,0.68-0.06,0.92-0.16L238.3,313.13z"/>
		<path class="st0" d="M239.19,305.74h1.61v2.95h0.02c0.17-0.22,0.38-0.39,0.64-0.53c0.23-0.13,0.54-0.2,0.84-0.2
			c1.03,0,1.81,0.71,1.81,2.27v3.03h-1.61v-2.85c0-0.68-0.23-1.14-0.84-1.14c-0.42,0-0.69,0.28-0.8,0.56
			c-0.04,0.11-0.05,0.24-0.05,0.36v3.07h-1.61V305.74z"/>
		<path class="st0" d="M248.34,313.26l-0.1-0.52h-0.03c-0.34,0.41-0.87,0.64-1.48,0.64c-1.05,0-1.67-0.76-1.67-1.59
			c0-1.34,1.21-1.99,3.04-1.98v-0.07c0-0.28-0.15-0.67-0.94-0.67c-0.53,0-1.09,0.18-1.43,0.39l-0.3-1.04
			c0.36-0.2,1.07-0.46,2.01-0.46c1.73,0,2.28,1.02,2.28,2.23v1.8c0,0.5,0.02,0.97,0.07,1.26H248.34z M248.15,310.82
			c-0.85-0.01-1.5,0.19-1.5,0.82c0,0.41,0.28,0.61,0.64,0.61c0.4,0,0.73-0.26,0.84-0.59c0.02-0.08,0.03-0.18,0.03-0.28V310.82z"/>
		<path class="st0" d="M250.98,309.79c0-0.76-0.02-1.26-0.04-1.7h1.39l0.05,0.95h0.04c0.27-0.75,0.9-1.07,1.4-1.07
			c0.15,0,0.22,0,0.34,0.02v1.51c-0.12-0.02-0.25-0.04-0.43-0.04c-0.59,0-1,0.32-1.1,0.82c-0.02,0.11-0.03,0.23-0.03,0.36v2.63
			h-1.61V309.79z"/>
		<path class="st0" d="M259.94,305.74v5.97c0,0.58,0.02,1.2,0.04,1.55h-1.43l-0.07-0.76h-0.02c-0.33,0.58-0.95,0.88-1.62,0.88
			c-1.23,0-2.21-1.05-2.21-2.66c-0.01-1.75,1.08-2.75,2.32-2.75c0.64,0,1.13,0.22,1.37,0.58h0.02v-2.81H259.94z M258.33,310.28
			c0-0.08-0.01-0.2-0.02-0.29c-0.1-0.43-0.44-0.79-0.94-0.79c-0.73,0-1.11,0.66-1.11,1.47c0,0.88,0.43,1.43,1.1,1.43
			c0.47,0,0.84-0.32,0.93-0.77c0.03-0.12,0.04-0.23,0.04-0.37V310.28z"/>
		<path class="st0" d="M267.96,313.26c-0.15-0.16-0.3-0.32-0.47-0.51c-0.47,0.36-1.11,0.63-1.96,0.63c-1.73,0-2.49-1.03-2.49-2.02
			c0-0.94,0.54-1.62,1.36-2.04v-0.04c-0.31-0.34-0.54-0.87-0.54-1.38c0-0.9,0.71-1.88,2.14-1.88c1.1,0,1.94,0.65,1.94,1.67
			c0,0.72-0.42,1.33-1.41,1.83l-0.01,0.04c0.41,0.46,0.85,0.97,1.2,1.33c0.29-0.44,0.51-1.1,0.6-1.74h1.44
			c-0.19,1.08-0.55,2-1.19,2.71c0.4,0.46,0.82,0.92,1.26,1.4H267.96z M266.74,311.85c-0.44-0.44-1.03-1.09-1.61-1.75
			c-0.3,0.21-0.56,0.52-0.56,0.98c0,0.6,0.46,1.12,1.19,1.12C266.18,312.21,266.53,312.05,266.74,311.85z M265.3,307.74
			c0,0.36,0.17,0.68,0.49,1.03c0.52-0.36,0.78-0.64,0.78-1.05c0-0.34-0.2-0.71-0.62-0.71C265.53,307.01,265.3,307.37,265.3,307.74z"
			/>
		<path class="st0" d="M272.78,311.6c0.43,0.22,1.1,0.44,1.79,0.44c0.74,0,1.13-0.31,1.13-0.77c0-0.44-0.34-0.7-1.2-1.01
			c-1.19-0.41-1.96-1.07-1.96-2.11c0-1.22,1.02-2.15,2.7-2.15c0.8,0,1.4,0.17,1.82,0.36l-0.36,1.3c-0.29-0.14-0.79-0.34-1.49-0.34
			s-1.04,0.32-1.04,0.69c0,0.46,0.4,0.66,1.32,1.01c1.26,0.47,1.85,1.12,1.85,2.13c0,1.2-0.92,2.21-2.88,2.21
			c-0.82,0-1.62-0.21-2.02-0.43L272.78,311.6z"/>
		<path class="st0" d="M283.58,310.61c0,1.9-1.34,2.76-2.73,2.76c-1.51,0-2.68-1-2.68-2.67c0-1.67,1.1-2.74,2.76-2.74
			C282.52,307.97,283.58,309.06,283.58,310.61z M279.83,310.67c0,0.89,0.37,1.56,1.06,1.56c0.63,0,1.03-0.63,1.03-1.56
			c0-0.77-0.3-1.56-1.03-1.56C280.12,309.11,279.83,309.9,279.83,310.67z"/>
		<path class="st0" d="M284.57,309.74c0-0.65-0.02-1.2-0.04-1.65h1.4l0.07,0.71h0.03c0.21-0.33,0.74-0.83,1.6-0.83
			c1.06,0,1.85,0.7,1.85,2.22v3.07h-1.61v-2.87c0-0.67-0.23-1.12-0.81-1.12c-0.44,0-0.71,0.31-0.82,0.6
			c-0.04,0.1-0.06,0.25-0.06,0.4v2.99h-1.61V309.74z"/>
		<path class="st0" d="M292.9,311.85c0.3,0.18,0.91,0.39,1.39,0.39c0.49,0,0.69-0.17,0.69-0.43s-0.16-0.39-0.76-0.59
			c-1.07-0.36-1.48-0.94-1.47-1.56c0-0.96,0.83-1.69,2.11-1.69c0.6,0,1.14,0.14,1.46,0.3l-0.29,1.11c-0.23-0.13-0.68-0.3-1.12-0.3
			c-0.39,0-0.61,0.16-0.61,0.42c0,0.24,0.2,0.37,0.84,0.59c0.98,0.34,1.4,0.84,1.41,1.6c0,0.96-0.76,1.67-2.25,1.67
			c-0.68,0-1.28-0.15-1.67-0.36L292.9,311.85z"/>
		<path class="st0" d="M299.31,306.6v1.48h1.15v1.19h-1.15v1.87c0,0.63,0.15,0.91,0.64,0.91c0.2,0,0.36-0.02,0.48-0.04l0.01,1.22
			c-0.21,0.08-0.59,0.14-1.05,0.14c-0.52,0-0.95-0.18-1.21-0.44c-0.3-0.31-0.44-0.8-0.44-1.54v-2.12h-0.69v-1.19h0.69v-1.12
			L299.31,306.6z"/>
		<path class="st0" d="M306.45,310.61c0,1.9-1.34,2.76-2.73,2.76c-1.51,0-2.68-1-2.68-2.67c0-1.67,1.1-2.74,2.76-2.74
			C305.4,307.97,306.45,309.06,306.45,310.61z M302.71,310.67c0,0.89,0.37,1.56,1.06,1.56c0.63,0,1.03-0.63,1.03-1.56
			c0-0.77-0.3-1.56-1.03-1.56C302.99,309.11,302.71,309.9,302.71,310.67z"/>
		<path class="st0" d="M307.45,309.79c0-0.76-0.02-1.26-0.04-1.7h1.39l0.05,0.95h0.04c0.27-0.75,0.9-1.07,1.4-1.07
			c0.15,0,0.22,0,0.34,0.02v1.51c-0.12-0.02-0.25-0.04-0.43-0.04c-0.59,0-1,0.32-1.1,0.82c-0.02,0.11-0.03,0.23-0.03,0.36v2.63
			h-1.61V309.79z"/>
		<path class="st0" d="M312.62,311.19c0.05,0.67,0.71,0.98,1.46,0.98c0.55,0,1-0.07,1.43-0.21l0.21,1.09
			c-0.53,0.21-1.18,0.32-1.87,0.32c-1.76,0-2.76-1.02-2.76-2.64c0-1.31,0.82-2.76,2.62-2.76c1.67,0,2.31,1.3,2.31,2.58
			c0,0.28-0.03,0.52-0.05,0.64H312.62z M314.52,310.08c0-0.39-0.17-1.05-0.91-1.05c-0.68,0-0.95,0.61-1,1.05H314.52z"/>
		<path class="st0" d="M316.69,312.4c0-0.57,0.39-0.98,0.95-0.98c0.56,0,0.94,0.4,0.94,0.98c0,0.56-0.38,0.97-0.95,0.97
			C317.08,313.38,316.69,312.97,316.69,312.4z"/>
		<path class="st0" d="M44.75,328.26v-2.92l-2.26-4.21h1.84l0.73,1.72c0.22,0.52,0.37,0.9,0.55,1.37h0.02
			c0.16-0.44,0.33-0.86,0.54-1.37l0.72-1.72h1.81l-2.35,4.16v2.98H44.75z"/>
		<path class="st0" d="M53.39,325.61c0,1.9-1.34,2.76-2.73,2.76c-1.51,0-2.68-1-2.68-2.67c0-1.67,1.1-2.74,2.76-2.74
			C52.33,322.96,53.39,324.05,53.39,325.61z M49.64,325.66c0,0.89,0.37,1.56,1.06,1.56c0.63,0,1.03-0.63,1.03-1.56
			c0-0.77-0.3-1.56-1.03-1.56C49.92,324.1,49.64,324.9,49.64,325.66z"/>
		<path class="st0" d="M59.26,326.59c0,0.68,0.02,1.23,0.04,1.66h-1.4l-0.07-0.73H57.8c-0.2,0.32-0.69,0.85-1.62,0.85
			c-1.05,0-1.82-0.66-1.82-2.26v-3.04h1.62v2.79c0,0.75,0.24,1.21,0.8,1.21c0.44,0,0.7-0.31,0.8-0.56c0.04-0.1,0.05-0.22,0.05-0.35
			v-3.08h1.62V326.59z"/>
		<path class="st0" d="M60.55,324.78c0-0.76-0.02-1.26-0.04-1.7h1.39l0.05,0.95h0.04c0.27-0.75,0.9-1.07,1.4-1.07
			c0.15,0,0.22,0,0.34,0.02v1.51c-0.12-0.02-0.25-0.04-0.43-0.04c-0.59,0-1,0.32-1.1,0.82c-0.02,0.11-0.03,0.23-0.03,0.36v2.63
			h-1.61V324.78z"/>
		<path class="st0" d="M66.89,328.26v-3.99h-0.68v-1.19h0.68v-0.22c0-1.43,1.11-2.23,2.71-2.23c0.55,0,1.21,0.13,1.52,0.32
			l-0.31,1.22c-0.25-0.14-0.67-0.26-1.18-0.26c-0.85,0-1.14,0.43-1.14,1.01v0.18h3.15v5.18h-1.61v-3.99h-1.52v3.99H66.89z"/>
		<path class="st0" d="M72.93,324.78c0-0.76-0.02-1.26-0.04-1.7h1.39l0.05,0.95h0.04c0.27-0.75,0.9-1.07,1.4-1.07
			c0.15,0,0.22,0,0.34,0.02v1.51c-0.12-0.02-0.25-0.04-0.43-0.04c-0.59,0-1,0.32-1.1,0.82c-0.02,0.11-0.03,0.23-0.03,0.36v2.63
			h-1.61V324.78z"/>
		<path class="st0" d="M76.94,326.85c0.3,0.18,0.91,0.39,1.39,0.39c0.49,0,0.69-0.17,0.69-0.43s-0.16-0.39-0.76-0.59
			c-1.07-0.36-1.48-0.94-1.47-1.56c0-0.96,0.83-1.69,2.11-1.69c0.6,0,1.14,0.14,1.46,0.3l-0.29,1.11c-0.23-0.13-0.68-0.3-1.12-0.3
			c-0.39,0-0.61,0.16-0.61,0.42c0,0.24,0.2,0.37,0.84,0.59c0.98,0.34,1.4,0.84,1.41,1.6c0,0.96-0.76,1.67-2.25,1.67
			c-0.68,0-1.28-0.15-1.67-0.36L76.94,326.85z"/>
		<path class="st0" d="M83.35,321.6v1.48h1.15v1.19h-1.15v1.87c0,0.63,0.15,0.91,0.64,0.91c0.2,0,0.36-0.02,0.48-0.04l0.01,1.22
			c-0.21,0.08-0.59,0.14-1.05,0.14c-0.52,0-0.95-0.18-1.21-0.44c-0.3-0.31-0.44-0.8-0.44-1.54v-2.12h-0.69v-1.19h0.69v-1.12
			L83.35,321.6z"/>
		<path class="st0" d="M92.69,325.61c0,1.9-1.34,2.76-2.73,2.76c-1.51,0-2.68-1-2.68-2.67c0-1.67,1.1-2.74,2.76-2.74
			C91.63,322.96,92.69,324.05,92.69,325.61z M88.94,325.66c0,0.89,0.37,1.56,1.06,1.56c0.63,0,1.03-0.63,1.03-1.56
			c0-0.77-0.3-1.56-1.03-1.56C89.22,324.1,88.94,324.9,88.94,325.66z"/>
		<path class="st0" d="M93.68,324.78c0-0.76-0.02-1.26-0.04-1.7h1.39l0.05,0.95h0.04c0.27-0.75,0.9-1.07,1.4-1.07
			c0.15,0,0.22,0,0.34,0.02v1.51c-0.12-0.02-0.25-0.04-0.43-0.04c-0.59,0-1,0.32-1.1,0.82c-0.02,0.11-0.03,0.23-0.03,0.36v2.63
			h-1.61V324.78z"/>
		<path class="st0" d="M102.64,320.74v5.97c0,0.58,0.02,1.2,0.04,1.55h-1.43l-0.07-0.76h-0.02c-0.33,0.58-0.95,0.88-1.62,0.88
			c-1.23,0-2.21-1.05-2.21-2.66c-0.01-1.75,1.08-2.75,2.32-2.75c0.64,0,1.13,0.22,1.37,0.58h0.02v-2.81H102.64z M101.03,325.27
			c0-0.08-0.01-0.2-0.02-0.29c-0.1-0.43-0.44-0.79-0.94-0.79c-0.73,0-1.11,0.66-1.11,1.47c0,0.88,0.43,1.43,1.1,1.43
			c0.47,0,0.84-0.32,0.93-0.77c0.03-0.12,0.04-0.23,0.04-0.37V325.27z"/>
		<path class="st0" d="M105.16,326.18c0.05,0.67,0.71,0.98,1.46,0.98c0.55,0,1-0.07,1.43-0.21l0.21,1.09
			c-0.53,0.21-1.18,0.32-1.87,0.32c-1.76,0-2.76-1.02-2.76-2.64c0-1.31,0.82-2.76,2.62-2.76c1.67,0,2.31,1.3,2.31,2.58
			c0,0.28-0.03,0.52-0.05,0.64H105.16z M107.06,325.08c0-0.39-0.17-1.05-0.91-1.05c-0.68,0-0.95,0.61-1,1.05H107.06z"/>
		<path class="st0" d="M109.51,324.78c0-0.76-0.02-1.26-0.04-1.7h1.39l0.05,0.95h0.04c0.27-0.75,0.9-1.07,1.4-1.07
			c0.15,0,0.22,0,0.34,0.02v1.51c-0.12-0.02-0.25-0.04-0.43-0.04c-0.59,0-1,0.32-1.1,0.82c-0.02,0.11-0.03,0.23-0.03,0.36v2.63
			h-1.61V324.78z"/>
		<path class="st0" d="M115.67,324.73c0-0.65-0.02-1.2-0.04-1.65h1.36l0.07,0.7h0.03c0.22-0.33,0.68-0.82,1.57-0.82
			c0.67,0,1.2,0.34,1.42,0.88h0.02c0.19-0.26,0.42-0.48,0.67-0.62c0.29-0.17,0.6-0.25,0.98-0.25c1,0,1.75,0.7,1.75,2.25v3.05h-1.57
			v-2.82c0-0.75-0.24-1.19-0.76-1.19c-0.37,0-0.64,0.25-0.74,0.56c-0.04,0.12-0.06,0.29-0.06,0.41v3.03h-1.57v-2.9
			c0-0.66-0.23-1.1-0.74-1.1c-0.41,0-0.66,0.32-0.75,0.58c-0.05,0.13-0.06,0.28-0.06,0.4v3.02h-1.57V324.73z"/>
		<path class="st0" d="M129.66,326.59c0,0.68,0.02,1.23,0.04,1.66h-1.4l-0.07-0.73h-0.03c-0.2,0.32-0.69,0.85-1.62,0.85
			c-1.05,0-1.82-0.66-1.82-2.26v-3.04h1.62v2.79c0,0.75,0.24,1.21,0.8,1.21c0.44,0,0.7-0.31,0.8-0.56c0.04-0.1,0.05-0.22,0.05-0.35
			v-3.08h1.62V326.59z"/>
		<path class="st0" d="M130.93,326.85c0.3,0.18,0.91,0.39,1.39,0.39c0.49,0,0.69-0.17,0.69-0.43s-0.16-0.39-0.76-0.59
			c-1.07-0.36-1.48-0.94-1.47-1.56c0-0.96,0.83-1.69,2.11-1.69c0.6,0,1.14,0.14,1.46,0.3l-0.29,1.11c-0.23-0.13-0.68-0.3-1.12-0.3
			c-0.39,0-0.61,0.16-0.61,0.42c0,0.24,0.2,0.37,0.84,0.59c0.98,0.34,1.4,0.84,1.41,1.6c0,0.96-0.76,1.67-2.25,1.67
			c-0.68,0-1.28-0.15-1.67-0.36L130.93,326.85z"/>
		<path class="st0" d="M137.34,321.6v1.48h1.15v1.19h-1.15v1.87c0,0.63,0.15,0.91,0.64,0.91c0.2,0,0.36-0.02,0.48-0.04l0.01,1.22
			c-0.21,0.08-0.59,0.14-1.05,0.14c-0.52,0-0.95-0.18-1.21-0.44c-0.3-0.31-0.44-0.8-0.44-1.54v-2.12h-0.69v-1.19h0.69v-1.12
			L137.34,321.6z"/>
		<path class="st0" d="M141.52,328.26c0.02-0.34,0.04-0.96,0.04-1.55v-5.97h1.61v2.95h0.02c0.31-0.44,0.85-0.73,1.57-0.73
			c1.24,0,2.15,1.03,2.14,2.62c0,1.86-1.19,2.8-2.37,2.8c-0.6,0-1.19-0.22-1.56-0.84h-0.02l-0.06,0.72H141.52z M143.17,326.05
			c0,0.11,0.01,0.2,0.03,0.29c0.11,0.43,0.48,0.76,0.94,0.76c0.69,0,1.11-0.53,1.11-1.46c0-0.8-0.36-1.44-1.11-1.44
			c-0.43,0-0.84,0.33-0.94,0.79c-0.02,0.1-0.03,0.19-0.03,0.3V326.05z"/>
		<path class="st0" d="M149.16,326.18c0.05,0.67,0.71,0.98,1.46,0.98c0.55,0,1-0.07,1.43-0.21l0.21,1.09
			c-0.53,0.21-1.18,0.32-1.87,0.32c-1.76,0-2.76-1.02-2.76-2.64c0-1.31,0.82-2.76,2.62-2.76c1.67,0,2.31,1.3,2.31,2.58
			c0,0.28-0.03,0.52-0.05,0.64H149.16z M151.06,325.08c0-0.39-0.17-1.05-0.91-1.05c-0.68,0-0.95,0.61-1,1.05H151.06z"/>
		<path class="st0" d="M160.67,320.74v5.97c0,0.58,0.02,1.2,0.04,1.55h-1.43l-0.07-0.76h-0.02c-0.33,0.58-0.95,0.88-1.62,0.88
			c-1.23,0-2.21-1.05-2.21-2.66c-0.01-1.75,1.08-2.75,2.32-2.75c0.64,0,1.13,0.22,1.37,0.58h0.02v-2.81H160.67z M159.06,325.27
			c0-0.08-0.01-0.2-0.02-0.29c-0.1-0.43-0.44-0.79-0.94-0.79c-0.73,0-1.11,0.66-1.11,1.47c0,0.88,0.43,1.43,1.1,1.43
			c0.47,0,0.84-0.32,0.93-0.77c0.03-0.12,0.04-0.23,0.04-0.37V325.27z"/>
		<path class="st0" d="M163.2,326.18c0.05,0.67,0.71,0.98,1.46,0.98c0.55,0,1-0.07,1.43-0.21l0.21,1.09
			c-0.53,0.21-1.18,0.32-1.87,0.32c-1.76,0-2.76-1.02-2.76-2.64c0-1.31,0.82-2.76,2.62-2.76c1.67,0,2.31,1.3,2.31,2.58
			c0,0.28-0.03,0.52-0.05,0.64H163.2z M165.09,325.08c0-0.39-0.17-1.05-0.91-1.05c-0.68,0-0.95,0.61-1,1.05H165.09z"/>
		<path class="st0" d="M167.55,320.74h1.61v7.52h-1.61V320.74z"/>
		<path class="st0" d="M172.12,321.64c0,0.44-0.34,0.81-0.87,0.81c-0.51,0-0.85-0.36-0.84-0.81c-0.01-0.47,0.33-0.82,0.85-0.82
			C171.78,320.82,172.11,321.17,172.12,321.64z M170.46,328.26v-5.18h1.61v5.18H170.46z"/>
		<path class="st0" d="M174.55,323.08l0.7,2.4c0.13,0.43,0.22,0.85,0.3,1.26h0.03c0.08-0.42,0.17-0.82,0.29-1.26l0.67-2.4h1.69
			l-1.93,5.18h-1.61l-1.89-5.18H174.55z"/>
		<path class="st0" d="M180.05,326.18c0.05,0.67,0.71,0.98,1.46,0.98c0.55,0,1-0.07,1.43-0.21l0.21,1.09
			c-0.53,0.21-1.18,0.32-1.87,0.32c-1.76,0-2.76-1.02-2.76-2.64c0-1.31,0.82-2.76,2.62-2.76c1.67,0,2.31,1.3,2.31,2.58
			c0,0.28-0.03,0.52-0.05,0.64H180.05z M181.94,325.08c0-0.39-0.17-1.05-0.91-1.05c-0.68,0-0.95,0.61-1,1.05H181.94z"/>
		<path class="st0" d="M184.4,324.78c0-0.76-0.02-1.26-0.04-1.7h1.39l0.05,0.95h0.04c0.27-0.75,0.9-1.07,1.4-1.07
			c0.15,0,0.22,0,0.34,0.02v1.51c-0.12-0.02-0.25-0.04-0.43-0.04c-0.59,0-1,0.32-1.1,0.82c-0.02,0.11-0.03,0.23-0.03,0.36v2.63
			h-1.61V324.78z"/>
		<path class="st0" d="M189.57,326.18c0.05,0.67,0.71,0.98,1.46,0.98c0.55,0,1-0.07,1.43-0.21l0.21,1.09
			c-0.53,0.21-1.18,0.32-1.87,0.32c-1.76,0-2.76-1.02-2.76-2.64c0-1.31,0.82-2.76,2.62-2.76c1.67,0,2.31,1.3,2.31,2.58
			c0,0.28-0.03,0.52-0.05,0.64H189.57z M191.47,325.08c0-0.39-0.17-1.05-0.91-1.05c-0.68,0-0.95,0.61-1,1.05H191.47z"/>
		<path class="st0" d="M198.94,320.74v5.97c0,0.58,0.02,1.2,0.04,1.55h-1.43l-0.07-0.76h-0.02c-0.33,0.58-0.95,0.88-1.62,0.88
			c-1.23,0-2.21-1.05-2.21-2.66c-0.01-1.75,1.08-2.75,2.32-2.75c0.64,0,1.13,0.22,1.37,0.58h0.02v-2.81H198.94z M197.33,325.27
			c0-0.08-0.01-0.2-0.02-0.29c-0.1-0.43-0.44-0.79-0.94-0.79c-0.73,0-1.11,0.66-1.11,1.47c0,0.88,0.43,1.43,1.1,1.43
			c0.47,0,0.84-0.32,0.93-0.77c0.03-0.12,0.04-0.23,0.04-0.37V325.27z"/>
		<path class="st0" d="M204.17,321.6v1.48h1.15v1.19h-1.15v1.87c0,0.63,0.15,0.91,0.64,0.91c0.2,0,0.36-0.02,0.48-0.04l0.01,1.22
			c-0.21,0.08-0.59,0.14-1.05,0.14c-0.52,0-0.95-0.18-1.21-0.44c-0.3-0.31-0.44-0.8-0.44-1.54v-2.12h-0.69v-1.19h0.69v-1.12
			L204.17,321.6z"/>
		<path class="st0" d="M211.31,325.61c0,1.9-1.34,2.76-2.73,2.76c-1.51,0-2.68-1-2.68-2.67c0-1.67,1.1-2.74,2.76-2.74
			C210.25,322.96,211.31,324.05,211.31,325.61z M207.56,325.66c0,0.89,0.37,1.56,1.06,1.56c0.63,0,1.03-0.63,1.03-1.56
			c0-0.77-0.3-1.56-1.03-1.56C207.85,324.1,207.56,324.9,207.56,325.66z"/>
		<path class="st0" d="M216.24,321.6v1.48h1.15v1.19h-1.15v1.87c0,0.63,0.15,0.91,0.64,0.91c0.2,0,0.36-0.02,0.48-0.04l0.01,1.22
			c-0.21,0.08-0.59,0.14-1.05,0.14c-0.52,0-0.95-0.18-1.21-0.44c-0.3-0.31-0.44-0.8-0.44-1.54v-2.12h-0.69v-1.19h0.69v-1.12
			L216.24,321.6z"/>
		<path class="st0" d="M218.33,320.74h1.61v2.95h0.02c0.17-0.22,0.38-0.39,0.64-0.53c0.23-0.13,0.54-0.2,0.84-0.2
			c1.03,0,1.81,0.71,1.81,2.27v3.03h-1.61v-2.85c0-0.68-0.23-1.14-0.84-1.14c-0.42,0-0.69,0.28-0.8,0.56
			c-0.04,0.11-0.05,0.24-0.05,0.36v3.07h-1.61V320.74z"/>
		<path class="st0" d="M225.77,326.18c0.05,0.67,0.71,0.98,1.46,0.98c0.55,0,1-0.07,1.43-0.21l0.21,1.09
			c-0.53,0.21-1.18,0.32-1.87,0.32c-1.76,0-2.76-1.02-2.76-2.64c0-1.31,0.82-2.76,2.62-2.76c1.67,0,2.31,1.3,2.31,2.58
			c0,0.28-0.03,0.52-0.05,0.64H225.77z M227.67,325.08c0-0.39-0.17-1.05-0.91-1.05c-0.68,0-0.95,0.61-1,1.05H227.67z"/>
		<path class="st0" d="M235.2,328.26l-0.1-0.52h-0.03c-0.34,0.41-0.87,0.64-1.48,0.64c-1.05,0-1.67-0.76-1.67-1.59
			c0-1.34,1.21-1.99,3.04-1.98v-0.07c0-0.28-0.15-0.67-0.94-0.67c-0.53,0-1.09,0.18-1.43,0.39l-0.3-1.04
			c0.36-0.2,1.07-0.46,2.01-0.46c1.73,0,2.28,1.02,2.28,2.23v1.8c0,0.5,0.02,0.97,0.07,1.26H235.2z M235.01,325.81
			c-0.85-0.01-1.5,0.19-1.5,0.82c0,0.41,0.28,0.61,0.64,0.61c0.4,0,0.73-0.26,0.84-0.59c0.02-0.08,0.03-0.18,0.03-0.28V325.81z"/>
		<path class="st0" d="M242.87,320.74v5.97c0,0.58,0.02,1.2,0.04,1.55h-1.43l-0.07-0.76h-0.02c-0.33,0.58-0.95,0.88-1.62,0.88
			c-1.23,0-2.21-1.05-2.21-2.66c-0.01-1.75,1.08-2.75,2.32-2.75c0.64,0,1.13,0.22,1.37,0.58h0.02v-2.81H242.87z M241.26,325.27
			c0-0.08-0.01-0.2-0.02-0.29c-0.1-0.43-0.44-0.79-0.94-0.79c-0.73,0-1.11,0.66-1.11,1.47c0,0.88,0.43,1.43,1.1,1.43
			c0.47,0,0.84-0.32,0.93-0.77c0.03-0.12,0.04-0.23,0.04-0.37V325.27z"/>
		<path class="st0" d="M249.17,320.74v5.97c0,0.58,0.02,1.2,0.04,1.55h-1.43l-0.07-0.76h-0.02c-0.33,0.58-0.95,0.88-1.62,0.88
			c-1.23,0-2.21-1.05-2.21-2.66c-0.01-1.75,1.08-2.75,2.32-2.75c0.64,0,1.13,0.22,1.37,0.58h0.02v-2.81H249.17z M247.56,325.27
			c0-0.08-0.01-0.2-0.02-0.29c-0.1-0.43-0.44-0.79-0.94-0.79c-0.73,0-1.11,0.66-1.11,1.47c0,0.88,0.43,1.43,1.1,1.43
			c0.47,0,0.84-0.32,0.93-0.77c0.03-0.12,0.04-0.23,0.04-0.37V325.27z"/>
		<path class="st0" d="M250.46,324.78c0-0.76-0.02-1.26-0.04-1.7h1.39l0.05,0.95h0.04c0.27-0.75,0.9-1.07,1.4-1.07
			c0.15,0,0.22,0,0.34,0.02v1.51c-0.12-0.02-0.25-0.04-0.43-0.04c-0.59,0-1,0.32-1.1,0.82c-0.02,0.11-0.03,0.23-0.03,0.36v2.63
			h-1.61V324.78z"/>
		<path class="st0" d="M255.64,326.18c0.05,0.67,0.71,0.98,1.46,0.98c0.55,0,1-0.07,1.43-0.21l0.21,1.09
			c-0.53,0.21-1.18,0.32-1.87,0.32c-1.76,0-2.76-1.02-2.76-2.64c0-1.31,0.82-2.76,2.62-2.76c1.67,0,2.31,1.3,2.31,2.58
			c0,0.28-0.03,0.52-0.05,0.64H255.64z M257.53,325.08c0-0.39-0.17-1.05-0.91-1.05c-0.68,0-0.95,0.61-1,1.05H257.53z"/>
		<path class="st0" d="M259.98,326.85c0.3,0.18,0.91,0.39,1.39,0.39c0.49,0,0.69-0.17,0.69-0.43s-0.16-0.39-0.76-0.59
			c-1.07-0.36-1.48-0.94-1.47-1.56c0-0.96,0.83-1.69,2.11-1.69c0.6,0,1.14,0.14,1.46,0.3l-0.29,1.11c-0.23-0.13-0.68-0.3-1.12-0.3
			c-0.39,0-0.61,0.16-0.61,0.42c0,0.24,0.2,0.37,0.84,0.59c0.98,0.34,1.4,0.84,1.41,1.6c0,0.96-0.76,1.67-2.25,1.67
			c-0.68,0-1.28-0.15-1.67-0.36L259.98,326.85z"/>
		<path class="st0" d="M264.57,326.85c0.3,0.18,0.91,0.39,1.39,0.39c0.49,0,0.69-0.17,0.69-0.43s-0.16-0.39-0.76-0.59
			c-1.07-0.36-1.48-0.94-1.47-1.56c0-0.96,0.83-1.69,2.11-1.69c0.6,0,1.14,0.14,1.46,0.3l-0.29,1.11c-0.23-0.13-0.68-0.3-1.12-0.3
			c-0.39,0-0.61,0.16-0.61,0.42c0,0.24,0.2,0.37,0.84,0.59c0.98,0.34,1.4,0.84,1.41,1.6c0,0.96-0.76,1.67-2.25,1.67
			c-0.68,0-1.28-0.15-1.67-0.36L264.57,326.85z"/>
		<path class="st0" d="M276.43,325.61c0,1.9-1.34,2.76-2.73,2.76c-1.51,0-2.68-1-2.68-2.67c0-1.67,1.1-2.74,2.76-2.74
			C275.37,322.96,276.43,324.05,276.43,325.61z M272.68,325.66c0,0.89,0.37,1.56,1.06,1.56c0.63,0,1.03-0.63,1.03-1.56
			c0-0.77-0.3-1.56-1.03-1.56C272.96,324.1,272.68,324.9,272.68,325.66z"/>
		<path class="st0" d="M277.42,324.73c0-0.65-0.02-1.2-0.04-1.65h1.4l0.07,0.71h0.03c0.21-0.33,0.74-0.83,1.6-0.83
			c1.06,0,1.85,0.7,1.85,2.22v3.07h-1.61v-2.87c0-0.67-0.23-1.12-0.82-1.12c-0.44,0-0.71,0.31-0.81,0.6
			c-0.04,0.1-0.06,0.25-0.06,0.4v2.99h-1.61V324.73z"/>
		<path class="st0" d="M286.97,323.08l0.77,2.54c0.08,0.31,0.19,0.69,0.25,0.96h0.03c0.07-0.27,0.16-0.67,0.23-0.96l0.64-2.54h1.73
			l-1.21,3.41c-0.74,2.05-1.24,2.88-1.82,3.4c-0.56,0.49-1.15,0.66-1.56,0.71l-0.34-1.37c0.2-0.03,0.46-0.13,0.7-0.28
			c0.24-0.13,0.51-0.38,0.67-0.65c0.05-0.07,0.08-0.16,0.08-0.23c0-0.05-0.01-0.14-0.07-0.26l-1.9-4.73H286.97z"/>
		<path class="st0" d="M296.25,325.61c0,1.9-1.34,2.76-2.73,2.76c-1.51,0-2.68-1-2.68-2.67c0-1.67,1.1-2.74,2.76-2.74
			C295.19,322.96,296.25,324.05,296.25,325.61z M292.5,325.66c0,0.89,0.37,1.56,1.06,1.56c0.63,0,1.03-0.63,1.03-1.56
			c0-0.77-0.3-1.56-1.03-1.56C292.79,324.1,292.5,324.9,292.5,325.66z"/>
		<path class="st0" d="M302.13,326.59c0,0.68,0.02,1.23,0.04,1.66h-1.4l-0.07-0.73h-0.03c-0.2,0.32-0.69,0.85-1.62,0.85
			c-1.05,0-1.82-0.66-1.82-2.26v-3.04h1.62v2.79c0,0.75,0.24,1.21,0.8,1.21c0.44,0,0.7-0.31,0.8-0.56c0.04-0.1,0.05-0.22,0.05-0.35
			v-3.08h1.62V326.59z"/>
		<path class="st0" d="M303.41,324.78c0-0.76-0.02-1.26-0.04-1.7h1.39l0.05,0.95h0.04c0.27-0.75,0.9-1.07,1.4-1.07
			c0.15,0,0.22,0,0.34,0.02v1.51c-0.12-0.02-0.25-0.04-0.43-0.04c-0.59,0-1,0.32-1.1,0.82c-0.02,0.11-0.03,0.23-0.03,0.36v2.63
			h-1.61V324.78z"/>
		<path class="st0" d="M46.93,343.12c-0.29,0.13-0.83,0.23-1.44,0.23c-1.67,0-2.74-1.02-2.74-2.65c0-1.51,1.04-2.75,2.96-2.75
			c0.42,0,0.89,0.07,1.23,0.2l-0.25,1.2c-0.19-0.08-0.48-0.16-0.9-0.16c-0.85,0-1.4,0.6-1.39,1.45c0,0.95,0.64,1.45,1.42,1.45
			c0.38,0,0.68-0.06,0.92-0.16L46.93,343.12z"/>
		<path class="st0" d="M47.82,339.78c0-0.76-0.02-1.26-0.04-1.71h1.39l0.05,0.95h0.04c0.27-0.75,0.9-1.07,1.4-1.07
			c0.15,0,0.22,0,0.34,0.02v1.51c-0.12-0.02-0.25-0.04-0.43-0.04c-0.59,0-1,0.32-1.1,0.81c-0.02,0.11-0.03,0.23-0.03,0.36v2.63
			h-1.61V339.78z"/>
		<path class="st0" d="M52.99,341.17c0.05,0.67,0.71,0.98,1.46,0.98c0.55,0,1-0.07,1.43-0.21l0.21,1.09
			c-0.53,0.21-1.18,0.32-1.87,0.32c-1.76,0-2.76-1.02-2.76-2.64c0-1.31,0.82-2.76,2.62-2.76c1.67,0,2.31,1.3,2.31,2.58
			c0,0.28-0.03,0.52-0.05,0.64H52.99z M54.89,340.07c0-0.39-0.17-1.05-0.91-1.05c-0.68,0-0.95,0.61-1,1.05H54.89z"/>
		<path class="st0" d="M62.36,335.73v5.97c0,0.58,0.02,1.2,0.04,1.55h-1.43l-0.07-0.76h-0.02c-0.33,0.58-0.95,0.88-1.62,0.88
			c-1.23,0-2.21-1.05-2.21-2.66c-0.01-1.75,1.08-2.75,2.32-2.75c0.64,0,1.13,0.22,1.37,0.58h0.02v-2.81H62.36z M60.75,340.26
			c0-0.08-0.01-0.2-0.02-0.29c-0.1-0.43-0.44-0.79-0.94-0.79c-0.73,0-1.11,0.66-1.11,1.47c0,0.88,0.43,1.43,1.1,1.43
			c0.47,0,0.84-0.32,0.93-0.77c0.03-0.12,0.04-0.23,0.04-0.37V340.26z"/>
		<path class="st0" d="M65.31,336.63c0,0.44-0.34,0.81-0.87,0.81c-0.51,0-0.85-0.36-0.84-0.81c-0.01-0.47,0.33-0.82,0.85-0.82
			C64.98,335.82,65.3,336.17,65.31,336.63z M63.65,343.25v-5.18h1.61v5.18H63.65z"/>
		<path class="st0" d="M68.35,336.59v1.48h1.15v1.19h-1.15v1.87c0,0.62,0.15,0.91,0.64,0.91c0.2,0,0.36-0.02,0.48-0.04l0.01,1.22
			c-0.21,0.08-0.59,0.14-1.05,0.14c-0.52,0-0.95-0.18-1.21-0.45c-0.3-0.31-0.44-0.8-0.44-1.54v-2.12h-0.69v-1.19h0.69v-1.12
			L68.35,336.59z"/>
		<path class="st0" d="M76.46,343.12c-0.29,0.13-0.83,0.23-1.44,0.23c-1.67,0-2.74-1.02-2.74-2.65c0-1.51,1.04-2.75,2.96-2.75
			c0.42,0,0.89,0.07,1.23,0.2l-0.25,1.2c-0.19-0.08-0.48-0.16-0.9-0.16c-0.85,0-1.4,0.6-1.39,1.45c0,0.95,0.64,1.45,1.42,1.45
			c0.38,0,0.68-0.06,0.92-0.16L76.46,343.12z"/>
		<path class="st0" d="M80.33,343.25l-0.1-0.52h-0.03c-0.34,0.41-0.87,0.64-1.48,0.64c-1.05,0-1.67-0.76-1.67-1.59
			c0-1.34,1.21-1.99,3.04-1.98v-0.07c0-0.28-0.15-0.67-0.94-0.67c-0.53,0-1.09,0.18-1.43,0.39l-0.3-1.04
			c0.36-0.2,1.07-0.46,2.01-0.46c1.73,0,2.28,1.02,2.28,2.23v1.8c0,0.5,0.02,0.97,0.07,1.26H80.33z M80.14,340.8
			c-0.85-0.01-1.5,0.19-1.5,0.82c0,0.41,0.28,0.61,0.64,0.61c0.4,0,0.73-0.26,0.84-0.59c0.02-0.08,0.03-0.18,0.03-0.28V340.8z"/>
		<path class="st0" d="M82.98,339.78c0-0.76-0.02-1.26-0.04-1.71h1.39l0.05,0.95h0.04c0.27-0.75,0.9-1.07,1.4-1.07
			c0.15,0,0.22,0,0.34,0.02v1.51c-0.12-0.02-0.25-0.04-0.43-0.04c-0.59,0-1,0.32-1.1,0.81c-0.02,0.11-0.03,0.23-0.03,0.36v2.63
			h-1.61V339.78z"/>
		<path class="st0" d="M91.93,335.73v5.97c0,0.58,0.02,1.2,0.04,1.55h-1.43l-0.07-0.76h-0.02c-0.33,0.58-0.95,0.88-1.62,0.88
			c-1.23,0-2.21-1.05-2.21-2.66c-0.01-1.75,1.08-2.75,2.32-2.75c0.64,0,1.13,0.22,1.37,0.58h0.02v-2.81H91.93z M90.32,340.26
			c0-0.08-0.01-0.2-0.02-0.29c-0.1-0.43-0.44-0.79-0.94-0.79c-0.73,0-1.11,0.66-1.11,1.47c0,0.88,0.43,1.43,1.1,1.43
			c0.47,0,0.84-0.32,0.93-0.77c0.03-0.12,0.04-0.23,0.04-0.37V340.26z"/>
		<path class="st0" d="M98.31,343.25l-0.1-0.52h-0.03c-0.34,0.41-0.87,0.64-1.48,0.64c-1.05,0-1.67-0.76-1.67-1.59
			c0-1.34,1.21-1.99,3.04-1.98v-0.07c0-0.28-0.15-0.67-0.94-0.67c-0.53,0-1.09,0.18-1.43,0.39l-0.3-1.04
			c0.36-0.2,1.07-0.46,2.01-0.46c1.73,0,2.28,1.02,2.28,2.23v1.8c0,0.5,0.02,0.97,0.07,1.26H98.31z M98.11,340.8
			c-0.85-0.01-1.5,0.19-1.5,0.82c0,0.41,0.28,0.61,0.64,0.61c0.4,0,0.73-0.26,0.84-0.59c0.02-0.08,0.03-0.18,0.03-0.28V340.8z"/>
		<path class="st0" d="M100.95,339.81c0-0.68-0.02-1.26-0.04-1.74h1.4l0.07,0.72h0.02c0.38-0.55,0.97-0.84,1.73-0.84
			c1.13,0,2.15,0.98,2.15,2.64c0,1.89-1.2,2.78-2.35,2.78c-0.62,0-1.11-0.25-1.34-0.59h-0.02v2.57h-1.61V339.81z M102.56,341.03
			c0,0.13,0.01,0.24,0.03,0.34c0.11,0.43,0.48,0.76,0.94,0.76c0.7,0,1.11-0.58,1.11-1.46c0-0.83-0.37-1.45-1.09-1.45
			c-0.46,0-0.86,0.34-0.96,0.82c-0.02,0.08-0.03,0.19-0.03,0.29V341.03z"/>
		<path class="st0" d="M107.28,339.81c0-0.68-0.02-1.26-0.04-1.74h1.4l0.07,0.72h0.02c0.38-0.55,0.97-0.84,1.73-0.84
			c1.13,0,2.15,0.98,2.15,2.64c0,1.89-1.2,2.78-2.35,2.78c-0.62,0-1.11-0.25-1.34-0.59h-0.02v2.57h-1.61V339.81z M108.89,341.03
			c0,0.13,0.01,0.24,0.03,0.34c0.11,0.43,0.48,0.76,0.94,0.76c0.7,0,1.11-0.58,1.11-1.46c0-0.83-0.37-1.45-1.09-1.45
			c-0.46,0-0.86,0.34-0.96,0.82c-0.02,0.08-0.03,0.19-0.03,0.29V341.03z"/>
		<path class="st0" d="M113.61,335.73h1.61v7.52h-1.61V335.73z"/>
		<path class="st0" d="M118.18,336.63c0,0.44-0.34,0.81-0.87,0.81c-0.51,0-0.85-0.36-0.84-0.81c-0.01-0.47,0.33-0.82,0.85-0.82
			S118.17,336.17,118.18,336.63z M116.52,343.25v-5.18h1.61v5.18H116.52z"/>
		<path class="st0" d="M123.31,343.12c-0.29,0.13-0.83,0.23-1.44,0.23c-1.67,0-2.74-1.02-2.74-2.65c0-1.51,1.04-2.75,2.96-2.75
			c0.42,0,0.89,0.07,1.23,0.2l-0.25,1.2c-0.19-0.08-0.48-0.16-0.9-0.16c-0.85,0-1.4,0.6-1.39,1.45c0,0.95,0.64,1.45,1.42,1.45
			c0.38,0,0.68-0.06,0.92-0.16L123.31,343.12z"/>
		<path class="st0" d="M127.18,343.25l-0.1-0.52h-0.03c-0.34,0.41-0.87,0.64-1.48,0.64c-1.05,0-1.67-0.76-1.67-1.59
			c0-1.34,1.21-1.99,3.04-1.98v-0.07c0-0.28-0.15-0.67-0.94-0.67c-0.53,0-1.09,0.18-1.43,0.39l-0.3-1.04
			c0.36-0.2,1.07-0.46,2.01-0.46c1.73,0,2.28,1.02,2.28,2.23v1.8c0,0.5,0.02,0.97,0.07,1.26H127.18z M126.99,340.8
			c-0.85-0.01-1.5,0.19-1.5,0.82c0,0.41,0.28,0.61,0.64,0.61c0.4,0,0.73-0.26,0.84-0.59c0.02-0.08,0.03-0.18,0.03-0.28V340.8z"/>
		<path class="st0" d="M131.54,336.59v1.48h1.15v1.19h-1.15v1.87c0,0.62,0.15,0.91,0.64,0.91c0.2,0,0.36-0.02,0.48-0.04l0.01,1.22
			c-0.21,0.08-0.59,0.14-1.05,0.14c-0.52,0-0.95-0.18-1.21-0.45c-0.3-0.31-0.44-0.8-0.44-1.54v-2.12h-0.69v-1.19h0.69v-1.12
			L131.54,336.59z"/>
		<path class="st0" d="M135.29,336.63c0,0.44-0.34,0.81-0.87,0.81c-0.51,0-0.85-0.36-0.84-0.81c-0.01-0.47,0.33-0.82,0.85-0.82
			C134.95,335.82,135.27,336.17,135.29,336.63z M133.62,343.25v-5.18h1.61v5.18H133.62z"/>
		<path class="st0" d="M141.64,340.6c0,1.9-1.34,2.76-2.73,2.76c-1.51,0-2.68-1-2.68-2.67s1.1-2.74,2.76-2.74
			C140.58,337.96,141.64,339.05,141.64,340.6z M137.89,340.66c0,0.89,0.37,1.56,1.06,1.56c0.63,0,1.03-0.63,1.03-1.56
			c0-0.77-0.3-1.56-1.03-1.56C138.17,339.1,137.89,339.89,137.89,340.66z"/>
		<path class="st0" d="M142.63,339.72c0-0.65-0.02-1.2-0.04-1.65h1.4l0.07,0.71h0.03c0.21-0.33,0.74-0.83,1.6-0.83
			c1.06,0,1.85,0.7,1.85,2.22v3.07h-1.61v-2.87c0-0.67-0.23-1.12-0.82-1.12c-0.44,0-0.71,0.31-0.81,0.6
			c-0.04,0.1-0.06,0.25-0.06,0.4v2.99h-1.61V339.72z"/>
		<path class="st0" d="M148.72,342.39c0-0.57,0.39-0.99,0.95-0.99c0.56,0,0.94,0.4,0.94,0.99c0,0.56-0.38,0.97-0.95,0.97
			C149.11,343.37,148.72,342.95,148.72,342.39z"/>
	</g>
	<g>
		<path class="st0" d="M44.41,269.61c0-1.13-0.04-2.09-0.07-2.89h2.44l0.13,1.24h0.06c0.37-0.57,1.3-1.44,2.79-1.44
			c1.85,0,3.24,1.22,3.24,3.89v5.37h-2.81v-5.02c0-1.17-0.41-1.96-1.43-1.96c-0.78,0-1.24,0.54-1.43,1.06
			c-0.07,0.17-0.11,0.44-0.11,0.7v5.22h-2.81V269.61z"/>
		<path class="st0" d="M64.19,271.15c0,3.31-2.35,4.83-4.78,4.83c-2.65,0-4.68-1.74-4.68-4.66c0-2.92,1.92-4.79,4.83-4.79
			C62.34,266.52,64.19,268.43,64.19,271.15z M57.64,271.24c0,1.55,0.65,2.72,1.85,2.72c1.09,0,1.8-1.09,1.8-2.72
			c0-1.35-0.52-2.72-1.8-2.72C58.14,268.52,57.64,269.91,57.64,271.24z"/>
		<path class="st0" d="M74.81,275.78l-0.17-0.91h-0.06c-0.59,0.72-1.52,1.11-2.59,1.11c-1.83,0-2.92-1.33-2.92-2.78
			c0-2.35,2.11-3.48,5.31-3.46v-0.13c0-0.48-0.26-1.17-1.65-1.17c-0.93,0-1.91,0.31-2.5,0.69l-0.52-1.81
			c0.63-0.35,1.87-0.8,3.52-0.8c3.02,0,3.98,1.78,3.98,3.91v3.15c0,0.87,0.04,1.7,0.13,2.2H74.81z M74.48,271.5
			c-1.48-0.02-2.63,0.33-2.63,1.42c0,0.72,0.48,1.07,1.11,1.07c0.7,0,1.28-0.46,1.46-1.04c0.04-0.15,0.06-0.31,0.06-0.48V271.5z"/>
		<path class="st0" d="M79.44,269.61c0-1.13-0.04-2.09-0.07-2.89h2.44l0.13,1.24h0.06c0.37-0.57,1.3-1.44,2.79-1.44
			c1.85,0,3.24,1.22,3.24,3.89v5.37h-2.81v-5.02c0-1.17-0.41-1.96-1.43-1.96c-0.78,0-1.24,0.54-1.43,1.06
			c-0.07,0.17-0.11,0.44-0.11,0.7v5.22h-2.81V269.61z"/>
		<path class="st0" d="M90.28,269.61c0-1.13-0.04-2.09-0.07-2.89h2.44l0.13,1.24h0.06c0.37-0.57,1.3-1.44,2.79-1.44
			c1.85,0,3.24,1.22,3.24,3.89v5.37h-2.81v-5.02c0-1.17-0.41-1.96-1.43-1.96c-0.78,0-1.24,0.54-1.43,1.06
			c-0.07,0.17-0.11,0.44-0.11,0.7v5.22h-2.81V269.61z"/>
		<path class="st0" d="M109.65,272.87c0,1.18,0.04,2.15,0.07,2.91h-2.44l-0.13-1.28h-0.06c-0.35,0.56-1.2,1.48-2.83,1.48
			c-1.83,0-3.18-1.15-3.18-3.94v-5.31h2.83v4.87c0,1.31,0.43,2.11,1.41,2.11c0.78,0,1.22-0.54,1.41-0.98
			c0.07-0.17,0.09-0.39,0.09-0.61v-5.39h2.83V272.87z"/>
		<path class="st0" d="M117.06,275.78l-0.17-0.91h-0.06c-0.59,0.72-1.52,1.11-2.59,1.11c-1.83,0-2.92-1.33-2.92-2.78
			c0-2.35,2.11-3.48,5.31-3.46v-0.13c0-0.48-0.26-1.17-1.65-1.17c-0.93,0-1.91,0.31-2.5,0.69l-0.52-1.81
			c0.63-0.35,1.87-0.8,3.52-0.8c3.02,0,3.98,1.78,3.98,3.91v3.15c0,0.87,0.04,1.7,0.13,2.2H117.06z M116.72,271.5
			c-1.48-0.02-2.63,0.33-2.63,1.42c0,0.72,0.48,1.07,1.11,1.07c0.7,0,1.28-0.46,1.46-1.04c0.04-0.15,0.06-0.31,0.06-0.48V271.5z"/>
		<path class="st0" d="M121.68,262.63h2.81v13.14h-2.81V262.63z"/>
		<path class="st0" d="M130.82,275.78v-6.98h-1.18v-2.07h1.18v-0.35c0-1.09,0.33-2.3,1.15-3.04c0.7-0.67,1.68-0.91,2.5-0.91
			c0.63,0,1.11,0.07,1.5,0.19l-0.11,2.17c-0.24-0.07-0.54-0.13-0.91-0.13c-0.93,0-1.31,0.72-1.31,1.61v0.46h1.81v2.07h-1.8v6.98
			H130.82z"/>
		<path class="st0" d="M138.8,272.15c0.09,1.17,1.24,1.72,2.55,1.72c0.96,0,1.74-0.13,2.5-0.37l0.37,1.91
			c-0.93,0.37-2.05,0.56-3.28,0.56c-3.07,0-4.83-1.78-4.83-4.61c0-2.29,1.43-4.83,4.57-4.83c2.92,0,4.03,2.28,4.03,4.52
			c0,0.48-0.06,0.91-0.09,1.11H138.8z M142.11,270.22c0-0.68-0.3-1.83-1.59-1.83c-1.18,0-1.67,1.07-1.74,1.83H142.11z"/>
		<path class="st0" d="M148.57,272.15c0.09,1.17,1.24,1.72,2.55,1.72c0.96,0,1.74-0.13,2.5-0.37l0.37,1.91
			c-0.93,0.37-2.05,0.56-3.28,0.56c-3.07,0-4.83-1.78-4.83-4.61c0-2.29,1.43-4.83,4.57-4.83c2.92,0,4.03,2.28,4.03,4.52
			c0,0.48-0.06,0.91-0.09,1.11H148.57z M151.88,270.22c0-0.68-0.3-1.83-1.59-1.83c-1.18,0-1.67,1.07-1.74,1.83H151.88z"/>
		<path class="st0" d="M155.86,274.29c0-0.98,0.68-1.68,1.67-1.68s1.63,0.7,1.65,1.68c0,0.96-0.65,1.68-1.65,1.68
			S155.86,275.26,155.86,274.29z M156.47,271.69l-0.43-8.38h2.94l-0.41,8.38H156.47z"/>
	</g>
	<g>
		<path class="st0" d="M166.04,263.38h-0.02l-1.31,0.63l-0.27-1.21l1.82-0.85h1.33v6.88h-1.56V263.38z"/>
	</g>
</g>
<g>
	<g>
		<path class="st0" d="M44.26,167.84c1.91,0.98,4.85,1.96,7.89,1.96c3.27,0,4.99-1.35,4.99-3.41c0-1.96-1.49-3.08-5.27-4.43
			c-5.23-1.82-8.64-4.71-8.64-9.29c0-5.37,4.48-9.48,11.9-9.48c3.55,0,6.16,0.75,8.03,1.59l-1.59,5.74
			c-1.26-0.61-3.5-1.49-6.58-1.49s-4.57,1.4-4.57,3.03c0,2.01,1.77,2.89,5.83,4.43c5.55,2.05,8.17,4.95,8.17,9.38
			c0,5.27-4.06,9.76-12.7,9.76c-3.59,0-7.14-0.93-8.92-1.91L44.26,167.84z"/>
		<path class="st0" d="M69,160c0-2.99-0.09-5.55-0.19-7.65h6.16l0.33,3.17h0.09c1.68-2.43,4.29-3.69,7.61-3.69
			c4.99,0,9.48,4.34,9.48,11.62c0,8.31-5.27,12.23-10.36,12.23c-2.75,0-4.9-1.12-5.93-2.61H76.1v11.34H69V160z M76.1,165.37
			c0,0.56,0.05,1.07,0.14,1.49c0.47,1.91,2.1,3.36,4.15,3.36c3.08,0,4.9-2.57,4.9-6.44c0-3.64-1.63-6.39-4.81-6.39
			c-2.01,0-3.78,1.49-4.25,3.59c-0.09,0.37-0.14,0.84-0.14,1.26V165.37z"/>
		<path class="st0" d="M102.52,166.02c0.23,2.94,3.13,4.34,6.44,4.34c2.43,0,4.39-0.33,6.3-0.93l0.93,4.81
			c-2.33,0.93-5.18,1.4-8.26,1.4c-7.75,0-12.18-4.48-12.18-11.62c0-5.79,3.59-12.18,11.53-12.18c7.38,0,10.18,5.74,10.18,11.39
			c0,1.21-0.14,2.29-0.23,2.8H102.52z M110.87,161.17c0-1.73-0.75-4.62-4.01-4.62c-2.99,0-4.2,2.71-4.39,4.62H110.87z"/>
		<path class="st0" d="M138.84,174.61c-1.26,0.56-3.64,1.03-6.35,1.03c-7.37,0-12.09-4.48-12.09-11.67
			c0-6.67,4.57-12.14,13.07-12.14c1.87,0,3.92,0.33,5.41,0.89l-1.12,5.27c-0.84-0.37-2.1-0.7-3.97-0.7c-3.73,0-6.16,2.66-6.11,6.39
			c0,4.2,2.8,6.39,6.25,6.39c1.68,0,2.99-0.28,4.06-0.7L138.84,174.61z"/>
		<path class="st0" d="M150.09,146c0,1.96-1.49,3.55-3.83,3.55c-2.24,0-3.73-1.59-3.69-3.55c-0.05-2.05,1.45-3.59,3.73-3.59
			S150.04,143.94,150.09,146z M142.76,175.17v-22.82h7.09v22.82H142.76z"/>
		<path class="st0" d="M168.53,175.17l-0.42-2.29h-0.14c-1.49,1.82-3.83,2.8-6.53,2.8c-4.62,0-7.38-3.36-7.38-7
			c0-5.93,5.32-8.77,13.4-8.73v-0.33c0-1.21-0.65-2.94-4.15-2.94c-2.33,0-4.81,0.79-6.3,1.73l-1.31-4.57
			c1.59-0.89,4.71-2.01,8.87-2.01c7.61,0,10.04,4.48,10.04,9.85v7.94c0,2.19,0.09,4.29,0.33,5.55H168.53z M167.69,164.39
			c-3.73-0.05-6.63,0.84-6.63,3.59c0,1.82,1.21,2.71,2.8,2.71c1.77,0,3.22-1.17,3.69-2.61c0.09-0.37,0.14-0.79,0.14-1.21V164.39z"/>
		<path class="st0" d="M180.2,142.03h7.09v33.14h-7.09V142.03z"/>
		<path class="st0" d="M202.7,143.71h19.23v5.83h-12.09v7.19h11.3v5.79h-11.3v12.65h-7.14V143.71z"/>
		<path class="st0" d="M233.46,146c0,1.96-1.49,3.55-3.83,3.55c-2.24,0-3.73-1.59-3.69-3.55c-0.05-2.05,1.45-3.59,3.73-3.59
			S233.42,143.94,233.46,146z M226.13,175.17v-22.82h7.09v22.82H226.13z"/>
		<path class="st0" d="M238.92,159.63c0-2.85-0.09-5.27-0.19-7.28h6.16l0.33,3.13h0.14c0.93-1.45,3.27-3.64,7.05-3.64
			c4.67,0,8.17,3.08,8.17,9.8v13.54h-7.1v-12.65c0-2.94-1.03-4.95-3.59-4.95c-1.96,0-3.13,1.35-3.59,2.66
			c-0.19,0.42-0.28,1.12-0.28,1.77v13.16h-7.09V159.63z"/>
		<path class="st0" d="M279.26,175.17l-0.42-2.29h-0.14c-1.49,1.82-3.83,2.8-6.53,2.8c-4.62,0-7.38-3.36-7.38-7
			c0-5.93,5.32-8.77,13.4-8.73v-0.33c0-1.21-0.65-2.94-4.15-2.94c-2.33,0-4.81,0.79-6.3,1.73l-1.31-4.57
			c1.59-0.89,4.71-2.01,8.87-2.01c7.61,0,10.04,4.48,10.04,9.85v7.94c0,2.19,0.09,4.29,0.33,5.55H279.26z M278.42,164.39
			c-3.73-0.05-6.63,0.84-6.63,3.59c0,1.82,1.21,2.71,2.8,2.71c1.77,0,3.22-1.17,3.69-2.61c0.09-0.37,0.14-0.79,0.14-1.21V164.39z"/>
		<path class="st0" d="M290.93,159.63c0-2.85-0.09-5.27-0.19-7.28h6.16l0.33,3.13h0.14c0.93-1.45,3.27-3.64,7.05-3.64
			c4.67,0,8.17,3.08,8.17,9.8v13.54h-7.1v-12.65c0-2.94-1.03-4.95-3.59-4.95c-1.96,0-3.13,1.35-3.59,2.66
			c-0.19,0.42-0.28,1.12-0.28,1.77v13.16h-7.09V159.63z"/>
		<path class="st0" d="M335.42,174.61c-1.26,0.56-3.64,1.03-6.35,1.03c-7.37,0-12.09-4.48-12.09-11.67
			c0-6.67,4.57-12.14,13.07-12.14c1.87,0,3.92,0.33,5.41,0.89l-1.12,5.27c-0.84-0.37-2.1-0.7-3.97-0.7c-3.73,0-6.16,2.66-6.11,6.39
			c0,4.2,2.8,6.39,6.25,6.39c1.68,0,2.99-0.28,4.06-0.7L335.42,174.61z"/>
		<path class="st0" d="M346.67,146c0,1.96-1.49,3.55-3.83,3.55c-2.24,0-3.73-1.59-3.69-3.55c-0.05-2.05,1.45-3.59,3.73-3.59
			S346.62,143.94,346.67,146z M339.34,175.17v-22.82h7.09v22.82H339.34z"/>
		<path class="st0" d="M352.13,159.63c0-2.85-0.09-5.27-0.19-7.28h6.16l0.33,3.13h0.14c0.93-1.45,3.27-3.64,7.05-3.64
			c4.67,0,8.17,3.08,8.17,9.8v13.54h-7.1v-12.65c0-2.94-1.03-4.95-3.59-4.95c-1.96,0-3.13,1.35-3.59,2.66
			c-0.19,0.42-0.28,1.12-0.28,1.77v13.16h-7.09V159.63z"/>
		<path class="st0" d="M401.28,152.34c-0.09,1.45-0.19,3.36-0.19,6.77v12.74c0,4.39-0.89,7.98-3.45,10.27
			c-2.52,2.15-5.93,2.8-9.29,2.8c-2.99,0-6.16-0.61-8.21-1.77l1.4-5.37c1.45,0.84,3.97,1.73,6.63,1.73c3.36,0,5.93-1.82,5.93-6.02
			V172H394c-1.35,1.91-3.55,2.99-6.16,2.99c-5.65,0-9.66-4.57-9.66-11.16c0-7.33,4.76-12,10.36-12c3.13,0,5.09,1.35,6.25,3.22h0.09
			l0.23-2.71H401.28z M394,161.63c0-0.47-0.05-0.93-0.14-1.31c-0.51-1.87-1.87-3.13-3.83-3.13c-2.57,0-4.67,2.33-4.67,6.49
			c0,3.41,1.68,6.07,4.67,6.07c1.82,0,3.27-1.21,3.73-2.89c0.19-0.51,0.23-1.26,0.23-1.87V161.63z"/>
	</g>
	<g>
		<path class="st0" d="M43.52,125.22v-7.09l6.47-5.86c10.94-9.79,16.26-15.41,16.41-21.27c0-4.08-2.47-7.32-8.25-7.32
			c-4.31,0-8.09,2.16-10.71,4.16l-3.31-8.4c3.78-2.85,9.63-5.16,16.41-5.16c11.33,0,17.57,6.63,17.57,15.72
			c0,8.4-6.09,15.1-13.33,21.58l-4.62,3.85v0.15h18.88v9.63H43.52z"/>
		<path class="st0" d="M107.01,125.22v-11.94H84.81v-7.63l18.96-30.51h14.33v29.36h6.01v8.78h-6.01v11.94H107.01z M107.01,104.49
			V93.4c0-3,0.15-6.09,0.39-9.32h-0.31c-1.62,3.24-2.93,6.16-4.62,9.32l-6.7,10.94v0.15H107.01z"/>
		<path class="st0" d="M190.38,105.34c-0.23-6.24-0.46-13.79-0.46-21.34h-0.23c-1.62,6.63-3.78,14.02-5.78,20.11l-6.32,20.27h-9.17
			l-5.55-20.11c-1.7-6.09-3.47-13.48-4.7-20.27h-0.15c-0.31,7.01-0.54,15.03-0.92,21.5l-0.92,19.73H145.3l3.31-51.94h15.64
			l5.09,17.34c1.62,6.01,3.24,12.48,4.39,18.57h0.23c1.46-6.01,3.24-12.87,4.93-18.65l5.55-17.26h15.33l2.85,51.94h-11.48
			L190.38,105.34z"/>
		<path class="st0" d="M248.7,105.96c0,13.79-9.79,20.11-19.88,20.11c-11.02,0-19.5-7.24-19.5-19.42c0-12.17,8.01-19.96,20.11-19.96
			C241,86.69,248.7,94.63,248.7,105.96z M221.42,106.34c0,6.47,2.7,11.33,7.71,11.33c4.55,0,7.47-4.55,7.47-11.33
			c0-5.63-2.16-11.33-7.47-11.33C223.5,95.01,221.42,100.79,221.42,106.34z"/>
		<path class="st0" d="M255.94,99.56c0-4.7-0.15-8.71-0.31-12.02h10.17l0.54,5.16h0.23c1.54-2.39,5.39-6.01,11.64-6.01
			c7.71,0,13.49,5.09,13.49,16.18v22.35h-11.71v-20.88c0-4.85-1.7-8.17-5.93-8.17c-3.24,0-5.16,2.23-5.93,4.39
			c-0.31,0.69-0.46,1.85-0.46,2.93v21.73h-11.71V99.56z"/>
		<path class="st0" d="M313.73,76.75v10.79h8.4v8.63h-8.4v13.64c0,4.55,1.08,6.63,4.62,6.63c1.46,0,2.62-0.15,3.47-0.31l0.08,8.86
			c-1.54,0.62-4.32,1-7.63,1c-3.78,0-6.94-1.31-8.78-3.24c-2.16-2.23-3.24-5.86-3.24-11.17V96.17h-5.01v-8.63h5.01v-8.17
			L313.73,76.75z"/>
		<path class="st0" d="M328.9,70.51h11.71v21.5h0.15c1.23-1.62,2.77-2.85,4.62-3.85c1.7-0.92,3.93-1.46,6.09-1.46
			c7.47,0,13.18,5.16,13.18,16.49v22.04h-11.71v-20.73c0-4.93-1.7-8.32-6.09-8.32c-3.08,0-5.01,2-5.86,4.08
			c-0.31,0.77-0.39,1.77-0.39,2.62v22.35H328.9V70.51z"/>
		<path class="st0" d="M373.98,114.97c2.16,1.31,6.63,2.85,10.09,2.85c3.54,0,5.01-1.23,5.01-3.16c0-1.93-1.16-2.85-5.55-4.32
			c-7.78-2.62-10.79-6.86-10.71-11.33c0-7.01,6.01-12.33,15.33-12.33c4.39,0,8.32,1,10.63,2.16l-2.08,8.09
			c-1.69-0.92-4.93-2.16-8.17-2.16c-2.85,0-4.47,1.16-4.47,3.08c0,1.77,1.46,2.7,6.09,4.31c7.17,2.47,10.17,6.09,10.25,11.64
			c0,7.01-5.55,12.17-16.34,12.17c-4.93,0-9.32-1.08-12.17-2.62L373.98,114.97z"/>
	</g>
	<g>
		<path class="st0" d="M419.03,145.52l-3.04,3.57l0.03,0.08l4.47-0.9v2.84l-4.5-0.79l-0.03,0.08l3.06,3.46l-2.5,1.46l-1.6-4.36
			l-0.06,0.03l-1.63,4.33l-2.42-1.46l3.01-3.51v-0.06l-4.41,0.82v-2.84l4.36,0.87l0.03-0.06l-2.98-3.54l2.5-1.43l1.57,4.3h0.06
			l1.6-4.3L419.03,145.52z"/>
	</g>
</g>
<g>
	<path class="st0" d="M51.58,198.93c0,2.91-2.06,4.24-4.19,4.24c-2.32,0-4.11-1.53-4.11-4.09c0-2.57,1.69-4.21,4.24-4.21
		C49.96,194.87,51.58,196.54,51.58,198.93z M45.84,199.01c0,1.36,0.57,2.39,1.62,2.39c0.96,0,1.57-0.96,1.57-2.39
		c0-1.19-0.45-2.39-1.57-2.39C46.27,196.62,45.84,197.84,45.84,199.01z"/>
	<path class="st0" d="M53.11,197.58c0-0.99-0.03-1.83-0.06-2.53h2.14l0.11,1.09h0.05c0.32-0.5,1.14-1.27,2.45-1.27
		c1.62,0,2.84,1.07,2.84,3.41v4.71h-2.47v-4.4c0-1.02-0.36-1.72-1.25-1.72c-0.68,0-1.09,0.47-1.25,0.93
		c-0.06,0.15-0.1,0.39-0.1,0.62v4.58h-2.47V197.58z"/>
	<path class="st0" d="M70.41,202.99l-0.15-0.8h-0.05c-0.52,0.63-1.33,0.97-2.27,0.97c-1.61,0-2.57-1.17-2.57-2.44
		c0-2.06,1.85-3.05,4.66-3.04v-0.11c0-0.42-0.23-1.02-1.44-1.02c-0.81,0-1.67,0.28-2.19,0.6l-0.45-1.59c0.55-0.31,1.64-0.7,3.08-0.7
		c2.65,0,3.49,1.56,3.49,3.43v2.76c0,0.76,0.03,1.49,0.11,1.93H70.41z M70.12,199.24c-1.3-0.02-2.31,0.29-2.31,1.25
		c0,0.63,0.42,0.94,0.97,0.94c0.62,0,1.12-0.41,1.28-0.91c0.03-0.13,0.05-0.28,0.05-0.42V199.24z"/>
	<path class="st0" d="M74.47,191.46h2.47v11.53h-2.47V191.46z"/>
	<path class="st0" d="M78.93,191.46h2.47v11.53h-2.47V191.46z"/>
	<path class="st0" d="M89.23,192.84c0,0.68-0.52,1.23-1.33,1.23c-0.78,0-1.3-0.55-1.28-1.23c-0.02-0.71,0.5-1.25,1.3-1.25
		S89.21,192.12,89.23,192.84z M86.68,202.99v-7.94h2.47v7.94H86.68z"/>
	<path class="st0" d="M93.89,192.77v2.27h1.77v1.82h-1.77v2.87c0,0.96,0.23,1.4,0.97,1.4c0.31,0,0.55-0.03,0.73-0.06l0.02,1.87
		c-0.32,0.13-0.91,0.21-1.61,0.21c-0.8,0-1.46-0.28-1.85-0.68c-0.45-0.47-0.68-1.23-0.68-2.35v-3.25h-1.06v-1.82h1.06v-1.72
		L93.89,192.77z"/>
	<path class="st0" d="M98.9,199.8c0.08,1.02,1.09,1.51,2.24,1.51c0.84,0,1.53-0.11,2.19-0.32l0.32,1.67
		c-0.81,0.32-1.8,0.49-2.87,0.49c-2.69,0-4.24-1.56-4.24-4.04c0-2.01,1.25-4.24,4.01-4.24c2.56,0,3.54,2,3.54,3.96
		c0,0.42-0.05,0.8-0.08,0.97H98.9z M101.81,198.12c0-0.6-0.26-1.61-1.4-1.61c-1.04,0-1.46,0.94-1.53,1.61H101.81z"/>
	<path class="st0" d="M105.57,197.58c0-0.99-0.03-1.83-0.06-2.53h2.08l0.11,1.07h0.05c0.34-0.5,1.04-1.25,2.4-1.25
		c1.02,0,1.83,0.52,2.18,1.35h0.03c0.29-0.41,0.65-0.73,1.02-0.96c0.44-0.26,0.93-0.39,1.51-0.39c1.53,0,2.68,1.07,2.68,3.44v4.68
		h-2.4v-4.32c0-1.15-0.37-1.82-1.17-1.82c-0.57,0-0.97,0.39-1.14,0.86c-0.07,0.18-0.1,0.44-0.1,0.63v4.64h-2.4v-4.45
		c0-1.01-0.36-1.69-1.14-1.69c-0.63,0-1.01,0.49-1.15,0.89c-0.08,0.19-0.1,0.42-0.1,0.62v4.63h-2.4V197.58z"/>
	<path class="st0" d="M119.52,200.83c0.45,0.28,1.4,0.6,2.13,0.6c0.75,0,1.06-0.26,1.06-0.67c0-0.41-0.24-0.6-1.17-0.91
		c-1.64-0.55-2.27-1.45-2.26-2.39c0-1.48,1.27-2.6,3.23-2.6c0.93,0,1.75,0.21,2.24,0.45l-0.44,1.7c-0.36-0.19-1.04-0.45-1.72-0.45
		c-0.6,0-0.94,0.24-0.94,0.65c0,0.37,0.31,0.57,1.28,0.91c1.51,0.52,2.14,1.28,2.16,2.45c0,1.48-1.17,2.57-3.44,2.57
		c-1.04,0-1.96-0.23-2.57-0.55L119.52,200.83z"/>
	<path class="st0" d="M129.86,197.71c0-1.04-0.03-1.93-0.06-2.66h2.14l0.11,1.1h0.03c0.58-0.84,1.49-1.28,2.65-1.28
		c1.74,0,3.3,1.51,3.3,4.04c0,2.89-1.83,4.25-3.6,4.25c-0.96,0-1.7-0.39-2.06-0.91h-0.03v3.94h-2.47V197.71z M132.32,199.58
		c0,0.2,0.02,0.37,0.05,0.52c0.16,0.67,0.73,1.17,1.44,1.17c1.07,0,1.71-0.89,1.71-2.24c0-1.27-0.57-2.22-1.67-2.22
		c-0.7,0-1.31,0.52-1.48,1.25c-0.03,0.13-0.05,0.29-0.05,0.44V199.58z"/>
	<path class="st0" d="M139.56,197.66c0-1.17-0.03-1.93-0.06-2.61h2.13l0.08,1.46h0.06c0.41-1.15,1.38-1.64,2.14-1.64
		c0.23,0,0.34,0,0.52,0.03v2.32c-0.18-0.03-0.39-0.06-0.67-0.06c-0.91,0-1.53,0.49-1.69,1.25c-0.03,0.16-0.05,0.36-0.05,0.55v4.03
		h-2.47V197.66z"/>
	<path class="st0" d="M148.28,192.84c0,0.68-0.52,1.23-1.33,1.23c-0.78,0-1.3-0.55-1.28-1.23c-0.02-0.71,0.5-1.25,1.3-1.25
		S148.26,192.12,148.28,192.84z M145.73,202.99v-7.94h2.47v7.94H145.73z"/>
	<path class="st0" d="M156.14,202.79c-0.44,0.19-1.27,0.36-2.21,0.36c-2.56,0-4.21-1.56-4.21-4.06c0-2.32,1.59-4.22,4.55-4.22
		c0.65,0,1.36,0.11,1.88,0.31l-0.39,1.83c-0.29-0.13-0.73-0.24-1.38-0.24c-1.3,0-2.14,0.93-2.13,2.22c0,1.46,0.97,2.22,2.18,2.22
		c0.58,0,1.04-0.1,1.41-0.24L156.14,202.79z"/>
	<path class="st0" d="M159.22,199.8c0.08,1.02,1.09,1.51,2.24,1.51c0.84,0,1.53-0.11,2.19-0.32l0.32,1.67
		c-0.81,0.32-1.8,0.49-2.87,0.49c-2.7,0-4.24-1.56-4.24-4.04c0-2.01,1.25-4.24,4.01-4.24c2.57,0,3.54,2,3.54,3.96
		c0,0.42-0.05,0.8-0.08,0.97H159.22z M162.13,198.12c0-0.6-0.26-1.61-1.4-1.61c-1.04,0-1.46,0.94-1.53,1.61H162.13z"/>
	<path class="st0" d="M173.59,191.46v9.16c0,0.89,0.03,1.83,0.06,2.37h-2.19l-0.11-1.17h-0.03c-0.5,0.89-1.46,1.35-2.48,1.35
		c-1.88,0-3.39-1.61-3.39-4.08c-0.02-2.68,1.66-4.22,3.56-4.22c0.97,0,1.74,0.34,2.09,0.89h0.03v-4.3H173.59z M171.12,198.41
		c0-0.13-0.02-0.31-0.03-0.44c-0.15-0.67-0.68-1.22-1.44-1.22c-1.12,0-1.7,1.01-1.7,2.26c0,1.35,0.67,2.19,1.69,2.19
		c0.71,0,1.28-0.49,1.43-1.19c0.05-0.18,0.06-0.36,0.06-0.57V198.41z"/>
	<path class="st0" d="M181.51,204.4v-1.54c-1.09-0.05-2.14-0.34-2.76-0.7l0.49-1.9c0.68,0.37,1.64,0.71,2.7,0.71
		c0.93,0,1.56-0.36,1.56-1.01c0-0.62-0.52-1.01-1.72-1.41c-1.74-0.58-2.92-1.4-2.92-2.97c0-1.43,1.01-2.55,2.74-2.89v-1.54h1.59
		v1.43c1.09,0.05,1.82,0.28,2.35,0.54l-0.47,1.83c-0.42-0.18-1.17-0.55-2.34-0.55c-1.06,0-1.4,0.45-1.4,0.91
		c0,0.54,0.57,0.88,1.95,1.4c1.93,0.68,2.71,1.57,2.71,3.04c0,1.44-1.02,2.68-2.89,3v1.66H181.51z"/>
	<path class="st0" d="M191.91,202.99v-2.52h-4.68v-1.61l3.99-6.43h3.02v6.19h1.27v1.85h-1.27v2.52H191.91z M191.91,198.62v-2.34
		c0-0.63,0.03-1.28,0.08-1.96h-0.06c-0.34,0.68-0.62,1.3-0.97,1.96l-1.41,2.31v0.03H191.91z"/>
	<path class="st0" d="M197.33,201.2c0.31,0.03,0.58,0.03,1.07,0c0.75-0.05,1.51-0.26,2.08-0.65c0.68-0.47,1.14-1.15,1.33-1.95
		l-0.05-0.02c-0.47,0.49-1.15,0.76-2.11,0.76c-1.79,0-3.3-1.25-3.3-3.3c0-2.06,1.66-3.8,3.98-3.8c2.71,0,3.99,2.08,3.99,4.55
		c0,2.19-0.7,3.8-1.85,4.85c-1.01,0.91-2.39,1.41-4.03,1.48c-0.42,0.03-0.84,0.02-1.12,0V201.2z M198.83,195.91
		c0,0.91,0.49,1.69,1.49,1.69c0.67,0,1.14-0.32,1.36-0.7c0.08-0.15,0.13-0.31,0.13-0.62c0-1.12-0.42-2.22-1.54-2.22
		C199.43,194.06,198.81,194.8,198.83,195.91z"/>
	<path class="st0" d="M206.34,201.2c0.31,0.03,0.58,0.03,1.07,0c0.75-0.05,1.51-0.26,2.08-0.65c0.68-0.47,1.14-1.15,1.33-1.95
		l-0.05-0.02c-0.47,0.49-1.15,0.76-2.11,0.76c-1.79,0-3.3-1.25-3.3-3.3c0-2.06,1.66-3.8,3.98-3.8c2.71,0,3.99,2.08,3.99,4.55
		c0,2.19-0.7,3.8-1.85,4.85c-1.01,0.91-2.39,1.41-4.03,1.48c-0.42,0.03-0.84,0.02-1.12,0V201.2z M207.84,195.91
		c0,0.91,0.49,1.69,1.49,1.69c0.67,0,1.14-0.32,1.36-0.7c0.08-0.15,0.13-0.31,0.13-0.62c0-1.12-0.42-2.22-1.54-2.22
		C208.44,194.06,207.82,194.8,207.84,195.91z"/>
	<path class="st0" d="M226,198.93c0,2.91-2.06,4.24-4.19,4.24c-2.32,0-4.11-1.53-4.11-4.09c0-2.57,1.69-4.21,4.24-4.21
		C224.38,194.87,226,196.54,226,198.93z M220.25,199.01c0,1.36,0.57,2.39,1.62,2.39c0.96,0,1.57-0.96,1.57-2.39
		c0-1.19-0.45-2.39-1.57-2.39C220.69,196.62,220.25,197.84,220.25,199.01z"/>
	<path class="st0" d="M227.53,197.66c0-1.17-0.03-1.93-0.06-2.61h2.13l0.08,1.46h0.06c0.41-1.15,1.38-1.64,2.14-1.64
		c0.23,0,0.34,0,0.52,0.03v2.32c-0.18-0.03-0.39-0.06-0.67-0.06c-0.91,0-1.53,0.49-1.69,1.25c-0.03,0.16-0.05,0.36-0.05,0.55v4.03
		h-2.47V197.66z"/>
	<path class="st0" d="M236.97,197.58c0-0.99-0.03-1.83-0.06-2.53h2.08l0.11,1.07h0.05c0.34-0.5,1.04-1.25,2.4-1.25
		c1.02,0,1.83,0.52,2.18,1.35h0.03c0.29-0.41,0.65-0.73,1.02-0.96c0.44-0.26,0.93-0.39,1.51-0.39c1.53,0,2.68,1.07,2.68,3.44v4.68
		h-2.4v-4.32c0-1.15-0.37-1.82-1.17-1.82c-0.57,0-0.97,0.39-1.14,0.86c-0.06,0.18-0.1,0.44-0.1,0.63v4.64h-2.4v-4.45
		c0-1.01-0.36-1.69-1.14-1.69c-0.63,0-1.01,0.49-1.15,0.89c-0.08,0.19-0.1,0.42-0.1,0.62v4.63h-2.4V197.58z"/>
	<path class="st0" d="M258.78,198.93c0,2.91-2.06,4.24-4.19,4.24c-2.32,0-4.11-1.53-4.11-4.09c0-2.57,1.69-4.21,4.24-4.21
		C257.15,194.87,258.78,196.54,258.78,198.93z M253.03,199.01c0,1.36,0.57,2.39,1.62,2.39c0.96,0,1.57-0.96,1.57-2.39
		c0-1.19-0.45-2.39-1.57-2.39C253.47,196.62,253.03,197.84,253.03,199.01z"/>
	<path class="st0" d="M260.3,197.66c0-1.17-0.03-1.93-0.06-2.61h2.13l0.08,1.46h0.06c0.41-1.15,1.38-1.64,2.14-1.64
		c0.23,0,0.34,0,0.52,0.03v2.32c-0.18-0.03-0.39-0.06-0.67-0.06c-0.91,0-1.53,0.49-1.69,1.25c-0.03,0.16-0.05,0.36-0.05,0.55v4.03
		h-2.47V197.66z"/>
	<path class="st0" d="M268.24,199.8c0.08,1.02,1.09,1.51,2.24,1.51c0.84,0,1.53-0.11,2.19-0.32l0.32,1.67
		c-0.81,0.32-1.8,0.49-2.87,0.49c-2.7,0-4.24-1.56-4.24-4.04c0-2.01,1.25-4.24,4.01-4.24c2.57,0,3.54,2,3.54,3.96
		c0,0.42-0.05,0.8-0.08,0.97H268.24z M271.14,198.12c0-0.6-0.26-1.61-1.4-1.61c-1.04,0-1.46,0.94-1.53,1.61H271.14z"/>
	<path class="st0" d="M285.23,202.99c-0.23-0.24-0.45-0.49-0.71-0.78c-0.71,0.55-1.71,0.96-3,0.96c-2.65,0-3.81-1.57-3.81-3.1
		c0-1.44,0.83-2.48,2.08-3.13v-0.06c-0.47-0.52-0.83-1.33-0.83-2.11c0-1.38,1.09-2.89,3.28-2.89c1.69,0,2.97,0.99,2.97,2.56
		c0,1.1-0.65,2.05-2.16,2.81l-0.02,0.07c0.63,0.7,1.3,1.49,1.83,2.05c0.44-0.68,0.78-1.69,0.93-2.66h2.21
		c-0.29,1.66-0.84,3.07-1.82,4.16c0.62,0.7,1.25,1.41,1.93,2.14H285.23z M283.37,200.83c-0.68-0.68-1.57-1.67-2.47-2.68
		c-0.45,0.33-0.86,0.8-0.86,1.51c0,0.93,0.7,1.72,1.82,1.72C282.51,201.38,283.04,201.13,283.37,200.83z M281.16,194.53
		c0,0.55,0.26,1.04,0.75,1.57c0.8-0.55,1.2-0.97,1.2-1.61c0-0.52-0.31-1.09-0.96-1.09C281.52,193.41,281.16,193.96,281.16,194.53z"
		/>
	<path class="st0" d="M296.99,202.99l-0.15-0.8h-0.05c-0.52,0.63-1.33,0.97-2.27,0.97c-1.61,0-2.57-1.17-2.57-2.44
		c0-2.06,1.85-3.05,4.66-3.04v-0.11c0-0.42-0.23-1.02-1.44-1.02c-0.81,0-1.67,0.28-2.19,0.6l-0.45-1.59c0.55-0.31,1.64-0.7,3.08-0.7
		c2.65,0,3.49,1.56,3.49,3.43v2.76c0,0.76,0.03,1.49,0.11,1.93H296.99z M296.69,199.24c-1.3-0.02-2.31,0.29-2.31,1.25
		c0,0.63,0.42,0.94,0.97,0.94c0.62,0,1.12-0.41,1.28-0.91c0.03-0.13,0.05-0.28,0.05-0.42V199.24z"/>
	<path class="st0" d="M301.04,191.46h2.47v11.53h-2.47V191.46z"/>
	<path class="st0" d="M305.51,191.46h2.47v11.53h-2.47V191.46z"/>
	<path class="st0" d="M315.88,200.18l-0.78,2.81h-2.57l3.34-10.94h3.25l3.39,10.94h-2.66l-0.84-2.81H315.88z M318.66,198.33
		l-0.68-2.32c-0.19-0.65-0.39-1.46-0.55-2.11h-0.03c-0.16,0.65-0.32,1.48-0.5,2.11l-0.65,2.32H318.66z"/>
	<path class="st0" d="M323.8,197.71c0-1.04-0.03-1.93-0.06-2.66h2.14l0.11,1.1h0.03c0.58-0.84,1.49-1.28,2.65-1.28
		c1.74,0,3.3,1.51,3.3,4.04c0,2.89-1.83,4.25-3.6,4.25c-0.96,0-1.71-0.39-2.06-0.91h-0.03v3.94h-2.47V197.71z M326.27,199.58
		c0,0.2,0.02,0.37,0.05,0.52c0.16,0.67,0.73,1.17,1.44,1.17c1.07,0,1.7-0.89,1.7-2.24c0-1.27-0.57-2.22-1.67-2.22
		c-0.7,0-1.32,0.52-1.48,1.25c-0.03,0.13-0.05,0.29-0.05,0.44V199.58z"/>
	<path class="st0" d="M333.51,197.71c0-1.04-0.03-1.93-0.06-2.66h2.14l0.11,1.1h0.03c0.58-0.84,1.49-1.28,2.65-1.28
		c1.74,0,3.3,1.51,3.3,4.04c0,2.89-1.83,4.25-3.6,4.25c-0.96,0-1.71-0.39-2.06-0.91h-0.03v3.94h-2.47V197.71z M335.98,199.58
		c0,0.2,0.02,0.37,0.05,0.52c0.16,0.67,0.73,1.17,1.44,1.17c1.07,0,1.7-0.89,1.7-2.24c0-1.27-0.57-2.22-1.67-2.22
		c-0.7,0-1.32,0.52-1.48,1.25c-0.03,0.13-0.05,0.29-0.05,0.44V199.58z"/>
	<path class="st0" d="M343.22,191.46h2.47v11.53h-2.47V191.46z"/>
	<path class="st0" d="M350.23,192.84c0,0.68-0.52,1.23-1.33,1.23c-0.78,0-1.3-0.55-1.28-1.23c-0.02-0.71,0.5-1.25,1.3-1.25
		C349.71,191.59,350.21,192.12,350.23,192.84z M347.68,202.99v-7.94h2.47v7.94H347.68z"/>
	<path class="st0" d="M356.64,202.99l-0.15-0.8h-0.05c-0.52,0.63-1.33,0.97-2.27,0.97c-1.61,0-2.57-1.17-2.57-2.44
		c0-2.06,1.85-3.05,4.66-3.04v-0.11c0-0.42-0.23-1.02-1.44-1.02c-0.81,0-1.67,0.28-2.19,0.6l-0.45-1.59c0.55-0.31,1.64-0.7,3.08-0.7
		c2.65,0,3.49,1.56,3.49,3.43v2.76c0,0.76,0.03,1.49,0.11,1.93H356.64z M356.35,199.24c-1.3-0.02-2.31,0.29-2.31,1.25
		c0,0.63,0.42,0.94,0.97,0.94c0.62,0,1.12-0.41,1.28-0.91c0.03-0.13,0.05-0.28,0.05-0.42V199.24z"/>
	<path class="st0" d="M360.7,197.58c0-0.99-0.03-1.83-0.06-2.53h2.14l0.11,1.09h0.05c0.32-0.5,1.14-1.27,2.45-1.27
		c1.62,0,2.84,1.07,2.84,3.41v4.71h-2.47v-4.4c0-1.02-0.36-1.72-1.25-1.72c-0.68,0-1.09,0.47-1.25,0.93
		c-0.06,0.15-0.1,0.39-0.1,0.62v4.58h-2.47V197.58z"/>
	<path class="st0" d="M376.17,202.79c-0.44,0.19-1.27,0.36-2.21,0.36c-2.56,0-4.21-1.56-4.21-4.06c0-2.32,1.59-4.22,4.55-4.22
		c0.65,0,1.36,0.11,1.88,0.31l-0.39,1.83c-0.29-0.13-0.73-0.24-1.38-0.24c-1.3,0-2.14,0.93-2.13,2.22c0,1.46,0.97,2.22,2.18,2.22
		c0.58,0,1.04-0.1,1.41-0.24L376.17,202.79z"/>
	<path class="st0" d="M379.25,199.8c0.08,1.02,1.09,1.51,2.24,1.51c0.84,0,1.53-0.11,2.19-0.32l0.32,1.67
		c-0.81,0.32-1.8,0.49-2.87,0.49c-2.69,0-4.24-1.56-4.24-4.04c0-2.01,1.25-4.24,4.01-4.24c2.56,0,3.54,2,3.54,3.96
		c0,0.42-0.05,0.8-0.08,0.97H379.25z M382.16,198.12c0-0.6-0.26-1.61-1.4-1.61c-1.04,0-1.46,0.94-1.53,1.61H382.16z"/>
	<path class="st0" d="M385.91,200.83c0.45,0.28,1.4,0.6,2.13,0.6c0.75,0,1.06-0.26,1.06-0.67c0-0.41-0.24-0.6-1.17-0.91
		c-1.64-0.55-2.27-1.45-2.26-2.39c0-1.48,1.27-2.6,3.23-2.6c0.93,0,1.75,0.21,2.24,0.45l-0.44,1.7c-0.36-0.19-1.04-0.45-1.72-0.45
		c-0.6,0-0.94,0.24-0.94,0.65c0,0.37,0.31,0.57,1.28,0.91c1.51,0.52,2.14,1.28,2.16,2.45c0,1.48-1.17,2.57-3.44,2.57
		c-1.04,0-1.96-0.23-2.57-0.55L385.91,200.83z"/>
	<path class="st0" d="M43.74,220.71c0-1.04-0.03-1.93-0.06-2.66h2.14l0.11,1.1h0.03c0.58-0.84,1.49-1.28,2.65-1.28
		c1.74,0,3.3,1.51,3.3,4.04c0,2.89-1.83,4.25-3.6,4.25c-0.96,0-1.7-0.39-2.06-0.91h-0.03v3.95h-2.47V220.71z M46.21,222.57
		c0,0.19,0.02,0.37,0.05,0.52c0.16,0.67,0.73,1.17,1.44,1.17c1.07,0,1.71-0.89,1.71-2.24c0-1.27-0.57-2.22-1.67-2.22
		c-0.7,0-1.31,0.52-1.48,1.25c-0.03,0.13-0.05,0.29-0.05,0.44V222.57z"/>
	<path class="st0" d="M60.93,223.43c0,1.04,0.03,1.88,0.06,2.55h-2.14l-0.11-1.12h-0.05c-0.31,0.49-1.06,1.3-2.48,1.3
		c-1.61,0-2.79-1.01-2.79-3.46v-4.66h2.48v4.27c0,1.15,0.37,1.85,1.23,1.85c0.68,0,1.07-0.47,1.23-0.86
		c0.06-0.15,0.08-0.34,0.08-0.54v-4.72h2.48V223.43z"/>
	<path class="st0" d="M62.91,220.66c0-1.17-0.03-1.93-0.06-2.61h2.13l0.08,1.46h0.06c0.41-1.15,1.38-1.64,2.14-1.64
		c0.23,0,0.34,0,0.52,0.03v2.32c-0.18-0.03-0.39-0.06-0.67-0.06c-0.91,0-1.53,0.49-1.69,1.25c-0.03,0.16-0.05,0.36-0.05,0.55v4.03
		h-2.47V220.66z"/>
	<path class="st0" d="M74.91,225.79c-0.44,0.19-1.27,0.36-2.21,0.36c-2.57,0-4.21-1.56-4.21-4.06c0-2.32,1.59-4.22,4.55-4.22
		c0.65,0,1.36,0.11,1.88,0.31l-0.39,1.83c-0.29-0.13-0.73-0.24-1.38-0.24c-1.3,0-2.14,0.93-2.13,2.22c0,1.46,0.97,2.22,2.18,2.22
		c0.58,0,1.04-0.1,1.41-0.24L74.91,225.79z"/>
	<path class="st0" d="M76.27,214.46h2.47v4.53h0.03c0.26-0.34,0.58-0.6,0.97-0.81c0.36-0.19,0.83-0.31,1.28-0.31
		c1.58,0,2.78,1.09,2.78,3.47v4.64h-2.47v-4.37c0-1.04-0.36-1.75-1.28-1.75c-0.65,0-1.06,0.42-1.23,0.86
		c-0.06,0.16-0.08,0.37-0.08,0.55v4.71h-2.47V214.46z"/>
	<path class="st0" d="M90.3,225.98l-0.15-0.8H90.1c-0.52,0.63-1.33,0.97-2.27,0.97c-1.61,0-2.57-1.17-2.57-2.44
		c0-2.06,1.85-3.05,4.66-3.04v-0.11c0-0.42-0.23-1.02-1.44-1.02c-0.81,0-1.67,0.28-2.19,0.6l-0.45-1.59c0.55-0.31,1.64-0.7,3.08-0.7
		c2.65,0,3.49,1.56,3.49,3.43v2.76c0,0.76,0.03,1.49,0.11,1.93H90.3z M90.01,222.23c-1.3-0.02-2.31,0.29-2.31,1.25
		c0,0.63,0.42,0.94,0.97,0.94c0.62,0,1.12-0.41,1.28-0.91c0.03-0.13,0.05-0.28,0.05-0.42V222.23z"/>
	<path class="st0" d="M94.34,223.82c0.45,0.28,1.4,0.6,2.13,0.6c0.75,0,1.06-0.26,1.06-0.67s-0.24-0.6-1.17-0.91
		c-1.64-0.55-2.27-1.44-2.26-2.39c0-1.48,1.27-2.6,3.23-2.6c0.93,0,1.75,0.21,2.24,0.45l-0.44,1.7c-0.36-0.19-1.04-0.45-1.72-0.45
		c-0.6,0-0.94,0.24-0.94,0.65c0,0.37,0.31,0.57,1.28,0.91c1.51,0.52,2.14,1.28,2.16,2.45c0,1.48-1.17,2.56-3.44,2.56
		c-1.04,0-1.96-0.23-2.57-0.55L94.34,223.82z"/>
	<path class="st0" d="M103.3,222.8c0.08,1.02,1.09,1.51,2.24,1.51c0.84,0,1.53-0.11,2.19-0.32l0.32,1.67
		c-0.81,0.32-1.8,0.49-2.87,0.49c-2.7,0-4.24-1.56-4.24-4.04c0-2.01,1.25-4.24,4.01-4.24c2.57,0,3.54,2,3.54,3.96
		c0,0.42-0.05,0.8-0.08,0.97H103.3z M106.21,221.11c0-0.6-0.26-1.61-1.4-1.61c-1.04,0-1.46,0.94-1.53,1.61H106.21z"/>
	<path class="st0" d="M117.67,214.46v9.16c0,0.89,0.03,1.83,0.06,2.37h-2.19l-0.11-1.17h-0.03c-0.5,0.89-1.46,1.35-2.48,1.35
		c-1.88,0-3.39-1.61-3.39-4.08c-0.02-2.68,1.66-4.22,3.56-4.22c0.97,0,1.74,0.34,2.09,0.89h0.03v-4.3H117.67z M115.2,221.4
		c0-0.13-0.02-0.31-0.03-0.44c-0.15-0.67-0.68-1.22-1.44-1.22c-1.12,0-1.7,1.01-1.7,2.26c0,1.35,0.67,2.19,1.69,2.19
		c0.71,0,1.28-0.49,1.43-1.19c0.05-0.18,0.06-0.36,0.06-0.57V221.4z"/>
	<path class="st0" d="M125.68,215.77v2.27h1.77v1.82h-1.77v2.87c0,0.96,0.23,1.4,0.97,1.4c0.31,0,0.55-0.03,0.73-0.07l0.02,1.87
		c-0.32,0.13-0.91,0.21-1.61,0.21c-0.8,0-1.46-0.28-1.85-0.68c-0.45-0.47-0.68-1.23-0.68-2.35v-3.25h-1.06v-1.82h1.06v-1.72
		L125.68,215.77z"/>
	<path class="st0" d="M136.64,221.92c0,2.91-2.06,4.24-4.19,4.24c-2.32,0-4.11-1.53-4.11-4.09c0-2.57,1.69-4.21,4.24-4.21
		C135.02,217.86,136.64,219.54,136.64,221.92z M130.9,222c0,1.36,0.57,2.39,1.62,2.39c0.96,0,1.57-0.96,1.57-2.39
		c0-1.19-0.45-2.39-1.57-2.39C131.33,219.62,130.9,220.84,130.9,222z"/>
	<path class="st0" d="M140.93,215.77v2.27h1.77v1.82h-1.77v2.87c0,0.96,0.23,1.4,0.97,1.4c0.31,0,0.55-0.03,0.73-0.07l0.02,1.87
		c-0.32,0.13-0.91,0.21-1.61,0.21c-0.8,0-1.46-0.28-1.85-0.68c-0.45-0.47-0.68-1.23-0.68-2.35v-3.25h-1.06v-1.82h1.06v-1.72
		L140.93,215.77z"/>
	<path class="st0" d="M148.64,225.98l-0.15-0.8h-0.05c-0.52,0.63-1.33,0.97-2.27,0.97c-1.61,0-2.57-1.17-2.57-2.44
		c0-2.06,1.85-3.05,4.66-3.04v-0.11c0-0.42-0.23-1.02-1.44-1.02c-0.81,0-1.67,0.28-2.19,0.6l-0.45-1.59c0.55-0.31,1.64-0.7,3.08-0.7
		c2.65,0,3.49,1.56,3.49,3.43v2.76c0,0.76,0.03,1.49,0.11,1.93H148.64z M148.35,222.23c-1.3-0.02-2.31,0.29-2.31,1.25
		c0,0.63,0.42,0.94,0.97,0.94c0.62,0,1.12-0.41,1.28-0.91c0.03-0.13,0.05-0.28,0.05-0.42V222.23z"/>
	<path class="st0" d="M152.69,214.46h2.47v11.53h-2.47V214.46z"/>
	<path class="st0" d="M159.71,215.84c0,0.68-0.52,1.23-1.33,1.23c-0.78,0-1.3-0.55-1.28-1.23c-0.02-0.71,0.5-1.25,1.3-1.25
		S159.69,215.12,159.71,215.84z M157.16,225.98v-7.94h2.47v7.94H157.16z"/>
	<path class="st0" d="M161.61,220.58c0-0.99-0.03-1.83-0.06-2.53h2.14l0.11,1.09h0.05c0.32-0.5,1.14-1.27,2.45-1.27
		c1.62,0,2.84,1.07,2.84,3.41v4.71h-2.47v-4.4c0-1.02-0.36-1.72-1.25-1.72c-0.68,0-1.09,0.47-1.25,0.93
		c-0.06,0.15-0.1,0.39-0.1,0.62v4.58h-2.47V220.58z"/>
	<path class="st0" d="M178.7,218.04c-0.03,0.5-0.06,1.17-0.06,2.35v4.43c0,1.53-0.31,2.78-1.2,3.57c-0.88,0.75-2.06,0.97-3.23,0.97
		c-1.04,0-2.14-0.21-2.86-0.62l0.49-1.87c0.5,0.29,1.38,0.6,2.31,0.6c1.17,0,2.06-0.63,2.06-2.09v-0.52h-0.03
		c-0.47,0.67-1.23,1.04-2.14,1.04c-1.96,0-3.36-1.59-3.36-3.88c0-2.55,1.66-4.17,3.6-4.17c1.09,0,1.77,0.47,2.18,1.12h0.03
		l0.08-0.94H178.7z M176.17,221.27c0-0.16-0.02-0.33-0.05-0.46c-0.18-0.65-0.65-1.09-1.33-1.09c-0.89,0-1.62,0.81-1.62,2.26
		c0,1.19,0.58,2.11,1.62,2.11c0.63,0,1.14-0.42,1.3-1.01c0.06-0.18,0.08-0.44,0.08-0.65V221.27z"/>
	<path class="st0" d="M186.56,227.4v-1.54c-1.09-0.05-2.14-0.34-2.76-0.7l0.49-1.9c0.68,0.37,1.64,0.71,2.7,0.71
		c0.93,0,1.56-0.36,1.56-1.01c0-0.62-0.52-1.01-1.72-1.41c-1.74-0.58-2.92-1.4-2.92-2.97c0-1.43,1.01-2.55,2.74-2.89v-1.54h1.59
		v1.43c1.09,0.05,1.82,0.28,2.35,0.54l-0.47,1.83c-0.42-0.18-1.17-0.55-2.34-0.55c-1.06,0-1.4,0.45-1.4,0.91
		c0,0.54,0.57,0.88,1.95,1.4c1.93,0.68,2.71,1.58,2.71,3.04c0,1.44-1.02,2.68-2.89,3v1.66H186.56z"/>
	<path class="st0" d="M196.96,225.98v-2.52h-4.68v-1.61l3.99-6.43h3.02v6.19h1.27v1.85h-1.27v2.52H196.96z M196.96,221.62v-2.34
		c0-0.63,0.03-1.28,0.08-1.96h-0.06c-0.34,0.68-0.62,1.3-0.97,1.96l-1.41,2.31v0.03H196.96z"/>
	<path class="st0" d="M202.38,224.2c0.31,0.03,0.58,0.03,1.07,0c0.75-0.05,1.51-0.26,2.08-0.65c0.68-0.47,1.14-1.15,1.33-1.95
		l-0.05-0.02c-0.47,0.49-1.15,0.76-2.11,0.76c-1.79,0-3.3-1.25-3.3-3.3c0-2.06,1.66-3.8,3.98-3.8c2.71,0,3.99,2.08,3.99,4.55
		c0,2.19-0.7,3.8-1.85,4.85c-1.01,0.91-2.39,1.41-4.03,1.48c-0.42,0.03-0.84,0.02-1.12,0V224.2z M203.88,218.9
		c0,0.91,0.49,1.69,1.49,1.69c0.67,0,1.14-0.32,1.36-0.7c0.08-0.15,0.13-0.31,0.13-0.62c0-1.12-0.42-2.22-1.54-2.22
		C204.48,217.05,203.86,217.8,203.88,218.9z"/>
	<path class="st0" d="M211.39,224.2c0.31,0.03,0.58,0.03,1.07,0c0.75-0.05,1.51-0.26,2.08-0.65c0.68-0.47,1.14-1.15,1.33-1.95
		l-0.05-0.02c-0.47,0.49-1.15,0.76-2.11,0.76c-1.79,0-3.3-1.25-3.3-3.3c0-2.06,1.66-3.8,3.98-3.8c2.71,0,3.99,2.08,3.99,4.55
		c0,2.19-0.7,3.8-1.85,4.85c-1.01,0.91-2.39,1.41-4.03,1.48c-0.42,0.03-0.84,0.02-1.12,0V224.2z M212.89,218.9
		c0,0.91,0.49,1.69,1.49,1.69c0.67,0,1.14-0.32,1.36-0.7c0.08-0.15,0.13-0.31,0.13-0.62c0-1.12-0.42-2.22-1.54-2.22
		C213.49,217.05,212.87,217.8,212.89,218.9z"/>
	<path class="st0" d="M231.05,221.92c0,2.91-2.06,4.24-4.19,4.24c-2.32,0-4.11-1.53-4.11-4.09c0-2.57,1.69-4.21,4.24-4.21
		C229.43,217.86,231.05,219.54,231.05,221.92z M225.3,222c0,1.36,0.57,2.39,1.62,2.39c0.96,0,1.57-0.96,1.57-2.39
		c0-1.19-0.45-2.39-1.57-2.39C225.74,219.62,225.3,220.84,225.3,222z"/>
	<path class="st0" d="M232.58,220.66c0-1.17-0.03-1.93-0.06-2.61h2.13l0.08,1.46h0.06c0.41-1.15,1.38-1.64,2.14-1.64
		c0.23,0,0.34,0,0.52,0.03v2.32c-0.18-0.03-0.39-0.06-0.67-0.06c-0.91,0-1.53,0.49-1.69,1.25c-0.03,0.16-0.05,0.36-0.05,0.55v4.03
		h-2.47V220.66z"/>
	<path class="st0" d="M242.02,220.58c0-0.99-0.03-1.83-0.06-2.53h2.08l0.11,1.07h0.05c0.34-0.5,1.04-1.25,2.4-1.25
		c1.02,0,1.83,0.52,2.18,1.35h0.03c0.29-0.41,0.65-0.73,1.02-0.96c0.44-0.26,0.93-0.39,1.51-0.39c1.53,0,2.68,1.07,2.68,3.44v4.68
		h-2.4v-4.32c0-1.15-0.37-1.82-1.17-1.82c-0.57,0-0.97,0.39-1.14,0.86c-0.07,0.18-0.1,0.44-0.1,0.63v4.64h-2.4v-4.45
		c0-1.01-0.36-1.69-1.14-1.69c-0.63,0-1.01,0.49-1.15,0.89c-0.08,0.19-0.1,0.42-0.1,0.62v4.63h-2.4V220.58z"/>
	<path class="st0" d="M263.82,221.92c0,2.91-2.06,4.24-4.19,4.24c-2.32,0-4.11-1.53-4.11-4.09c0-2.57,1.69-4.21,4.24-4.21
		C262.2,217.86,263.82,219.54,263.82,221.92z M258.08,222c0,1.36,0.57,2.39,1.62,2.39c0.96,0,1.58-0.96,1.58-2.39
		c0-1.19-0.45-2.39-1.58-2.39C258.51,219.62,258.08,220.84,258.08,222z"/>
	<path class="st0" d="M265.35,220.66c0-1.17-0.03-1.93-0.06-2.61h2.13l0.08,1.46h0.06c0.41-1.15,1.38-1.64,2.14-1.64
		c0.23,0,0.34,0,0.52,0.03v2.32c-0.18-0.03-0.39-0.06-0.67-0.06c-0.91,0-1.53,0.49-1.69,1.25c-0.03,0.16-0.05,0.36-0.05,0.55v4.03
		h-2.47V220.66z"/>
	<path class="st0" d="M273.29,222.8c0.08,1.02,1.09,1.51,2.24,1.51c0.84,0,1.53-0.11,2.19-0.32l0.32,1.67
		c-0.81,0.32-1.8,0.49-2.87,0.49c-2.69,0-4.24-1.56-4.24-4.04c0-2.01,1.25-4.24,4.01-4.24c2.56,0,3.54,2,3.54,3.96
		c0,0.42-0.05,0.8-0.08,0.97H273.29z M276.19,221.11c0-0.6-0.26-1.61-1.4-1.61c-1.04,0-1.46,0.94-1.53,1.61H276.19z"/>
	<path class="st0" d="M279.68,224.68c0-0.86,0.6-1.48,1.46-1.48c0.86,0,1.43,0.62,1.44,1.48c0,0.84-0.57,1.48-1.44,1.48
		C280.27,226.16,279.68,225.53,279.68,224.68z M280.22,222.39l-0.37-7.35h2.58l-0.36,7.35H280.22z"/>
	<path class="st0" d="M46.4,248.98l-3.51-10.94h2.71l1.33,4.63c0.37,1.3,0.71,2.55,0.97,3.91h0.05c0.28-1.31,0.62-2.61,0.99-3.86
		l1.4-4.68h2.63l-3.69,10.94H46.4z"/>
	<path class="st0" d="M57.9,248.98l-0.15-0.8H57.7c-0.52,0.63-1.33,0.97-2.27,0.97c-1.61,0-2.57-1.17-2.57-2.44
		c0-2.06,1.85-3.05,4.66-3.04v-0.11c0-0.42-0.23-1.02-1.44-1.02c-0.81,0-1.67,0.28-2.19,0.6l-0.45-1.59c0.55-0.31,1.64-0.7,3.08-0.7
		c2.65,0,3.49,1.56,3.49,3.43v2.76c0,0.76,0.03,1.49,0.11,1.93H57.9z M57.61,245.23c-1.3-0.02-2.31,0.29-2.31,1.25
		c0,0.63,0.42,0.94,0.97,0.94c0.62,0,1.12-0.41,1.28-0.91c0.03-0.13,0.05-0.28,0.05-0.42V245.23z"/>
	<path class="st0" d="M61.96,237.45h2.47v11.53h-2.47V237.45z"/>
	<path class="st0" d="M68.97,238.83c0,0.68-0.52,1.23-1.33,1.23c-0.78,0-1.3-0.55-1.28-1.23c-0.02-0.71,0.5-1.25,1.3-1.25
		C68.45,237.58,68.95,238.12,68.97,238.83z M66.42,248.98v-7.94h2.47v7.94H66.42z"/>
	<path class="st0" d="M78.56,237.45v9.16c0,0.89,0.03,1.83,0.06,2.37h-2.19l-0.11-1.17h-0.03c-0.5,0.89-1.46,1.35-2.48,1.35
		c-1.88,0-3.39-1.61-3.39-4.08c-0.02-2.68,1.66-4.22,3.56-4.22c0.97,0,1.74,0.34,2.09,0.89h0.03v-4.3H78.56z M76.09,244.4
		c0-0.13-0.02-0.31-0.03-0.44c-0.15-0.67-0.68-1.22-1.44-1.22c-1.12,0-1.7,1.01-1.7,2.26c0,1.35,0.67,2.19,1.69,2.19
		c0.71,0,1.28-0.49,1.43-1.19c0.05-0.18,0.06-0.36,0.06-0.57V244.4z"/>
	<path class="st0" d="M85.38,240.11h-2.94v-2.08h8.41v2.08h-2.99v8.86h-2.48V240.11z"/>
	<path class="st0" d="M91.89,237.45h2.47v4.53h0.03c0.26-0.34,0.58-0.6,0.97-0.81c0.36-0.19,0.83-0.31,1.28-0.31
		c1.58,0,2.78,1.09,2.78,3.47v4.64h-2.47v-4.37c0-1.04-0.36-1.75-1.28-1.75c-0.65,0-1.06,0.42-1.23,0.86
		c-0.06,0.16-0.08,0.37-0.08,0.55v4.71h-2.47V237.45z"/>
	<path class="st0" d="M101.4,243.65c0-1.17-0.03-1.93-0.06-2.61h2.13l0.08,1.46h0.06c0.41-1.15,1.38-1.64,2.14-1.64
		c0.23,0,0.34,0,0.52,0.03v2.32c-0.18-0.03-0.39-0.06-0.67-0.06c-0.91,0-1.53,0.49-1.69,1.25c-0.03,0.16-0.05,0.36-0.05,0.55v4.03
		h-2.47V243.65z"/>
	<path class="st0" d="M115,246.43c0,1.04,0.03,1.88,0.07,2.55h-2.14l-0.11-1.12h-0.05c-0.31,0.49-1.06,1.3-2.48,1.3
		c-1.61,0-2.79-1.01-2.79-3.46v-4.66h2.48v4.27c0,1.15,0.37,1.85,1.23,1.85c0.68,0,1.07-0.47,1.23-0.86
		c0.06-0.15,0.08-0.34,0.08-0.54v-4.72H115V246.43z"/>
	<path class="st0" d="M127.52,238.43v1.56l-4.35,8.99h-2.61l4.35-8.49v-0.03h-4.84v-2.03H127.52z"/>
	<path class="st0" d="M128.54,249.63l3.47-11.77h1.64l-3.47,11.77H128.54z"/>
	<path class="st0" d="M141.07,240.18c-0.28-0.02-0.57,0-0.96,0.03c-2.19,0.18-3.17,1.3-3.44,2.53h0.05
		c0.52-0.54,1.25-0.84,2.24-0.84c1.77,0,3.26,1.25,3.26,3.44c0,2.09-1.61,3.82-3.9,3.82c-2.81,0-4.19-2.09-4.19-4.61
		c0-1.98,0.73-3.64,1.87-4.69c1.06-0.96,2.42-1.48,4.08-1.56c0.45-0.03,0.75-0.03,0.99-0.02V240.18z M139.73,245.47
		c0-0.97-0.52-1.82-1.57-1.82c-0.67,0-1.22,0.41-1.46,0.94c-0.06,0.13-0.1,0.33-0.1,0.62c0.05,1.12,0.58,2.13,1.7,2.13
		C139.17,247.34,139.73,246.54,139.73,245.47z"/>
	<path class="st0" d="M142.92,249.63l3.47-11.77h1.64l-3.47,11.77H142.92z"/>
	<path class="st0" d="M148.72,248.98v-1.49l1.36-1.23c2.31-2.06,3.43-3.25,3.46-4.48c0-0.86-0.52-1.54-1.74-1.54
		c-0.91,0-1.7,0.45-2.26,0.88l-0.7-1.77c0.8-0.6,2.03-1.09,3.46-1.09c2.39,0,3.7,1.4,3.7,3.31c0,1.77-1.28,3.18-2.81,4.55
		l-0.97,0.81v0.03h3.98v2.03H148.72z"/>
	<path class="st0" d="M165.52,243.65c0,3.26-1.31,5.5-4.01,5.5c-2.73,0-3.93-2.45-3.95-5.44c0-3.05,1.3-5.47,4.03-5.47
		C164.42,238.25,165.52,240.76,165.52,243.65z M160.05,243.72c-0.02,2.42,0.57,3.57,1.53,3.57c0.96,0,1.48-1.2,1.48-3.6
		c0-2.34-0.5-3.57-1.49-3.57C160.65,240.11,160.03,241.27,160.05,243.72z"/>
</g>
</svg>
