<?xml version="1.0" encoding="utf-8"?>
<!-- Generator: Adobe Illustrator 24.1.1, SVG Export Plug-In . SVG Version: 6.00 Build 0)  -->
<svg version="1.1" id="Layer_1" xmlns="http://www.w3.org/2000/svg" xmlns:xlink="http://www.w3.org/1999/xlink" x="0px" y="0px"
	 viewBox="0 0 400 410" style="enable-background:new 0 0 400 410;" xml:space="preserve">
<style type="text/css">
	.st0{fill:#FFFFFF;}
	.st1{fill:url(#SVGID_1_);}
	.st2{fill:url(#SVGID_2_);}
	.st3{fill:#D71A20;}
</style>
<rect y="-1" class="st0" width="400" height="411"/>
<linearGradient id="SVGID_1_" gradientUnits="userSpaceOnUse" x1="200" y1="-1" x2="200" y2="380">
	<stop  offset="0.2437" style="stop-color:#436B9C;stop-opacity:0.8"/>
	<stop  offset="0.3882" style="stop-color:#466D9E;stop-opacity:0.8382"/>
	<stop  offset="0.5004" style="stop-color:#5075A3;stop-opacity:0.8679"/>
	<stop  offset="0.6018" style="stop-color:#6082AB;stop-opacity:0.8947"/>
	<stop  offset="0.6967" style="stop-color:#7894B8;stop-opacity:0.9198"/>
	<stop  offset="0.7872" style="stop-color:#96ACC8;stop-opacity:0.9437"/>
	<stop  offset="0.8744" style="stop-color:#BBC9DB;stop-opacity:0.9668"/>
	<stop  offset="0.9573" style="stop-color:#E6EBF2;stop-opacity:0.9887"/>
	<stop  offset="1" style="stop-color:#FFFFFF"/>
</linearGradient>
<rect y="-1" class="st1" width="400" height="381"/>
<linearGradient id="SVGID_2_" gradientUnits="userSpaceOnUse" x1="-6" y1="187.5" x2="406" y2="187.5">
	<stop  offset="0.995" style="stop-color:#436B9C;stop-opacity:0.8"/>
	<stop  offset="0.9959" style="stop-color:#466D9E;stop-opacity:0.8382"/>
	<stop  offset="0.9967" style="stop-color:#5075A3;stop-opacity:0.8679"/>
	<stop  offset="0.9974" style="stop-color:#6082AB;stop-opacity:0.8947"/>
	<stop  offset="0.998" style="stop-color:#7894B8;stop-opacity:0.9198"/>
	<stop  offset="0.9986" style="stop-color:#96ACC8;stop-opacity:0.9437"/>
	<stop  offset="0.9992" style="stop-color:#BBC9DB;stop-opacity:0.9668"/>
	<stop  offset="0.9997" style="stop-color:#E6EBF2;stop-opacity:0.9887"/>
	<stop  offset="1" style="stop-color:#FFFFFF"/>
</linearGradient>
<rect x="-6" class="st2" width="412" height="375"/>
<g>
	<path class="st0" d="M20.7,29.16c1.15-0.19,2.75-0.34,5.02-0.34c2.29,0,3.92,0.44,5.02,1.32c1.05,0.83,1.75,2.19,1.75,3.8
		s-0.54,2.97-1.51,3.9c-1.27,1.19-3.14,1.73-5.34,1.73c-0.49,0-0.93-0.02-1.27-0.07v5.87H20.7V29.16z M24.38,36.61
		c0.32,0.07,0.71,0.1,1.24,0.1c1.97,0,3.19-1,3.19-2.68c0-1.51-1.05-2.41-2.9-2.41c-0.76,0-1.27,0.07-1.54,0.15V36.61z"/>
	<path class="st0" d="M30.96,43.39c0-1.32,0.9-2.27,2.19-2.27s2.17,0.93,2.17,2.27c0,1.29-0.88,2.24-2.19,2.24
		C31.86,45.63,30.96,44.68,30.96,43.39z"/>
	<path class="st0" d="M49.75,44.9c-0.68,0.34-2.22,0.71-4.22,0.71c-5.68,0-8.6-3.53-8.6-8.21c0-5.6,4-8.72,8.97-8.72
		c1.93,0,3.39,0.39,4.05,0.73l-0.76,2.95c-0.76-0.32-1.8-0.61-3.12-0.61c-2.95,0-5.24,1.78-5.24,5.43c0,3.29,1.95,5.36,5.26,5.36
		c1.12,0,2.36-0.24,3.1-0.54L49.75,44.9z"/>
	<path class="st0" d="M51.8,43.39c0-1.32,0.9-2.27,2.19-2.27s2.17,0.93,2.17,2.27c0,1.29-0.88,2.24-2.19,2.24
		C52.7,45.63,51.8,44.68,51.8,43.39z"/>
	<path class="st0" d="M63.45,29.16c1.19-0.19,2.97-0.34,4.95-0.34c2.44,0,4.14,0.37,5.31,1.29c0.98,0.78,1.51,1.92,1.51,3.44
		c0,2.1-1.49,3.53-2.9,4.05v0.07c1.15,0.46,1.78,1.56,2.19,3.07c0.51,1.85,1.02,4,1.34,4.63h-3.8c-0.27-0.46-0.66-1.8-1.15-3.83
		c-0.44-2.05-1.15-2.61-2.66-2.63h-1.12v6.46h-3.68V29.16z M67.13,36.22h1.46c1.85,0,2.95-0.93,2.95-2.36
		c0-1.51-1.02-2.27-2.73-2.29c-0.9,0-1.41,0.07-1.68,0.12V36.22z"/>
	<path class="st0" d="M81.63,28.94v16.42H77.9V28.94H81.63z"/>
	<path class="st0" d="M96.91,44.9c-0.68,0.34-2.22,0.71-4.22,0.71c-5.68,0-8.6-3.53-8.6-8.21c0-5.6,4-8.72,8.97-8.72
		c1.93,0,3.39,0.39,4.05,0.73l-0.76,2.95c-0.76-0.32-1.8-0.61-3.12-0.61c-2.95,0-5.24,1.78-5.24,5.43c0,3.29,1.95,5.36,5.26,5.36
		c1.12,0,2.36-0.24,3.1-0.54L96.91,44.9z"/>
	<path class="st0" d="M103.08,28.94v6.31h6.12v-6.31h3.7v16.42h-3.7v-6.87h-6.12v6.87h-3.73V28.94H103.08z"/>
	<path class="st0" d="M119.97,41.15l-1.17,4.22h-3.85l5.02-16.42h4.87l5.09,16.42h-4l-1.27-4.22H119.97z M124.14,38.37l-1.02-3.48
		c-0.29-0.97-0.58-2.19-0.83-3.17h-0.05c-0.24,0.97-0.49,2.22-0.76,3.17l-0.97,3.48H124.14z"/>
	<path class="st0" d="M132.13,29.16c1.19-0.19,2.97-0.34,4.95-0.34c2.44,0,4.14,0.37,5.31,1.29c0.98,0.78,1.51,1.92,1.51,3.44
		c0,2.1-1.49,3.53-2.9,4.05v0.07c1.15,0.46,1.78,1.56,2.19,3.07c0.51,1.85,1.02,4,1.34,4.63h-3.8c-0.27-0.46-0.66-1.8-1.15-3.83
		c-0.44-2.05-1.15-2.61-2.66-2.63h-1.12v6.46h-3.68V29.16z M135.81,36.22h1.46c1.85,0,2.95-0.93,2.95-2.36
		c0-1.51-1.02-2.27-2.73-2.29c-0.9,0-1.41,0.07-1.68,0.12V36.22z"/>
	<path class="st0" d="M146.59,29.16c1.36-0.22,3.14-0.34,5.02-0.34c3.12,0,5.14,0.56,6.73,1.75c1.71,1.27,2.78,3.29,2.78,6.19
		c0,3.14-1.15,5.31-2.73,6.65c-1.73,1.44-4.36,2.12-7.58,2.12c-1.93,0-3.29-0.12-4.22-0.24V29.16z M150.31,42.56
		c0.32,0.07,0.83,0.07,1.29,0.07c3.36,0.02,5.56-1.83,5.56-5.75c0.02-3.41-1.97-5.21-5.17-5.21c-0.83,0-1.36,0.07-1.68,0.15V42.56z"
		/>
	<path class="st0" d="M178.93,45.36c-0.34-0.37-0.68-0.73-1.07-1.17c-1.07,0.83-2.56,1.44-4.51,1.44c-3.97,0-5.73-2.36-5.73-4.65
		c0-2.17,1.24-3.73,3.12-4.7v-0.1c-0.71-0.78-1.24-2-1.24-3.17c0-2.07,1.63-4.34,4.92-4.34c2.53,0,4.46,1.49,4.46,3.85
		c0,1.66-0.97,3.07-3.24,4.22l-0.02,0.1c0.95,1.05,1.95,2.24,2.75,3.07c0.66-1.02,1.17-2.53,1.39-4h3.31
		c-0.44,2.49-1.27,4.61-2.73,6.24c0.93,1.05,1.88,2.12,2.9,3.22H178.93z M176.13,42.12c-1.02-1.02-2.36-2.51-3.7-4.02
		c-0.68,0.49-1.29,1.19-1.29,2.27c0,1.39,1.05,2.58,2.73,2.58C174.83,42.95,175.64,42.58,176.13,42.12z M172.81,32.67
		c0,0.83,0.39,1.56,1.12,2.36c1.19-0.83,1.8-1.46,1.8-2.41c0-0.78-0.46-1.63-1.44-1.63C173.35,30.98,172.81,31.81,172.81,32.67z"/>
	<path class="st0" d="M190.04,41.54c1,0.51,2.53,1.02,4.12,1.02c1.71,0,2.61-0.71,2.61-1.78c0-1.02-0.78-1.61-2.75-2.31
		c-2.73-0.95-4.51-2.46-4.51-4.85c0-2.8,2.34-4.95,6.21-4.95c1.85,0,3.22,0.39,4.19,0.83l-0.83,3c-0.66-0.32-1.83-0.78-3.44-0.78
		s-2.39,0.73-2.39,1.58c0,1.05,0.93,1.51,3.05,2.31c2.9,1.07,4.26,2.58,4.26,4.9c0,2.75-2.12,5.09-6.63,5.09
		c-1.88,0-3.73-0.49-4.65-1L190.04,41.54z"/>
	<path class="st0" d="M218.12,36.98c0,5.39-3.27,8.65-8.07,8.65c-4.87,0-7.73-3.68-7.73-8.36c0-4.92,3.14-8.6,7.99-8.6
		C215.36,28.67,218.12,32.45,218.12,36.98z M206.25,37.2c0,3.22,1.51,5.48,4,5.48c2.51,0,3.95-2.39,3.95-5.58
		c0-2.95-1.41-5.48-3.97-5.48C207.71,31.62,206.25,34.01,206.25,37.2z"/>
	<path class="st0" d="M220.56,45.36V28.94h4.34l3.41,6.02c0.97,1.73,1.95,3.78,2.68,5.63h0.07c-0.24-2.17-0.32-4.39-0.32-6.85v-4.8
		h3.41v16.42h-3.9l-3.51-6.34c-0.97-1.75-2.05-3.87-2.85-5.8l-0.07,0.02c0.1,2.17,0.15,4.48,0.15,7.16v4.95H220.56z"/>
	<path class="st0" d="M254.36,44.9c-0.68,0.34-2.22,0.71-4.22,0.71c-5.68,0-8.6-3.53-8.6-8.21c0-5.6,4-8.72,8.97-8.72
		c1.92,0,3.39,0.39,4.04,0.73l-0.75,2.95c-0.76-0.32-1.8-0.61-3.12-0.61c-2.95,0-5.24,1.78-5.24,5.43c0,3.29,1.95,5.36,5.26,5.36
		c1.12,0,2.36-0.24,3.09-0.54L254.36,44.9z"/>
	<path class="st0" d="M256.8,29.16c1.19-0.19,2.97-0.34,4.95-0.34c2.44,0,4.14,0.37,5.31,1.29c0.97,0.78,1.51,1.92,1.51,3.44
		c0,2.1-1.49,3.53-2.9,4.05v0.07c1.15,0.46,1.78,1.56,2.19,3.07c0.51,1.85,1.02,4,1.34,4.63h-3.8c-0.27-0.46-0.66-1.8-1.14-3.83
		c-0.44-2.05-1.15-2.61-2.66-2.63h-1.12v6.46h-3.68V29.16z M260.48,36.22h1.46c1.85,0,2.95-0.93,2.95-2.36
		c0-1.51-1.02-2.27-2.73-2.29c-0.9,0-1.41,0.07-1.68,0.12V36.22z"/>
	<path class="st0" d="M281.03,38.42h-6.04v3.9h6.75v3.05h-10.48V28.94h10.14v3.05h-6.41v3.41h6.04V38.42z"/>
	<path class="st0" d="M284.27,29.16c1.36-0.22,3.14-0.34,5.02-0.34c3.12,0,5.14,0.56,6.73,1.75c1.71,1.27,2.78,3.29,2.78,6.19
		c0,3.14-1.15,5.31-2.73,6.65c-1.73,1.44-4.36,2.12-7.58,2.12c-1.93,0-3.29-0.12-4.22-0.24V29.16z M288,42.56
		c0.32,0.07,0.83,0.07,1.29,0.07c3.36,0.02,5.56-1.83,5.56-5.75c0.02-3.41-1.97-5.21-5.17-5.21c-0.83,0-1.36,0.07-1.68,0.15V42.56z"
		/>
	<path class="st0" d="M304.96,28.94v16.42h-3.73V28.94H304.96z"/>
	<path class="st0" d="M311.35,32.06h-4.41v-3.12h12.62v3.12h-4.48v13.31h-3.73V32.06z"/>
	<path class="st0" d="M338.52,44.9c-0.68,0.34-2.22,0.71-4.22,0.71c-5.68,0-8.6-3.53-8.6-8.21c0-5.6,4-8.72,8.97-8.72
		c1.92,0,3.39,0.39,4.04,0.73l-0.75,2.95c-0.76-0.32-1.8-0.61-3.12-0.61c-2.95,0-5.24,1.78-5.24,5.43c0,3.29,1.95,5.36,5.26,5.36
		c1.12,0,2.36-0.24,3.09-0.54L338.52,44.9z"/>
	<path class="st0" d="M345.03,41.15l-1.17,4.22h-3.85l5.02-16.42h4.87L355,45.36h-4l-1.27-4.22H345.03z M349.2,38.37l-1.02-3.48
		c-0.29-0.97-0.58-2.19-0.83-3.17h-0.05c-0.24,0.97-0.49,2.22-0.75,3.17l-0.97,3.48H349.2z"/>
	<path class="st0" d="M357.19,29.16c1.19-0.19,2.97-0.34,4.95-0.34c2.44,0,4.14,0.37,5.31,1.29c0.97,0.78,1.51,1.92,1.51,3.44
		c0,2.1-1.49,3.53-2.9,4.05v0.07c1.15,0.46,1.78,1.56,2.19,3.07c0.51,1.85,1.02,4,1.34,4.63h-3.8c-0.27-0.46-0.66-1.8-1.14-3.83
		c-0.44-2.05-1.15-2.61-2.66-2.63h-1.12v6.46h-3.68V29.16z M360.87,36.22h1.46c1.85,0,2.95-0.93,2.95-2.36
		c0-1.51-1.02-2.27-2.73-2.29c-0.9,0-1.41,0.07-1.68,0.12V36.22z"/>
	<path class="st0" d="M371.64,29.16c1.36-0.22,3.14-0.34,5.02-0.34c3.12,0,5.14,0.56,6.73,1.75c1.71,1.27,2.78,3.29,2.78,6.19
		c0,3.14-1.15,5.31-2.73,6.65c-1.73,1.44-4.36,2.12-7.58,2.12c-1.92,0-3.29-0.12-4.22-0.24V29.16z M375.37,42.56
		c0.32,0.07,0.83,0.07,1.29,0.07c3.36,0.02,5.56-1.83,5.56-5.75c0.02-3.41-1.97-5.21-5.17-5.21c-0.83,0-1.37,0.07-1.68,0.15V42.56z"
		/>
</g>
<g>
	<path class="st0" d="M37.41,93.47h-9.73v6.28h10.87v4.9H21.68V78.21H38v4.9H27.69v5.49h9.73V93.47z"/>
	<path class="st0" d="M42.44,91.58c0-2.39-0.08-4.43-0.16-6.12h5.02l0.27,2.59h0.12c0.82-1.22,2.51-3.02,5.81-3.02
		c2.47,0,4.43,1.26,5.26,3.26h0.08c0.71-0.98,1.57-1.77,2.47-2.31c1.06-0.63,2.24-0.94,3.65-0.94c3.69,0,6.47,2.59,6.47,8.32v11.3
		h-5.81V94.21c0-2.79-0.9-4.39-2.82-4.39c-1.37,0-2.35,0.94-2.75,2.08c-0.16,0.43-0.24,1.06-0.24,1.53v11.22h-5.81V93.9
		c0-2.43-0.86-4.08-2.75-4.08c-1.53,0-2.43,1.18-2.79,2.16c-0.2,0.47-0.24,1.02-0.24,1.49v11.18h-5.81V91.58z"/>
	<path class="st0" d="M80.76,96.96c0.2,2.47,2.63,3.65,5.41,3.65c2.04,0,3.69-0.27,5.3-0.78l0.78,4.04
		c-1.96,0.78-4.35,1.18-6.94,1.18c-6.51,0-10.24-3.77-10.24-9.77c0-4.86,3.02-10.24,9.69-10.24c6.2,0,8.55,4.83,8.55,9.57
		c0,1.02-0.12,1.92-0.2,2.35H80.76z M87.78,92.88c0-1.45-0.63-3.88-3.37-3.88c-2.51,0-3.53,2.28-3.69,3.88H87.78z"/>
	<path class="st0" d="M96.88,91.78c0-2.82-0.08-4.67-0.16-6.32h5.14l0.2,3.53h0.16c0.98-2.79,3.33-3.96,5.18-3.96
		c0.55,0,0.82,0,1.26,0.08v5.61c-0.43-0.08-0.94-0.16-1.61-0.16c-2.2,0-3.69,1.18-4.08,3.02c-0.08,0.39-0.12,0.86-0.12,1.33v9.73
		h-5.96V91.78z"/>
	<path class="st0" d="M129.8,85.46c-0.08,1.22-0.16,2.82-0.16,5.69v10.71c0,3.69-0.75,6.71-2.9,8.63c-2.12,1.8-4.98,2.35-7.81,2.35
		c-2.51,0-5.18-0.51-6.9-1.49l1.18-4.51c1.22,0.71,3.33,1.45,5.57,1.45c2.82,0,4.98-1.53,4.98-5.06v-1.26h-0.08
		c-1.14,1.61-2.98,2.51-5.18,2.51c-4.75,0-8.12-3.84-8.12-9.38c0-6.16,4-10.08,8.71-10.08c2.63,0,4.28,1.14,5.26,2.71h0.08l0.2-2.28
		H129.8z M123.68,93.27c0-0.39-0.04-0.78-0.12-1.1c-0.43-1.57-1.57-2.63-3.22-2.63c-2.16,0-3.92,1.96-3.92,5.45
		c0,2.86,1.41,5.1,3.92,5.1c1.53,0,2.75-1.02,3.14-2.43c0.16-0.43,0.2-1.06,0.2-1.57V93.27z"/>
	<path class="st0" d="M139.02,96.96c0.2,2.47,2.63,3.65,5.41,3.65c2.04,0,3.69-0.27,5.3-0.78l0.78,4.04
		c-1.96,0.78-4.35,1.18-6.94,1.18c-6.51,0-10.24-3.77-10.24-9.77c0-4.86,3.02-10.24,9.69-10.24c6.2,0,8.55,4.83,8.55,9.57
		c0,1.02-0.12,1.92-0.2,2.35H139.02z M146.04,92.88c0-1.45-0.63-3.88-3.37-3.88c-2.51,0-3.53,2.28-3.69,3.88H146.04z"/>
	<path class="st0" d="M155.14,91.58c0-2.39-0.08-4.43-0.16-6.12h5.18l0.27,2.63h0.12c0.78-1.22,2.75-3.06,5.92-3.06
		c3.92,0,6.87,2.59,6.87,8.24v11.38h-5.96V94.02c0-2.47-0.86-4.16-3.02-4.16c-1.65,0-2.63,1.14-3.02,2.24
		c-0.16,0.35-0.24,0.94-0.24,1.49v11.06h-5.96V91.58z"/>
	<path class="st0" d="M192.52,104.18c-1.06,0.47-3.06,0.86-5.34,0.86c-6.2,0-10.16-3.77-10.16-9.81c0-5.61,3.84-10.2,10.98-10.2
		c1.57,0,3.29,0.27,4.55,0.75l-0.94,4.43c-0.71-0.31-1.77-0.59-3.33-0.59c-3.14,0-5.18,2.24-5.14,5.37c0,3.53,2.35,5.38,5.26,5.38
		c1.41,0,2.51-0.24,3.41-0.59L192.52,104.18z"/>
	<path class="st0" d="M200.88,85.46l2.86,9.42c0.31,1.14,0.71,2.55,0.94,3.57h0.12c0.27-1.02,0.59-2.47,0.86-3.57l2.35-9.42h6.39
		l-4.47,12.63c-2.75,7.61-4.59,10.67-6.75,12.59c-2.08,1.8-4.28,2.43-5.77,2.63l-1.26-5.06c0.75-0.12,1.69-0.47,2.59-1.02
		c0.9-0.47,1.88-1.41,2.47-2.39c0.2-0.27,0.31-0.59,0.31-0.86c0-0.2-0.04-0.51-0.28-0.98l-7.02-17.54H200.88z"/>
	<path class="st0" d="M224.1,104.65v-3.61l3.3-2.98c5.57-4.98,8.28-7.85,8.36-10.83c0-2.08-1.25-3.73-4.2-3.73
		c-2.2,0-4.12,1.1-5.45,2.12l-1.69-4.28c1.92-1.45,4.9-2.63,8.36-2.63c5.77,0,8.94,3.37,8.94,8c0,4.28-3.1,7.69-6.79,10.98
		l-2.35,1.96v0.08h9.61v4.9H224.1z"/>
	<path class="st0" d="M256.43,104.65v-6.08h-11.3v-3.88l9.65-15.54h7.3v14.95h3.06v4.47h-3.06v6.08H256.43z M256.43,94.09v-5.65
		c0-1.53,0.08-3.1,0.2-4.75h-0.16c-0.82,1.65-1.49,3.14-2.35,4.75l-3.41,5.57v0.08H256.43z"/>
	<path class="st0" d="M298.87,94.53c-0.12-3.18-0.24-7.02-0.24-10.87h-0.12c-0.82,3.37-1.92,7.14-2.94,10.24l-3.22,10.32h-4.67
		l-2.82-10.24c-0.86-3.1-1.77-6.87-2.39-10.32h-0.08c-0.16,3.57-0.27,7.65-0.47,10.95l-0.47,10.04h-5.53l1.69-26.44h7.96l2.59,8.83
		c0.82,3.06,1.65,6.35,2.24,9.45h0.12c0.75-3.06,1.65-6.55,2.51-9.49l2.82-8.79h7.81l1.45,26.44h-5.85L298.87,94.53z"/>
	<path class="st0" d="M328.57,94.84c0,7.02-4.98,10.24-10.12,10.24c-5.61,0-9.92-3.69-9.92-9.89s4.08-10.16,10.24-10.16
		C324.64,85.03,328.57,89.07,328.57,94.84z M314.68,95.04c0,3.3,1.37,5.77,3.92,5.77c2.31,0,3.81-2.31,3.81-5.77
		c0-2.86-1.1-5.77-3.81-5.77C315.74,89.27,314.68,92.21,314.68,95.04z"/>
	<path class="st0" d="M332.25,91.58c0-2.39-0.08-4.43-0.16-6.12h5.18l0.28,2.63h0.12c0.79-1.22,2.75-3.06,5.92-3.06
		c3.92,0,6.87,2.59,6.87,8.24v11.38h-5.96V94.02c0-2.47-0.86-4.16-3.02-4.16c-1.65,0-2.63,1.14-3.02,2.24
		c-0.16,0.35-0.24,0.94-0.24,1.49v11.06h-5.96V91.58z"/>
	<path class="st0" d="M361.68,79.97v5.49h4.28v4.39h-4.28v6.94c0,2.31,0.55,3.37,2.35,3.37c0.75,0,1.33-0.08,1.77-0.16l0.04,4.51
		c-0.79,0.31-2.2,0.51-3.88,0.51c-1.92,0-3.53-0.67-4.47-1.65c-1.1-1.14-1.65-2.98-1.65-5.69v-7.85h-2.55v-4.39h2.55v-4.16
		L361.68,79.97z"/>
	<path class="st0" d="M369.4,76.79h5.96v10.95h0.08c0.63-0.82,1.41-1.45,2.35-1.96c0.86-0.47,2-0.75,3.1-0.75
		c3.81,0,6.71,2.63,6.71,8.4v11.22h-5.96V94.09c0-2.51-0.86-4.24-3.1-4.24c-1.57,0-2.55,1.02-2.98,2.08c-0.16,0.39-0.2,0.9-0.2,1.33
		v11.38h-5.96V76.79z"/>
	<path class="st0" d="M21.88,145.56c1.61,0.82,4.08,1.65,6.63,1.65c2.75,0,4.2-1.14,4.2-2.86c0-1.65-1.26-2.59-4.43-3.73
		c-4.39-1.53-7.26-3.96-7.26-7.81c0-4.51,3.77-7.96,10-7.96c2.98,0,5.18,0.63,6.75,1.33l-1.33,4.83c-1.06-0.51-2.94-1.26-5.53-1.26
		c-2.59,0-3.84,1.18-3.84,2.55c0,1.69,1.49,2.43,4.9,3.73c4.67,1.73,6.87,4.16,6.87,7.89c0,4.43-3.41,8.2-10.67,8.2
		c-3.02,0-6-0.78-7.49-1.61L21.88,145.56z"/>
	<path class="st0" d="M42.67,138.97c0-2.51-0.08-4.67-0.16-6.43h5.18l0.27,2.67h0.08c1.41-2.04,3.61-3.1,6.39-3.1
		c4.2,0,7.96,3.65,7.96,9.77c0,6.98-4.43,10.28-8.71,10.28c-2.31,0-4.12-0.94-4.98-2.2h-0.08v9.53h-5.96V138.97z M48.63,143.48
		c0,0.47,0.04,0.9,0.12,1.26c0.39,1.61,1.77,2.82,3.49,2.82c2.59,0,4.12-2.16,4.12-5.41c0-3.06-1.37-5.37-4.04-5.37
		c-1.69,0-3.18,1.26-3.57,3.02c-0.08,0.31-0.12,0.71-0.12,1.06V143.48z"/>
	<path class="st0" d="M70.84,144.03c0.2,2.47,2.63,3.65,5.41,3.65c2.04,0,3.69-0.27,5.3-0.78l0.78,4.04
		c-1.96,0.78-4.35,1.18-6.94,1.18c-6.51,0-10.24-3.77-10.24-9.77c0-4.86,3.02-10.24,9.69-10.24c6.2,0,8.55,4.83,8.55,9.57
		c0,1.02-0.12,1.92-0.2,2.35H70.84z M77.86,139.95c0-1.45-0.63-3.88-3.37-3.88c-2.51,0-3.53,2.28-3.69,3.88H77.86z"/>
	<path class="st0" d="M101.36,151.25c-1.06,0.47-3.06,0.86-5.34,0.86c-6.2,0-10.16-3.77-10.16-9.81c0-5.61,3.84-10.2,10.98-10.2
		c1.57,0,3.29,0.27,4.55,0.75l-0.94,4.43c-0.71-0.31-1.77-0.59-3.33-0.59c-3.14,0-5.18,2.24-5.14,5.37c0,3.53,2.35,5.38,5.26,5.38
		c1.41,0,2.51-0.24,3.41-0.59L101.36,151.25z"/>
	<path class="st0" d="M110.81,127.2c0,1.65-1.26,2.98-3.22,2.98c-1.88,0-3.14-1.33-3.1-2.98c-0.04-1.73,1.22-3.02,3.14-3.02
		S110.77,125.48,110.81,127.2z M104.65,151.72v-19.18h5.96v19.18H104.65z"/>
	<path class="st0" d="M126.31,151.72l-0.35-1.92h-0.12c-1.26,1.53-3.22,2.35-5.49,2.35c-3.88,0-6.2-2.82-6.2-5.88
		c0-4.98,4.47-7.38,11.26-7.34v-0.27c0-1.02-0.55-2.47-3.49-2.47c-1.96,0-4.04,0.67-5.3,1.45l-1.1-3.84
		c1.33-0.75,3.96-1.69,7.45-1.69c6.39,0,8.43,3.77,8.43,8.28v6.67c0,1.84,0.08,3.61,0.27,4.67H126.31z M125.6,142.66
		c-3.14-0.04-5.57,0.71-5.57,3.02c0,1.53,1.02,2.28,2.35,2.28c1.49,0,2.71-0.98,3.1-2.2c0.08-0.31,0.12-0.67,0.12-1.02V142.66z"/>
	<path class="st0" d="M136.11,123.87h5.96v27.85h-5.96V123.87z"/>
	<path class="st0" d="M155.02,125.28h16.16v4.9h-10.16v6.04h9.49v4.86h-9.49v10.63h-6V125.28z"/>
	<path class="st0" d="M180.87,127.2c0,1.65-1.26,2.98-3.22,2.98c-1.88,0-3.14-1.33-3.1-2.98c-0.04-1.73,1.22-3.02,3.14-3.02
		S180.83,125.48,180.87,127.2z M174.71,151.72v-19.18h5.96v19.18H174.71z"/>
	<path class="st0" d="M185.46,138.66c0-2.39-0.08-4.43-0.16-6.12h5.18l0.27,2.63h0.12c0.78-1.22,2.75-3.06,5.92-3.06
		c3.92,0,6.87,2.59,6.87,8.24v11.38h-5.96v-10.63c0-2.47-0.86-4.16-3.02-4.16c-1.65,0-2.63,1.14-3.02,2.24
		c-0.16,0.35-0.24,0.94-0.24,1.49v11.06h-5.96V138.66z"/>
	<path class="st0" d="M219.36,151.72L219,149.8h-0.12c-1.25,1.53-3.22,2.35-5.49,2.35c-3.88,0-6.2-2.82-6.2-5.88
		c0-4.98,4.47-7.38,11.26-7.34v-0.27c0-1.02-0.55-2.47-3.49-2.47c-1.96,0-4.04,0.67-5.3,1.45l-1.1-3.84
		c1.33-0.75,3.96-1.69,7.45-1.69c6.39,0,8.43,3.77,8.43,8.28v6.67c0,1.84,0.08,3.61,0.27,4.67H219.36z M218.65,142.66
		c-3.14-0.04-5.57,0.71-5.57,3.02c0,1.53,1.02,2.28,2.35,2.28c1.49,0,2.71-0.98,3.1-2.2c0.08-0.31,0.12-0.67,0.12-1.02V142.66z"/>
	<path class="st0" d="M229.16,138.66c0-2.39-0.08-4.43-0.16-6.12h5.18l0.28,2.63h0.12c0.79-1.22,2.75-3.06,5.92-3.06
		c3.92,0,6.87,2.59,6.87,8.24v11.38h-5.96v-10.63c0-2.47-0.86-4.16-3.02-4.16c-1.65,0-2.63,1.14-3.02,2.24
		c-0.16,0.35-0.24,0.94-0.24,1.49v11.06h-5.96V138.66z"/>
	<path class="st0" d="M266.55,151.25c-1.06,0.47-3.06,0.86-5.34,0.86c-6.2,0-10.16-3.77-10.16-9.81c0-5.61,3.84-10.2,10.98-10.2
		c1.57,0,3.29,0.27,4.55,0.75l-0.94,4.43c-0.71-0.31-1.77-0.59-3.33-0.59c-3.14,0-5.18,2.24-5.14,5.37c0,3.53,2.35,5.38,5.26,5.38
		c1.41,0,2.51-0.24,3.41-0.59L266.55,151.25z"/>
	<path class="st0" d="M276,127.2c0,1.65-1.25,2.98-3.22,2.98c-1.88,0-3.14-1.33-3.1-2.98c-0.04-1.73,1.22-3.02,3.14-3.02
		C274.75,124.18,275.96,125.48,276,127.2z M269.84,151.72v-19.18h5.96v19.18H269.84z"/>
	<path class="st0" d="M280.59,138.66c0-2.39-0.08-4.43-0.16-6.12h5.18l0.28,2.63H286c0.79-1.22,2.75-3.06,5.92-3.06
		c3.92,0,6.87,2.59,6.87,8.24v11.38h-5.96v-10.63c0-2.47-0.86-4.16-3.02-4.16c-1.65,0-2.63,1.14-3.02,2.24
		c-0.16,0.35-0.24,0.94-0.24,1.49v11.06h-5.96V138.66z"/>
	<path class="st0" d="M321.9,132.54c-0.08,1.22-0.16,2.82-0.16,5.69v10.71c0,3.69-0.75,6.71-2.9,8.63c-2.12,1.8-4.98,2.35-7.81,2.35
		c-2.51,0-5.18-0.51-6.9-1.49l1.18-4.51c1.22,0.71,3.33,1.45,5.57,1.45c2.83,0,4.98-1.53,4.98-5.06v-1.26h-0.08
		c-1.14,1.61-2.98,2.51-5.18,2.51c-4.75,0-8.12-3.84-8.12-9.38c0-6.16,4-10.08,8.71-10.08c2.63,0,4.28,1.14,5.26,2.71h0.08l0.2-2.28
		H321.9z M315.78,140.35c0-0.39-0.04-0.78-0.12-1.1c-0.43-1.57-1.57-2.63-3.22-2.63c-2.16,0-3.92,1.96-3.92,5.45
		c0,2.86,1.41,5.1,3.92,5.1c1.53,0,2.75-1.02,3.14-2.43c0.16-0.43,0.2-1.06,0.2-1.57V140.35z"/>
</g>
<g>
	<path class="st0" d="M334.55,121.07l-2.24,2.63l0.02,0.06l3.3-0.66v2.09l-3.32-0.58l-0.02,0.06l2.26,2.55l-1.85,1.08l-1.18-3.21
		l-0.04,0.02l-1.2,3.19l-1.78-1.08l2.22-2.59v-0.04l-3.26,0.6v-2.09l3.21,0.64l0.02-0.04l-2.2-2.61l1.85-1.06l1.16,3.17h0.04
		l1.18-3.17L334.55,121.07z"/>
</g>
<g>
	<path class="st0" d="M23.34,239.9v-12.8h3.38l2.66,4.69c0.76,1.35,1.52,2.94,2.09,4.39h0.06c-0.19-1.69-0.25-3.42-0.25-5.34v-3.74
		h2.66v12.8H30.9l-2.74-4.94c-0.76-1.37-1.6-3.02-2.22-4.52l-0.06,0.02c0.08,1.69,0.11,3.5,0.11,5.58v3.86H23.34z"/>
	<path class="st0" d="M38.52,236.18c0.1,1.2,1.27,1.77,2.62,1.77c0.99,0,1.79-0.13,2.56-0.38l0.38,1.96
		c-0.95,0.38-2.11,0.57-3.36,0.57c-3.15,0-4.96-1.82-4.96-4.73c0-2.36,1.46-4.96,4.69-4.96c3,0,4.14,2.34,4.14,4.64
		c0,0.49-0.06,0.93-0.09,1.14H38.52z M41.92,234.2c0-0.7-0.3-1.88-1.63-1.88c-1.22,0-1.71,1.1-1.79,1.88H41.92z"/>
	<path class="st0" d="M48.21,230.61l0.74,3.8c0.19,0.97,0.38,1.99,0.53,3.06h0.04c0.19-1.06,0.46-2.13,0.68-3.04l0.99-3.82h2.28
		l0.93,3.7c0.25,1.04,0.49,2.09,0.68,3.15h0.04c0.13-1.06,0.32-2.11,0.53-3.17l0.8-3.69h2.83l-2.85,9.29h-2.72l-0.87-3.27
		c-0.23-0.91-0.4-1.75-0.59-2.89h-0.04c-0.17,1.16-0.36,2.01-0.61,2.89l-0.93,3.27h-2.72l-2.7-9.29H48.21z"/>
	<path class="st0" d="M71.45,239.68c-0.51,0.23-1.48,0.42-2.58,0.42c-3,0-4.92-1.82-4.92-4.75c0-2.72,1.86-4.94,5.32-4.94
		c0.76,0,1.6,0.13,2.2,0.36l-0.46,2.15c-0.34-0.15-0.85-0.28-1.61-0.28c-1.52,0-2.51,1.08-2.49,2.6c0,1.71,1.14,2.6,2.55,2.6
		c0.68,0,1.22-0.11,1.65-0.28L71.45,239.68z"/>
	<path class="st0" d="M78.4,239.9l-0.17-0.93h-0.06c-0.61,0.74-1.56,1.14-2.66,1.14c-1.88,0-3-1.37-3-2.85
		c0-2.41,2.17-3.57,5.45-3.55v-0.13c0-0.49-0.27-1.2-1.69-1.2c-0.95,0-1.96,0.32-2.56,0.7l-0.53-1.86c0.65-0.36,1.92-0.82,3.61-0.82
		c3.1,0,4.08,1.82,4.08,4.01v3.23c0,0.89,0.04,1.75,0.13,2.26H78.4z M78.06,235.52c-1.52-0.02-2.7,0.34-2.7,1.46
		c0,0.74,0.49,1.1,1.14,1.1c0.72,0,1.31-0.48,1.5-1.06c0.04-0.15,0.06-0.32,0.06-0.49V235.52z"/>
	<path class="st0" d="M83.15,233.67c0-1.37-0.04-2.26-0.08-3.06h2.49l0.1,1.71h0.08c0.47-1.35,1.61-1.92,2.51-1.92
		c0.27,0,0.4,0,0.61,0.04v2.72c-0.21-0.04-0.46-0.08-0.78-0.08c-1.06,0-1.79,0.57-1.98,1.46c-0.04,0.19-0.06,0.42-0.06,0.65v4.71
		h-2.89V233.67z"/>
	<path class="st0" d="M99.23,226.42v10.71c0,1.04,0.04,2.15,0.08,2.77h-2.56l-0.13-1.37h-0.04c-0.59,1.04-1.71,1.58-2.91,1.58
		c-2.2,0-3.97-1.88-3.97-4.77c-0.02-3.13,1.94-4.94,4.16-4.94c1.14,0,2.03,0.4,2.45,1.04h0.04v-5.03H99.23z M96.34,234.55
		c0-0.15-0.02-0.36-0.04-0.51c-0.17-0.78-0.8-1.42-1.69-1.42c-1.31,0-2,1.18-2,2.64c0,1.58,0.78,2.56,1.98,2.56
		c0.84,0,1.5-0.57,1.67-1.39c0.06-0.21,0.08-0.42,0.08-0.67V234.55z"/>
	<path class="st0" d="M101.53,237.38c0.53,0.32,1.63,0.7,2.49,0.7c0.87,0,1.23-0.3,1.23-0.78c0-0.48-0.29-0.7-1.37-1.06
		c-1.92-0.65-2.66-1.69-2.64-2.79c0-1.73,1.48-3.04,3.78-3.04c1.08,0,2.05,0.25,2.62,0.53l-0.51,1.99
		c-0.42-0.23-1.22-0.53-2.01-0.53c-0.7,0-1.1,0.29-1.1,0.76c0,0.44,0.36,0.67,1.5,1.06c1.77,0.61,2.51,1.5,2.53,2.87
		c0,1.73-1.37,3-4.03,3c-1.22,0-2.3-0.27-3-0.65L101.53,237.38z"/>
	<path class="st0" d="M123.13,239.54c-0.53,0.27-1.73,0.55-3.29,0.55c-4.43,0-6.71-2.75-6.71-6.4c0-4.37,3.12-6.8,6.99-6.8
		c1.5,0,2.64,0.3,3.15,0.57l-0.59,2.3c-0.59-0.25-1.41-0.48-2.43-0.48c-2.3,0-4.08,1.39-4.08,4.24c0,2.56,1.52,4.18,4.1,4.18
		c0.87,0,1.84-0.19,2.41-0.42L123.13,239.54z"/>
	<path class="st0" d="M128.2,236.62l-0.91,3.29h-3l3.91-12.8h3.8l3.97,12.8h-3.12l-0.99-3.29H128.2z M131.45,234.45l-0.8-2.72
		c-0.23-0.76-0.46-1.71-0.65-2.47h-0.04c-0.19,0.76-0.38,1.73-0.59,2.47l-0.76,2.72H131.45z"/>
	<path class="st0" d="M137.68,239.9v-12.8h3.38l2.66,4.69c0.76,1.35,1.52,2.94,2.09,4.39h0.06c-0.19-1.69-0.25-3.42-0.25-5.34v-3.74
		h2.66v12.8h-3.04l-2.74-4.94c-0.76-1.37-1.6-3.02-2.22-4.52l-0.06,0.02c0.08,1.69,0.11,3.5,0.11,5.58v3.86H137.68z"/>
	<path class="st0" d="M150.79,239.9v-12.8h3.38l2.66,4.69c0.76,1.35,1.52,2.94,2.09,4.39h0.06c-0.19-1.69-0.25-3.42-0.25-5.34v-3.74
		h2.66v12.8h-3.04l-2.74-4.94c-0.76-1.37-1.6-3.02-2.22-4.52l-0.06,0.02c0.08,1.69,0.11,3.5,0.11,5.58v3.86H150.79z"/>
	<path class="st0" d="M175.62,233.37c0,4.2-2.55,6.74-6.29,6.74c-3.8,0-6.02-2.87-6.02-6.52c0-3.84,2.45-6.71,6.23-6.71
		C173.48,226.89,175.62,229.83,175.62,233.37z M166.37,233.54c0,2.51,1.18,4.27,3.12,4.27c1.96,0,3.08-1.86,3.08-4.35
		c0-2.3-1.1-4.27-3.1-4.27C167.51,229.19,166.37,231.05,166.37,233.54z"/>
	<path class="st0" d="M179.46,229.53h-3.44v-2.43h9.84v2.43h-3.5v10.37h-2.91V229.53z"/>
	<path class="st0" d="M191.07,239.9c0.04-0.61,0.08-1.73,0.08-2.77v-10.71h2.89v5.3h0.04c0.55-0.8,1.52-1.31,2.81-1.31
		c2.22,0,3.86,1.84,3.84,4.69c0,3.34-2.13,5.02-4.26,5.02c-1.08,0-2.13-0.4-2.79-1.5h-0.04l-0.11,1.29H191.07z M194.04,235.95
		c0,0.19,0.02,0.36,0.06,0.51c0.19,0.78,0.85,1.37,1.69,1.37c1.23,0,2-0.95,2-2.62c0-1.44-0.65-2.58-2-2.58
		c-0.78,0-1.5,0.59-1.69,1.42c-0.04,0.17-0.06,0.34-0.06,0.53V235.95z"/>
	<path class="st0" d="M204.79,236.18c0.09,1.2,1.27,1.77,2.62,1.77c0.99,0,1.79-0.13,2.56-0.38l0.38,1.96
		c-0.95,0.38-2.11,0.57-3.36,0.57c-3.15,0-4.96-1.82-4.96-4.73c0-2.36,1.46-4.96,4.69-4.96c3,0,4.14,2.34,4.14,4.64
		c0,0.49-0.06,0.93-0.1,1.14H204.79z M208.19,234.2c0-0.7-0.3-1.88-1.63-1.88c-1.22,0-1.71,1.1-1.79,1.88H208.19z"/>
	<path class="st0" d="M225.2,236.92c0,1.22,0.04,2.2,0.08,2.98h-2.51l-0.13-1.31h-0.06c-0.36,0.57-1.23,1.52-2.91,1.52
		c-1.88,0-3.27-1.18-3.27-4.05v-5.45h2.91v5c0,1.35,0.44,2.17,1.44,2.17c0.8,0,1.25-0.55,1.44-1.01c0.08-0.17,0.09-0.4,0.09-0.63
		v-5.53h2.91V236.92z"/>
	<path class="st0" d="M227.5,237.38c0.53,0.32,1.63,0.7,2.49,0.7c0.87,0,1.23-0.3,1.23-0.78c0-0.48-0.29-0.7-1.37-1.06
		c-1.92-0.65-2.66-1.69-2.64-2.79c0-1.73,1.48-3.04,3.78-3.04c1.08,0,2.05,0.25,2.62,0.53l-0.51,1.99
		c-0.42-0.23-1.22-0.53-2.01-0.53c-0.7,0-1.1,0.29-1.1,0.76c0,0.44,0.36,0.67,1.5,1.06c1.77,0.61,2.51,1.5,2.53,2.87
		c0,1.73-1.37,3-4.03,3c-1.22,0-2.3-0.27-3-0.65L227.5,237.38z"/>
	<path class="st0" d="M237.98,236.18c0.09,1.2,1.27,1.77,2.62,1.77c0.99,0,1.79-0.13,2.56-0.38l0.38,1.96
		c-0.95,0.38-2.11,0.57-3.36,0.57c-3.15,0-4.96-1.82-4.96-4.73c0-2.36,1.46-4.96,4.69-4.96c3,0,4.14,2.34,4.14,4.64
		c0,0.49-0.06,0.93-0.1,1.14H237.98z M241.38,234.2c0-0.7-0.3-1.88-1.63-1.88c-1.22,0-1.71,1.1-1.79,1.88H241.38z"/>
	<path class="st0" d="M254.8,226.42v10.71c0,1.04,0.04,2.15,0.08,2.77h-2.56l-0.13-1.37h-0.04c-0.59,1.04-1.71,1.58-2.91,1.58
		c-2.2,0-3.97-1.88-3.97-4.77c-0.02-3.13,1.94-4.94,4.16-4.94c1.14,0,2.03,0.4,2.45,1.04h0.04v-5.03H254.8z M251.91,234.55
		c0-0.15-0.02-0.36-0.04-0.51c-0.17-0.78-0.8-1.42-1.69-1.42c-1.31,0-1.99,1.18-1.99,2.64c0,1.58,0.78,2.56,1.98,2.56
		c0.84,0,1.5-0.57,1.67-1.39c0.06-0.21,0.08-0.42,0.08-0.67V234.55z"/>
	<path class="st0" d="M262.78,229.53h-3.44v-2.43h9.84v2.43h-3.5v10.37h-2.91V229.53z"/>
	<path class="st0" d="M281.89,233.37c0,4.2-2.54,6.74-6.29,6.74c-3.8,0-6.02-2.87-6.02-6.52c0-3.84,2.45-6.71,6.23-6.71
		C279.74,226.89,281.89,229.83,281.89,233.37z M272.64,233.54c0,2.51,1.18,4.27,3.12,4.27c1.96,0,3.08-1.86,3.08-4.35
		c0-2.3-1.1-4.27-3.1-4.27C273.78,229.19,272.64,231.05,272.64,233.54z"/>
	<path class="st0" d="M283.79,227.27c1.06-0.17,2.45-0.27,3.91-0.27c2.43,0,4.01,0.44,5.24,1.37c1.33,0.99,2.17,2.56,2.17,4.83
		c0,2.45-0.89,4.14-2.13,5.19c-1.35,1.12-3.4,1.65-5.91,1.65c-1.5,0-2.56-0.09-3.29-0.19V227.27z M286.7,237.72
		c0.25,0.06,0.65,0.06,1.01,0.06c2.62,0.02,4.33-1.42,4.33-4.48c0.02-2.66-1.54-4.07-4.03-4.07c-0.65,0-1.06,0.06-1.31,0.11V237.72z
		"/>
	<path class="st0" d="M299.69,236.62l-0.91,3.29h-3l3.91-12.8h3.8l3.97,12.8h-3.12l-0.99-3.29H299.69z M302.94,234.45l-0.8-2.72
		c-0.23-0.76-0.46-1.71-0.65-2.47h-0.04c-0.19,0.76-0.38,1.73-0.59,2.47l-0.76,2.72H302.94z"/>
	<path class="st0" d="M310.33,239.9v-5.24l-4.05-7.56h3.31l1.31,3.08c0.4,0.93,0.67,1.61,0.99,2.45h0.04
		c0.28-0.8,0.59-1.54,0.97-2.45l1.29-3.08h3.25l-4.22,7.47v5.34H310.33z"/>
	<path class="st0" d="M23.57,262.7v-7.16h-1.22v-2.13h1.22v-0.36c0-1.12,0.34-2.36,1.18-3.12c0.72-0.68,1.73-0.93,2.56-0.93
		c0.65,0,1.14,0.08,1.54,0.19l-0.11,2.22c-0.25-0.08-0.55-0.13-0.93-0.13c-0.95,0-1.35,0.74-1.35,1.65v0.48h1.86v2.13h-1.84v7.16
		H23.57z"/>
	<path class="st0" d="M38.71,257.95c0,3.4-2.41,4.96-4.9,4.96c-2.72,0-4.81-1.79-4.81-4.79s1.98-4.92,4.96-4.92
		C36.81,253.21,38.71,255.16,38.71,257.95z M31.99,258.05c0,1.6,0.67,2.79,1.9,2.79c1.12,0,1.84-1.12,1.84-2.79
		c0-1.39-0.53-2.79-1.84-2.79C32.5,255.26,31.99,256.68,31.99,258.05z"/>
	<path class="st0" d="M40.5,256.47c0-1.37-0.04-2.26-0.08-3.06h2.49l0.1,1.71h0.08c0.47-1.35,1.61-1.92,2.51-1.92
		c0.27,0,0.4,0,0.61,0.04v2.72c-0.21-0.04-0.46-0.08-0.78-0.08c-1.06,0-1.79,0.57-1.98,1.46c-0.04,0.19-0.06,0.42-0.06,0.65v4.71
		H40.5V256.47z"/>
	<path class="st0" d="M54.54,250.83c0,0.8-0.61,1.44-1.56,1.44c-0.91,0-1.52-0.65-1.5-1.44c-0.02-0.84,0.59-1.46,1.52-1.46
		C53.93,249.37,54.52,249.99,54.54,250.83z M51.56,262.7v-9.29h2.89v9.29H51.56z"/>
	<path class="st0" d="M56.76,256.38c0-1.16-0.04-2.15-0.08-2.96h2.51l0.13,1.27h0.06c0.38-0.59,1.33-1.48,2.87-1.48
		c1.9,0,3.32,1.25,3.32,3.99v5.51h-2.89v-5.15c0-1.2-0.42-2.01-1.46-2.01c-0.8,0-1.27,0.55-1.46,1.08
		c-0.08,0.17-0.11,0.46-0.11,0.72v5.36h-2.89V256.38z"/>
	<path class="st0" d="M72.29,256.76v1.92h-4.98v-1.92H72.29z"/>
	<path class="st0" d="M74,260.18c0.53,0.32,1.63,0.7,2.49,0.7c0.87,0,1.23-0.3,1.23-0.78c0-0.48-0.29-0.7-1.37-1.06
		c-1.92-0.65-2.66-1.69-2.64-2.79c0-1.73,1.48-3.04,3.78-3.04c1.08,0,2.05,0.25,2.62,0.53l-0.51,1.99
		c-0.42-0.23-1.22-0.53-2.01-0.53c-0.7,0-1.1,0.29-1.1,0.76c0,0.44,0.36,0.67,1.5,1.06c1.77,0.61,2.51,1.5,2.53,2.87
		c0,1.73-1.37,3-4.03,3c-1.22,0-2.3-0.27-3-0.65L74,260.18z"/>
	<path class="st0" d="M85.49,250.75v2.66h2.07v2.13h-2.07v3.36c0,1.12,0.27,1.63,1.14,1.63c0.36,0,0.65-0.04,0.85-0.08l0.02,2.19
		c-0.38,0.15-1.06,0.25-1.88,0.25c-0.93,0-1.71-0.32-2.17-0.8c-0.53-0.55-0.8-1.44-0.8-2.75v-3.8h-1.23v-2.13h1.23v-2.01
		L85.49,250.75z"/>
	<path class="st0" d="M98.31,257.95c0,3.4-2.41,4.96-4.9,4.96c-2.72,0-4.81-1.79-4.81-4.79s1.98-4.92,4.96-4.92
		C96.42,253.21,98.31,255.16,98.31,257.95z M91.59,258.05c0,1.6,0.67,2.79,1.9,2.79c1.12,0,1.84-1.12,1.84-2.79
		c0-1.39-0.53-2.79-1.84-2.79C92.1,255.26,91.59,256.68,91.59,258.05z"/>
	<path class="st0" d="M100.1,256.47c0-1.37-0.04-2.26-0.08-3.06h2.49l0.1,1.71h0.08c0.47-1.35,1.61-1.92,2.51-1.92
		c0.27,0,0.4,0,0.61,0.04v2.72c-0.21-0.04-0.46-0.08-0.78-0.08c-1.06,0-1.79,0.57-1.98,1.46c-0.04,0.19-0.06,0.42-0.06,0.65v4.71
		h-2.89V256.47z"/>
	<path class="st0" d="M109.39,258.98c0.1,1.2,1.27,1.77,2.62,1.77c0.99,0,1.79-0.13,2.56-0.38l0.38,1.96
		c-0.95,0.38-2.11,0.57-3.36,0.57c-3.15,0-4.96-1.82-4.96-4.73c0-2.36,1.46-4.96,4.69-4.96c3,0,4.14,2.34,4.14,4.63
		c0,0.49-0.06,0.93-0.09,1.14H109.39z M112.79,257c0-0.7-0.3-1.88-1.63-1.88c-1.22,0-1.71,1.1-1.79,1.88H112.79z"/>
	<path class="st0" d="M121.04,256.53c0-1.22-0.04-2.26-0.08-3.12h2.51l0.13,1.29h0.04c0.68-0.99,1.75-1.5,3.1-1.5
		c2.03,0,3.86,1.77,3.86,4.73c0,3.38-2.15,4.98-4.22,4.98c-1.12,0-1.99-0.46-2.41-1.06h-0.04v4.62h-2.89V256.53z M123.93,258.71
		c0,0.23,0.02,0.44,0.06,0.61c0.19,0.78,0.85,1.37,1.69,1.37c1.25,0,2-1.04,2-2.62c0-1.48-0.67-2.6-1.96-2.6
		c-0.82,0-1.54,0.61-1.73,1.46c-0.04,0.15-0.06,0.34-0.06,0.51V258.71z"/>
	<path class="st0" d="M135.38,250.83c0,0.8-0.61,1.44-1.56,1.44c-0.91,0-1.52-0.65-1.5-1.44c-0.02-0.84,0.59-1.46,1.52-1.46
		C134.78,249.37,135.37,249.99,135.38,250.83z M132.4,262.7v-9.29h2.89v9.29H132.4z"/>
	<path class="st0" d="M144.58,262.47c-0.51,0.23-1.48,0.42-2.58,0.42c-3,0-4.92-1.82-4.92-4.75c0-2.72,1.86-4.94,5.32-4.94
		c0.76,0,1.6,0.13,2.2,0.36l-0.46,2.15c-0.34-0.15-0.85-0.28-1.61-0.28c-1.52,0-2.51,1.08-2.49,2.6c0,1.71,1.14,2.6,2.55,2.6
		c0.68,0,1.22-0.11,1.65-0.29L144.58,262.47z"/>
	<path class="st0" d="M149.06,257.33h0.04c0.21-0.38,0.44-0.76,0.67-1.12l1.88-2.79h3.48l-3.32,3.76l3.8,5.53h-3.55l-2.24-3.82
		l-0.74,0.91v2.91h-2.89v-13.49h2.89V257.33z"/>
	<path class="st0" d="M165.23,259.72c0,1.22,0.04,2.2,0.08,2.98h-2.51l-0.13-1.31h-0.06c-0.36,0.57-1.23,1.52-2.91,1.52
		c-1.88,0-3.27-1.18-3.27-4.05v-5.45h2.91v5c0,1.35,0.44,2.17,1.44,2.17c0.8,0,1.25-0.55,1.44-1.01c0.08-0.17,0.09-0.4,0.09-0.63
		v-5.53h2.91V259.72z"/>
	<path class="st0" d="M167.55,256.53c0-1.22-0.04-2.26-0.08-3.12h2.51l0.13,1.29h0.04c0.68-0.99,1.75-1.5,3.1-1.5
		c2.03,0,3.86,1.77,3.86,4.73c0,3.38-2.15,4.98-4.22,4.98c-1.12,0-1.99-0.46-2.41-1.06h-0.04v4.62h-2.89V256.53z M170.44,258.71
		c0,0.23,0.02,0.44,0.06,0.61c0.19,0.78,0.85,1.37,1.69,1.37c1.25,0,2-1.04,2-2.62c0-1.48-0.67-2.6-1.96-2.6
		c-0.82,0-1.54,0.61-1.73,1.46c-0.04,0.15-0.06,0.34-0.06,0.51V258.71z"/>
	<path class="st0" d="M182.75,256.53c0-1.22-0.04-2.26-0.08-3.12h2.51l0.13,1.29h0.04c0.68-0.99,1.75-1.5,3.1-1.5
		c2.03,0,3.86,1.77,3.86,4.73c0,3.38-2.15,4.98-4.22,4.98c-1.12,0-1.99-0.46-2.41-1.06h-0.04v4.62h-2.89V256.53z M185.64,258.71
		c0,0.23,0.02,0.44,0.06,0.61c0.19,0.78,0.85,1.37,1.69,1.37c1.25,0,2-1.04,2-2.62c0-1.48-0.67-2.6-1.96-2.6
		c-0.82,0-1.54,0.61-1.73,1.46c-0.04,0.15-0.06,0.34-0.06,0.51V258.71z"/>
	<path class="st0" d="M202.87,259.72c0,1.22,0.04,2.2,0.08,2.98h-2.51l-0.13-1.31h-0.06c-0.36,0.57-1.23,1.52-2.91,1.52
		c-1.88,0-3.27-1.18-3.27-4.05v-5.45h2.91v5c0,1.35,0.44,2.17,1.44,2.17c0.8,0,1.25-0.55,1.44-1.01c0.08-0.17,0.09-0.4,0.09-0.63
		v-5.53h2.91V259.72z"/>
	<path class="st0" d="M205.19,256.47c0-1.37-0.04-2.26-0.08-3.06h2.49l0.09,1.71h0.08c0.48-1.35,1.62-1.92,2.51-1.92
		c0.27,0,0.4,0,0.61,0.04v2.72c-0.21-0.04-0.46-0.08-0.78-0.08c-1.06,0-1.79,0.57-1.98,1.46c-0.04,0.19-0.06,0.42-0.06,0.65v4.71
		h-2.89V256.47z"/>
	<path class="st0" d="M219.23,262.47c-0.51,0.23-1.48,0.42-2.58,0.42c-3,0-4.92-1.82-4.92-4.75c0-2.72,1.86-4.94,5.32-4.94
		c0.76,0,1.6,0.13,2.2,0.36l-0.46,2.15c-0.34-0.15-0.86-0.28-1.62-0.28c-1.52,0-2.51,1.08-2.49,2.6c0,1.71,1.14,2.6,2.54,2.6
		c0.68,0,1.22-0.11,1.65-0.29L219.23,262.47z"/>
	<path class="st0" d="M220.83,249.22h2.89v5.3h0.04c0.3-0.4,0.68-0.7,1.14-0.95c0.42-0.23,0.97-0.36,1.5-0.36
		c1.84,0,3.25,1.27,3.25,4.06v5.43h-2.89v-5.11c0-1.22-0.42-2.05-1.5-2.05c-0.76,0-1.23,0.49-1.44,1.01
		c-0.08,0.19-0.09,0.44-0.09,0.65v5.51h-2.89V249.22z"/>
	<path class="st0" d="M237.24,262.7l-0.17-0.93h-0.06c-0.61,0.74-1.56,1.14-2.66,1.14c-1.88,0-3-1.37-3-2.85
		c0-2.41,2.17-3.57,5.45-3.55v-0.13c0-0.49-0.27-1.2-1.69-1.2c-0.95,0-1.96,0.32-2.56,0.7l-0.53-1.86c0.65-0.36,1.92-0.82,3.61-0.82
		c3.1,0,4.08,1.82,4.08,4.01v3.23c0,0.89,0.04,1.75,0.13,2.26H237.24z M236.9,258.31c-1.52-0.02-2.7,0.34-2.7,1.46
		c0,0.74,0.49,1.1,1.14,1.1c0.72,0,1.31-0.47,1.5-1.06c0.04-0.15,0.06-0.32,0.06-0.49V258.31z"/>
	<path class="st0" d="M241.97,260.18c0.53,0.32,1.63,0.7,2.49,0.7c0.87,0,1.23-0.3,1.23-0.78c0-0.48-0.29-0.7-1.37-1.06
		c-1.92-0.65-2.66-1.69-2.64-2.79c0-1.73,1.48-3.04,3.78-3.04c1.08,0,2.05,0.25,2.62,0.53l-0.51,1.99
		c-0.42-0.23-1.22-0.53-2.01-0.53c-0.7,0-1.1,0.29-1.1,0.76c0,0.44,0.36,0.67,1.5,1.06c1.77,0.61,2.51,1.5,2.53,2.87
		c0,1.73-1.37,3-4.03,3c-1.22,0-2.3-0.27-3-0.65L241.97,260.18z"/>
	<path class="st0" d="M252.46,258.98c0.09,1.2,1.27,1.77,2.62,1.77c0.99,0,1.79-0.13,2.56-0.38l0.38,1.96
		c-0.95,0.38-2.11,0.57-3.36,0.57c-3.15,0-4.96-1.82-4.96-4.73c0-2.36,1.46-4.96,4.69-4.96c3,0,4.14,2.34,4.14,4.63
		c0,0.49-0.06,0.93-0.1,1.14H252.46z M255.86,257c0-0.7-0.3-1.88-1.63-1.88c-1.22,0-1.71,1.1-1.79,1.88H255.86z"/>
	<path class="st0" d="M260.25,260.18c0.53,0.32,1.63,0.7,2.49,0.7c0.87,0,1.23-0.3,1.23-0.78c0-0.48-0.29-0.7-1.37-1.06
		c-1.92-0.65-2.66-1.69-2.64-2.79c0-1.73,1.48-3.04,3.78-3.04c1.08,0,2.05,0.25,2.62,0.53l-0.51,1.99
		c-0.42-0.23-1.22-0.53-2.01-0.53c-0.7,0-1.1,0.29-1.1,0.76c0,0.44,0.36,0.67,1.5,1.06c1.77,0.61,2.51,1.5,2.53,2.87
		c0,1.73-1.37,3-4.03,3c-1.22,0-2.3-0.27-3-0.65L260.25,260.18z"/>
	<path class="st0" d="M284.17,256.17c0,4.2-2.54,6.74-6.29,6.74c-3.8,0-6.02-2.87-6.02-6.52c0-3.84,2.45-6.71,6.23-6.71
		C282.02,249.69,284.17,252.63,284.17,256.17z M274.92,256.34c0,2.51,1.18,4.27,3.12,4.27c1.96,0,3.08-1.86,3.08-4.35
		c0-2.3-1.1-4.28-3.1-4.28C276.06,251.99,274.92,253.85,274.92,256.34z"/>
	<path class="st0" d="M286.07,250.07c0.93-0.15,2.32-0.27,3.86-0.27c1.9,0,3.23,0.28,4.14,1.01c0.76,0.61,1.18,1.5,1.18,2.68
		c0,1.63-1.16,2.75-2.26,3.15v0.06c0.89,0.36,1.39,1.22,1.71,2.39c0.4,1.44,0.8,3.12,1.04,3.61h-2.96
		c-0.21-0.36-0.51-1.41-0.89-2.98c-0.34-1.6-0.89-2.03-2.07-2.05h-0.87v5.03h-2.87V250.07z M288.94,255.58h1.14
		c1.44,0,2.3-0.72,2.3-1.84c0-1.18-0.8-1.77-2.13-1.79c-0.7,0-1.1,0.06-1.31,0.09V255.58z"/>
	<path class="st0" d="M301.08,256.53c0-1.22-0.04-2.26-0.08-3.12h2.51l0.13,1.29h0.04c0.68-0.99,1.75-1.5,3.1-1.5
		c2.03,0,3.86,1.77,3.86,4.73c0,3.38-2.15,4.98-4.22,4.98c-1.12,0-2-0.46-2.41-1.06h-0.04v4.62h-2.89V256.53z M303.97,258.71
		c0,0.23,0.02,0.44,0.06,0.61c0.19,0.78,0.85,1.37,1.69,1.37c1.25,0,2-1.04,2-2.62c0-1.48-0.67-2.6-1.96-2.6
		c-0.82,0-1.54,0.61-1.73,1.46c-0.04,0.15-0.06,0.34-0.06,0.51V258.71z"/>
	<path class="st0" d="M321.2,259.72c0,1.22,0.04,2.2,0.08,2.98h-2.51l-0.13-1.31h-0.06c-0.36,0.57-1.23,1.52-2.91,1.52
		c-1.88,0-3.27-1.18-3.27-4.05v-5.45h2.91v5c0,1.35,0.44,2.17,1.44,2.17c0.8,0,1.25-0.55,1.44-1.01c0.08-0.17,0.09-0.4,0.09-0.63
		v-5.53h2.91V259.72z"/>
	<path class="st0" d="M323.52,256.47c0-1.37-0.04-2.26-0.08-3.06h2.49l0.09,1.71h0.08c0.48-1.35,1.62-1.92,2.51-1.92
		c0.27,0,0.4,0,0.61,0.04v2.72c-0.21-0.04-0.46-0.08-0.78-0.08c-1.06,0-1.79,0.57-1.98,1.46c-0.04,0.19-0.06,0.42-0.06,0.65v4.71
		h-2.89V256.47z"/>
	<path class="st0" d="M337.56,262.47c-0.51,0.23-1.48,0.42-2.58,0.42c-3,0-4.92-1.82-4.92-4.75c0-2.72,1.86-4.94,5.32-4.94
		c0.76,0,1.6,0.13,2.2,0.36l-0.46,2.15c-0.34-0.15-0.86-0.28-1.62-0.28c-1.52,0-2.51,1.08-2.49,2.6c0,1.71,1.14,2.6,2.54,2.6
		c0.68,0,1.22-0.11,1.65-0.29L337.56,262.47z"/>
	<path class="st0" d="M339.16,249.22h2.89v5.3h0.04c0.3-0.4,0.68-0.7,1.14-0.95c0.42-0.23,0.97-0.36,1.5-0.36
		c1.84,0,3.25,1.27,3.25,4.06v5.43h-2.89v-5.11c0-1.22-0.42-2.05-1.5-2.05c-0.76,0-1.23,0.49-1.44,1.01
		c-0.08,0.19-0.09,0.44-0.09,0.65v5.51h-2.89V249.22z"/>
	<path class="st0" d="M355.57,262.7l-0.17-0.93h-0.06c-0.61,0.74-1.56,1.14-2.66,1.14c-1.88,0-3-1.37-3-2.85
		c0-2.41,2.17-3.57,5.45-3.55v-0.13c0-0.49-0.27-1.2-1.69-1.2c-0.95,0-1.96,0.32-2.56,0.7l-0.53-1.86c0.65-0.36,1.92-0.82,3.61-0.82
		c3.1,0,4.08,1.82,4.08,4.01v3.23c0,0.89,0.04,1.75,0.13,2.26H355.57z M355.23,258.31c-1.52-0.02-2.7,0.34-2.7,1.46
		c0,0.74,0.49,1.1,1.14,1.1c0.72,0,1.31-0.47,1.5-1.06c0.04-0.15,0.06-0.32,0.06-0.49V258.31z"/>
	<path class="st0" d="M360.3,260.18c0.53,0.32,1.63,0.7,2.49,0.7c0.87,0,1.23-0.3,1.23-0.78c0-0.48-0.29-0.7-1.37-1.06
		c-1.92-0.65-2.66-1.69-2.64-2.79c0-1.73,1.48-3.04,3.78-3.04c1.08,0,2.05,0.25,2.62,0.53l-0.51,1.99
		c-0.42-0.23-1.22-0.53-2.01-0.53c-0.7,0-1.1,0.29-1.1,0.76c0,0.44,0.36,0.67,1.5,1.06c1.77,0.61,2.51,1.5,2.53,2.87
		c0,1.73-1.37,3-4.03,3c-1.22,0-2.3-0.27-3-0.65L360.3,260.18z"/>
	<path class="st0" d="M370.79,258.98c0.09,1.2,1.27,1.77,2.62,1.77c0.99,0,1.79-0.13,2.56-0.38l0.38,1.96
		c-0.95,0.38-2.11,0.57-3.36,0.57c-3.15,0-4.96-1.82-4.96-4.73c0-2.36,1.46-4.96,4.69-4.96c3,0,4.14,2.34,4.14,4.63
		c0,0.49-0.06,0.93-0.1,1.14H370.79z M374.19,257c0-0.7-0.3-1.88-1.63-1.88c-1.22,0-1.71,1.1-1.79,1.88H374.19z"/>
	<path class="st0" d="M378.58,260.18c0.53,0.32,1.63,0.7,2.49,0.7c0.87,0,1.23-0.3,1.23-0.78c0-0.48-0.29-0.7-1.37-1.06
		c-1.92-0.65-2.66-1.69-2.64-2.79c0-1.73,1.48-3.04,3.78-3.04c1.08,0,2.05,0.25,2.62,0.53l-0.51,1.99
		c-0.42-0.23-1.22-0.53-2.01-0.53c-0.7,0-1.1,0.29-1.1,0.76c0,0.44,0.36,0.67,1.5,1.06c1.77,0.61,2.51,1.5,2.53,2.87
		c0,1.73-1.37,3-4.03,3c-1.22,0-2.3-0.27-3-0.65L378.58,260.18z"/>
	<path class="st0" d="M23.25,279.18c0-1.16-0.04-2.15-0.08-2.96h2.43l0.13,1.25h0.06c0.4-0.59,1.22-1.46,2.81-1.46
		c1.2,0,2.15,0.61,2.55,1.58h0.04c0.34-0.47,0.76-0.85,1.2-1.12c0.51-0.3,1.08-0.46,1.77-0.46c1.79,0,3.13,1.25,3.13,4.03v5.47
		h-2.81v-5.05c0-1.35-0.44-2.13-1.37-2.13c-0.67,0-1.14,0.46-1.33,1.01c-0.08,0.21-0.11,0.51-0.11,0.74v5.43h-2.81v-5.21
		c0-1.18-0.42-1.98-1.33-1.98c-0.74,0-1.18,0.57-1.35,1.04c-0.1,0.23-0.11,0.49-0.11,0.72v5.41h-2.81V279.18z"/>
	<path class="st0" d="M44.87,285.5l-0.17-0.93h-0.06c-0.61,0.74-1.56,1.14-2.66,1.14c-1.88,0-3-1.37-3-2.85
		c0-2.41,2.17-3.57,5.45-3.55v-0.13c0-0.49-0.27-1.2-1.69-1.2c-0.95,0-1.96,0.32-2.56,0.7l-0.53-1.86c0.65-0.36,1.92-0.82,3.61-0.82
		c3.1,0,4.08,1.82,4.08,4.01v3.23c0,0.89,0.04,1.75,0.13,2.26H44.87z M44.53,281.11c-1.52-0.02-2.7,0.34-2.7,1.46
		c0,0.74,0.49,1.1,1.14,1.1c0.72,0,1.31-0.48,1.5-1.06c0.04-0.15,0.06-0.32,0.06-0.49V281.11z"/>
	<path class="st0" d="M58.62,272.01v10.71c0,1.04,0.04,2.15,0.08,2.77h-2.56L56,284.13h-0.04c-0.59,1.04-1.71,1.58-2.91,1.58
		c-2.2,0-3.97-1.88-3.97-4.77c-0.02-3.13,1.94-4.94,4.16-4.94c1.14,0,2.03,0.4,2.45,1.04h0.04v-5.03H58.62z M55.74,280.15
		c0-0.15-0.02-0.36-0.04-0.51c-0.17-0.78-0.8-1.42-1.69-1.42c-1.31,0-2,1.18-2,2.64c0,1.58,0.78,2.56,1.98,2.56
		c0.84,0,1.5-0.57,1.67-1.39c0.06-0.21,0.08-0.42,0.08-0.67V280.15z"/>
	<path class="st0" d="M63.17,281.78c0.1,1.2,1.27,1.77,2.62,1.77c0.99,0,1.79-0.13,2.56-0.38l0.38,1.96
		c-0.95,0.38-2.11,0.57-3.36,0.57c-3.15,0-4.96-1.82-4.96-4.73c0-2.36,1.46-4.96,4.69-4.96c3,0,4.14,2.34,4.14,4.64
		c0,0.49-0.06,0.93-0.09,1.14H63.17z M66.57,279.8c0-0.7-0.3-1.88-1.63-1.88c-1.22,0-1.71,1.1-1.79,1.88H66.57z"/>
	<path class="st0" d="M77.8,273.63c0,0.8-0.61,1.44-1.56,1.44c-0.91,0-1.52-0.65-1.5-1.44c-0.02-0.84,0.59-1.46,1.52-1.46
		C77.19,272.17,77.78,272.79,77.8,273.63z M74.81,285.5v-9.29h2.89v9.29H74.81z"/>
	<path class="st0" d="M80.02,279.18c0-1.16-0.04-2.15-0.08-2.96h2.51l0.13,1.27h0.06c0.38-0.59,1.33-1.48,2.87-1.48
		c1.9,0,3.32,1.25,3.32,3.99v5.51h-2.89v-5.15c0-1.2-0.42-2.01-1.46-2.01c-0.8,0-1.27,0.55-1.46,1.08
		c-0.08,0.17-0.11,0.46-0.11,0.72v5.36h-2.89V279.18z"/>
	<path class="st0" d="M100.27,285.5l-0.17-0.93h-0.06c-0.61,0.74-1.56,1.14-2.66,1.14c-1.88,0-3-1.37-3-2.85
		c0-2.41,2.17-3.57,5.45-3.55v-0.13c0-0.49-0.27-1.2-1.69-1.2c-0.95,0-1.96,0.32-2.56,0.7l-0.53-1.86c0.65-0.36,1.92-0.82,3.61-0.82
		c3.1,0,4.08,1.82,4.08,4.01v3.23c0,0.89,0.04,1.75,0.13,2.26H100.27z M99.93,281.11c-1.52-0.02-2.7,0.34-2.7,1.46
		c0,0.74,0.49,1.1,1.14,1.1c0.72,0,1.31-0.48,1.5-1.06c0.04-0.15,0.06-0.32,0.06-0.49V281.11z"/>
	<path class="st0" d="M108.96,272.87c0.89-0.15,2.15-0.27,3.91-0.27c1.79,0,3.06,0.34,3.91,1.03c0.82,0.65,1.37,1.71,1.37,2.96
		c0,1.25-0.42,2.32-1.18,3.04c-0.99,0.93-2.45,1.35-4.16,1.35c-0.38,0-0.72-0.02-0.99-0.06v4.58h-2.87V272.87z M111.83,278.68
		c0.25,0.06,0.55,0.08,0.97,0.08c1.54,0,2.49-0.78,2.49-2.09c0-1.18-0.82-1.88-2.26-1.88c-0.59,0-0.99,0.06-1.2,0.11V278.68z"/>
	<path class="st0" d="M116.96,283.96c0-1.03,0.7-1.77,1.71-1.77s1.69,0.72,1.69,1.77c0,1.01-0.68,1.75-1.71,1.75
		C117.66,285.71,116.96,284.97,116.96,283.96z"/>
	<path class="st0" d="M131.6,285.14c-0.53,0.27-1.73,0.55-3.29,0.55c-4.43,0-6.71-2.75-6.71-6.4c0-4.37,3.12-6.8,6.99-6.8
		c1.5,0,2.64,0.3,3.15,0.57l-0.59,2.3c-0.59-0.25-1.41-0.47-2.43-0.47c-2.3,0-4.08,1.39-4.08,4.24c0,2.56,1.52,4.18,4.1,4.18
		c0.87,0,1.84-0.19,2.41-0.42L131.6,285.14z"/>
	<path class="st0" d="M133.2,283.96c0-1.03,0.7-1.77,1.71-1.77s1.69,0.72,1.69,1.77c0,1.01-0.68,1.75-1.71,1.75
		C133.9,285.71,133.2,284.97,133.2,283.96z"/>
	<path class="st0" d="M142.28,272.87c0.93-0.15,2.32-0.27,3.86-0.27c1.9,0,3.23,0.29,4.14,1.01c0.76,0.61,1.18,1.5,1.18,2.68
		c0,1.63-1.16,2.75-2.26,3.15v0.06c0.89,0.36,1.39,1.22,1.71,2.39c0.4,1.44,0.8,3.12,1.04,3.61h-2.96
		c-0.21-0.36-0.51-1.41-0.89-2.98c-0.34-1.6-0.89-2.03-2.07-2.05h-0.87v5.03h-2.87V272.87z M145.15,278.38h1.14
		c1.44,0,2.3-0.72,2.3-1.84c0-1.18-0.8-1.77-2.13-1.79c-0.7,0-1.1,0.06-1.31,0.09V278.38z"/>
	<path class="st0" d="M156.63,273.63c0,0.8-0.61,1.44-1.56,1.44c-0.91,0-1.52-0.65-1.5-1.44c-0.02-0.84,0.59-1.46,1.52-1.46
		C156.02,272.17,156.61,272.79,156.63,273.63z M153.64,285.5v-9.29h2.89v9.29H153.64z"/>
	<path class="st0" d="M165.82,285.28c-0.51,0.23-1.48,0.42-2.58,0.42c-3,0-4.92-1.82-4.92-4.75c0-2.72,1.86-4.94,5.32-4.94
		c0.76,0,1.6,0.13,2.2,0.36l-0.46,2.15c-0.34-0.15-0.85-0.29-1.61-0.29c-1.52,0-2.51,1.08-2.49,2.6c0,1.71,1.14,2.6,2.55,2.6
		c0.68,0,1.22-0.11,1.65-0.29L165.82,285.28z"/>
	<path class="st0" d="M167.42,272.01h2.89v5.3h0.04c0.3-0.4,0.68-0.7,1.14-0.95c0.42-0.23,0.97-0.36,1.5-0.36
		c1.84,0,3.25,1.27,3.25,4.07v5.43h-2.89v-5.11c0-1.22-0.42-2.05-1.5-2.05c-0.76,0-1.23,0.49-1.44,1.01
		c-0.08,0.19-0.1,0.44-0.1,0.65v5.51h-2.89V272.01z"/>
	<path class="st0" d="M183.83,285.5l-0.17-0.93h-0.06c-0.61,0.74-1.56,1.14-2.66,1.14c-1.88,0-3-1.37-3-2.85
		c0-2.41,2.17-3.57,5.45-3.55v-0.13c0-0.49-0.27-1.2-1.69-1.2c-0.95,0-1.96,0.32-2.56,0.7l-0.53-1.86c0.65-0.36,1.92-0.82,3.61-0.82
		c3.1,0,4.08,1.82,4.08,4.01v3.23c0,0.89,0.04,1.75,0.13,2.26H183.83z M183.49,281.11c-1.52-0.02-2.7,0.34-2.7,1.46
		c0,0.74,0.49,1.1,1.14,1.1c0.72,0,1.31-0.48,1.5-1.06c0.04-0.15,0.06-0.32,0.06-0.49V281.11z"/>
	<path class="st0" d="M188.58,279.27c0-1.37-0.04-2.26-0.08-3.06H191l0.1,1.71h0.08c0.47-1.35,1.61-1.92,2.51-1.92
		c0.27,0,0.4,0,0.61,0.04v2.72c-0.21-0.04-0.46-0.08-0.78-0.08c-1.06,0-1.79,0.57-1.98,1.46c-0.04,0.19-0.06,0.42-0.06,0.65v4.71
		h-2.89V279.27z"/>
	<path class="st0" d="M204.66,272.01v10.71c0,1.04,0.04,2.15,0.08,2.77h-2.56l-0.13-1.37H202c-0.59,1.04-1.71,1.58-2.91,1.58
		c-2.2,0-3.97-1.88-3.97-4.77c-0.02-3.13,1.94-4.94,4.16-4.94c1.14,0,2.03,0.4,2.45,1.04h0.04v-5.03H204.66z M201.77,280.15
		c0-0.15-0.02-0.36-0.04-0.51c-0.17-0.78-0.8-1.42-1.69-1.42c-1.31,0-2,1.18-2,2.64c0,1.58,0.78,2.56,1.98,2.56
		c0.84,0,1.5-0.57,1.67-1.39c0.06-0.21,0.08-0.42,0.08-0.67V280.15z"/>
	<path class="st0" d="M219.06,285.5c-0.27-0.29-0.53-0.57-0.84-0.91c-0.84,0.65-1.99,1.12-3.51,1.12c-3.1,0-4.46-1.84-4.46-3.63
		c0-1.69,0.97-2.91,2.43-3.67v-0.08c-0.55-0.61-0.97-1.56-0.97-2.47c0-1.61,1.27-3.38,3.84-3.38c1.98,0,3.48,1.16,3.48,3
		c0,1.29-0.76,2.39-2.53,3.29l-0.02,0.08c0.74,0.82,1.52,1.75,2.15,2.39c0.51-0.8,0.91-1.98,1.08-3.12h2.58
		c-0.34,1.94-0.99,3.59-2.13,4.86c0.72,0.82,1.46,1.65,2.26,2.51H219.06z M216.87,282.98c-0.8-0.8-1.84-1.96-2.89-3.13
		c-0.53,0.38-1.01,0.93-1.01,1.77c0,1.08,0.82,2.01,2.13,2.01C215.87,283.62,216.49,283.34,216.87,282.98z M214.29,275.61
		c0,0.65,0.3,1.22,0.87,1.84c0.93-0.65,1.41-1.14,1.41-1.88c0-0.61-0.36-1.27-1.12-1.27C214.71,274.29,214.29,274.94,214.29,275.61z
		"/>
	<path class="st0" d="M227.72,282.52c0.78,0.4,1.98,0.8,3.21,0.8c1.33,0,2.03-0.55,2.03-1.39c0-0.8-0.61-1.25-2.15-1.8
		c-2.13-0.74-3.51-1.92-3.51-3.78c0-2.19,1.82-3.86,4.84-3.86c1.44,0,2.51,0.3,3.27,0.65l-0.65,2.34c-0.51-0.25-1.42-0.61-2.68-0.61
		s-1.86,0.57-1.86,1.24c0,0.82,0.72,1.18,2.38,1.8c2.26,0.84,3.32,2.01,3.32,3.82c0,2.15-1.65,3.97-5.17,3.97
		c-1.46,0-2.91-0.38-3.63-0.78L227.72,282.52z"/>
	<path class="st0" d="M247.1,280.75c0,3.4-2.41,4.96-4.9,4.96c-2.72,0-4.81-1.79-4.81-4.79c0-3,1.98-4.92,4.96-4.92
		C245.2,276,247.1,277.96,247.1,280.75z M240.38,280.85c0,1.6,0.67,2.79,1.9,2.79c1.12,0,1.84-1.12,1.84-2.79
		c0-1.39-0.53-2.79-1.84-2.79C240.89,278.06,240.38,279.48,240.38,280.85z"/>
	<path class="st0" d="M248.89,279.18c0-1.16-0.04-2.15-0.08-2.96h2.51l0.13,1.27h0.06c0.38-0.59,1.33-1.48,2.87-1.48
		c1.9,0,3.32,1.25,3.32,3.99v5.51h-2.89v-5.15c0-1.2-0.42-2.01-1.46-2.01c-0.8,0-1.27,0.55-1.46,1.08
		c-0.08,0.17-0.11,0.46-0.11,0.72v5.36h-2.89V279.18z"/>
	<path class="st0" d="M263.84,282.98c0.53,0.32,1.63,0.7,2.49,0.7c0.87,0,1.23-0.3,1.23-0.78s-0.29-0.7-1.37-1.06
		c-1.92-0.65-2.66-1.69-2.64-2.79c0-1.73,1.48-3.04,3.78-3.04c1.08,0,2.05,0.25,2.62,0.53l-0.51,2c-0.42-0.23-1.22-0.53-2.01-0.53
		c-0.7,0-1.1,0.29-1.1,0.76c0,0.44,0.36,0.67,1.5,1.06c1.77,0.61,2.51,1.5,2.53,2.87c0,1.73-1.37,3-4.03,3c-1.22,0-2.3-0.27-3-0.65
		L263.84,282.98z"/>
	<path class="st0" d="M275.34,273.55v2.66h2.07v2.13h-2.07v3.36c0,1.12,0.27,1.63,1.14,1.63c0.36,0,0.65-0.04,0.85-0.08l0.02,2.18
		c-0.38,0.15-1.06,0.25-1.88,0.25c-0.93,0-1.71-0.32-2.17-0.8c-0.53-0.55-0.8-1.44-0.8-2.75v-3.8h-1.23v-2.13h1.23v-2.01
		L275.34,273.55z"/>
	<path class="st0" d="M288.16,280.75c0,3.4-2.41,4.96-4.9,4.96c-2.72,0-4.81-1.79-4.81-4.79c0-3,1.98-4.92,4.96-4.92
		C286.26,276,288.16,277.96,288.16,280.75z M281.44,280.85c0,1.6,0.67,2.79,1.9,2.79c1.12,0,1.84-1.12,1.84-2.79
		c0-1.39-0.53-2.79-1.84-2.79C281.95,278.06,281.44,279.48,281.44,280.85z"/>
	<path class="st0" d="M289.95,279.27c0-1.37-0.04-2.26-0.08-3.06h2.49l0.09,1.71h0.08c0.48-1.35,1.62-1.92,2.51-1.92
		c0.27,0,0.4,0,0.61,0.04v2.72c-0.21-0.04-0.46-0.08-0.78-0.08c-1.06,0-1.79,0.57-1.98,1.46c-0.04,0.19-0.06,0.42-0.06,0.65v4.71
		h-2.89V279.27z"/>
	<path class="st0" d="M299.24,281.78c0.09,1.2,1.27,1.77,2.62,1.77c0.99,0,1.79-0.13,2.56-0.38l0.38,1.96
		c-0.95,0.38-2.11,0.57-3.36,0.57c-3.15,0-4.96-1.82-4.96-4.73c0-2.36,1.46-4.96,4.69-4.96c3,0,4.14,2.34,4.14,4.64
		c0,0.49-0.06,0.93-0.1,1.14H299.24z M302.64,279.8c0-0.7-0.3-1.88-1.63-1.88c-1.22,0-1.71,1.1-1.79,1.88H302.64z"/>
	<path class="st0" d="M306.54,283.96c0-1.03,0.7-1.77,1.71-1.77s1.69,0.72,1.69,1.77c0,1.01-0.68,1.75-1.71,1.75
		C307.24,285.71,306.54,284.97,306.54,283.96z"/>
	<path class="st0" d="M314.74,285.5v-5.24l-4.05-7.56H314l1.31,3.08c0.4,0.93,0.67,1.62,0.99,2.45h0.04
		c0.28-0.8,0.59-1.54,0.97-2.45l1.29-3.08h3.25l-4.22,7.47v5.34H314.74z"/>
	<path class="st0" d="M330.24,280.75c0,3.4-2.41,4.96-4.9,4.96c-2.72,0-4.81-1.79-4.81-4.79c0-3,1.98-4.92,4.96-4.92
		C328.34,276,330.24,277.96,330.24,280.75z M323.52,280.85c0,1.6,0.67,2.79,1.9,2.79c1.12,0,1.84-1.12,1.84-2.79
		c0-1.39-0.53-2.79-1.84-2.79C324.03,278.06,323.52,279.48,323.52,280.85z"/>
	<path class="st0" d="M340.79,282.52c0,1.22,0.04,2.2,0.08,2.98h-2.51l-0.13-1.31h-0.06c-0.36,0.57-1.23,1.52-2.91,1.52
		c-1.88,0-3.27-1.18-3.27-4.05v-5.45h2.91v5c0,1.35,0.44,2.17,1.44,2.17c0.8,0,1.25-0.55,1.44-1.01c0.08-0.17,0.09-0.4,0.09-0.63
		v-5.53h2.91V282.52z"/>
	<path class="st0" d="M343.11,279.27c0-1.37-0.04-2.26-0.08-3.06h2.49l0.09,1.71h0.08c0.48-1.35,1.62-1.92,2.51-1.92
		c0.27,0,0.4,0,0.61,0.04v2.72c-0.21-0.04-0.46-0.08-0.78-0.08c-1.06,0-1.79,0.57-1.98,1.46c-0.04,0.19-0.06,0.42-0.06,0.65v4.71
		h-2.89V279.27z"/>
	<path class="st0" d="M354.49,285.5v-7.16h-1.22v-2.13h1.22v-0.4c0-2.56,2-4.01,4.86-4.01c0.99,0,2.17,0.23,2.74,0.57l-0.55,2.18
		c-0.46-0.25-1.2-0.47-2.11-0.47c-1.52,0-2.05,0.78-2.05,1.8v0.32h5.64v9.29h-2.89v-7.16h-2.74v7.16H354.49z"/>
	<path class="st0" d="M365.34,279.27c0-1.37-0.04-2.26-0.08-3.06h2.49l0.09,1.71h0.08c0.48-1.35,1.62-1.92,2.51-1.92
		c0.27,0,0.4,0,0.61,0.04v2.72c-0.21-0.04-0.46-0.08-0.78-0.08c-1.06,0-1.79,0.57-1.98,1.46c-0.04,0.19-0.06,0.42-0.06,0.65v4.71
		h-2.89V279.27z"/>
	<path class="st0" d="M372.54,282.98c0.53,0.32,1.63,0.7,2.49,0.7c0.87,0,1.23-0.3,1.23-0.78s-0.29-0.7-1.37-1.06
		c-1.92-0.65-2.66-1.69-2.64-2.79c0-1.73,1.48-3.04,3.78-3.04c1.08,0,2.05,0.25,2.62,0.53l-0.51,2c-0.42-0.23-1.22-0.53-2.01-0.53
		c-0.7,0-1.1,0.29-1.1,0.76c0,0.44,0.36,0.67,1.5,1.06c1.77,0.61,2.51,1.5,2.53,2.87c0,1.73-1.37,3-4.03,3c-1.22,0-2.3-0.27-3-0.65
		L372.54,282.98z"/>
	<path class="st0" d="M384.03,273.55v2.66h2.07v2.13h-2.07v3.36c0,1.12,0.27,1.63,1.14,1.63c0.36,0,0.65-0.04,0.85-0.08l0.02,2.18
		c-0.38,0.15-1.06,0.25-1.88,0.25c-0.93,0-1.71-0.32-2.17-0.8c-0.53-0.55-0.8-1.44-0.8-2.75v-3.8h-1.23v-2.13h1.23v-2.01
		L384.03,273.55z"/>
	<path class="st0" d="M32.42,303.55c0,3.4-2.41,4.96-4.9,4.96c-2.72,0-4.81-1.79-4.81-4.79c0-3,1.98-4.92,4.96-4.92
		C30.52,298.8,32.42,300.76,32.42,303.55z M25.7,303.65c0,1.6,0.67,2.79,1.9,2.79c1.12,0,1.84-1.12,1.84-2.79
		c0-1.39-0.53-2.79-1.84-2.79C26.21,300.86,25.7,302.28,25.7,303.65z"/>
	<path class="st0" d="M34.21,302.07c0-1.37-0.04-2.26-0.08-3.06h2.49l0.1,1.71h0.08c0.47-1.35,1.61-1.92,2.51-1.92
		c0.27,0,0.4,0,0.61,0.04v2.72c-0.21-0.04-0.46-0.08-0.78-0.08c-1.06,0-1.79,0.57-1.98,1.46c-0.04,0.19-0.06,0.42-0.06,0.65v4.71
		h-2.89V302.07z"/>
	<path class="st0" d="M50.28,294.82v10.71c0,1.04,0.04,2.15,0.08,2.77h-2.56l-0.13-1.37h-0.04c-0.59,1.04-1.71,1.58-2.91,1.58
		c-2.2,0-3.97-1.88-3.97-4.77c-0.02-3.13,1.94-4.94,4.16-4.94c1.14,0,2.03,0.4,2.45,1.04h0.04v-5.03H50.28z M47.4,302.95
		c0-0.15-0.02-0.36-0.04-0.51c-0.17-0.78-0.8-1.42-1.69-1.42c-1.31,0-2,1.18-2,2.64c0,1.58,0.78,2.56,1.98,2.56
		c0.84,0,1.5-0.57,1.67-1.39c0.06-0.21,0.08-0.42,0.08-0.67V302.95z"/>
	<path class="st0" d="M54.83,304.58c0.1,1.2,1.27,1.77,2.62,1.77c0.99,0,1.79-0.13,2.56-0.38l0.38,1.96
		c-0.95,0.38-2.11,0.57-3.36,0.57c-3.15,0-4.96-1.82-4.96-4.73c0-2.36,1.46-4.96,4.69-4.96c3,0,4.14,2.34,4.14,4.64
		c0,0.49-0.06,0.93-0.09,1.14H54.83z M58.23,302.6c0-0.7-0.3-1.88-1.63-1.88c-1.22,0-1.71,1.1-1.79,1.88H58.23z"/>
	<path class="st0" d="M62.63,302.07c0-1.37-0.04-2.26-0.08-3.06h2.49l0.1,1.71h0.08c0.47-1.35,1.61-1.92,2.51-1.92
		c0.27,0,0.4,0,0.61,0.04v2.72c-0.21-0.04-0.46-0.08-0.78-0.08c-1.06,0-1.79,0.57-1.98,1.46c-0.04,0.19-0.06,0.42-0.06,0.65v4.71
		h-2.89V302.07z"/>
	<path class="st0" d="M73.69,301.98c0-1.16-0.04-2.15-0.08-2.96h2.43l0.13,1.25h0.06c0.4-0.59,1.22-1.46,2.81-1.46
		c1.2,0,2.15,0.61,2.55,1.58h0.04c0.34-0.47,0.76-0.85,1.2-1.12c0.51-0.3,1.08-0.46,1.77-0.46c1.79,0,3.13,1.25,3.13,4.03v5.47
		h-2.81v-5.05c0-1.35-0.44-2.13-1.37-2.13c-0.67,0-1.14,0.46-1.33,1.01c-0.08,0.21-0.11,0.51-0.11,0.74v5.43H79.3v-5.21
		c0-1.18-0.42-1.98-1.33-1.98c-0.74,0-1.18,0.57-1.35,1.04c-0.1,0.23-0.11,0.49-0.11,0.72v5.41h-2.81V301.98z"/>
	<path class="st0" d="M98.79,305.32c0,1.22,0.04,2.2,0.08,2.98h-2.51l-0.13-1.31h-0.06c-0.36,0.57-1.23,1.52-2.91,1.52
		c-1.88,0-3.27-1.18-3.27-4.05v-5.45h2.91v5c0,1.35,0.44,2.17,1.44,2.17c0.8,0,1.25-0.55,1.44-1.01c0.08-0.17,0.09-0.4,0.09-0.63
		v-5.53h2.91V305.32z"/>
	<path class="st0" d="M101.09,305.78c0.53,0.32,1.63,0.7,2.49,0.7c0.87,0,1.23-0.3,1.23-0.78s-0.29-0.7-1.37-1.06
		c-1.92-0.65-2.66-1.69-2.64-2.79c0-1.73,1.48-3.04,3.78-3.04c1.08,0,2.05,0.25,2.62,0.53l-0.51,2c-0.42-0.23-1.22-0.53-2.01-0.53
		c-0.7,0-1.1,0.29-1.1,0.76c0,0.44,0.36,0.67,1.5,1.06c1.77,0.61,2.51,1.5,2.53,2.87c0,1.73-1.37,3-4.03,3c-1.22,0-2.3-0.27-3-0.65
		L101.09,305.78z"/>
	<path class="st0" d="M112.58,296.35v2.66h2.07v2.13h-2.07v3.36c0,1.12,0.27,1.63,1.14,1.63c0.36,0,0.65-0.04,0.85-0.08l0.02,2.18
		c-0.38,0.15-1.06,0.25-1.88,0.25c-0.93,0-1.71-0.32-2.17-0.8c-0.53-0.55-0.8-1.44-0.8-2.75v-3.8h-1.23v-2.13h1.23V297
		L112.58,296.35z"/>
	<path class="st0" d="M120.09,308.3c0.04-0.61,0.08-1.73,0.08-2.77v-10.71h2.89v5.3h0.04c0.55-0.8,1.52-1.31,2.81-1.31
		c2.22,0,3.86,1.84,3.84,4.69c0,3.34-2.13,5.02-4.26,5.02c-1.08,0-2.13-0.4-2.79-1.5h-0.04l-0.11,1.29H120.09z M123.05,304.35
		c0,0.19,0.02,0.36,0.06,0.51c0.19,0.78,0.85,1.37,1.69,1.37c1.23,0,2-0.95,2-2.62c0-1.44-0.65-2.58-2-2.58
		c-0.78,0-1.5,0.59-1.69,1.42c-0.04,0.17-0.06,0.34-0.06,0.53V304.35z"/>
	<path class="st0" d="M133.81,304.58c0.1,1.2,1.27,1.77,2.62,1.77c0.99,0,1.79-0.13,2.56-0.38l0.38,1.96
		c-0.95,0.38-2.11,0.57-3.36,0.57c-3.15,0-4.96-1.82-4.96-4.73c0-2.36,1.46-4.96,4.69-4.96c3,0,4.14,2.34,4.14,4.64
		c0,0.49-0.06,0.93-0.09,1.14H133.81z M137.21,302.6c0-0.7-0.3-1.88-1.63-1.88c-1.22,0-1.71,1.1-1.79,1.88H137.21z"/>
	<path class="st0" d="M154.46,294.82v10.71c0,1.04,0.04,2.15,0.08,2.77h-2.56l-0.13-1.37h-0.04c-0.59,1.04-1.71,1.58-2.91,1.58
		c-2.2,0-3.97-1.88-3.97-4.77c-0.02-3.13,1.94-4.94,4.16-4.94c1.14,0,2.03,0.4,2.45,1.04h0.04v-5.03H154.46z M151.57,302.95
		c0-0.15-0.02-0.36-0.04-0.51c-0.17-0.78-0.8-1.42-1.69-1.42c-1.31,0-2,1.18-2,2.64c0,1.58,0.78,2.56,1.98,2.56
		c0.84,0,1.5-0.57,1.67-1.39c0.06-0.21,0.08-0.42,0.08-0.67V302.95z"/>
	<path class="st0" d="M159,304.58c0.1,1.2,1.27,1.77,2.62,1.77c0.99,0,1.79-0.13,2.56-0.38l0.38,1.96
		c-0.95,0.38-2.11,0.57-3.36,0.57c-3.15,0-4.96-1.82-4.96-4.73c0-2.36,1.46-4.96,4.69-4.96c3,0,4.14,2.34,4.14,4.64
		c0,0.49-0.06,0.93-0.09,1.14H159z M162.4,302.6c0-0.7-0.3-1.88-1.63-1.88c-1.22,0-1.71,1.1-1.79,1.88H162.4z"/>
	<path class="st0" d="M166.81,294.82h2.89v13.49h-2.89V294.82z"/>
	<path class="st0" d="M175.02,296.43c0,0.8-0.61,1.44-1.56,1.44c-0.91,0-1.52-0.65-1.5-1.44c-0.02-0.84,0.59-1.46,1.52-1.46
		C174.41,294.97,175,295.59,175.02,296.43z M172.03,308.3v-9.29h2.89v9.29H172.03z"/>
	<path class="st0" d="M179.39,299.01l1.25,4.31c0.23,0.78,0.4,1.52,0.53,2.26h0.06c0.15-0.76,0.3-1.46,0.51-2.26l1.2-4.31h3.04
		l-3.46,9.29h-2.89l-3.38-9.29H179.39z"/>
	<path class="st0" d="M189.25,304.58c0.1,1.2,1.27,1.77,2.62,1.77c0.99,0,1.79-0.13,2.56-0.38l0.38,1.96
		c-0.95,0.38-2.11,0.57-3.36,0.57c-3.15,0-4.96-1.82-4.96-4.73c0-2.36,1.46-4.96,4.69-4.96c3,0,4.14,2.34,4.14,4.64
		c0,0.49-0.06,0.93-0.09,1.14H189.25z M192.65,302.6c0-0.7-0.3-1.88-1.63-1.88c-1.22,0-1.71,1.1-1.79,1.88H192.65z"/>
	<path class="st0" d="M197.06,302.07c0-1.37-0.04-2.26-0.08-3.06h2.49l0.1,1.71h0.08c0.47-1.35,1.61-1.92,2.51-1.92
		c0.27,0,0.4,0,0.61,0.04v2.72c-0.21-0.04-0.46-0.08-0.78-0.08c-1.06,0-1.79,0.57-1.98,1.46c-0.04,0.19-0.06,0.42-0.06,0.65v4.71
		h-2.89V302.07z"/>
	<path class="st0" d="M206.35,304.58c0.09,1.2,1.27,1.77,2.62,1.77c0.99,0,1.79-0.13,2.56-0.38l0.38,1.96
		c-0.95,0.38-2.11,0.57-3.36,0.57c-3.15,0-4.96-1.82-4.96-4.73c0-2.36,1.46-4.96,4.69-4.96c3,0,4.14,2.34,4.14,4.64
		c0,0.49-0.06,0.93-0.1,1.14H206.35z M209.75,302.6c0-0.7-0.3-1.88-1.63-1.88c-1.22,0-1.71,1.1-1.79,1.88H209.75z"/>
	<path class="st0" d="M223.16,294.82v10.71c0,1.04,0.04,2.15,0.08,2.77h-2.56l-0.13-1.37h-0.04c-0.59,1.04-1.71,1.58-2.91,1.58
		c-2.2,0-3.97-1.88-3.97-4.77c-0.02-3.13,1.94-4.94,4.16-4.94c1.14,0,2.03,0.4,2.45,1.04h0.04v-5.03H223.16z M220.28,302.95
		c0-0.15-0.02-0.36-0.04-0.51c-0.17-0.78-0.8-1.42-1.69-1.42c-1.31,0-1.99,1.18-1.99,2.64c0,1.58,0.78,2.56,1.98,2.56
		c0.84,0,1.5-0.57,1.67-1.39c0.06-0.21,0.08-0.42,0.08-0.67V302.95z"/>
	<path class="st0" d="M232.55,296.35v2.66h2.07v2.13h-2.07v3.36c0,1.12,0.27,1.63,1.14,1.63c0.36,0,0.65-0.04,0.85-0.08l0.02,2.18
		c-0.38,0.15-1.06,0.25-1.88,0.25c-0.93,0-1.71-0.32-2.17-0.8c-0.53-0.55-0.8-1.44-0.8-2.75v-3.8h-1.23v-2.13h1.23V297
		L232.55,296.35z"/>
	<path class="st0" d="M245.37,303.55c0,3.4-2.41,4.96-4.9,4.96c-2.72,0-4.81-1.79-4.81-4.79c0-3,1.98-4.92,4.96-4.92
		C243.47,298.8,245.37,300.76,245.37,303.55z M238.65,303.65c0,1.6,0.67,2.79,1.9,2.79c1.12,0,1.84-1.12,1.84-2.79
		c0-1.39-0.53-2.79-1.84-2.79C239.16,300.86,238.65,302.28,238.65,303.65z"/>
	<path class="st0" d="M254.23,296.35v2.66h2.07v2.13h-2.07v3.36c0,1.12,0.27,1.63,1.14,1.63c0.36,0,0.65-0.04,0.85-0.08l0.02,2.18
		c-0.38,0.15-1.06,0.25-1.88,0.25c-0.93,0-1.71-0.32-2.17-0.8c-0.53-0.55-0.8-1.44-0.8-2.75v-3.8h-1.23v-2.13h1.23V297
		L254.23,296.35z"/>
	<path class="st0" d="M257.97,294.82h2.89v5.3h0.04c0.3-0.4,0.68-0.7,1.14-0.95c0.42-0.23,0.97-0.36,1.5-0.36
		c1.84,0,3.25,1.27,3.25,4.07v5.43h-2.89v-5.11c0-1.22-0.42-2.05-1.5-2.05c-0.76,0-1.23,0.49-1.44,1.01
		c-0.08,0.19-0.09,0.44-0.09,0.65v5.51h-2.89V294.82z"/>
	<path class="st0" d="M271.33,304.58c0.09,1.2,1.27,1.77,2.62,1.77c0.99,0,1.79-0.13,2.56-0.38l0.38,1.96
		c-0.95,0.38-2.11,0.57-3.36,0.57c-3.15,0-4.96-1.82-4.96-4.73c0-2.36,1.46-4.96,4.69-4.96c3,0,4.14,2.34,4.14,4.64
		c0,0.49-0.06,0.93-0.1,1.14H271.33z M274.73,302.6c0-0.7-0.3-1.88-1.63-1.88c-1.22,0-1.71,1.1-1.79,1.88H274.73z"/>
	<path class="st0" d="M288.26,308.3l-0.17-0.93h-0.06c-0.61,0.74-1.56,1.14-2.66,1.14c-1.88,0-3-1.37-3-2.85
		c0-2.41,2.17-3.57,5.45-3.55v-0.13c0-0.49-0.27-1.2-1.69-1.2c-0.95,0-1.96,0.32-2.56,0.7l-0.53-1.86c0.65-0.36,1.92-0.82,3.61-0.82
		c3.1,0,4.08,1.82,4.08,4.01v3.23c0,0.89,0.04,1.75,0.13,2.26H288.26z M287.91,303.92c-1.52-0.02-2.7,0.34-2.7,1.46
		c0,0.74,0.49,1.1,1.14,1.1c0.72,0,1.31-0.48,1.5-1.06c0.04-0.15,0.06-0.32,0.06-0.49V303.92z"/>
	<path class="st0" d="M302.01,294.82v10.71c0,1.04,0.04,2.15,0.08,2.77h-2.56l-0.13-1.37h-0.04c-0.59,1.04-1.71,1.58-2.91,1.58
		c-2.2,0-3.97-1.88-3.97-4.77c-0.02-3.13,1.94-4.94,4.16-4.94c1.14,0,2.03,0.4,2.45,1.04h0.04v-5.03H302.01z M299.12,302.95
		c0-0.15-0.02-0.36-0.04-0.51c-0.17-0.78-0.8-1.42-1.69-1.42c-1.31,0-1.99,1.18-1.99,2.64c0,1.58,0.78,2.56,1.98,2.56
		c0.84,0,1.5-0.57,1.67-1.39c0.06-0.21,0.08-0.42,0.08-0.67V302.95z"/>
	<path class="st0" d="M313.33,294.82v10.71c0,1.04,0.04,2.15,0.08,2.77h-2.56l-0.13-1.37h-0.04c-0.59,1.04-1.71,1.58-2.91,1.58
		c-2.2,0-3.97-1.88-3.97-4.77c-0.02-3.13,1.94-4.94,4.16-4.94c1.14,0,2.03,0.4,2.45,1.04h0.04v-5.03H313.33z M310.45,302.95
		c0-0.15-0.02-0.36-0.04-0.51c-0.17-0.78-0.8-1.42-1.69-1.42c-1.31,0-1.99,1.18-1.99,2.64c0,1.58,0.78,2.56,1.98,2.56
		c0.84,0,1.5-0.57,1.67-1.39c0.06-0.21,0.08-0.42,0.08-0.67V302.95z"/>
	<path class="st0" d="M315.66,302.07c0-1.37-0.04-2.26-0.08-3.06h2.49l0.09,1.71h0.08c0.48-1.35,1.62-1.92,2.51-1.92
		c0.27,0,0.4,0,0.61,0.04v2.72c-0.21-0.04-0.46-0.08-0.78-0.08c-1.06,0-1.79,0.57-1.98,1.46c-0.04,0.19-0.06,0.42-0.06,0.65v4.71
		h-2.89V302.07z"/>
	<path class="st0" d="M324.95,304.58c0.09,1.2,1.27,1.77,2.62,1.77c0.99,0,1.79-0.13,2.56-0.38l0.38,1.96
		c-0.95,0.38-2.11,0.57-3.36,0.57c-3.15,0-4.96-1.82-4.96-4.73c0-2.36,1.46-4.96,4.69-4.96c3,0,4.14,2.34,4.14,4.64
		c0,0.49-0.06,0.93-0.1,1.14H324.95z M328.35,302.6c0-0.7-0.3-1.88-1.63-1.88c-1.22,0-1.71,1.1-1.79,1.88H328.35z"/>
	<path class="st0" d="M332.74,305.78c0.53,0.32,1.63,0.7,2.49,0.7c0.87,0,1.23-0.3,1.23-0.78s-0.29-0.7-1.37-1.06
		c-1.92-0.65-2.66-1.69-2.64-2.79c0-1.73,1.48-3.04,3.78-3.04c1.08,0,2.05,0.25,2.62,0.53l-0.51,2c-0.42-0.23-1.22-0.53-2.01-0.53
		c-0.7,0-1.1,0.29-1.1,0.76c0,0.44,0.36,0.67,1.5,1.06c1.77,0.61,2.51,1.5,2.53,2.87c0,1.73-1.37,3-4.03,3c-1.22,0-2.3-0.27-3-0.65
		L332.74,305.78z"/>
	<path class="st0" d="M340.98,305.78c0.53,0.32,1.63,0.7,2.49,0.7c0.87,0,1.23-0.3,1.23-0.78s-0.29-0.7-1.37-1.06
		c-1.92-0.65-2.66-1.69-2.64-2.79c0-1.73,1.48-3.04,3.78-3.04c1.08,0,2.05,0.25,2.62,0.53l-0.51,2c-0.42-0.23-1.22-0.53-2.01-0.53
		c-0.7,0-1.1,0.29-1.1,0.76c0,0.44,0.36,0.67,1.5,1.06c1.77,0.61,2.51,1.5,2.53,2.87c0,1.73-1.37,3-4.03,3c-1.22,0-2.3-0.27-3-0.65
		L340.98,305.78z"/>
	<path class="st0" d="M362.26,303.55c0,3.4-2.41,4.96-4.9,4.96c-2.72,0-4.81-1.79-4.81-4.79c0-3,1.98-4.92,4.96-4.92
		C360.36,298.8,362.26,300.76,362.26,303.55z M355.53,303.65c0,1.6,0.67,2.79,1.9,2.79c1.12,0,1.84-1.12,1.84-2.79
		c0-1.39-0.53-2.79-1.84-2.79C356.05,300.86,355.53,302.28,355.53,303.65z"/>
	<path class="st0" d="M364.05,301.98c0-1.16-0.04-2.15-0.08-2.96h2.51l0.13,1.27h0.06c0.38-0.59,1.33-1.48,2.87-1.48
		c1.9,0,3.32,1.25,3.32,3.99v5.51h-2.89v-5.15c0-1.2-0.42-2.01-1.46-2.01c-0.8,0-1.27,0.55-1.46,1.08
		c-0.08,0.17-0.11,0.46-0.11,0.72v5.36h-2.89V301.98z"/>
	<path class="st0" d="M25.41,321.81l1.39,4.56c0.15,0.55,0.34,1.24,0.46,1.73h0.06c0.13-0.49,0.29-1.2,0.42-1.73l1.14-4.56h3.1
		l-2.17,6.12c-1.33,3.69-2.22,5.17-3.27,6.1c-1.01,0.87-2.07,1.18-2.79,1.27l-0.61-2.45c0.36-0.06,0.82-0.23,1.25-0.49
		c0.44-0.23,0.91-0.68,1.2-1.16c0.09-0.13,0.15-0.29,0.15-0.42c0-0.09-0.02-0.25-0.13-0.47l-3.4-8.49H25.41z"/>
	<path class="st0" d="M42.08,326.35c0,3.4-2.41,4.96-4.9,4.96c-2.72,0-4.81-1.79-4.81-4.79c0-3,1.98-4.92,4.96-4.92
		C40.18,321.6,42.08,323.56,42.08,326.35z M35.35,326.45c0,1.6,0.67,2.79,1.9,2.79c1.12,0,1.84-1.12,1.84-2.79
		c0-1.39-0.53-2.79-1.84-2.79C35.86,323.66,35.35,325.08,35.35,326.45z"/>
	<path class="st0" d="M52.62,328.12c0,1.22,0.04,2.2,0.08,2.98h-2.51l-0.13-1.31H50c-0.36,0.57-1.23,1.52-2.91,1.52
		c-1.88,0-3.27-1.18-3.27-4.05v-5.45h2.91v5c0,1.35,0.44,2.17,1.44,2.17c0.8,0,1.25-0.55,1.44-1.01c0.08-0.17,0.09-0.4,0.09-0.63
		v-5.53h2.91V328.12z"/>
	<path class="st0" d="M54.94,324.87c0-1.37-0.04-2.26-0.08-3.06h2.49l0.1,1.71h0.08c0.47-1.35,1.61-1.92,2.51-1.92
		c0.27,0,0.4,0,0.61,0.04v2.72c-0.21-0.04-0.46-0.08-0.78-0.08c-1.06,0-1.79,0.57-1.98,1.46c-0.04,0.19-0.06,0.42-0.06,0.65v4.71
		h-2.89V324.87z"/>
	<path class="st0" d="M72.97,330.88c-0.51,0.23-1.48,0.42-2.58,0.42c-3,0-4.92-1.82-4.92-4.75c0-2.72,1.86-4.94,5.32-4.94
		c0.76,0,1.6,0.13,2.2,0.36l-0.46,2.15c-0.34-0.15-0.85-0.29-1.61-0.29c-1.52,0-2.51,1.08-2.49,2.6c0,1.71,1.14,2.6,2.55,2.6
		c0.68,0,1.22-0.11,1.65-0.29L72.97,330.88z"/>
	<path class="st0" d="M74.57,324.87c0-1.37-0.04-2.26-0.08-3.06h2.49l0.1,1.71h0.08c0.47-1.35,1.61-1.92,2.51-1.92
		c0.27,0,0.4,0,0.61,0.04v2.72c-0.21-0.04-0.46-0.08-0.78-0.08c-1.06,0-1.79,0.57-1.98,1.46c-0.04,0.19-0.06,0.42-0.06,0.65v4.71
		h-2.89V324.87z"/>
	<path class="st0" d="M83.86,327.38c0.1,1.2,1.27,1.77,2.62,1.77c0.99,0,1.79-0.13,2.56-0.38l0.38,1.96
		c-0.95,0.38-2.11,0.57-3.36,0.57c-3.15,0-4.96-1.82-4.96-4.73c0-2.36,1.46-4.96,4.69-4.96c3,0,4.14,2.34,4.14,4.64
		c0,0.49-0.06,0.93-0.09,1.14H83.86z M87.26,325.4c0-0.7-0.3-1.88-1.63-1.88c-1.22,0-1.71,1.1-1.79,1.88H87.26z"/>
	<path class="st0" d="M100.67,317.62v10.71c0,1.04,0.04,2.15,0.08,2.77h-2.56l-0.13-1.37h-0.04c-0.59,1.04-1.71,1.58-2.91,1.58
		c-2.2,0-3.97-1.88-3.97-4.77c-0.02-3.13,1.94-4.94,4.16-4.94c1.14,0,2.03,0.4,2.45,1.04h0.04v-5.03H100.67z M97.78,325.75
		c0-0.15-0.02-0.36-0.04-0.51c-0.17-0.78-0.8-1.42-1.69-1.42c-1.31,0-2,1.18-2,2.64c0,1.58,0.78,2.56,1.98,2.56
		c0.84,0,1.5-0.57,1.67-1.39c0.06-0.21,0.08-0.42,0.08-0.67V325.75z"/>
	<path class="st0" d="M105.97,319.23c0,0.8-0.61,1.44-1.56,1.44c-0.91,0-1.52-0.65-1.5-1.44c-0.02-0.84,0.59-1.46,1.52-1.46
		C105.37,317.77,105.95,318.39,105.97,319.23z M102.99,331.1v-9.29h2.89v9.29H102.99z"/>
	<path class="st0" d="M111.43,319.15v2.66h2.07v2.13h-2.07v3.36c0,1.12,0.27,1.63,1.14,1.63c0.36,0,0.65-0.04,0.85-0.08l0.02,2.18
		c-0.38,0.15-1.06,0.25-1.88,0.25c-0.93,0-1.71-0.32-2.17-0.8c-0.53-0.55-0.8-1.44-0.8-2.75v-3.8h-1.23v-2.13h1.23v-2.01
		L111.43,319.15z"/>
	<path class="st0" d="M125.98,330.88c-0.51,0.23-1.48,0.42-2.58,0.42c-3,0-4.92-1.82-4.92-4.75c0-2.72,1.86-4.94,5.32-4.94
		c0.76,0,1.6,0.13,2.2,0.36l-0.46,2.15c-0.34-0.15-0.85-0.29-1.61-0.29c-1.52,0-2.51,1.08-2.49,2.6c0,1.71,1.14,2.6,2.55,2.6
		c0.68,0,1.22-0.11,1.65-0.29L125.98,330.88z"/>
	<path class="st0" d="M132.93,331.1l-0.17-0.93h-0.06c-0.61,0.74-1.56,1.14-2.66,1.14c-1.88,0-3-1.37-3-2.85
		c0-2.41,2.17-3.57,5.45-3.55v-0.13c0-0.49-0.27-1.2-1.69-1.2c-0.95,0-1.96,0.32-2.56,0.7l-0.53-1.86c0.65-0.36,1.92-0.82,3.61-0.82
		c3.1,0,4.08,1.82,4.08,4.01v3.23c0,0.89,0.04,1.75,0.13,2.26H132.93z M132.59,326.71c-1.52-0.02-2.7,0.34-2.7,1.46
		c0,0.74,0.49,1.1,1.14,1.1c0.72,0,1.31-0.47,1.5-1.06c0.04-0.15,0.06-0.32,0.06-0.49V326.71z"/>
	<path class="st0" d="M137.68,324.87c0-1.37-0.04-2.26-0.08-3.06h2.49l0.1,1.71h0.08c0.47-1.35,1.61-1.92,2.51-1.92
		c0.27,0,0.4,0,0.61,0.04v2.72c-0.21-0.04-0.46-0.08-0.78-0.08c-1.06,0-1.79,0.57-1.98,1.46c-0.04,0.19-0.06,0.42-0.06,0.65v4.71
		h-2.89V324.87z"/>
	<path class="st0" d="M153.76,317.62v10.71c0,1.04,0.04,2.15,0.08,2.77h-2.56l-0.13-1.37h-0.04c-0.59,1.04-1.71,1.58-2.91,1.58
		c-2.2,0-3.97-1.88-3.97-4.77c-0.02-3.13,1.94-4.94,4.16-4.94c1.14,0,2.03,0.4,2.45,1.04h0.04v-5.03H153.76z M150.87,325.75
		c0-0.15-0.02-0.36-0.04-0.51c-0.17-0.78-0.8-1.42-1.69-1.42c-1.31,0-2,1.18-2,2.64c0,1.58,0.78,2.56,1.98,2.56
		c0.84,0,1.5-0.57,1.67-1.39c0.06-0.21,0.08-0.42,0.08-0.67V325.75z"/>
	<path class="st0" d="M165.19,331.1l-0.17-0.93h-0.06c-0.61,0.74-1.56,1.14-2.66,1.14c-1.88,0-3-1.37-3-2.85
		c0-2.41,2.17-3.57,5.45-3.55v-0.13c0-0.49-0.27-1.2-1.69-1.2c-0.95,0-1.96,0.32-2.56,0.7l-0.53-1.86c0.65-0.36,1.92-0.82,3.61-0.82
		c3.1,0,4.08,1.82,4.08,4.01v3.23c0,0.89,0.04,1.75,0.13,2.26H165.19z M164.85,326.71c-1.52-0.02-2.7,0.34-2.7,1.46
		c0,0.74,0.49,1.1,1.14,1.1c0.72,0,1.31-0.47,1.5-1.06c0.04-0.15,0.06-0.32,0.06-0.49V326.71z"/>
	<path class="st0" d="M169.94,324.93c0-1.22-0.04-2.26-0.08-3.12h2.51l0.13,1.29h0.04c0.68-0.99,1.75-1.5,3.1-1.5
		c2.03,0,3.86,1.77,3.86,4.73c0,3.38-2.15,4.98-4.22,4.98c-1.12,0-1.99-0.46-2.41-1.06h-0.04v4.62h-2.89V324.93z M172.83,327.11
		c0,0.23,0.02,0.44,0.06,0.61c0.19,0.78,0.85,1.37,1.69,1.37c1.25,0,2-1.04,2-2.62c0-1.48-0.67-2.6-1.96-2.6
		c-0.82,0-1.54,0.61-1.73,1.46c-0.04,0.15-0.06,0.34-0.06,0.51V327.11z"/>
	<path class="st0" d="M181.31,324.93c0-1.22-0.04-2.26-0.08-3.12h2.51l0.13,1.29h0.04c0.68-0.99,1.75-1.5,3.1-1.5
		c2.03,0,3.86,1.77,3.86,4.73c0,3.38-2.15,4.98-4.22,4.98c-1.12,0-1.99-0.46-2.41-1.06h-0.04v4.62h-2.89V324.93z M184.19,327.11
		c0,0.23,0.02,0.44,0.06,0.61c0.19,0.78,0.85,1.37,1.69,1.37c1.25,0,2-1.04,2-2.62c0-1.48-0.67-2.6-1.96-2.6
		c-0.82,0-1.54,0.61-1.73,1.46c-0.04,0.15-0.06,0.34-0.06,0.51V327.11z"/>
	<path class="st0" d="M192.67,317.62h2.89v13.49h-2.89V317.62z"/>
	<path class="st0" d="M200.88,319.23c0,0.8-0.61,1.44-1.56,1.44c-0.91,0-1.52-0.65-1.5-1.44c-0.02-0.84,0.59-1.46,1.52-1.46
		C200.27,317.77,200.86,318.39,200.88,319.23z M197.89,331.1v-9.29h2.89v9.29H197.89z"/>
	<path class="st0" d="M210.07,330.88c-0.51,0.23-1.48,0.42-2.58,0.42c-3,0-4.92-1.82-4.92-4.75c0-2.72,1.86-4.94,5.32-4.94
		c0.76,0,1.6,0.13,2.2,0.36l-0.46,2.15c-0.34-0.15-0.86-0.29-1.62-0.29c-1.52,0-2.51,1.08-2.49,2.6c0,1.71,1.14,2.6,2.54,2.6
		c0.68,0,1.22-0.11,1.65-0.29L210.07,330.88z"/>
	<path class="st0" d="M217.03,331.1l-0.17-0.93h-0.06c-0.61,0.74-1.56,1.14-2.66,1.14c-1.88,0-3-1.37-3-2.85
		c0-2.41,2.17-3.57,5.45-3.55v-0.13c0-0.49-0.27-1.2-1.69-1.2c-0.95,0-1.96,0.32-2.56,0.7l-0.53-1.86c0.65-0.36,1.92-0.82,3.61-0.82
		c3.1,0,4.08,1.82,4.08,4.01v3.23c0,0.89,0.04,1.75,0.13,2.26H217.03z M216.68,326.71c-1.52-0.02-2.7,0.34-2.7,1.46
		c0,0.74,0.49,1.1,1.14,1.1c0.72,0,1.31-0.47,1.5-1.06c0.04-0.15,0.06-0.32,0.06-0.49V326.71z"/>
	<path class="st0" d="M224.85,319.15v2.66h2.07v2.13h-2.07v3.36c0,1.12,0.27,1.63,1.14,1.63c0.36,0,0.65-0.04,0.85-0.08l0.02,2.18
		c-0.38,0.15-1.06,0.25-1.88,0.25c-0.93,0-1.71-0.32-2.17-0.8c-0.53-0.55-0.8-1.44-0.8-2.75v-3.8h-1.23v-2.13h1.23v-2.01
		L224.85,319.15z"/>
	<path class="st0" d="M231.58,319.23c0,0.8-0.61,1.44-1.56,1.44c-0.91,0-1.52-0.65-1.5-1.44c-0.02-0.84,0.59-1.46,1.52-1.46
		S231.56,318.39,231.58,319.23z M228.6,331.1v-9.29h2.89v9.29H228.6z"/>
	<path class="st0" d="M242.98,326.35c0,3.4-2.41,4.96-4.9,4.96c-2.72,0-4.81-1.79-4.81-4.79c0-3,1.98-4.92,4.96-4.92
		C241.08,321.6,242.98,323.56,242.98,326.35z M236.25,326.45c0,1.6,0.67,2.79,1.9,2.79c1.12,0,1.84-1.12,1.84-2.79
		c0-1.39-0.53-2.79-1.84-2.79C236.77,323.66,236.25,325.08,236.25,326.45z"/>
	<path class="st0" d="M244.77,324.78c0-1.16-0.04-2.15-0.08-2.96h2.51l0.13,1.27h0.06c0.38-0.59,1.33-1.48,2.87-1.48
		c1.9,0,3.32,1.25,3.32,3.99v5.51h-2.89v-5.15c0-1.2-0.42-2.01-1.46-2.01c-0.8,0-1.27,0.55-1.46,1.08
		c-0.08,0.17-0.11,0.46-0.11,0.72v5.36h-2.89V324.78z"/>
	<path class="st0" d="M255.69,329.56c0-1.03,0.7-1.77,1.71-1.77s1.69,0.72,1.69,1.77c0,1.01-0.68,1.75-1.71,1.75
		C256.39,331.31,255.69,330.57,255.69,329.56z"/>
</g>
<g>
	<path class="st0" d="M27.15,192.32c0.14,1.73,1.83,2.55,3.78,2.55c1.42,0,2.57-0.19,3.7-0.55l0.55,2.82
		c-1.37,0.55-3.04,0.82-4.85,0.82c-4.55,0-7.15-2.63-7.15-6.82c0-3.4,2.11-7.15,6.77-7.15c4.33,0,5.97,3.37,5.97,6.68
		c0,0.71-0.08,1.34-0.14,1.64H27.15z M32.05,189.47c0-1.01-0.44-2.71-2.36-2.71c-1.75,0-2.46,1.59-2.57,2.71H32.05z"/>
	<path class="st0" d="M41.34,184.3l1.81,6.22c0.33,1.12,0.57,2.19,0.77,3.26H44c0.22-1.1,0.44-2.11,0.74-3.26l1.73-6.22h4.38
		l-4.98,13.39H41.7l-4.88-13.39H41.34z"/>
	<path class="st0" d="M55.56,192.32c0.14,1.73,1.83,2.55,3.78,2.55c1.42,0,2.57-0.19,3.7-0.55l0.55,2.82
		c-1.37,0.55-3.04,0.82-4.85,0.82c-4.55,0-7.15-2.63-7.15-6.82c0-3.4,2.11-7.15,6.77-7.15c4.33,0,5.97,3.37,5.97,6.68
		c0,0.71-0.08,1.34-0.14,1.64H55.56z M60.46,189.47c0-1.01-0.44-2.71-2.36-2.71c-1.75,0-2.46,1.59-2.57,2.71H60.46z"/>
	<path class="st0" d="M66.82,188.71c0-1.97-0.05-3.26-0.11-4.41h3.59l0.14,2.47h0.11c0.69-1.94,2.33-2.77,3.62-2.77
		c0.38,0,0.58,0,0.88,0.05v3.92c-0.3-0.05-0.66-0.11-1.12-0.11c-1.53,0-2.57,0.82-2.85,2.11c-0.05,0.27-0.08,0.6-0.08,0.93v6.79
		h-4.16V188.71z"/>
	<path class="st0" d="M80.84,184.3l2,6.57c0.22,0.79,0.49,1.78,0.66,2.49h0.08c0.19-0.71,0.41-1.73,0.6-2.49l1.64-6.57h4.46
		l-3.12,8.82c-1.92,5.31-3.2,7.45-4.71,8.79c-1.45,1.26-2.99,1.7-4.03,1.84l-0.88-3.53c0.52-0.08,1.18-0.33,1.81-0.71
		c0.63-0.33,1.31-0.99,1.73-1.67c0.14-0.19,0.22-0.41,0.22-0.6c0-0.14-0.03-0.36-0.19-0.68l-4.9-12.24H80.84z"/>
	<path class="st0" d="M110.57,178.24v15.45c0,1.51,0.05,3.1,0.11,4h-3.7l-0.19-1.97h-0.05c-0.85,1.51-2.46,2.27-4.19,2.27
		c-3.18,0-5.72-2.71-5.72-6.88c-0.03-4.52,2.79-7.12,6-7.12c1.64,0,2.93,0.58,3.53,1.51h0.05v-7.26H110.57z M106.4,189.97
		c0-0.22-0.03-0.52-0.05-0.74c-0.25-1.12-1.15-2.05-2.44-2.05c-1.89,0-2.88,1.7-2.88,3.81c0,2.27,1.12,3.7,2.85,3.7
		c1.21,0,2.16-0.82,2.41-2c0.08-0.3,0.11-0.6,0.11-0.96V189.97z"/>
	<path class="st0" d="M121.52,197.69l-0.25-1.34h-0.08c-0.88,1.07-2.25,1.64-3.83,1.64c-2.71,0-4.33-1.97-4.33-4.11
		c0-3.48,3.12-5.15,7.86-5.12v-0.19c0-0.71-0.38-1.73-2.44-1.73c-1.37,0-2.82,0.47-3.7,1.01l-0.77-2.68
		c0.93-0.52,2.77-1.18,5.2-1.18c4.46,0,5.89,2.63,5.89,5.78v4.66c0,1.29,0.05,2.52,0.19,3.26H121.52z M121.03,191.36
		c-2.19-0.03-3.89,0.49-3.89,2.11c0,1.07,0.71,1.59,1.64,1.59c1.04,0,1.89-0.68,2.16-1.53c0.05-0.22,0.08-0.47,0.08-0.71V191.36z"/>
	<path class="st0" d="M131.17,184.3l2,6.57c0.22,0.79,0.49,1.78,0.66,2.49h0.08c0.19-0.71,0.41-1.73,0.6-2.49l1.64-6.57h4.46
		l-3.12,8.82c-1.92,5.31-3.2,7.45-4.71,8.79c-1.45,1.26-2.99,1.7-4.03,1.84l-0.88-3.53c0.52-0.08,1.18-0.33,1.81-0.71
		c0.63-0.33,1.31-0.99,1.73-1.67c0.14-0.19,0.22-0.41,0.22-0.6c0-0.14-0.03-0.36-0.19-0.68l-4.9-12.24H131.17z"/>
	<path class="st0" d="M155.74,183.12v5.97h5.72v2.57h-5.72v6.03h-2.68v-6.03h-5.72v-2.57h5.72v-5.97H155.74z"/>
	<path class="st0" d="M169.77,188.57c0-1.67-0.05-3.1-0.11-4.27h3.62l0.19,1.83h0.08c0.55-0.85,1.92-2.14,4.14-2.14
		c2.74,0,4.79,1.81,4.79,5.75v7.94h-4.16v-7.42c0-1.73-0.6-2.9-2.11-2.9c-1.15,0-1.84,0.79-2.11,1.56
		c-0.11,0.25-0.16,0.66-0.16,1.04v7.72h-4.16V188.57z"/>
	<path class="st0" d="M199.05,190.84c0,4.9-3.48,7.15-7.07,7.15c-3.92,0-6.93-2.57-6.93-6.9c0-4.33,2.85-7.09,7.15-7.09
		C196.31,184,199.05,186.82,199.05,190.84z M189.35,190.98c0,2.3,0.96,4.03,2.74,4.03c1.62,0,2.66-1.62,2.66-4.03
		c0-2-0.77-4.03-2.66-4.03C190.09,186.95,189.35,189.01,189.35,190.98z"/>
	<path class="st0" d="M214.78,197.69l-0.25-1.34h-0.08c-0.88,1.07-2.25,1.64-3.83,1.64c-2.71,0-4.33-1.97-4.33-4.11
		c0-3.48,3.12-5.15,7.86-5.12v-0.19c0-0.71-0.38-1.73-2.44-1.73c-1.37,0-2.82,0.47-3.7,1.01l-0.77-2.68
		c0.93-0.52,2.77-1.18,5.2-1.18c4.46,0,5.89,2.63,5.89,5.78v4.66c0,1.29,0.05,2.52,0.19,3.26H214.78z M214.28,191.36
		c-2.19-0.03-3.89,0.49-3.89,2.11c0,1.07,0.71,1.59,1.64,1.59c1.04,0,1.89-0.68,2.16-1.53c0.05-0.22,0.08-0.47,0.08-0.71V191.36z"/>
	<path class="st0" d="M221.63,188.57c0-1.67-0.05-3.1-0.11-4.27h3.62l0.19,1.83h0.08c0.55-0.85,1.92-2.14,4.14-2.14
		c2.74,0,4.79,1.81,4.79,5.75v7.94h-4.16v-7.42c0-1.73-0.6-2.9-2.11-2.9c-1.15,0-1.83,0.79-2.11,1.56
		c-0.11,0.25-0.16,0.66-0.16,1.04v7.72h-4.16V188.57z"/>
	<path class="st0" d="M237.68,188.57c0-1.67-0.05-3.1-0.11-4.27h3.62l0.19,1.83h0.08c0.55-0.85,1.92-2.14,4.14-2.14
		c2.74,0,4.79,1.81,4.79,5.75v7.94h-4.16v-7.42c0-1.73-0.6-2.9-2.11-2.9c-1.15,0-1.83,0.79-2.11,1.56
		c-0.11,0.25-0.16,0.66-0.16,1.04v7.72h-4.16V188.57z"/>
	<path class="st0" d="M266.36,193.39c0,1.75,0.06,3.18,0.11,4.3h-3.62l-0.19-1.89h-0.08c-0.52,0.82-1.78,2.19-4.19,2.19
		c-2.71,0-4.71-1.7-4.71-5.83v-7.86h4.19v7.2c0,1.94,0.63,3.12,2.08,3.12c1.15,0,1.81-0.79,2.08-1.45c0.11-0.25,0.14-0.58,0.14-0.9
		v-7.97h4.19V193.39z"/>
	<path class="st0" d="M277.32,197.69l-0.25-1.34h-0.08c-0.88,1.07-2.25,1.64-3.83,1.64c-2.71,0-4.33-1.97-4.33-4.11
		c0-3.48,3.12-5.15,7.86-5.12v-0.19c0-0.71-0.38-1.73-2.44-1.73c-1.37,0-2.82,0.47-3.7,1.01l-0.77-2.68
		c0.93-0.52,2.77-1.18,5.2-1.18c4.46,0,5.89,2.63,5.89,5.78v4.66c0,1.29,0.05,2.52,0.19,3.26H277.32z M276.83,191.36
		c-2.19-0.03-3.89,0.49-3.89,2.11c0,1.07,0.71,1.59,1.64,1.59c1.04,0,1.89-0.68,2.16-1.53c0.05-0.22,0.08-0.47,0.08-0.71V191.36z"/>
	<path class="st0" d="M284.17,178.24h4.16v19.45h-4.16V178.24z"/>
	<path class="st0" d="M297.7,197.69v-10.33h-1.75v-3.07h1.75v-0.52c0-1.62,0.49-3.4,1.7-4.49c1.04-0.99,2.49-1.34,3.7-1.34
		c0.93,0,1.64,0.11,2.22,0.27l-0.17,3.2c-0.36-0.11-0.79-0.19-1.34-0.19c-1.37,0-1.94,1.07-1.94,2.38v0.68h2.68v3.07h-2.66v10.33
		H297.7z"/>
	<path class="st0" d="M309.51,192.32c0.14,1.73,1.83,2.55,3.78,2.55c1.42,0,2.57-0.19,3.7-0.55l0.55,2.82
		c-1.37,0.55-3.04,0.82-4.85,0.82c-4.55,0-7.15-2.63-7.15-6.82c0-3.4,2.11-7.15,6.76-7.15c4.33,0,5.97,3.37,5.97,6.68
		c0,0.71-0.08,1.34-0.14,1.64H309.51z M314.41,189.47c0-1.01-0.44-2.71-2.36-2.71c-1.75,0-2.47,1.59-2.58,2.71H314.41z"/>
	<path class="st0" d="M323.97,192.32c0.14,1.73,1.83,2.55,3.78,2.55c1.42,0,2.57-0.19,3.7-0.55l0.55,2.82
		c-1.37,0.55-3.04,0.82-4.85,0.82c-4.55,0-7.15-2.63-7.15-6.82c0-3.4,2.11-7.15,6.76-7.15c4.33,0,5.97,3.37,5.97,6.68
		c0,0.71-0.08,1.34-0.14,1.64H323.97z M328.88,189.47c0-1.01-0.44-2.71-2.36-2.71c-1.75,0-2.47,1.59-2.58,2.71H328.88z"/>
	<path class="st0" d="M334.77,195.5c0-1.45,1.01-2.49,2.46-2.49c1.45,0,2.41,1.04,2.44,2.49c0,1.42-0.96,2.49-2.44,2.49
		C335.75,197.99,334.77,196.92,334.77,195.5z M335.67,191.64l-0.63-12.41h4.35l-0.6,12.41H335.67z"/>
</g>
<g>
	<path class="st0" d="M345.07,172.46h-0.03l-1.92,0.91l-0.39-1.76l2.66-1.24h1.95v10.04h-2.27V172.46z"/>
</g>
<path class="st3" d="M-260,389c174.17-15.51,366.02-24.51,573-22c239.99,2.91,459.86,20.78,656,46c0,14.67,0,29.33,0,44
	c-166.58-42.04-393.44-81.21-663-76c-225.05,4.35-417.2,38.42-566,76C-260,434.33-260,411.67-260,389z"/>
<g>
	<g>
		<path class="st0" d="M426.25,156.75c1.61,0.82,4.08,1.65,6.63,1.65c2.75,0,4.2-1.14,4.2-2.86c0-1.65-1.25-2.59-4.43-3.73
			c-4.39-1.53-7.26-3.96-7.26-7.81c0-4.51,3.77-7.96,10-7.96c2.98,0,5.18,0.63,6.75,1.33l-1.33,4.83c-1.06-0.51-2.94-1.26-5.53-1.26
			c-2.59,0-3.84,1.18-3.84,2.55c0,1.69,1.49,2.43,4.9,3.73c4.67,1.73,6.87,4.16,6.87,7.88c0,4.43-3.41,8.2-10.67,8.2
			c-3.02,0-6-0.78-7.49-1.61L426.25,156.75z"/>
		<path class="st0" d="M447.04,150.16c0-2.51-0.08-4.67-0.16-6.43h5.18l0.27,2.67h0.08c1.41-2.04,3.61-3.1,6.39-3.1
			c4.2,0,7.96,3.65,7.96,9.77c0,6.98-4.43,10.28-8.71,10.28c-2.32,0-4.12-0.94-4.98-2.2H453v9.53h-5.96V150.16z M453,154.67
			c0,0.47,0.04,0.9,0.12,1.26c0.39,1.61,1.77,2.82,3.49,2.82c2.59,0,4.12-2.16,4.12-5.41c0-3.06-1.37-5.37-4.04-5.37
			c-1.69,0-3.18,1.25-3.57,3.02c-0.08,0.31-0.12,0.71-0.12,1.06V154.67z"/>
		<path class="st0" d="M475.21,155.22c0.2,2.47,2.63,3.65,5.41,3.65c2.04,0,3.69-0.28,5.3-0.79l0.78,4.04
			c-1.96,0.78-4.35,1.18-6.94,1.18c-6.51,0-10.24-3.77-10.24-9.77c0-4.86,3.02-10.24,9.69-10.24c6.2,0,8.55,4.83,8.55,9.57
			c0,1.02-0.12,1.92-0.2,2.35H475.21z M482.23,151.14c0-1.45-0.63-3.88-3.37-3.88c-2.51,0-3.53,2.28-3.69,3.88H482.23z"/>
		<path class="st0" d="M505.73,162.44c-1.06,0.47-3.06,0.86-5.34,0.86c-6.2,0-10.16-3.77-10.16-9.81c0-5.61,3.84-10.2,10.98-10.2
			c1.57,0,3.29,0.28,4.55,0.75l-0.94,4.43c-0.71-0.31-1.77-0.59-3.33-0.59c-3.14,0-5.18,2.24-5.14,5.38c0,3.53,2.35,5.38,5.26,5.38
			c1.41,0,2.51-0.24,3.41-0.59L505.73,162.44z"/>
		<path class="st0" d="M515.18,138.39c0,1.65-1.25,2.98-3.22,2.98c-1.88,0-3.14-1.33-3.1-2.98c-0.04-1.73,1.22-3.02,3.14-3.02
			C513.92,135.37,515.14,136.67,515.18,138.39z M509.02,162.91v-19.18h5.96v19.18H509.02z"/>
		<path class="st0" d="M530.67,162.91l-0.35-1.92h-0.12c-1.26,1.53-3.22,2.35-5.49,2.35c-3.88,0-6.2-2.82-6.2-5.88
			c0-4.98,4.47-7.38,11.26-7.34v-0.27c0-1.02-0.55-2.47-3.49-2.47c-1.96,0-4.04,0.67-5.3,1.45l-1.1-3.84
			c1.33-0.75,3.96-1.69,7.45-1.69c6.39,0,8.43,3.77,8.43,8.28v6.67c0,1.84,0.08,3.61,0.28,4.67H530.67z M529.97,153.85
			c-3.14-0.04-5.57,0.71-5.57,3.02c0,1.53,1.02,2.28,2.35,2.28c1.49,0,2.71-0.98,3.1-2.2c0.08-0.31,0.12-0.67,0.12-1.02V153.85z"/>
		<path class="st0" d="M540.48,135.06h5.96v27.85h-5.96V135.06z"/>
		<path class="st0" d="M559.39,136.47h16.16v4.9h-10.16v6.04h9.49v4.87h-9.49v10.63h-6V136.47z"/>
		<path class="st0" d="M585.24,138.39c0,1.65-1.26,2.98-3.22,2.98c-1.88,0-3.14-1.33-3.1-2.98c-0.04-1.73,1.22-3.02,3.14-3.02
			C583.99,135.37,585.2,136.67,585.24,138.39z M579.08,162.91v-19.18h5.96v19.18H579.08z"/>
		<path class="st0" d="M589.83,149.85c0-2.39-0.08-4.43-0.16-6.12h5.18l0.27,2.63h0.12c0.78-1.22,2.75-3.06,5.92-3.06
			c3.92,0,6.87,2.59,6.87,8.24v11.38h-5.96v-10.63c0-2.47-0.86-4.16-3.02-4.16c-1.65,0-2.63,1.14-3.02,2.24
			c-0.16,0.35-0.24,0.94-0.24,1.49v11.06h-5.96V149.85z"/>
		<path class="st0" d="M623.73,162.91l-0.35-1.92h-0.12c-1.25,1.53-3.22,2.35-5.49,2.35c-3.88,0-6.2-2.82-6.2-5.88
			c0-4.98,4.47-7.38,11.26-7.34v-0.27c0-1.02-0.55-2.47-3.49-2.47c-1.96,0-4.04,0.67-5.3,1.45l-1.1-3.84
			c1.33-0.75,3.96-1.69,7.45-1.69c6.39,0,8.43,3.77,8.43,8.28v6.67c0,1.84,0.08,3.61,0.27,4.67H623.73z M623.02,153.85
			c-3.14-0.04-5.57,0.71-5.57,3.02c0,1.53,1.02,2.28,2.35,2.28c1.49,0,2.71-0.98,3.1-2.2c0.08-0.31,0.12-0.67,0.12-1.02V153.85z"/>
		<path class="st0" d="M633.53,149.85c0-2.39-0.08-4.43-0.16-6.12h5.18l0.28,2.63h0.12c0.79-1.22,2.75-3.06,5.92-3.06
			c3.92,0,6.87,2.59,6.87,8.24v11.38h-5.96v-10.63c0-2.47-0.86-4.16-3.02-4.16c-1.65,0-2.63,1.14-3.02,2.24
			c-0.16,0.35-0.24,0.94-0.24,1.49v11.06h-5.96V149.85z"/>
		<path class="st0" d="M670.92,162.44c-1.06,0.47-3.06,0.86-5.34,0.86c-6.2,0-10.16-3.77-10.16-9.81c0-5.61,3.84-10.2,10.98-10.2
			c1.57,0,3.29,0.28,4.55,0.75l-0.94,4.43c-0.71-0.31-1.77-0.59-3.33-0.59c-3.14,0-5.18,2.24-5.14,5.38c0,3.53,2.35,5.38,5.26,5.38
			c1.41,0,2.51-0.24,3.41-0.59L670.92,162.44z"/>
		<path class="st0" d="M680.37,138.39c0,1.65-1.25,2.98-3.22,2.98c-1.88,0-3.14-1.33-3.1-2.98c-0.04-1.73,1.22-3.02,3.14-3.02
			C679.12,135.37,680.33,136.67,680.37,138.39z M674.21,162.91v-19.18h5.96v19.18H674.21z"/>
		<path class="st0" d="M684.96,149.85c0-2.39-0.08-4.43-0.16-6.12h5.18l0.28,2.63h0.12c0.79-1.22,2.75-3.06,5.92-3.06
			c3.92,0,6.87,2.59,6.87,8.24v11.38h-5.96v-10.63c0-2.47-0.86-4.16-3.02-4.16c-1.65,0-2.63,1.14-3.02,2.24
			c-0.16,0.35-0.24,0.94-0.24,1.49v11.06h-5.96V149.85z"/>
		<path class="st0" d="M726.27,143.73c-0.08,1.22-0.16,2.83-0.16,5.69v10.71c0,3.69-0.75,6.71-2.9,8.63
			c-2.12,1.8-4.98,2.35-7.81,2.35c-2.51,0-5.18-0.51-6.9-1.49l1.18-4.51c1.22,0.71,3.33,1.45,5.57,1.45c2.83,0,4.98-1.53,4.98-5.06
			v-1.25h-0.08c-1.14,1.61-2.98,2.51-5.18,2.51c-4.75,0-8.12-3.84-8.12-9.38c0-6.16,4-10.08,8.71-10.08c2.63,0,4.28,1.14,5.26,2.71
			h0.08l0.2-2.28H726.27z M720.15,151.54c0-0.39-0.04-0.78-0.12-1.1c-0.43-1.57-1.57-2.63-3.22-2.63c-2.16,0-3.92,1.96-3.92,5.45
			c0,2.86,1.41,5.1,3.92,5.1c1.53,0,2.75-1.02,3.14-2.43c0.16-0.43,0.2-1.06,0.2-1.57V151.54z"/>
	</g>
	<g>
		<path class="st0" d="M739.92,139.26l-2.24,2.63l0.02,0.06l3.3-0.66v2.09l-3.32-0.58l-0.02,0.06l2.26,2.55l-1.85,1.08l-1.18-3.21
			l-0.04,0.02l-1.2,3.19l-1.78-1.08l2.22-2.59v-0.04l-3.26,0.6v-2.09l3.21,0.64l0.02-0.04l-2.2-2.61l1.85-1.06l1.16,3.17h0.04
			l1.18-3.17L739.92,139.26z"/>
	</g>
	<g>
		<path class="st0" d="M427.58,120.73v-6.56l5.99-5.42c10.13-9.06,15.05-14.27,15.2-19.69c0-3.78-2.28-6.78-7.63-6.78
			c-4,0-7.49,2-9.92,3.85l-3.07-7.78c3.5-2.64,8.92-4.78,15.2-4.78c10.49,0,16.27,6.14,16.27,14.55c0,7.78-5.64,13.99-12.34,19.98
			l-4.28,3.57v0.14h17.48v8.92H427.58z"/>
		<path class="st0" d="M486.38,120.73v-11.06h-20.55v-7.06l17.55-28.25h13.27v27.18h5.57v8.13h-5.57v11.06H486.38z M486.38,101.53
			V91.26c0-2.78,0.14-5.64,0.36-8.63h-0.29c-1.5,3-2.71,5.71-4.28,8.63l-6.21,10.13v0.14H486.38z"/>
		<path class="st0" d="M563.58,102.32c-0.21-5.78-0.43-12.77-0.43-19.76h-0.21c-1.5,6.14-3.5,12.99-5.35,18.62l-5.85,18.76h-8.49
			l-5.14-18.62c-1.57-5.64-3.21-12.49-4.35-18.76h-0.14c-0.29,6.49-0.5,13.91-0.86,19.91l-0.86,18.27h-10.06l3.07-48.09h14.48
			l4.71,16.05c1.5,5.57,3,11.56,4.07,17.2h0.21c1.36-5.57,3-11.92,4.57-17.27l5.14-15.98h14.2l2.64,48.09H564.3L563.58,102.32z"/>
		<path class="st0" d="M617.6,102.89c0,12.77-9.06,18.62-18.41,18.62c-10.2,0-18.05-6.71-18.05-17.98s7.42-18.48,18.62-18.48
			C610.47,85.05,617.6,92.4,617.6,102.89z M592.34,103.25c0,5.99,2.5,10.49,7.14,10.49c4.21,0,6.92-4.21,6.92-10.49
			c0-5.21-2-10.49-6.92-10.49C594.27,92.76,592.34,98.11,592.34,103.25z"/>
		<path class="st0" d="M624.31,96.97c0-4.35-0.14-8.06-0.29-11.13h9.42l0.5,4.78h0.21c1.43-2.21,5-5.57,10.77-5.57
			c7.13,0,12.49,4.71,12.49,14.98v20.69h-10.85v-19.34c0-4.5-1.57-7.56-5.49-7.56c-3,0-4.78,2.07-5.49,4.07
			c-0.29,0.64-0.43,1.71-0.43,2.71v20.12h-10.84V96.97z"/>
		<path class="st0" d="M677.83,75.85v9.99h7.78v7.99h-7.78v12.63c0,4.21,1,6.14,4.28,6.14c1.36,0,2.43-0.14,3.21-0.29l0.07,8.21
			c-1.43,0.57-4,0.93-7.06,0.93c-3.5,0-6.42-1.21-8.13-3c-2-2.07-3-5.42-3-10.35V93.83h-4.64v-7.99h4.64v-7.56L677.83,75.85z"/>
		<path class="st0" d="M691.89,70.07h10.84v19.91h0.14c1.14-1.5,2.57-2.64,4.28-3.57c1.57-0.86,3.64-1.36,5.64-1.36
			c6.92,0,12.2,4.78,12.2,15.27v20.41h-10.85v-19.19c0-4.57-1.57-7.71-5.64-7.71c-2.85,0-4.64,1.86-5.42,3.78
			c-0.29,0.71-0.36,1.64-0.36,2.43v20.69h-10.84V70.07z"/>
	</g>
</g>
<g>
</g>
<g>
</g>
<g>
</g>
<g>
</g>
<g>
</g>
<g>
</g>
<g>
</g>
<g>
</g>
<g>
</g>
<g>
</g>
<g>
</g>
<g>
</g>
<g>
</g>
<g>
</g>
<g>
</g>
</svg>
