<svg version="1.1" id="el_cBxowbG6d" xmlns="http://www.w3.org/2000/svg" xmlns:xlink="http://www.w3.org/1999/xlink" x="0px" y="0px" viewBox="0 0 557 553" style="enable-background:new 0 0 557.4 553.8;" xml:space="preserve"><style>@-webkit-keyframes kf_el_bpSbEfCAr9_an__aLM7hfBH{0%{-webkit-transform: translate(278.70001220703125px, 276.8999938964844px) scale(0.98, 0.98) translate(-278.70001220703125px, -276.8999938964844px);transform: translate(278.70001220703125px, 276.8999938964844px) scale(0.98, 0.98) translate(-278.70001220703125px, -276.8999938964844px);}50%{-webkit-transform: translate(278.70001220703125px, 276.8999938964844px) scale(1.1, 1.1) translate(-278.70001220703125px, -276.8999938964844px);transform: translate(278.70001220703125px, 276.8999938964844px) scale(1.1, 1.1) translate(-278.70001220703125px, -276.8999938964844px);}100%{-webkit-transform: translate(278.70001220703125px, 276.8999938964844px) scale(0.98, 0.98) translate(-278.70001220703125px, -276.8999938964844px);transform: translate(278.70001220703125px, 276.8999938964844px) scale(0.98, 0.98) translate(-278.70001220703125px, -276.8999938964844px);}}@keyframes kf_el_bpSbEfCAr9_an__aLM7hfBH{0%{-webkit-transform: translate(278.70001220703125px, 276.8999938964844px) scale(0.98, 0.98) translate(-278.70001220703125px, -276.8999938964844px);transform: translate(278.70001220703125px, 276.8999938964844px) scale(0.98, 0.98) translate(-278.70001220703125px, -276.8999938964844px);}50%{-webkit-transform: translate(278.70001220703125px, 276.8999938964844px) scale(1.1, 1.1) translate(-278.70001220703125px, -276.8999938964844px);transform: translate(278.70001220703125px, 276.8999938964844px) scale(1.1, 1.1) translate(-278.70001220703125px, -276.8999938964844px);}100%{-webkit-transform: translate(278.70001220703125px, 276.8999938964844px) scale(0.98, 0.98) translate(-278.70001220703125px, -276.8999938964844px);transform: translate(278.70001220703125px, 276.8999938964844px) scale(0.98, 0.98) translate(-278.70001220703125px, -276.8999938964844px);}}#el_cBxowbG6d *{-webkit-animation-duration: 2s;animation-duration: 2s;-webkit-animation-iteration-count: infinite;animation-iteration-count: infinite;-webkit-animation-timing-function: cubic-bezier(0, 0, 1, 1);animation-timing-function: cubic-bezier(0, 0, 1, 1);}#el_r2Vj_bAnZp{fill: none;}#el_1wm6MeF3cu{fill: #184891;}#el_4XqchpvHln{fill: #184891;}#el_h70waPvMGd{fill: #184891;}#el_5fS9n6Z8ZD{fill: none;}#el_bpSbEfCAr9{fill: none;stroke: #D72027;stroke-width: 20;stroke-miterlimit: 10;}#el_bpSbEfCAr9_an_Hc2Gd3OAk{-webkit-transform: translate(278.70001220703125px, 276.8999938964844px) scale(1, 1) translate(-278.70001220703125px, -276.8999938964844px);transform: translate(278.70001220703125px, 276.8999938964844px) scale(1, 1) translate(-278.70001220703125px, -276.8999938964844px);}#el_bpSbEfCAr9_an__aLM7hfBH{-webkit-animation-fill-mode: backwards;animation-fill-mode: backwards;-webkit-transform: translate(278.70001220703125px, 276.8999938964844px) scale(0.98, 0.98) translate(-278.70001220703125px, -276.8999938964844px);transform: translate(278.70001220703125px, 276.8999938964844px) scale(0.98, 0.98) translate(-278.70001220703125px, -276.8999938964844px);-webkit-animation-name: kf_el_bpSbEfCAr9_an__aLM7hfBH;animation-name: kf_el_bpSbEfCAr9_an__aLM7hfBH;-webkit-animation-timing-function: cubic-bezier(0.42, 0, 0.58, 1);animation-timing-function: cubic-bezier(0.42, 0, 0.58, 1);}</style>

<title>Asset 1</title>
<g id="el_EmvVrB4Mq-">
	<g id="el_0VKZ9BPgB_">
		<path d="M378.3,218.8c0-14-9.8-31.9-32.8-31.9h-63l-37.2,89.4h69.1C365.4,276.3,378.3,232.9,378.3,218.8z" id="el_r2Vj_bAnZp"/>
		<path d="M295.2,406.1l-20.9-76.6c-1.7-5.1-7.2-11.1-13.6-11.1h-12.8l-40.9,97.5h-63.1l84.4-211.1H75.8&#10;&#9;&#9;&#9;c-8.3,23.1-12.5,47.5-12.4,72.1c0,118.1,95.9,213.9,214.2,213.9c62.6,0.1,122.1-27.2,162.8-74.8H305.8&#10;&#9;&#9;&#9;C300.3,415.9,296.8,411.7,295.2,406.1z" id="el_1wm6MeF3cu"/>
		<path d="M277.6,63c-66.9-0.1-130,31.1-170.5,84.3h252.3c53.7,0,61.4,54.9,61.4,72.8c0,18.3-11.5,78.8-90.4,92.8&#10;&#9;&#9;&#9;l13.6,51.1h129.2c12.2-27.4,18.5-57.1,18.5-87.1C491.8,158.8,395.9,63,277.6,63z" id="el_4XqchpvHln"/>
		<path d="M355.7,224.4c0-6.4-6.8-19.6-23.9-19.6h-40.1l-23.9,57.9h44.8C344.2,262.7,355.7,230.8,355.7,224.4z" id="el_h70waPvMGd"/>
		<path d="M494,277.1c0,118-95.6,213.6-213.6,213.7c0,0-0.1,0-0.1,0c-118,0-213.7-95.6-213.7-213.7&#10;&#9;&#9;&#9;c0-118,95.6-213.6,213.5-213.7c0,0,0.1,0,0.1,0C398.3,63.5,494,159.1,494,277.1z" id="el_5fS9n6Z8ZD"/>
	</g>
</g>
<g id="el_bpSbEfCAr9_an__aLM7hfBH" data-animator-group="true" data-animator-type="2"><circle cx="278.7" cy="276.9" r="241" id="el_bpSbEfCAr9"/></g>
</svg>